<svg width="14" height="14" viewBox="0 0 14 14" fill="none" xmlns="http://www.w3.org/2000/svg">
<path d="M6.66667 13.3333C10.3486 13.3333 13.3333 10.3486 13.3333 6.66667C13.3333 2.98477 10.3486 0 6.66667 0C2.98477 0 0 2.98477 0 6.66667C0 10.3486 2.98477 13.3333 6.66667 13.3333Z" fill="white"/>
<path d="M9.33333 6.16667H7.16667V4C7.16667 3.86739 7.11399 3.74021 7.02022 3.64645C6.92645 3.55268 6.79927 3.5 6.66667 3.5C6.53406 3.5 6.40688 3.55268 6.31311 3.64645C6.21935 3.74021 6.16667 3.86739 6.16667 4V6.16667H4C3.86739 6.16667 3.74021 6.21935 3.64645 6.31311C3.55268 6.40688 3.5 6.53406 3.5 6.66667C3.5 6.79927 3.55268 6.92645 3.64645 7.02022C3.74021 7.11399 3.86739 7.16667 4 7.16667H6.16667V9.33333C6.16667 9.46594 6.21935 9.59312 6.31311 9.68689C6.40688 9.78066 6.53406 9.83333 6.66667 9.83333C6.79927 9.83333 6.92645 9.78066 7.02022 9.68689C7.11399 9.59312 7.16667 9.46594 7.16667 9.33333V7.16667H9.33333C9.46594 7.16667 9.59312 7.11399 9.68689 7.02022C9.78066 6.92645 9.83333 6.79927 9.83333 6.66667C9.83333 6.53406 9.78066 6.40688 9.68689 6.31311C9.59312 6.21935 9.46594 6.16667 9.33333 6.16667Z" fill="#1A73E8"/>
</svg>
