<svg width="19" height="19" viewBox="0 0 19 19" fill="none" xmlns="http://www.w3.org/2000/svg">
<g clip-path="url(#clip0_25738_1797)">
<path d="M16.8104 14.5525C16.5356 15.1872 16.2104 15.7715 15.8336 16.3086C15.32 17.0409 14.8995 17.5478 14.5754 17.8293C14.073 18.2913 13.5347 18.5279 12.9583 18.5414C12.5445 18.5414 12.0455 18.4236 11.4646 18.1847C10.8818 17.947 10.3462 17.8293 9.85648 17.8293C9.34287 17.8293 8.79203 17.947 8.20284 18.1847C7.61275 18.4236 7.13739 18.5481 6.77394 18.5604C6.22119 18.584 5.67024 18.3406 5.1203 17.8293C4.7693 17.5231 4.33026 16.9983 3.80432 16.2548C3.24003 15.4608 2.7761 14.5401 2.41265 13.4905C2.0234 12.3568 1.82828 11.2589 1.82828 10.196C1.82828 8.9785 2.09136 7.92841 2.61831 7.04844C3.03245 6.34161 3.5834 5.78404 4.27296 5.37473C4.96252 4.96541 5.70759 4.75683 6.50996 4.74349C6.94899 4.74349 7.52472 4.87929 8.24019 5.14618C8.95363 5.41398 9.41173 5.54978 9.61257 5.54978C9.76273 5.54978 10.2716 5.39099 11.1343 5.07441C11.9502 4.78083 12.6387 4.65927 13.2028 4.70715C14.7313 4.83051 15.8796 5.43304 16.6433 6.51857C15.2763 7.34685 14.6001 8.50695 14.6135 9.99517C14.6259 11.1544 15.0464 12.119 15.8729 12.8849C16.2474 13.2404 16.6657 13.5152 17.1311 13.7103C17.0302 14.003 16.9236 14.2833 16.8104 14.5525ZM13.3048 0.757984C13.3048 1.66656 12.9729 2.5149 12.3113 3.30011C11.5128 4.23358 10.547 4.77298 9.49976 4.68786C9.48641 4.57886 9.47868 4.46414 9.47868 4.34359C9.47868 3.47135 9.85839 2.53789 10.5327 1.77466C10.8693 1.38822 11.2975 1.0669 11.8167 0.810577C12.3348 0.55808 12.8249 0.418443 13.2858 0.394531C13.2992 0.515994 13.3048 0.637465 13.3048 0.757972V0.757984Z" fill="#D7D7D7"/>
</g>
<defs>
<clipPath id="clip0_25738_1797">
<rect width="18.9573" height="18.9573" fill="white"/>
</clipPath>
</defs>
</svg>
