<svg width="14" height="14" viewBox="0 0 14 14" fill="none" xmlns="http://www.w3.org/2000/svg">
<path d="M12.6875 10.6063H1.3125C1.19647 10.6063 1.08519 10.6524 1.00314 10.7344C0.921094 10.8165 0.875 10.9278 0.875 11.0438C0.875 11.1598 0.921094 11.2711 1.00314 11.3532C1.08519 11.4352 1.19647 11.4813 1.3125 11.4813H12.6875C12.8035 11.4813 12.9148 11.4352 12.9969 11.3532C13.0789 11.2711 13.125 11.1598 13.125 11.0438C13.125 10.9278 13.0789 10.8165 12.9969 10.7344C12.9148 10.6524 12.8035 10.6063 12.6875 10.6063ZM12.5125 2.51999C12.6517 2.51999 12.7853 2.5753 12.8837 2.67376C12.9822 2.77221 13.0375 2.90575 13.0375 3.04499V4.83436C13.0375 5.07499 12.8406 5.27186 12.6 5.27186C12.3594 5.27186 12.1625 5.07499 12.1625 4.83436V4.01186L8.88562 7.28436C8.63953 7.53015 8.30594 7.66821 7.95813 7.66821C7.61031 7.66821 7.27672 7.53015 7.03062 7.28436L5.6875 5.94124C5.51687 5.77061 5.24125 5.77061 5.06625 5.94124L1.71063 9.30124C1.67015 9.3418 1.62207 9.37397 1.56915 9.39593C1.51622 9.41788 1.45949 9.42918 1.40219 9.42918C1.34489 9.42918 1.28815 9.41788 1.23523 9.39593C1.1823 9.37397 1.13422 9.3418 1.09375 9.30124C1.05223 9.26131 1.01919 9.21342 0.996625 9.16042C0.974059 9.10742 0.962427 9.05041 0.962427 8.9928C0.962427 8.9352 0.974059 8.87819 0.996625 8.82519C1.01919 8.77219 1.05223 8.72429 1.09375 8.68436L4.44938 5.32436C4.69547 5.07858 5.02906 4.94052 5.37687 4.94052C5.72469 4.94052 6.05828 5.07858 6.30437 5.32436L7.65231 6.66793C7.73415 6.74954 7.84504 6.79533 7.96062 6.79525C8.0762 6.79517 8.18702 6.74922 8.26875 6.66749L11.5412 3.39499H10.7231C10.4781 3.39499 10.2856 3.19811 10.2856 2.95749C10.2856 2.71249 10.4781 2.51999 10.7231 2.51999H12.5125Z" fill="white"/>
</svg>
