<svg width="16" height="16" viewBox="0 0 16 16" fill="none" xmlns="http://www.w3.org/2000/svg">
<g clip-path="url(#clip0_25922_863)">
<path d="M11.9925 9.40373C11.9664 9.4636 11.9233 9.51451 11.8686 9.5502C11.8139 9.58588 11.7499 9.60477 11.6846 9.60455C11.6189 9.60449 11.5547 9.5851 11.4999 9.5488C11.4452 9.51249 11.4023 9.46088 11.3767 9.40038L10.7742 7.98124L9.9475 11.5759C9.93079 11.647 9.89134 11.7106 9.83514 11.7571C9.77896 11.8036 9.7091 11.8305 9.63622 11.8337C9.5624 11.837 9.48952 11.8159 9.42898 11.7735C9.36843 11.7311 9.32362 11.6699 9.30152 11.5994L7.42385 5.70862L6.41974 9.59785C6.40291 9.66447 6.36599 9.72429 6.31399 9.76919C6.26198 9.8141 6.19742 9.84191 6.12907 9.84886C6.06071 9.8558 5.99187 9.84154 5.9319 9.80802C5.87193 9.77449 5.82373 9.72331 5.79385 9.66145L4.85334 7.73022H0.836914C1.93808 9.51752 3.84923 10.9367 5.48592 12.6236C6.92514 14.0896 7.99953 15.2811 7.99953 15.2811C7.99953 15.2811 9.07393 14.0896 10.4897 12.6336C12.277 10.7894 14.3923 9.2665 15.4232 7.23486H12.9364L11.9925 9.40373Z" fill="#ED1B24"/>
<path d="M11.728 0.721565C8.88307 0.621154 7.99946 3.36236 7.99946 3.36236C7.99946 3.36236 7.11585 0.621154 4.27088 0.724912C1.42592 0.828669 -0.528738 3.56318 0.127277 6.08014C0.218657 6.42552 0.34191 6.76166 0.495449 7.08425H5.07417C5.1369 7.08412 5.1984 7.10163 5.25166 7.13477C5.30492 7.16791 5.3478 7.21535 5.3754 7.27168L5.99125 8.55359L7.04891 4.41667C7.06694 4.34645 7.10728 4.28398 7.16386 4.23865C7.22045 4.19333 7.29022 4.1676 7.36268 4.16533C7.43515 4.16307 7.50639 4.18439 7.56569 4.2261C7.625 4.2678 7.66916 4.32763 7.69154 4.39659L9.55248 10.2338L10.3424 6.82318C10.3576 6.75364 10.3947 6.69077 10.4481 6.64371C10.5015 6.59666 10.5686 6.56787 10.6395 6.56152C10.7104 6.55518 10.7815 6.57161 10.8424 6.60843C10.9033 6.64526 10.951 6.70055 10.9783 6.76628L11.6812 8.42305L12.4008 6.76628C12.4269 6.70641 12.47 6.65549 12.5247 6.61981C12.5794 6.58412 12.6434 6.56523 12.7087 6.56546H15.721C15.7813 6.4048 15.8315 6.23076 15.875 6.06675C16.5243 3.55984 14.5697 0.825322 11.728 0.721565Z" fill="#ED1B24"/>
</g>
<defs>
<clipPath id="clip0_25922_863">
<rect width="16" height="16" fill="white"/>
</clipPath>
</defs>
</svg>
