<svg width="16" height="16" viewBox="0 0 16 16" fill="none" xmlns="http://www.w3.org/2000/svg">
<g clip-path="url(#clip0_25922_690)">
<path d="M11.876 7.53289L12.9886 8.0517L14.5403 5.49764C14.7767 5.10842 14.6227 4.60007 14.2099 4.4076L13.8824 4.25492C13.4697 4.06245 12.9813 4.2712 12.8351 4.70251L11.876 7.53289Z" fill="url(#paint0_linear_25922_690)"/>
<path d="M14.5403 5.49766L12.9886 8.05173L11.876 7.53292L12.8351 4.70254C12.8575 4.63612 12.889 4.57311 12.9286 4.51526L14.6212 5.31392C14.6024 5.37844 14.5752 5.44022 14.5403 5.49766Z" fill="url(#paint1_linear_25922_690)"/>
<path d="M7.07031 3.8858C7.07031 4.36427 7.19684 4.81305 7.41822 5.20071C7.81263 5.89136 8.82056 5.89136 9.21497 5.20071C9.43634 4.81305 9.56288 4.36424 9.56288 3.8858C9.56288 3.05461 9.181 2.31296 8.58338 1.82574C8.42888 1.69977 8.20431 1.69977 8.04978 1.82574C7.45219 2.31296 7.07031 3.05461 7.07031 3.8858Z" fill="url(#paint2_linear_25922_690)"/>
<path d="M9.21576 5.2007C9.43713 4.81304 9.56366 4.36423 9.56366 3.88579C9.56366 3.05461 9.18179 2.31295 8.58416 1.82573C8.50878 1.76444 8.41454 1.73106 8.31738 1.73126V5.7187C8.66798 5.7187 9.01857 5.54604 9.21576 5.2007Z" fill="url(#paint3_linear_25922_690)"/>
<path d="M9.56288 3.88727L9.56291 3.8858C9.56291 3.05461 9.18103 2.31296 8.58341 1.82574C8.42887 1.69977 8.20434 1.69977 8.04981 1.82574C7.45219 2.31296 7.07031 3.05461 7.07031 3.8858L7.07034 3.88727L8.31663 5.13355L9.56288 3.88727Z" fill="url(#paint4_linear_25922_690)"/>
<path d="M8.31734 3.72502L9.30359 2.73877C9.13379 2.38526 8.88813 2.07354 8.58412 1.8258C8.42959 1.69983 8.20505 1.69983 8.05052 1.8258C7.74652 2.07355 7.50086 2.38527 7.33105 2.73877L8.31734 3.72502Z" fill="url(#paint5_linear_25922_690)"/>
<path d="M9.27897 3.80681C8.88372 4.07644 8.58431 4.43391 8.38881 4.83525C8.04053 5.55031 8.60856 6.38294 9.40137 6.3195C9.84637 6.28391 10.2884 6.1355 10.6837 5.86588C11.3703 5.39744 11.7677 4.66403 11.8334 3.89578C11.8504 3.69716 11.7238 3.51166 11.5327 3.455C10.7935 3.23588 9.96559 3.33838 9.27897 3.80681Z" fill="url(#paint6_linear_25922_690)"/>
<path d="M9.40199 6.31948C9.84699 6.28388 10.289 6.13551 10.6843 5.86585C11.3709 5.39744 11.7684 4.66401 11.834 3.89576C11.8422 3.79894 11.8166 3.70228 11.7617 3.62213L8.46777 5.86929C8.66537 6.15888 9.00559 6.35119 9.40199 6.31948Z" fill="url(#paint7_linear_25922_690)"/>
<path d="M10.683 5.86668L10.6843 5.86587C11.3709 5.39746 11.7684 4.66403 11.834 3.89578C11.851 3.69715 11.7245 3.51162 11.5333 3.455C10.794 3.23587 9.96614 3.3384 9.27955 3.80681L9.27833 3.80765L8.95117 5.53953L10.683 5.86668Z" fill="url(#paint8_linear_25922_690)"/>
<path d="M10.1143 4.74569L11.4848 5.0046C11.6811 4.6651 11.8002 4.28651 11.8335 3.89575C11.8505 3.69713 11.7239 3.5116 11.5328 3.45497C11.1568 3.34346 10.7609 3.31621 10.3731 3.37516L10.1143 4.74569Z" fill="url(#paint9_linear_25922_690)"/>
<path d="M9.88403 6.72198C10.4866 6.72198 10.9751 6.2335 10.9751 5.63092C10.9751 5.02834 10.4866 4.53986 9.88403 4.53986C9.28145 4.53986 8.79297 5.02834 8.79297 5.63092C8.79297 6.2335 9.28145 6.72198 9.88403 6.72198Z" fill="url(#paint10_linear_25922_690)"/>
<path d="M8.79297 5.6309C8.79297 6.23346 9.28144 6.72196 9.88403 6.72196C10.4866 6.72196 10.9751 6.23346 10.9751 5.6309C10.9751 5.5004 10.9521 5.37528 10.9101 5.25928H8.85797C8.81486 5.37843 8.79286 5.50419 8.79297 5.6309Z" fill="url(#paint11_linear_25922_690)"/>
<path d="M9.1133 6.40245C9.53939 6.82855 10.2302 6.82855 10.6563 6.40245C11.0824 5.97636 11.0824 5.28555 10.6563 4.85945C10.5668 4.76977 10.4623 4.69639 10.3475 4.64264L8.89648 6.0937C8.95025 6.20845 9.02362 6.31293 9.1133 6.40245Z" fill="url(#paint12_linear_25922_690)"/>
<path d="M5.7183 2.90721C5.58748 2.98247 5.47861 3.09064 5.40252 3.22099C5.27131 3.4458 5.43624 3.73149 5.69655 3.73027C5.84748 3.72956 5.99559 3.68938 6.12618 3.61371C6.36177 3.47768 6.50949 3.24809 6.54981 2.99896C6.55477 2.96756 6.54881 2.93541 6.53291 2.90788C6.51702 2.88036 6.49216 2.85911 6.46249 2.84771C6.22659 2.75809 5.9539 2.77121 5.7183 2.90721Z" fill="url(#paint13_linear_25922_690)"/>
<path d="M5.69619 3.7303C5.84711 3.72959 5.99522 3.6894 6.12581 3.61374C6.36141 3.47771 6.50912 3.24812 6.54944 2.99899C6.55448 2.96759 6.54852 2.93541 6.53256 2.9079L5.40234 3.56043C5.45972 3.6598 5.56603 3.7309 5.69619 3.7303Z" fill="url(#paint14_linear_25922_690)"/>
<path d="M6.12552 3.61398L6.12595 3.61373C6.36155 3.4777 6.50927 3.24811 6.54958 2.99898C6.55455 2.96759 6.5486 2.93543 6.5327 2.9079C6.51681 2.88037 6.49194 2.85913 6.46227 2.84773C6.22636 2.75808 5.95367 2.7712 5.71808 2.90723L5.71767 2.90748L5.56836 3.46467L6.12552 3.61398Z" fill="url(#paint15_linear_25922_690)"/>
<path d="M5.96777 3.23418L6.40871 3.35234C6.48112 3.24635 6.52927 3.12571 6.54974 2.999C6.55472 2.9676 6.54876 2.93544 6.53287 2.90791C6.51697 2.88038 6.49211 2.85914 6.46243 2.84775C6.34246 2.80212 6.21391 2.7835 6.08593 2.79321L5.96777 3.23418Z" fill="url(#paint16_linear_25922_690)"/>
<path d="M4.70155 3.92393C4.7768 3.7931 4.88498 3.68424 5.01533 3.60815C5.24014 3.47693 5.52583 3.64187 5.52461 3.90218C5.5239 4.05311 5.48371 4.20122 5.40805 4.33181C5.27201 4.5674 5.04242 4.71512 4.7933 4.75543C4.7619 4.7604 4.72975 4.75443 4.70222 4.73854C4.67469 4.72265 4.65345 4.69779 4.64205 4.66812C4.55239 4.43225 4.56551 4.15953 4.70155 3.92393Z" fill="url(#paint17_linear_25922_690)"/>
<path d="M5.52455 3.90218C5.52384 4.05311 5.48366 4.20122 5.40799 4.33181C5.27196 4.5674 5.04237 4.71512 4.79324 4.75543C4.76184 4.76047 4.72966 4.75451 4.70215 4.73856L5.35468 3.60834C5.45406 3.66571 5.52518 3.77202 5.52455 3.90218Z" fill="url(#paint18_linear_25922_690)"/>
<path d="M5.4083 4.33145L5.40804 4.33189C5.27201 4.56748 5.04242 4.7152 4.7933 4.75551C4.7619 4.76049 4.72974 4.75453 4.70221 4.73864C4.67468 4.72274 4.65344 4.69788 4.64205 4.6682C4.55239 4.43229 4.56551 4.1596 4.70155 3.92401L4.7018 3.9236L5.25898 3.77429L5.4083 4.33145Z" fill="url(#paint19_linear_25922_690)"/>
<path d="M5.02843 4.17346L5.14659 4.6144C5.04061 4.68681 4.91996 4.73496 4.79325 4.75543C4.76185 4.76041 4.72969 4.75445 4.70216 4.73856C4.67463 4.72266 4.65339 4.6978 4.642 4.66812C4.59637 4.54815 4.57775 4.4196 4.58746 4.29162L5.02843 4.17346Z" fill="url(#paint20_linear_25922_690)"/>
<path d="M4.86493 4.32021C5.0993 3.85278 5.64724 3.30484 6.11465 3.07049C6.65452 2.79981 7.30918 2.95134 7.67796 3.42965C7.87659 3.68728 8.04634 3.99287 8.0584 4.29446C8.08362 4.92521 8.48027 5.38974 8.34374 6.02721C8.31639 6.15535 8.25253 6.27283 8.15988 6.36548C8.06723 6.45813 7.94975 6.52198 7.82162 6.54934C7.18415 6.68587 6.71962 6.28921 6.08887 6.26399C5.7873 6.25193 5.48168 6.08218 5.22405 5.88356C4.74577 5.51474 4.59424 4.86009 4.86493 4.32021Z" fill="url(#paint21_linear_25922_690)"/>
<path d="M4.94898 4.22606C5.0122 4.09012 5.10605 3.94775 5.21814 3.81112C5.25002 3.77228 5.23264 3.71293 5.18448 3.69859L5.18355 3.69831C5.1053 3.67512 5.04414 3.61387 5.01948 3.53609C4.98298 3.42093 5.08105 3.30678 5.20011 3.32734C5.26161 3.33796 5.32239 3.3565 5.37933 3.37853C5.43549 3.40033 5.49622 3.4077 5.55597 3.39995C5.61571 3.3922 5.67256 3.36959 5.7213 3.33418C5.8213 3.26156 5.92252 3.20015 6.02042 3.15465C6.49477 2.93406 7.09039 3.09834 7.44267 3.5445C7.63242 3.78481 7.7982 4.06709 7.82189 4.339C7.87148 4.90772 8.24823 5.34265 8.15255 5.91056C8.13358 6.0224 8.08031 6.12558 8.00009 6.20579C7.91988 6.286 7.8167 6.33928 7.70486 6.35825C7.13698 6.45393 6.70205 6.07718 6.1333 6.02759C5.86139 6.00387 5.57911 5.83809 5.3388 5.64837C4.89264 5.29603 4.72836 4.7004 4.94898 4.22606Z" fill="url(#paint22_linear_25922_690)"/>
<path d="M6.13281 6.02758C5.86091 6.00386 5.57863 5.83808 5.33831 5.64836C5.24403 5.57396 5.16042 5.48695 5.08984 5.38977L5.43262 4.69396C5.50072 4.81339 5.595 4.92777 5.71047 5.02477C5.87719 5.16486 6.06772 5.29405 6.23859 5.33421C6.59594 5.41811 6.90084 5.69243 7.24406 5.68608C7.38522 5.68349 7.47734 5.59136 7.47984 5.4503C7.48619 5.10708 7.21191 4.80218 7.12797 4.44483C7.08781 4.27396 6.95866 4.08343 6.81856 3.91671C6.72156 3.80124 6.60719 3.70693 6.48775 3.63886L7.18356 3.29608C7.28074 3.36666 7.36776 3.45026 7.44216 3.54455C7.63191 3.78486 7.79769 4.06714 7.82137 4.33905C7.87097 4.90777 8.24772 5.34271 8.15203 5.91061C8.13307 6.02246 8.07979 6.12563 7.99958 6.20585C7.91936 6.28606 7.81619 6.33934 7.70434 6.3583C7.13647 6.45393 6.70153 6.07714 6.13281 6.02758Z" fill="url(#paint23_linear_25922_690)"/>
<path d="M7.41074 6.36853C6.97677 6.32912 6.60009 6.06824 6.13334 6.02753C5.90309 6.00746 5.66549 5.88537 5.45215 5.73324L5.77549 5.07731C5.92574 5.19612 6.08993 5.29906 6.23912 5.33412C6.59646 5.41803 6.90137 5.69234 7.24459 5.68599C7.38574 5.6834 7.47787 5.59128 7.48037 5.45021C7.48671 5.10699 7.21243 4.80209 7.12849 4.44474C7.09343 4.29556 6.99049 4.13137 6.87168 3.98112L7.52765 3.65778C7.67977 3.87112 7.80184 4.10871 7.82193 4.33896C7.86262 4.80571 8.12349 5.1824 8.16293 5.61637L7.91459 6.12015L7.41074 6.36853Z" fill="url(#paint24_linear_25922_690)"/>
<path d="M6.13345 6.02755C6.05748 6.02093 5.98073 6.0029 5.9043 5.97668L6.17517 5.31533C6.19677 5.32283 6.21814 5.32918 6.2392 5.33411C6.59655 5.41802 6.90145 5.69233 7.24467 5.68599C7.38583 5.6834 7.47795 5.59127 7.48045 5.45021C7.4868 5.10699 7.21252 4.80208 7.12858 4.44474C7.12343 4.42307 7.11716 4.40169 7.1098 4.38068L7.77114 4.1098C7.79736 4.18624 7.81539 4.26299 7.82202 4.33896C7.87161 4.90768 8.24836 5.34261 8.15267 5.91052C8.13371 6.02236 8.08043 6.12554 8.00022 6.20575C7.92 6.28597 7.81683 6.33925 7.70498 6.35821C7.13711 6.4539 6.70217 6.07711 6.13345 6.02755Z" fill="url(#paint25_linear_25922_690)"/>
<path d="M6.39648 6.07317L6.50867 5.43007C6.75736 5.54185 6.9903 5.6907 7.24417 5.68598C7.38533 5.68338 7.47745 5.59126 7.47995 5.4502C7.48464 5.19632 7.33583 4.96335 7.22405 4.71467L7.86717 4.60248C7.97955 5.0501 8.23258 5.43338 8.15217 5.91051C8.13321 6.02235 8.07993 6.12553 7.99972 6.20574C7.9195 6.28596 7.81633 6.33923 7.70448 6.3582C7.22739 6.43857 6.84408 6.18554 6.39648 6.07317Z" fill="url(#paint26_linear_25922_690)"/>
<path d="M6.92578 5.62188C7.03022 5.66157 7.13563 5.68804 7.24491 5.68604C7.38606 5.68345 7.47819 5.59132 7.48069 5.45026C7.48272 5.34098 7.45622 5.23557 7.41653 5.1311L8.06944 5.2051C8.144 5.42957 8.19566 5.65679 8.15291 5.91054C8.13394 6.02238 8.08066 6.12556 8.00045 6.20577C7.92024 6.28599 7.81706 6.33927 7.70522 6.35823C7.45147 6.40098 7.22425 6.34932 6.99978 6.27476L6.92578 5.62188Z" fill="url(#paint27_linear_25922_690)"/>
<path d="M5.20002 3.32733C5.26152 3.33796 5.3223 3.35649 5.37924 3.37852C5.4354 3.40033 5.49613 3.40769 5.55588 3.39995C5.61562 3.3922 5.67247 3.36959 5.72121 3.33418C5.82121 3.26155 5.92246 3.20015 6.02034 3.15465C6.36659 2.99362 6.77734 3.03787 7.11102 3.24693L5.04118 5.31677C4.83212 4.98312 4.78787 4.57233 4.9489 4.22608C5.01212 4.09015 5.10596 3.94777 5.21805 3.81115C5.24993 3.7723 5.23255 3.71296 5.1844 3.69862L5.18346 3.69833C5.10521 3.67515 5.04405 3.6139 5.0194 3.53612C4.9829 3.4209 5.08099 3.30674 5.20002 3.32733Z" fill="url(#paint28_linear_25922_690)"/>
<path d="M5.71059 5.02471C5.87731 5.16481 6.06784 5.29399 6.23872 5.33415C6.59606 5.41806 6.90097 5.69237 7.24419 5.68603C7.38534 5.68343 7.47747 5.59131 7.47997 5.45024C7.48631 5.10703 7.21203 4.80212 7.12809 4.44478C7.08794 4.2739 6.95878 4.08337 6.81866 3.91665C6.55856 3.60699 6.17372 3.44946 5.90022 3.54193C5.89619 3.54328 5.89219 3.54468 5.88816 3.54615C5.82566 3.56871 5.80662 3.64718 5.85134 3.69631L5.85222 3.69728C5.93753 3.79118 6.02094 3.89468 6.06125 3.97756C6.14569 4.15103 6.30981 4.32521 6.35137 4.48062C6.36844 4.54443 6.33844 4.57443 6.27456 4.55743C6.11916 4.51587 5.94497 4.35174 5.7715 4.26731C5.68862 4.22703 5.58519 4.14353 5.49122 4.05828L5.49025 4.0574C5.44112 4.01271 5.36272 4.03168 5.34012 4.09412C5.33866 4.09818 5.33725 4.10221 5.33587 4.10624C5.24341 4.37978 5.40097 4.76462 5.71059 5.02471Z" fill="url(#paint29_linear_25922_690)"/>
<path d="M5.71059 5.02471C5.87731 5.16481 6.06784 5.29399 6.23872 5.33415C6.59606 5.41806 6.90097 5.69237 7.24419 5.68603C7.38534 5.68343 7.47747 5.59131 7.47997 5.45024C7.48631 5.10703 7.21203 4.80212 7.12809 4.44478C7.08794 4.2739 6.95878 4.08337 6.81866 3.91665C6.55856 3.60699 6.17372 3.44946 5.90022 3.54193C5.89619 3.54328 5.89219 3.54468 5.88816 3.54615C5.82566 3.56871 5.80662 3.64718 5.85134 3.69631L5.85222 3.69728C5.93753 3.79118 6.02094 3.89468 6.06125 3.97756C6.14569 4.15103 6.30981 4.32521 6.35137 4.48062C6.36844 4.54443 6.33844 4.57443 6.27456 4.55743C6.11916 4.51587 5.94497 4.35174 5.7715 4.26731C5.68862 4.22703 5.58519 4.14353 5.49122 4.05828L5.49025 4.0574C5.44112 4.01271 5.36272 4.03168 5.34012 4.09412C5.33866 4.09818 5.33725 4.10221 5.33587 4.10624C5.24341 4.37978 5.40097 4.76462 5.71059 5.02471Z" fill="url(#paint30_linear_25922_690)"/>
<path d="M7.64945 3.39398C7.65916 3.4057 7.66873 3.41754 7.67807 3.42967C7.8767 3.68729 8.04645 3.99289 8.05851 4.29448C8.08373 4.92523 8.48038 5.38976 8.34385 6.02723C8.3165 6.15537 8.25264 6.27285 8.15999 6.3655C8.06734 6.45815 7.94986 6.522 7.82173 6.54936C7.18426 6.68589 6.71973 6.28923 6.08898 6.26401C5.78741 6.25195 5.48179 6.0822 5.22416 5.88358C5.2121 5.87425 5.2002 5.8647 5.18848 5.85495L7.64945 3.39398Z" fill="url(#paint31_linear_25922_690)"/>
<path d="M4.86493 4.32022C5.03677 3.97747 5.37724 3.5916 5.73093 3.31763L8.35849 5.94519C8.35445 5.97266 8.34952 6 8.34371 6.02716C8.31636 6.15529 8.2525 6.27278 8.15985 6.36542C8.0672 6.45807 7.94972 6.52193 7.82159 6.54928C7.18412 6.68581 6.71959 6.28916 6.08884 6.26394C5.78727 6.25188 5.48165 6.08213 5.22402 5.8835C4.74577 5.51475 4.59424 4.8601 4.86493 4.32022Z" fill="url(#paint32_linear_25922_690)"/>
<path d="M8.14673 7.14892C8.7493 7.14892 9.23779 6.66044 9.23779 6.05786C9.23779 5.45528 8.7493 4.9668 8.14673 4.9668C7.54415 4.9668 7.05566 5.45528 7.05566 6.05786C7.05566 6.66044 7.54415 7.14892 8.14673 7.14892Z" fill="url(#paint33_linear_25922_690)"/>
<path d="M7.05566 6.05784C7.05566 6.66041 7.54413 7.14891 8.14673 7.14891C8.74929 7.14891 9.23779 6.66041 9.23779 6.05784C9.23779 5.92734 9.21479 5.80222 9.17279 5.68622H7.1207C7.07756 5.80537 7.05555 5.93113 7.05566 6.05784Z" fill="url(#paint34_linear_25922_690)"/>
<path d="M7.37502 6.82939C7.80111 7.25549 8.49192 7.25549 8.91802 6.82939C9.34411 6.4033 9.34411 5.71249 8.91802 5.28639C8.8285 5.19671 8.72401 5.12333 8.60927 5.06958L7.1582 6.52064C7.21196 6.63539 7.28533 6.73988 7.37502 6.82939Z" fill="url(#paint35_linear_25922_690)"/>
<path d="M4.50024 7.86883C5.10282 7.86883 5.5913 7.38035 5.5913 6.77777C5.5913 6.17519 5.10282 5.68671 4.50024 5.68671C3.89767 5.68671 3.40918 6.17519 3.40918 6.77777C3.40918 7.38035 3.89767 7.86883 4.50024 7.86883Z" fill="url(#paint36_linear_25922_690)"/>
<path d="M3.40918 6.77775C3.40918 7.38032 3.89765 7.86882 4.50024 7.86882C5.10281 7.86882 5.59131 7.38032 5.59131 6.77775C5.59131 6.64725 5.56831 6.52213 5.52631 6.40613H3.47421C3.43107 6.52527 3.40907 6.65104 3.40918 6.77775Z" fill="url(#paint37_linear_25922_690)"/>
<path d="M3.72853 7.54924C4.15463 7.97533 4.84544 7.97533 5.27153 7.54924C5.69763 7.12315 5.69763 6.43234 5.27153 6.00624C5.18202 5.91656 5.07753 5.84318 4.96278 5.78943L3.51172 7.24049C3.56548 7.35523 3.63885 7.45972 3.72853 7.54924Z" fill="url(#paint38_linear_25922_690)"/>
<path d="M6.03808 8.1978C6.78075 8.1978 7.3828 7.59575 7.3828 6.85308C7.3828 6.11041 6.78075 5.50836 6.03808 5.50836C5.29541 5.50836 4.69336 6.11041 4.69336 6.85308C4.69336 7.59575 5.29541 8.1978 6.03808 8.1978Z" fill="url(#paint39_linear_25922_690)"/>
<path d="M8.08888 9.29738C8.17064 9.19204 8.22803 9.06988 8.25694 8.9397C8.36491 8.45676 8.05769 7.96939 7.57541 7.85851C7.47386 7.83506 7.36903 7.82931 7.26553 7.84151C7.13356 7.85717 7.00453 7.79032 6.94253 7.67276C6.68072 7.17635 6.21166 6.7931 5.62135 6.6596C5.01397 6.52223 4.40872 6.67873 3.95413 7.03517C3.85 7.11679 3.70538 7.12498 3.59172 7.05729C3.51105 7.00931 3.42255 6.97592 3.33028 6.95867C2.92494 6.88213 2.52225 7.13288 2.41238 7.53051C2.39955 7.5768 2.39088 7.62415 2.38647 7.67198C2.37385 7.80923 2.28088 7.92648 2.14766 7.96185C1.65381 8.09301 1.25116 8.4972 1.15263 9.04048C1.02897 9.72223 1.4435 10.3964 2.108 10.5927C2.32513 10.6568 2.54375 10.6648 2.7495 10.6259C2.93316 10.5913 3.11203 10.7126 3.13788 10.8977C3.21422 11.4444 3.61969 11.9126 4.18994 12.0416C4.72666 12.1629 5.26088 11.9503 5.57547 11.5408C5.69166 11.3895 5.9126 11.3704 6.05303 11.4994C6.22913 11.6612 6.45025 11.779 6.70256 11.8308C7.41725 11.9774 8.12888 11.5276 8.30322 10.8191C8.40338 10.4121 8.31003 10.0047 8.08331 9.69126C7.99756 9.57273 7.99916 9.41288 8.08888 9.29738Z" fill="url(#paint40_linear_25922_690)"/>
<path d="M1.15263 9.04045C1.02897 9.72223 1.4435 10.3964 2.108 10.5926C2.32513 10.6568 2.54375 10.6648 2.7495 10.6259C2.93316 10.5912 3.11203 10.7126 3.13788 10.8977C3.21422 11.4444 3.61969 11.9126 4.18994 12.0415C4.72666 12.1629 5.26088 11.9502 5.57547 11.5408C5.69166 11.3895 5.9126 11.3703 6.05303 11.4994C6.22913 11.6612 6.45025 11.779 6.70256 11.8308C7.41725 11.9773 8.12888 11.5275 8.30322 10.8191C8.37229 10.5403 8.35121 10.2468 8.24303 9.98067L1.42316 8.43823C1.28969 8.6077 1.1941 8.81167 1.15263 9.04045Z" fill="url(#paint41_linear_25922_690)"/>
<path d="M5.57586 11.5408C5.69205 11.3895 5.91298 11.3704 6.05342 11.4994C6.22952 11.6612 6.45064 11.779 6.70295 11.8308C7.41764 11.9774 8.12927 11.5276 8.30361 10.8191C8.40377 10.4121 8.31042 10.0047 8.0837 9.69126C7.99798 9.57276 7.99958 9.41292 8.0893 9.29742C8.17106 9.19206 8.22846 9.0699 8.25736 8.9397C8.31902 8.66392 8.24511 8.3868 8.08067 8.17908L3.23242 11.2388C3.3978 11.631 3.74345 11.9405 4.19033 12.0416C4.72708 12.163 5.2613 11.9503 5.57586 11.5408Z" fill="url(#paint42_linear_25922_690)"/>
<path d="M8.05265 9.63946C7.87946 9.43899 7.64293 9.2904 7.36465 9.22746C7.04258 9.15462 6.72152 9.20956 6.45411 9.35899C6.31577 9.11611 6.27345 8.8302 6.33552 8.55765C6.42018 8.1834 6.6829 7.89568 7.0144 7.76331C7.04843 7.79324 7.08839 7.81566 7.13167 7.82912C7.17495 7.84257 7.22058 7.84676 7.26558 7.8414C7.36912 7.82931 7.47396 7.83505 7.57555 7.85837C8.05783 7.96937 8.36508 8.45677 8.25718 8.93956C8.22822 9.06976 8.17077 9.19193 8.08896 9.29727C8.0517 9.3453 8.02857 9.40276 8.02215 9.46321C8.01574 9.52365 8.0263 9.58469 8.05265 9.63946Z" fill="url(#paint43_linear_25922_690)"/>
<path d="M4.90939 10.1518C5.65173 10.3197 6.38133 10.099 6.84167 9.63276C6.49398 9.42207 6.30317 9.00573 6.39779 8.58729C6.48801 8.18832 6.81179 7.90273 7.19226 7.84182C7.08767 7.83038 6.99295 7.76832 6.94254 7.67276C6.68073 7.17635 6.21167 6.7931 5.62136 6.6596C5.01398 6.52223 4.40873 6.67873 3.95414 7.03517C3.91109 7.06882 3.86008 7.09077 3.80604 7.09892C3.57501 7.32273 3.40739 7.60617 3.33358 7.93254C3.11226 8.91123 3.81776 9.90488 4.90939 10.1518Z" fill="url(#paint44_linear_25922_690)"/>
<path d="M3.84389 7.09108C3.80188 7.10268 3.75796 7.10567 3.71477 7.09987C3.67158 7.09407 3.63001 7.0796 3.59255 7.05733C3.51186 7.00936 3.42337 6.97597 3.33111 6.95867C2.92577 6.88214 2.52308 7.13289 2.4132 7.53052C2.40037 7.57681 2.3917 7.62415 2.3873 7.67198C2.37548 7.80036 2.29339 7.91117 2.17383 7.95395C2.39606 7.8992 2.62802 7.89711 2.8512 7.94786C3.23052 8.03364 3.5423 8.25848 3.74502 8.55692C3.93655 8.4268 4.0793 8.23108 4.13308 7.99317C4.2092 7.65673 4.08817 7.31945 3.84389 7.09108Z" fill="url(#paint45_linear_25922_690)"/>
<path d="M14.0626 8.81309C14.1658 8.68015 14.2382 8.52601 14.2747 8.36174C14.4109 7.7524 14.0233 7.13743 13.4147 6.99755C13.2866 6.96796 13.1543 6.9607 13.0238 6.97612C12.8572 6.99587 12.6944 6.91152 12.6162 6.76318C12.2859 6.1368 11.694 5.65327 10.9492 5.4848C10.1828 5.31146 9.41914 5.50893 8.84551 5.95868C8.71414 6.06168 8.53167 6.07199 8.38823 5.98659C8.28644 5.92606 8.17479 5.88393 8.05839 5.86212C7.54692 5.76555 7.03886 6.08196 6.9002 6.58365C6.88402 6.64205 6.87308 6.70177 6.86751 6.76212C6.85161 6.9353 6.73426 7.08324 6.56617 7.12787C5.94304 7.29334 5.43501 7.80334 5.31067 8.48887C5.15464 9.34909 5.6777 10.1997 6.51614 10.4474C6.79011 10.5283 7.06595 10.5384 7.32554 10.4894C7.55726 10.4456 7.78298 10.5987 7.81558 10.8323C7.91189 11.5221 8.42351 12.1128 9.14304 12.2756C9.82026 12.4287 10.4943 12.1604 10.8913 11.6437C11.0379 11.4529 11.3167 11.4287 11.4939 11.5915C11.7161 11.7957 11.995 11.9443 12.3134 12.0096C13.2152 12.1946 14.1131 11.6271 14.3331 10.7332C14.4595 10.2196 14.3417 9.70555 14.0556 9.31005C13.9474 9.16052 13.9495 8.95884 14.0626 8.81309Z" fill="url(#paint46_linear_25922_690)"/>
<path d="M5.31067 8.48891C5.15464 9.34913 5.6777 10.1998 6.51614 10.4474C6.79011 10.5283 7.06595 10.5384 7.32554 10.4894C7.55726 10.4457 7.78298 10.5988 7.81558 10.8323C7.91192 11.5221 8.42351 12.1129 9.14304 12.2756C9.82026 12.4288 10.4943 12.1604 10.8913 11.6438C11.0379 11.453 11.3167 11.4288 11.4939 11.5916C11.7161 11.7958 11.995 11.9444 12.3134 12.0097C13.2152 12.1946 14.1131 11.6271 14.3331 10.7332C14.4202 10.3814 14.3936 10.011 14.2571 9.67528L5.65204 7.72906C5.48364 7.94285 5.36301 8.20022 5.31067 8.48891Z" fill="url(#paint47_linear_25922_690)"/>
<path d="M10.8914 11.6437C11.038 11.4529 11.3169 11.4287 11.494 11.5915C11.7163 11.7957 11.9952 11.9443 12.3136 12.0096C13.2154 12.1946 14.1133 11.627 14.3333 10.7332C14.4596 10.2196 14.3419 9.70551 14.0558 9.31004C13.9476 9.16051 13.9497 8.95882 14.0629 8.81307C14.166 8.68013 14.2384 8.52599 14.2749 8.36173C14.3527 8.01376 14.2594 7.6641 14.052 7.40198L7.93457 11.2627C8.14326 11.7576 8.57935 12.148 9.14326 12.2756C9.82045 12.4288 10.4945 12.1604 10.8914 11.6437Z" fill="url(#paint48_linear_25922_690)"/>
<path d="M14.0163 9.24478C13.7977 8.99182 13.4993 8.80438 13.1481 8.72494C12.7418 8.63303 12.3366 8.70235 11.9993 8.89091C11.8311 8.59506 11.7686 8.23791 11.8496 7.87978C11.9565 7.40756 12.288 7.04453 12.7062 6.8775C12.7492 6.91527 12.7996 6.94357 12.8542 6.96055C12.9088 6.97754 12.9664 6.98282 13.0231 6.97606C13.1538 6.96081 13.2861 6.96806 13.4143 6.9975C14.0228 7.13756 14.4105 7.75257 14.2743 8.36172C14.2362 8.53166 14.1623 8.68432 14.0621 8.81307C14.0151 8.87366 13.9859 8.94615 13.9778 9.02241C13.9697 9.09867 13.983 9.17568 14.0163 9.24478Z" fill="url(#paint49_linear_25922_690)"/>
<path d="M10.0503 9.89118C10.987 10.103 11.9075 9.82462 12.4884 9.23627C12.0497 8.97043 11.8089 8.44512 11.9283 7.91712C12.0422 7.41371 12.4507 7.05334 12.9308 6.97652C12.7988 6.96209 12.6793 6.88377 12.6157 6.76318C12.2854 6.1368 11.6935 5.65327 10.9487 5.4848C10.1823 5.31146 9.41864 5.50893 8.84501 5.95868C8.79069 6.00115 8.72632 6.02886 8.65814 6.03912C8.36664 6.32152 8.15514 6.67915 8.06198 7.09096C7.78273 8.32587 8.67292 9.57965 10.0503 9.89118Z" fill="url(#paint50_linear_25922_690)"/>
<path d="M8.70487 6.02922C8.59991 6.05825 8.48487 6.04447 8.38772 5.98663C8.28593 5.9261 8.17428 5.88397 8.05787 5.86216C7.54641 5.76563 7.03834 6.082 6.89969 6.58369C6.88351 6.64209 6.87257 6.70181 6.867 6.76216C6.85212 6.92413 6.7485 7.06397 6.59766 7.11794C6.87808 7.04886 7.17076 7.04622 7.45237 7.11025C7.931 7.2185 8.32438 7.50219 8.58016 7.87875C8.82181 7.71456 9.00194 7.46759 9.06981 7.16741C9.16578 6.74294 9.01306 6.31738 8.70487 6.02922Z" fill="url(#paint51_linear_25922_690)"/>
<path d="M14.055 9.31002C13.9469 9.16049 13.9489 8.9588 14.0621 8.81305C14.1653 8.68012 14.2377 8.52597 14.2742 8.36171C14.4104 7.75237 14.0227 7.1374 13.4142 6.99752C13.2861 6.96792 13.1538 6.96067 13.0232 6.97609C12.8567 6.99584 12.6939 6.91149 12.6157 6.76318C12.2853 6.1368 11.6935 5.65327 10.9486 5.4848C10.1823 5.31146 9.4186 5.50893 8.84497 5.95868C8.7136 6.06168 8.53113 6.07199 8.38769 5.98659C8.2859 5.92606 8.17425 5.88393 8.05785 5.86212C7.54638 5.76555 7.03831 6.08193 6.89966 6.58365C6.88348 6.64205 6.87254 6.70177 6.86697 6.76212C6.85103 6.9353 6.73372 7.08324 6.56563 7.12787C6.55394 7.13096 6.54241 7.13443 6.53081 7.13777C6.27505 6.90106 5.9613 6.7361 5.62131 6.65959C5.01394 6.52221 4.40869 6.67871 3.9541 7.03515C3.84997 7.11677 3.70535 7.12496 3.59169 7.05727C3.51102 7.00931 3.42253 6.97592 3.33028 6.95865C2.92494 6.88215 2.52225 7.13287 2.41238 7.53049C2.39956 7.57678 2.3909 7.62411 2.38647 7.67193C2.37385 7.80918 2.28088 7.92643 2.14766 7.9618C1.65381 8.09296 1.25116 8.49715 1.15263 9.04043C1.02897 9.72218 1.4435 10.3963 2.10803 10.5926C2.32516 10.6567 2.54378 10.6647 2.74953 10.6259C2.93319 10.5912 3.11206 10.7126 3.13791 10.8977C3.21425 11.4444 3.61972 11.9126 4.18997 12.0416C4.72669 12.163 5.26094 11.9502 5.5755 11.5408C5.69169 11.3895 5.91263 11.3703 6.05306 11.4994C6.22916 11.6612 6.45025 11.779 6.7026 11.8308C7.19363 11.9315 7.68319 11.7506 7.9981 11.3979C8.22497 11.8279 8.63116 12.1599 9.14263 12.2756C9.81985 12.4288 10.4939 12.1604 10.8908 11.6438C11.0374 11.453 11.3163 11.4287 11.4934 11.5916C11.7157 11.7957 11.9946 11.9444 12.313 12.0097C13.2148 12.1946 14.1127 11.6271 14.3327 10.7332C14.4589 10.2196 14.3411 9.70549 14.055 9.31002Z" fill="url(#paint52_linear_25922_690)"/>
<path d="M1.80493 9.11309C2.40751 9.11309 2.89599 8.62461 2.89599 8.02203C2.89599 7.41945 2.40751 6.93097 1.80493 6.93097C1.20235 6.93097 0.713867 7.41945 0.713867 8.02203C0.713867 8.62461 1.20235 9.11309 1.80493 9.11309Z" fill="url(#paint53_linear_25922_690)"/>
<path d="M0.713868 8.02202C0.713868 8.62458 1.20234 9.11308 1.80493 9.11308C2.40749 9.11308 2.89599 8.62458 2.89599 8.02202C2.89599 7.89152 2.87299 7.76639 2.83099 7.65039H0.778899C0.735758 7.76954 0.71375 7.8953 0.713868 8.02202Z" fill="url(#paint54_linear_25922_690)"/>
<path d="M1.0342 8.7935C1.46029 9.2196 2.1511 9.2196 2.5772 8.7935C3.00329 8.36741 3.00329 7.6766 2.5772 7.2505C2.48768 7.16082 2.38319 7.08745 2.26845 7.03369L0.817383 8.48475C0.871159 8.59949 0.944529 8.70397 1.0342 8.7935Z" fill="url(#paint55_linear_25922_690)"/>
<path d="M14.3098 9.11309C14.9124 9.11309 15.4009 8.62461 15.4009 8.02203C15.4009 7.41945 14.9124 6.93097 14.3098 6.93097C13.7072 6.93097 13.2188 7.41945 13.2188 8.02203C13.2188 8.62461 13.7072 9.11309 14.3098 9.11309Z" fill="url(#paint56_linear_25922_690)"/>
<path d="M13.2188 8.02202C13.2188 8.62458 13.7072 9.11308 14.3098 9.11308C14.9124 9.11308 15.4009 8.62458 15.4009 8.02202C15.4009 7.89152 15.3779 7.76639 15.3359 7.65039H13.2838C13.2406 7.76954 13.2186 7.8953 13.2188 8.02202Z" fill="url(#paint57_linear_25922_690)"/>
<path d="M13.5391 8.7935C13.9652 9.2196 14.656 9.2196 15.0821 8.7935C15.5082 8.36741 15.5082 7.6766 15.0821 7.2505C14.9926 7.16082 14.8881 7.08745 14.7733 7.03369L13.3223 8.48475C13.376 8.5995 13.4494 8.70399 13.5391 8.7935Z" fill="url(#paint58_linear_25922_690)"/>
<path d="M9.20141 9.03881C9.80399 9.03881 10.2925 8.55033 10.2925 7.94775C10.2925 7.34517 9.80399 6.85669 9.20141 6.85669C8.59884 6.85669 8.11035 7.34517 8.11035 7.94775C8.11035 8.55033 8.59884 9.03881 9.20141 9.03881Z" fill="url(#paint59_linear_25922_690)"/>
<path d="M8.11035 7.94774C8.11035 8.5503 8.59882 9.0388 9.20141 9.0388C9.80398 9.0388 10.2925 8.5503 10.2925 7.94774C10.2925 7.81724 10.2695 7.69211 10.2275 7.57611H8.17538C8.13223 7.69525 8.11023 7.82102 8.11035 7.94774Z" fill="url(#paint60_linear_25922_690)"/>
<path d="M8.4297 8.71922C8.8558 9.14532 9.54661 9.14532 9.9727 8.71922C10.3988 8.29313 10.3988 7.60232 9.9727 7.17622C9.88319 7.08654 9.7787 7.01317 9.66395 6.95941L8.21289 8.41047C8.26664 8.52522 8.34002 8.62971 8.4297 8.71922Z" fill="url(#paint61_linear_25922_690)"/>
<path d="M9.11371 14.2687H6.88586C5.60643 14.2687 4.47618 13.4353 4.09802 12.213L4.03355 12.0046C3.96346 11.778 4.13283 11.5483 4.36999 11.5483H11.6296C11.8668 11.5483 12.0361 11.778 11.966 12.0046L11.9016 12.213C11.5234 13.4353 10.3932 14.2687 9.11371 14.2687Z" fill="url(#paint62_linear_25922_690)"/>
<path d="M4.11426 12.2626C4.50735 13.4578 5.62416 14.2687 6.8862 14.2687H9.11404C10.3761 14.2687 11.4929 13.4578 11.886 12.2626H4.11426Z" fill="url(#paint63_linear_25922_690)"/>
<path d="M11.6293 11.5483H7.36133V14.2687H9.11345C10.3929 14.2687 11.5231 13.4353 11.9013 12.213L11.9658 12.0046C12.0359 11.778 11.8665 11.5483 11.6293 11.5483Z" fill="url(#paint64_linear_25922_690)"/>
<path d="M10.2378 13.392H5.76221C3.1919 13.392 0.921308 11.7177 0.161621 9.26219L0.0320894 8.84357C-0.108723 8.38838 0.231527 7.92694 0.707996 7.92694H15.292C15.7685 7.92694 16.1087 8.38838 15.9679 8.84357L15.8384 9.26219C15.0787 11.7177 12.8081 13.392 10.2378 13.392Z" fill="url(#paint65_linear_25922_690)"/>
<path d="M0.193359 9.36188C0.983047 11.7628 3.22664 13.3919 5.76198 13.3919H10.2375C12.7729 13.3919 15.0165 11.7628 15.8062 9.36188H0.193359Z" fill="url(#paint66_linear_25922_690)"/>
<path d="M0.046875 8.89172L0.161469 9.26216C0.366336 9.92523 0.687515 10.5466 1.11 11.0972H14.8897C15.3122 10.5466 15.6334 9.92523 15.8382 9.26216L15.9528 8.89172H0.046875Z" fill="url(#paint67_linear_25922_690)"/>
<path d="M15.2919 7.92694H6.71777V13.392H10.2376C12.808 13.392 15.0786 11.7177 15.8382 9.26219L15.9678 8.84357C16.1086 8.38838 15.7683 7.92694 15.2919 7.92694Z" fill="url(#paint68_linear_25922_690)"/>
<path d="M0.44857 10.0056H15.552C15.6432 9.80969 15.7235 9.60889 15.7926 9.40411H0.208008C0.277067 9.60889 0.357377 9.80969 0.44857 10.0056Z" fill="url(#paint69_linear_25922_690)"/>
</g>
<defs>
<linearGradient id="paint0_linear_25922_690" x1="12.6036" y1="5.57935" x2="14.0456" y2="6.80335" gradientUnits="userSpaceOnUse">
<stop stop-color="#C8EFFE"/>
<stop offset="0.104" stop-color="#BFECFD"/>
<stop offset="0.272" stop-color="#A8E4FB"/>
<stop offset="0.482" stop-color="#81D5F9"/>
<stop offset="0.727" stop-color="#4CC2F5"/>
<stop offset="0.997" stop-color="#08A9F1"/>
<stop offset="1" stop-color="#08A9F1"/>
</linearGradient>
<linearGradient id="paint1_linear_25922_690" x1="13.3312" y1="5.69838" x2="13.1803" y2="7.02301" gradientUnits="userSpaceOnUse">
<stop stop-color="#0290CF" stop-opacity="0"/>
<stop offset="0.985" stop-color="#0290CF" stop-opacity="0.985"/>
<stop offset="1" stop-color="#0290CF"/>
</linearGradient>
<linearGradient id="paint2_linear_25922_690" x1="7.07031" y1="3.72499" x2="9.56291" y2="3.72499" gradientUnits="userSpaceOnUse">
<stop stop-color="#D1F19E"/>
<stop offset="1" stop-color="#78A91F"/>
</linearGradient>
<linearGradient id="paint3_linear_25922_690" x1="9.91101" y1="3.35088" x2="7.78918" y2="3.91464" gradientUnits="userSpaceOnUse">
<stop stop-color="#026841" stop-opacity="0"/>
<stop offset="0.324" stop-color="#046842" stop-opacity="0.324"/>
<stop offset="0.551" stop-color="#0E6546" stop-opacity="0.551"/>
<stop offset="0.748" stop-color="#1D614C" stop-opacity="0.748"/>
<stop offset="0.926" stop-color="#335C54" stop-opacity="0.926"/>
<stop offset="1" stop-color="#3E5959"/>
</linearGradient>
<linearGradient id="paint4_linear_25922_690" x1="8.31663" y1="3.00036" x2="8.31663" y2="5.42843" gradientUnits="userSpaceOnUse">
<stop stop-color="#026841" stop-opacity="0"/>
<stop offset="0.324" stop-color="#046842" stop-opacity="0.324"/>
<stop offset="0.551" stop-color="#0E6546" stop-opacity="0.551"/>
<stop offset="0.748" stop-color="#1D614C" stop-opacity="0.748"/>
<stop offset="0.926" stop-color="#335C54" stop-opacity="0.926"/>
<stop offset="1" stop-color="#3E5959"/>
</linearGradient>
<linearGradient id="paint5_linear_25922_690" x1="8.31737" y1="2.20639" x2="8.31737" y2="3.93389" gradientUnits="userSpaceOnUse">
<stop stop-color="#026841" stop-opacity="0"/>
<stop offset="0.324" stop-color="#046842" stop-opacity="0.324"/>
<stop offset="0.551" stop-color="#0E6546" stop-opacity="0.551"/>
<stop offset="0.748" stop-color="#1D614C" stop-opacity="0.748"/>
<stop offset="0.926" stop-color="#335C54" stop-opacity="0.926"/>
<stop offset="1" stop-color="#3E5959"/>
</linearGradient>
<linearGradient id="paint6_linear_25922_690" x1="9.4622" y1="3.76195" x2="10.8679" y2="5.82034" gradientUnits="userSpaceOnUse">
<stop stop-color="#D1F19E"/>
<stop offset="1" stop-color="#78A91F"/>
</linearGradient>
<linearGradient id="paint7_linear_25922_690" x1="11.2512" y1="5.85305" x2="9.58998" y2="4.41765" gradientUnits="userSpaceOnUse">
<stop stop-color="#026841" stop-opacity="0"/>
<stop offset="0.324" stop-color="#046842" stop-opacity="0.324"/>
<stop offset="0.551" stop-color="#0E6546" stop-opacity="0.551"/>
<stop offset="0.748" stop-color="#1D614C" stop-opacity="0.748"/>
<stop offset="0.926" stop-color="#335C54" stop-opacity="0.926"/>
<stop offset="1" stop-color="#3E5959"/>
</linearGradient>
<linearGradient id="paint8_linear_25922_690" x1="10.7641" y1="4.38248" x2="8.759" y2="5.7518" gradientUnits="userSpaceOnUse">
<stop stop-color="#026841" stop-opacity="0"/>
<stop offset="0.324" stop-color="#046842" stop-opacity="0.324"/>
<stop offset="0.551" stop-color="#0E6546" stop-opacity="0.551"/>
<stop offset="0.748" stop-color="#1D614C" stop-opacity="0.748"/>
<stop offset="0.926" stop-color="#335C54" stop-opacity="0.926"/>
<stop offset="1" stop-color="#3E5959"/>
</linearGradient>
<linearGradient id="paint9_linear_25922_690" x1="11.4193" y1="3.93467" x2="9.99271" y2="4.90891" gradientUnits="userSpaceOnUse">
<stop stop-color="#026841" stop-opacity="0"/>
<stop offset="0.324" stop-color="#046842" stop-opacity="0.324"/>
<stop offset="0.551" stop-color="#0E6546" stop-opacity="0.551"/>
<stop offset="0.748" stop-color="#1D614C" stop-opacity="0.748"/>
<stop offset="0.926" stop-color="#335C54" stop-opacity="0.926"/>
<stop offset="1" stop-color="#3E5959"/>
</linearGradient>
<linearGradient id="paint10_linear_25922_690" x1="9.40497" y1="5.15186" x2="10.3053" y2="6.0522" gradientUnits="userSpaceOnUse">
<stop stop-color="#A274BF"/>
<stop offset="0.143" stop-color="#976FBB"/>
<stop offset="0.393" stop-color="#7B61B3"/>
<stop offset="0.716" stop-color="#4D4BA4"/>
<stop offset="1" stop-color="#1F3596"/>
</linearGradient>
<linearGradient id="paint11_linear_25922_690" x1="9.88403" y1="5.93809" x2="9.88403" y2="6.59996" gradientUnits="userSpaceOnUse">
<stop stop-color="#1F3596" stop-opacity="0"/>
<stop offset="0.262" stop-color="#1E3190" stop-opacity="0.262"/>
<stop offset="0.606" stop-color="#1D267F" stop-opacity="0.606"/>
<stop offset="0.995" stop-color="#1B1464" stop-opacity="0.995"/>
<stop offset="1" stop-color="#1B1464"/>
</linearGradient>
<linearGradient id="paint12_linear_25922_690" x1="9.78095" y1="5.52711" x2="10.6083" y2="6.35442" gradientUnits="userSpaceOnUse">
<stop stop-color="#1F3596" stop-opacity="0"/>
<stop offset="0.262" stop-color="#1E3190" stop-opacity="0.262"/>
<stop offset="0.606" stop-color="#1D267F" stop-opacity="0.606"/>
<stop offset="0.995" stop-color="#1B1464" stop-opacity="0.995"/>
<stop offset="1" stop-color="#1B1464"/>
</linearGradient>
<linearGradient id="paint13_linear_25922_690" x1="5.76032" y1="2.88149" x2="6.16823" y2="3.58801" gradientUnits="userSpaceOnUse">
<stop stop-color="#78A91F"/>
<stop offset="0.155" stop-color="#6DA423"/>
<stop offset="0.428" stop-color="#50992E"/>
<stop offset="0.783" stop-color="#218741"/>
<stop offset="1" stop-color="#017B4E"/>
</linearGradient>
<linearGradient id="paint14_linear_25922_690" x1="6.20665" y1="3.51406" x2="5.84173" y2="3.08418" gradientUnits="userSpaceOnUse">
<stop stop-color="#017B4E" stop-opacity="0"/>
<stop offset="0.473" stop-color="#01774B" stop-opacity="0.473"/>
<stop offset="0.881" stop-color="#016D44" stop-opacity="0.881"/>
<stop offset="1" stop-color="#026841"/>
</linearGradient>
<linearGradient id="paint15_linear_25922_690" x1="6.21265" y1="3.09123" x2="5.52443" y2="3.48857" gradientUnits="userSpaceOnUse">
<stop stop-color="#017B4E" stop-opacity="0"/>
<stop offset="0.473" stop-color="#01774B" stop-opacity="0.473"/>
<stop offset="0.881" stop-color="#016D44" stop-opacity="0.881"/>
<stop offset="1" stop-color="#026841"/>
</linearGradient>
<linearGradient id="paint16_linear_25922_690" x1="6.49134" y1="2.90713" x2="5.97146" y2="3.24705" gradientUnits="userSpaceOnUse">
<stop stop-color="#017B4E" stop-opacity="0"/>
<stop offset="0.473" stop-color="#01774B" stop-opacity="0.473"/>
<stop offset="0.881" stop-color="#016D44" stop-opacity="0.881"/>
<stop offset="1" stop-color="#026841"/>
</linearGradient>
<linearGradient id="paint17_linear_25922_690" x1="4.6743" y1="3.9701" x2="5.38081" y2="4.37801" gradientUnits="userSpaceOnUse">
<stop stop-color="#78A91F"/>
<stop offset="0.155" stop-color="#6DA423"/>
<stop offset="0.428" stop-color="#50992E"/>
<stop offset="0.783" stop-color="#218741"/>
<stop offset="1" stop-color="#017B4E"/>
</linearGradient>
<linearGradient id="paint18_linear_25922_690" x1="5.31174" y1="4.40533" x2="4.88186" y2="4.04042" gradientUnits="userSpaceOnUse">
<stop stop-color="#017B4E" stop-opacity="0"/>
<stop offset="0.473" stop-color="#01774B" stop-opacity="0.473"/>
<stop offset="0.881" stop-color="#016D44" stop-opacity="0.881"/>
<stop offset="1" stop-color="#026841"/>
</linearGradient>
<linearGradient id="paint19_linear_25922_690" x1="4.88404" y1="4.4227" x2="5.28138" y2="3.73448" gradientUnits="userSpaceOnUse">
<stop stop-color="#017B4E" stop-opacity="0"/>
<stop offset="0.473" stop-color="#01774B" stop-opacity="0.473"/>
<stop offset="0.881" stop-color="#016D44" stop-opacity="0.881"/>
<stop offset="1" stop-color="#026841"/>
</linearGradient>
<linearGradient id="paint20_linear_25922_690" x1="4.70478" y1="4.68975" x2="5.0447" y2="4.16987" gradientUnits="userSpaceOnUse">
<stop stop-color="#017B4E" stop-opacity="0"/>
<stop offset="0.473" stop-color="#01774B" stop-opacity="0.473"/>
<stop offset="0.881" stop-color="#016D44" stop-opacity="0.881"/>
<stop offset="1" stop-color="#026841"/>
</linearGradient>
<linearGradient id="paint21_linear_25922_690" x1="6.99822" y1="3.49" x2="6.21552" y2="6.69193" gradientUnits="userSpaceOnUse">
<stop stop-color="#FD4755"/>
<stop offset="1" stop-color="#A72B2B"/>
</linearGradient>
<linearGradient id="paint22_linear_25922_690" x1="7.23492" y1="3.51159" x2="5.86339" y2="6.02806" gradientUnits="userSpaceOnUse">
<stop stop-color="#FFA1AE"/>
<stop offset="0.176" stop-color="#FF9AA8"/>
<stop offset="0.431" stop-color="#FF8699"/>
<stop offset="0.734" stop-color="#FF6780"/>
<stop offset="1" stop-color="#FF4565"/>
</linearGradient>
<linearGradient id="paint23_linear_25922_690" x1="6.1987" y1="4.39886" x2="5.69157" y2="3.89173" gradientUnits="userSpaceOnUse">
<stop stop-color="white" stop-opacity="0"/>
<stop offset="1" stop-color="white"/>
</linearGradient>
<linearGradient id="paint24_linear_25922_690" x1="6.59277" y1="4.79238" x2="5.96245" y2="4.16206" gradientUnits="userSpaceOnUse">
<stop stop-color="white" stop-opacity="0"/>
<stop offset="1" stop-color="white"/>
</linearGradient>
<linearGradient id="paint25_linear_25922_690" x1="6.81777" y1="5.01726" x2="6.39596" y2="4.59545" gradientUnits="userSpaceOnUse">
<stop stop-color="white" stop-opacity="0"/>
<stop offset="1" stop-color="white"/>
</linearGradient>
<linearGradient id="paint26_linear_25922_690" x1="7.0815" y1="5.28148" x2="6.64208" y2="4.84206" gradientUnits="userSpaceOnUse">
<stop stop-color="white" stop-opacity="0"/>
<stop offset="1" stop-color="white"/>
</linearGradient>
<linearGradient id="paint27_linear_25922_690" x1="7.44768" y1="5.64696" x2="6.95534" y2="5.15461" gradientUnits="userSpaceOnUse">
<stop stop-color="white" stop-opacity="0"/>
<stop offset="1" stop-color="white"/>
</linearGradient>
<linearGradient id="paint28_linear_25922_690" x1="5.6835" y1="3.883" x2="5.09026" y2="3.28976" gradientUnits="userSpaceOnUse">
<stop stop-color="#D1F19E" stop-opacity="0"/>
<stop offset="1" stop-color="#78A91F"/>
</linearGradient>
<linearGradient id="paint29_linear_25922_690" x1="6.83117" y1="3.14779" x2="6.18947" y2="5.63221" gradientUnits="userSpaceOnUse">
<stop stop-color="#FD4755" stop-opacity="0"/>
<stop offset="0.261" stop-color="#F64452" stop-opacity="0.261"/>
<stop offset="0.644" stop-color="#E33A4B" stop-opacity="0.644"/>
<stop offset="1" stop-color="#CA2E43"/>
</linearGradient>
<linearGradient id="paint30_linear_25922_690" x1="6.66399" y1="4.53959" x2="7.19458" y2="3.97386" gradientUnits="userSpaceOnUse">
<stop stop-color="#FD4755" stop-opacity="0"/>
<stop offset="0.261" stop-color="#F64452" stop-opacity="0.261"/>
<stop offset="0.644" stop-color="#E33A4B" stop-opacity="0.644"/>
<stop offset="1" stop-color="#CA2E43"/>
</linearGradient>
<linearGradient id="paint31_linear_25922_690" x1="6.90407" y1="5.61629" x2="7.47654" y2="6.90436" gradientUnits="userSpaceOnUse">
<stop stop-color="#A72B2B" stop-opacity="0"/>
<stop offset="0.238" stop-color="#A22C2B" stop-opacity="0.238"/>
<stop offset="0.551" stop-color="#912E29" stop-opacity="0.551"/>
<stop offset="0.904" stop-color="#763227" stop-opacity="0.904"/>
<stop offset="1" stop-color="#6D3326"/>
</linearGradient>
<linearGradient id="paint32_linear_25922_690" x1="6.48837" y1="5.42772" x2="5.9994" y2="6.39375" gradientUnits="userSpaceOnUse">
<stop stop-color="#A72B2B" stop-opacity="0"/>
<stop offset="0.238" stop-color="#A22C2B" stop-opacity="0.238"/>
<stop offset="0.551" stop-color="#912E29" stop-opacity="0.551"/>
<stop offset="0.904" stop-color="#763227" stop-opacity="0.904"/>
<stop offset="1" stop-color="#6D3326"/>
</linearGradient>
<linearGradient id="paint33_linear_25922_690" x1="7.66766" y1="5.5788" x2="8.56801" y2="6.47914" gradientUnits="userSpaceOnUse">
<stop stop-color="#A274BF"/>
<stop offset="0.143" stop-color="#976FBB"/>
<stop offset="0.393" stop-color="#7B61B3"/>
<stop offset="0.716" stop-color="#4D4BA4"/>
<stop offset="1" stop-color="#1F3596"/>
</linearGradient>
<linearGradient id="paint34_linear_25922_690" x1="8.14673" y1="6.36503" x2="8.14673" y2="7.02694" gradientUnits="userSpaceOnUse">
<stop stop-color="#1F3596" stop-opacity="0"/>
<stop offset="0.262" stop-color="#1E3190" stop-opacity="0.262"/>
<stop offset="0.606" stop-color="#1D267F" stop-opacity="0.606"/>
<stop offset="0.995" stop-color="#1B1464" stop-opacity="0.995"/>
<stop offset="1" stop-color="#1B1464"/>
</linearGradient>
<linearGradient id="paint35_linear_25922_690" x1="8.04267" y1="5.95405" x2="8.87002" y2="6.78139" gradientUnits="userSpaceOnUse">
<stop stop-color="#1F3596" stop-opacity="0"/>
<stop offset="0.262" stop-color="#1E3190" stop-opacity="0.262"/>
<stop offset="0.606" stop-color="#1D267F" stop-opacity="0.606"/>
<stop offset="0.995" stop-color="#1B1464" stop-opacity="0.995"/>
<stop offset="1" stop-color="#1B1464"/>
</linearGradient>
<linearGradient id="paint36_linear_25922_690" x1="3.99734" y1="6.03908" x2="4.47255" y2="6.73711" gradientUnits="userSpaceOnUse">
<stop stop-color="#FFA1AE"/>
<stop offset="0.176" stop-color="#FF9AA8"/>
<stop offset="0.431" stop-color="#FF8699"/>
<stop offset="0.734" stop-color="#FF6780"/>
<stop offset="1" stop-color="#FF4565"/>
</linearGradient>
<linearGradient id="paint37_linear_25922_690" x1="4.50024" y1="7.08494" x2="4.50024" y2="7.74685" gradientUnits="userSpaceOnUse">
<stop stop-color="#FD4755" stop-opacity="0"/>
<stop offset="0.261" stop-color="#F64452" stop-opacity="0.261"/>
<stop offset="0.644" stop-color="#E33A4B" stop-opacity="0.644"/>
<stop offset="1" stop-color="#CA2E43"/>
</linearGradient>
<linearGradient id="paint38_linear_25922_690" x1="4.39622" y1="6.6739" x2="5.22353" y2="7.50124" gradientUnits="userSpaceOnUse">
<stop stop-color="#FD4755" stop-opacity="0"/>
<stop offset="0.261" stop-color="#F64452" stop-opacity="0.261"/>
<stop offset="0.644" stop-color="#E33A4B" stop-opacity="0.644"/>
<stop offset="1" stop-color="#CA2E43"/>
</linearGradient>
<linearGradient id="paint39_linear_25922_690" x1="5.08168" y1="6.39936" x2="7.26316" y2="7.44151" gradientUnits="userSpaceOnUse">
<stop stop-color="#FFFBF5"/>
<stop offset="0.489" stop-color="#FFF8EC"/>
<stop offset="1" stop-color="#FFF2DE"/>
</linearGradient>
<linearGradient id="paint40_linear_25922_690" x1="4.23462" y1="7.02079" x2="5.40232" y2="12.0851" gradientUnits="userSpaceOnUse">
<stop stop-color="#FFFBF5"/>
<stop offset="0.489" stop-color="#FFF8EC"/>
<stop offset="1" stop-color="#FFF2DE"/>
</linearGradient>
<linearGradient id="paint41_linear_25922_690" x1="4.68284" y1="10.1055" x2="4.24564" y2="12.0345" gradientUnits="userSpaceOnUse">
<stop stop-color="#FFF2DE" stop-opacity="0"/>
<stop offset="0.222" stop-color="#FFEDD7" stop-opacity="0.222"/>
<stop offset="0.552" stop-color="#FFDFC3" stop-opacity="0.552"/>
<stop offset="0.946" stop-color="#FFC8A2" stop-opacity="0.946"/>
<stop offset="1" stop-color="#FFC49D"/>
</linearGradient>
<linearGradient id="paint42_linear_25922_690" x1="6.20218" y1="10.7368" x2="6.85257" y2="11.962" gradientUnits="userSpaceOnUse">
<stop stop-color="#FFF2DE" stop-opacity="0"/>
<stop offset="0.222" stop-color="#FFEDD7" stop-opacity="0.222"/>
<stop offset="0.552" stop-color="#FFDFC3" stop-opacity="0.552"/>
<stop offset="0.946" stop-color="#FFC8A2" stop-opacity="0.946"/>
<stop offset="1" stop-color="#FFC49D"/>
</linearGradient>
<linearGradient id="paint43_linear_25922_690" x1="7.52085" y1="8.83994" x2="8.24126" y2="9.17954" gradientUnits="userSpaceOnUse">
<stop stop-color="#FFF2DE" stop-opacity="0"/>
<stop offset="0.222" stop-color="#FFEDD7" stop-opacity="0.222"/>
<stop offset="0.552" stop-color="#FFDFC3" stop-opacity="0.552"/>
<stop offset="0.946" stop-color="#FFC8A2" stop-opacity="0.946"/>
<stop offset="1" stop-color="#FFC49D"/>
</linearGradient>
<linearGradient id="paint44_linear_25922_690" x1="5.98883" y1="7.85029" x2="6.99627" y2="7.05889" gradientUnits="userSpaceOnUse">
<stop stop-color="#FFF2DE" stop-opacity="0"/>
<stop offset="0.222" stop-color="#FFEDD7" stop-opacity="0.222"/>
<stop offset="0.552" stop-color="#FFDFC3" stop-opacity="0.552"/>
<stop offset="0.946" stop-color="#FFC8A2" stop-opacity="0.946"/>
<stop offset="1" stop-color="#FFC49D"/>
</linearGradient>
<linearGradient id="paint45_linear_25922_690" x1="3.3153" y1="7.77032" x2="1.83102" y2="8.02269" gradientUnits="userSpaceOnUse">
<stop stop-color="#FFF2DE" stop-opacity="0"/>
<stop offset="0.222" stop-color="#FFEDD7" stop-opacity="0.222"/>
<stop offset="0.552" stop-color="#FFDFC3" stop-opacity="0.552"/>
<stop offset="0.946" stop-color="#FFC8A2" stop-opacity="0.946"/>
<stop offset="1" stop-color="#FFC49D"/>
</linearGradient>
<linearGradient id="paint46_linear_25922_690" x1="9.20086" y1="5.94263" x2="10.6742" y2="12.3326" gradientUnits="userSpaceOnUse">
<stop stop-color="#FFFBF5"/>
<stop offset="0.489" stop-color="#FFF8EC"/>
<stop offset="1" stop-color="#FFF2DE"/>
</linearGradient>
<linearGradient id="paint47_linear_25922_690" x1="9.76645" y1="9.8348" x2="9.2148" y2="12.2688" gradientUnits="userSpaceOnUse">
<stop stop-color="#FFF2DE" stop-opacity="0"/>
<stop offset="0.222" stop-color="#FFEDD7" stop-opacity="0.222"/>
<stop offset="0.552" stop-color="#FFDFC3" stop-opacity="0.552"/>
<stop offset="0.946" stop-color="#FFC8A2" stop-opacity="0.946"/>
<stop offset="1" stop-color="#FFC49D"/>
</linearGradient>
<linearGradient id="paint48_linear_25922_690" x1="11.6831" y1="10.6313" x2="12.5038" y2="12.1773" gradientUnits="userSpaceOnUse">
<stop stop-color="#FFF2DE" stop-opacity="0"/>
<stop offset="0.222" stop-color="#FFEDD7" stop-opacity="0.222"/>
<stop offset="0.552" stop-color="#FFDFC3" stop-opacity="0.552"/>
<stop offset="0.946" stop-color="#FFC8A2" stop-opacity="0.946"/>
<stop offset="1" stop-color="#FFC49D"/>
</linearGradient>
<linearGradient id="paint49_linear_25922_690" x1="13.3467" y1="8.238" x2="14.2557" y2="8.66653" gradientUnits="userSpaceOnUse">
<stop stop-color="#FFF2DE" stop-opacity="0"/>
<stop offset="0.222" stop-color="#FFEDD7" stop-opacity="0.222"/>
<stop offset="0.552" stop-color="#FFDFC3" stop-opacity="0.552"/>
<stop offset="0.946" stop-color="#FFC8A2" stop-opacity="0.946"/>
<stop offset="1" stop-color="#FFC49D"/>
</linearGradient>
<linearGradient id="paint50_linear_25922_690" x1="11.4137" y1="6.98931" x2="12.6849" y2="5.9907" gradientUnits="userSpaceOnUse">
<stop stop-color="#FFF2DE" stop-opacity="0"/>
<stop offset="0.222" stop-color="#FFEDD7" stop-opacity="0.222"/>
<stop offset="0.552" stop-color="#FFDFC3" stop-opacity="0.552"/>
<stop offset="0.946" stop-color="#FFC8A2" stop-opacity="0.946"/>
<stop offset="1" stop-color="#FFC49D"/>
</linearGradient>
<linearGradient id="paint51_linear_25922_690" x1="8.03932" y1="6.88833" x2="6.16649" y2="7.20677" gradientUnits="userSpaceOnUse">
<stop stop-color="#FFF2DE" stop-opacity="0"/>
<stop offset="0.222" stop-color="#FFEDD7" stop-opacity="0.222"/>
<stop offset="0.552" stop-color="#FFDFC3" stop-opacity="0.552"/>
<stop offset="0.946" stop-color="#FFC8A2" stop-opacity="0.946"/>
<stop offset="1" stop-color="#FFC49D"/>
</linearGradient>
<linearGradient id="paint52_linear_25922_690" x1="7.75688" y1="6.7263" x2="7.75688" y2="7.92962" gradientUnits="userSpaceOnUse">
<stop stop-color="#FFF2DE" stop-opacity="0"/>
<stop offset="0.222" stop-color="#FFEDD7" stop-opacity="0.222"/>
<stop offset="0.552" stop-color="#FFDFC3" stop-opacity="0.552"/>
<stop offset="0.946" stop-color="#FFC8A2" stop-opacity="0.946"/>
<stop offset="1" stop-color="#FFC49D"/>
</linearGradient>
<linearGradient id="paint53_linear_25922_690" x1="1.3259" y1="7.54297" x2="2.22621" y2="8.44331" gradientUnits="userSpaceOnUse">
<stop stop-color="#A274BF"/>
<stop offset="0.143" stop-color="#976FBB"/>
<stop offset="0.393" stop-color="#7B61B3"/>
<stop offset="0.716" stop-color="#4D4BA4"/>
<stop offset="1" stop-color="#1F3596"/>
</linearGradient>
<linearGradient id="paint54_linear_25922_690" x1="1.80493" y1="8.32917" x2="1.80493" y2="8.99108" gradientUnits="userSpaceOnUse">
<stop stop-color="#1F3596" stop-opacity="0"/>
<stop offset="0.262" stop-color="#1E3190" stop-opacity="0.262"/>
<stop offset="0.606" stop-color="#1D267F" stop-opacity="0.606"/>
<stop offset="0.995" stop-color="#1B1464" stop-opacity="0.995"/>
<stop offset="1" stop-color="#1B1464"/>
</linearGradient>
<linearGradient id="paint55_linear_25922_690" x1="1.70188" y1="7.91819" x2="2.5292" y2="8.7455" gradientUnits="userSpaceOnUse">
<stop stop-color="#1F3596" stop-opacity="0"/>
<stop offset="0.262" stop-color="#1E3190" stop-opacity="0.262"/>
<stop offset="0.606" stop-color="#1D267F" stop-opacity="0.606"/>
<stop offset="0.995" stop-color="#1B1464" stop-opacity="0.995"/>
<stop offset="1" stop-color="#1B1464"/>
</linearGradient>
<linearGradient id="paint56_linear_25922_690" x1="13.8308" y1="7.54297" x2="14.7311" y2="8.44331" gradientUnits="userSpaceOnUse">
<stop stop-color="#A274BF"/>
<stop offset="0.143" stop-color="#976FBB"/>
<stop offset="0.393" stop-color="#7B61B3"/>
<stop offset="0.716" stop-color="#4D4BA4"/>
<stop offset="1" stop-color="#1F3596"/>
</linearGradient>
<linearGradient id="paint57_linear_25922_690" x1="14.3098" y1="8.32917" x2="14.3098" y2="8.99108" gradientUnits="userSpaceOnUse">
<stop stop-color="#1F3596" stop-opacity="0"/>
<stop offset="0.262" stop-color="#1E3190" stop-opacity="0.262"/>
<stop offset="0.606" stop-color="#1D267F" stop-opacity="0.606"/>
<stop offset="0.995" stop-color="#1B1464" stop-opacity="0.995"/>
<stop offset="1" stop-color="#1B1464"/>
</linearGradient>
<linearGradient id="paint58_linear_25922_690" x1="14.2067" y1="7.91819" x2="15.034" y2="8.7455" gradientUnits="userSpaceOnUse">
<stop stop-color="#1F3596" stop-opacity="0"/>
<stop offset="0.262" stop-color="#1E3190" stop-opacity="0.262"/>
<stop offset="0.606" stop-color="#1D267F" stop-opacity="0.606"/>
<stop offset="0.995" stop-color="#1B1464" stop-opacity="0.995"/>
<stop offset="1" stop-color="#1B1464"/>
</linearGradient>
<linearGradient id="paint59_linear_25922_690" x1="8.72235" y1="7.46872" x2="9.6227" y2="8.36903" gradientUnits="userSpaceOnUse">
<stop stop-color="#FFA1AE"/>
<stop offset="0.176" stop-color="#FF9AA8"/>
<stop offset="0.431" stop-color="#FF8699"/>
<stop offset="0.734" stop-color="#FF6780"/>
<stop offset="1" stop-color="#FF4565"/>
</linearGradient>
<linearGradient id="paint60_linear_25922_690" x1="9.20141" y1="8.25492" x2="9.20141" y2="8.91683" gradientUnits="userSpaceOnUse">
<stop stop-color="#FD4755" stop-opacity="0"/>
<stop offset="0.261" stop-color="#F64452" stop-opacity="0.261"/>
<stop offset="0.644" stop-color="#E33A4B" stop-opacity="0.644"/>
<stop offset="1" stop-color="#CA2E43"/>
</linearGradient>
<linearGradient id="paint61_linear_25922_690" x1="9.09736" y1="7.84391" x2="9.92467" y2="8.67122" gradientUnits="userSpaceOnUse">
<stop stop-color="#FD4755" stop-opacity="0"/>
<stop offset="0.261" stop-color="#F64452" stop-opacity="0.261"/>
<stop offset="0.644" stop-color="#E33A4B" stop-opacity="0.644"/>
<stop offset="1" stop-color="#CA2E43"/>
</linearGradient>
<linearGradient id="paint62_linear_25922_690" x1="7.59661" y1="11.4437" x2="9.1793" y2="13.8266" gradientUnits="userSpaceOnUse">
<stop stop-color="#FEF0AE"/>
<stop offset="1" stop-color="#FAC600"/>
</linearGradient>
<linearGradient id="paint63_linear_25922_690" x1="8.00013" y1="12.8163" x2="8.00013" y2="14.3484" gradientUnits="userSpaceOnUse">
<stop stop-color="#FE9738" stop-opacity="0"/>
<stop offset="1" stop-color="#FE9738"/>
</linearGradient>
<linearGradient id="paint64_linear_25922_690" x1="9.76495" y1="13.0694" x2="10.8722" y2="13.9182" gradientUnits="userSpaceOnUse">
<stop stop-color="#FE9738" stop-opacity="0"/>
<stop offset="1" stop-color="#FE9738"/>
</linearGradient>
<linearGradient id="paint65_linear_25922_690" x1="7.19006" y1="7.71672" x2="10.3695" y2="12.5038" gradientUnits="userSpaceOnUse">
<stop stop-color="#FEF0AE"/>
<stop offset="1" stop-color="#FAC600"/>
</linearGradient>
<linearGradient id="paint66_linear_25922_690" x1="7.99977" y1="10.4741" x2="7.99977" y2="13.552" gradientUnits="userSpaceOnUse">
<stop stop-color="#FE9738" stop-opacity="0"/>
<stop offset="1" stop-color="#FE9738"/>
</linearGradient>
<linearGradient id="paint67_linear_25922_690" x1="-3.17094" y1="3.74394" x2="11.8439" y2="11.7638" gradientUnits="userSpaceOnUse">
<stop stop-color="#FE9738" stop-opacity="0"/>
<stop offset="1" stop-color="#FE9738"/>
</linearGradient>
<linearGradient id="paint68_linear_25922_690" x1="11.5465" y1="10.9826" x2="13.7709" y2="12.6879" gradientUnits="userSpaceOnUse">
<stop stop-color="#FE9738" stop-opacity="0"/>
<stop offset="1" stop-color="#FE9738"/>
</linearGradient>
<linearGradient id="paint69_linear_25922_690" x1="-7.3249" y1="9.70486" x2="9.67379" y2="9.70486" gradientUnits="userSpaceOnUse">
<stop stop-color="#FE9738" stop-opacity="0"/>
<stop offset="1" stop-color="#FE9738"/>
</linearGradient>
<clipPath id="clip0_25922_690">
<rect width="16" height="16" fill="white"/>
</clipPath>
</defs>
</svg>
