<svg width="14" height="14" viewBox="0 0 14 14" fill="none" xmlns="http://www.w3.org/2000/svg">
<path d="M11.7043 5.03925C11.2863 4.1415 10.7024 3.26584 9.96881 2.43664C9.81511 2.26282 9.54982 2.25229 9.38245 2.40853L7.45239 4.20991V0.43746C7.45239 0.121668 7.07163 -0.114282 6.78649 0.0582027C5.21896 1.00637 3.31487 2.9083 2.33974 4.93914C1.78576 6.09286 1.50488 7.28857 1.50488 8.49309C1.50486 11.5296 3.96927 14 6.99843 14C10.8045 14 14.0446 10.0649 11.7043 5.03925ZM5.73105 11.9072C5.73105 10.8462 6.58532 10.0674 6.99909 9.75241C7.41102 10.087 8.26579 10.9023 8.26579 11.9072C8.26579 12.6078 7.69726 13.1777 6.99841 13.1777C6.29955 13.1777 5.73105 12.6078 5.73105 11.9072ZM8.8985 12.7726C9.5256 11.3946 8.4879 9.72906 7.23373 8.90199C7.16939 8.85955 7.09438 8.83614 7.01733 8.83445C6.94027 8.83275 6.86431 8.85285 6.79817 8.89242C5.49144 9.67399 4.46998 11.3918 5.09834 12.7726C3.46579 12.0414 2.32517 10.3984 2.32517 8.49312C2.32517 5.51164 4.26685 2.91505 6.63208 1.16141V5.15456C6.63208 5.51287 7.05979 5.6999 7.32175 5.45548L9.6286 3.3024C10.9847 4.94696 11.6717 6.69141 11.6717 8.49315C11.6717 10.3984 10.5311 12.0414 8.8985 12.7726Z" fill="white"/>
</svg>
