<svg width="16" height="16" viewBox="0 0 16 16" fill="none" xmlns="http://www.w3.org/2000/svg">
<path d="M3 10C3 12.7615 5.2385 15 8 15C10.7615 15 13 12.7615 13 10C13 8.25 12.25 7.25 12 5C12 5 11.25 6.5 10.5 7.25C10.75 4.25 9.5 3.25 9.25 1C9.25 1 6.25 2 5.75 6.25C5.25 5.25 4.539 4.75 3.8945 4.5C3.8945 4.5 3.8265 5.944 3.5 7.25C3.25 8.25 3 8.75 3 10Z" fill="#FFD13E"/>
<path d="M10.6783 12.3215C10.6783 13.8007 9.47904 15 7.99979 15C6.52054 15 5.32129 13.8007 5.32129 12.3215C5.32129 11.384 5.49979 10.5 5.99979 9.5C5.99979 9.5 6.39254 10.4465 6.79454 10.8483C6.52654 9.241 7.46404 8.70525 7.59804 7.5C7.59804 7.5 9.24979 8.75 8.99979 10.75C9.26754 10.0803 9.85404 9.509 10.1993 9.375C10.1993 9.375 10.2355 10.1485 10.4105 10.8483C10.5445 11.384 10.6783 11.6517 10.6783 12.3215Z" fill="#F44040"/>
</svg>
