<svg width="32" height="32" viewBox="0 0 32 32" fill="none" xmlns="http://www.w3.org/2000/svg">
<g clip-path="url(#clip0_25924_1147)">
<path fill-rule="evenodd" clip-rule="evenodd" d="M15.436 32.0007C12.1267 31.4929 9.30602 28.6597 10.6724 22.6471C12.0558 24.6535 12.5592 23.5934 12.5592 23.5934C12.6427 16.7799 17.8004 15.0754 17.8004 15.0754C16.2576 18.559 19.3108 18.6557 19.5197 22.6087C20.7776 21.9657 21.2382 21.246 21.2382 21.246C25.4038 26.8467 22.316 30.8536 18.3755 31.8819C24.6863 31.0721 30.112 25.7283 27.5128 14.2907C24.9011 18.0776 23.9518 16.0771 23.9518 16.0771C23.7923 3.21558 14.0585 0 14.0585 0C16.9714 6.5751 11.2069 6.75669 10.8134 14.2191C8.43937 13.0048 7.56904 11.6472 7.56904 11.6472C-1.14682 23.3661 6.96151 31.391 15.436 32.0007Z" fill="#919EAB"/>
</g>
<defs>
<clipPath id="clip0_25924_1147">
<rect width="32" height="32" fill="white"/>
</clipPath>
</defs>
</svg>
