<svg width="40" height="40" viewBox="0 0 40 40" fill="none" xmlns="http://www.w3.org/2000/svg">
<path d="M20 40C31.0457 40 40 31.0457 40 20C40 8.9543 31.0457 0 20 0C8.9543 0 0 8.9543 0 20C0 31.0457 8.9543 40 20 40Z" fill="#1A73E8"/>
<path fill-rule="evenodd" clip-rule="evenodd" d="M20 25.3771C21.0217 25.3771 22.0204 25.0741 22.8699 24.5065C23.7193 23.9388 24.3814 23.1321 24.7724 22.1882C25.1633 21.2442 25.2656 20.2056 25.0663 19.2036C24.8669 18.2015 24.3749 17.2811 23.6525 16.5587C22.93 15.8363 22.0096 15.3443 21.0075 15.1451C20.0055 14.9458 18.9668 15.0481 18.0229 15.4391C17.0791 15.8301 16.2723 16.4923 15.7047 17.3418C15.1372 18.1913 14.8343 19.19 14.8343 20.2117C14.8359 21.5812 15.3807 22.8941 16.3491 23.8625C17.3175 24.8309 18.6305 25.3756 20 25.3771ZM20 13.2947C21.368 13.2947 22.7053 13.7003 23.8428 14.4603C24.9802 15.2203 25.8668 16.3005 26.3904 17.5643C26.9139 18.8282 27.0509 20.2189 26.7841 21.5606C26.5173 22.9023 25.8585 24.1348 24.8913 25.1022C23.924 26.0695 22.6916 26.7283 21.3498 26.9952C20.0081 27.2622 18.6174 27.1252 17.3535 26.6018C16.0897 26.0783 15.0094 25.1918 14.2493 24.0544C13.4893 22.917 13.0836 21.5797 13.0835 20.2117C13.0856 18.3779 13.8149 16.6198 15.1115 15.3231C16.4082 14.0264 18.1662 13.2969 20 13.2947ZM32.6953 28.6313C32.6951 28.9505 32.5682 29.2566 32.3425 29.4824C32.1167 29.7081 31.8106 29.8351 31.4914 29.8353H8.50867C8.18944 29.835 7.88336 29.7081 7.65762 29.4823C7.43189 29.2566 7.30496 28.9505 7.30469 28.6313V13.3825C7.30494 13.0632 7.43185 12.7572 7.65757 12.5314C7.88329 12.3057 8.18936 12.1787 8.50859 12.1784H14.3445C14.4331 12.1784 14.5196 12.1516 14.5926 12.1013C14.6656 12.0511 14.7216 11.9799 14.7533 11.8972L16.0068 8.62216H23.9931L25.2469 11.8972C25.2784 11.98 25.3343 12.0512 25.4073 12.1015C25.4803 12.1517 25.5668 12.1785 25.6554 12.1784H31.4913C31.8105 12.1787 32.1166 12.3057 32.3423 12.5314C32.568 12.7572 32.6949 13.0633 32.6952 13.3825L32.6953 28.6313Z" fill="white"/>
</svg>
