<svg width="20" height="20" viewBox="0 0 20 20" fill="none" xmlns="http://www.w3.org/2000/svg">
<path d="M16.5474 10.0856C15.7183 9.84655 14.7745 10.5937 14.4399 11.7544C14.1108 12.895 13.8439 14.2087 14.6439 14.4731C14.658 14.4778 14.6714 14.4844 14.6858 14.4887C15.5149 14.7278 17.1074 13.7803 17.4424 12.6197C17.7774 11.4591 17.3755 10.325 16.5474 10.0856Z" fill="#69911D"/>
<path d="M16.6566 10.125C16.3242 10.2768 16.0307 10.5024 15.7985 10.7845C15.5663 11.0667 15.4013 11.398 15.3163 11.7534C15.0081 12.8219 15.3241 13.8666 16.0228 14.2125C16.6807 13.8804 17.1878 13.3107 17.4416 12.6188C17.7616 11.5128 17.4103 10.4306 16.6566 10.125Z" fill="#5A7D19"/>
<path d="M18.049 10.0856C17.22 9.84655 16.2762 10.5937 15.9412 11.7544C15.6125 12.895 15.9943 14.0084 16.7943 14.2737C16.8084 14.2787 16.8218 14.285 16.8362 14.2894C17.6653 14.5284 18.609 13.7812 18.944 12.6206C19.279 11.46 18.8781 10.325 18.049 10.0856Z" fill="#69911D"/>
<path d="M16.7608 14.6875C16.7113 14.6875 16.6625 14.6758 16.6184 14.6532C16.5743 14.6307 16.5362 14.5979 16.5073 14.5578C16.4783 14.5176 16.4593 14.4712 16.4518 14.4222C16.4443 14.3733 16.4486 14.3232 16.4643 14.2763L17.4018 11.4638C17.4279 11.385 17.4843 11.3199 17.5585 11.2828C17.6327 11.2456 17.7186 11.2394 17.7974 11.2656C17.8761 11.2918 17.9412 11.3482 17.9784 11.4224C18.0155 11.4966 18.0217 11.5825 17.9955 11.6613L17.058 14.4738C17.0372 14.5361 16.9973 14.5903 16.944 14.6287C16.8906 14.6671 16.8265 14.6876 16.7608 14.6875Z" fill="#799C36"/>
<path d="M18.0461 5.96563C18.235 5.93672 18.4146 5.86442 18.5709 5.75441C18.7272 5.6444 18.8558 5.49966 18.9467 5.33157C19.287 4.65438 18.853 3.74813 17.9761 3.30782C17.6004 3.11307 17.1743 3.03752 16.7545 3.09125C16.888 2.4575 16.4595 1.71625 15.692 1.32938C14.9486 0.955941 14.1273 1.03907 13.687 1.48563C13.2702 1.12726 12.7374 0.932473 12.1877 0.937503C11.0911 0.937503 10.1877 1.67282 10.0677 2.61938C10.0677 2.61938 6.91141 4.24438 8.22016 6.5625C9.52891 8.88063 8.68641 9.42375 10.6995 9.30063C12.7127 9.1775 13.3558 7.44625 14.6645 7.735C15.9733 8.02375 16.5998 8.85532 17.5002 7.875C18.0689 7.25469 18.0461 5.96563 18.0461 5.96563Z" fill="#69911D"/>
<path d="M13.8859 7.46158L13.0463 8.40627C12.4929 9.02999 12.1873 9.83494 12.1875 10.6688C12.1875 10.7931 12.1381 10.9123 12.0502 11.0002C11.9623 11.0881 11.8431 11.1375 11.7188 11.1375C11.5944 11.1375 11.4752 11.0881 11.3873 11.0002C11.2994 10.9123 11.25 10.7931 11.25 10.6688V9.32127C11.25 9.04106 11.3052 8.76359 11.4124 8.50471C11.5196 8.24584 11.6768 8.01062 11.875 7.81252L11.4494 8.06783C11.1246 8.26266 10.7441 8.34337 10.3683 8.29711C9.9924 8.25085 9.64279 8.08028 9.375 7.81252V14.7566C9.375 14.7566 14.375 14.7025 14.375 14.7566V9.47189C14.3937 9.21745 14.4659 8.96982 14.5869 8.7452C14.7079 8.52059 14.875 8.32406 15.0772 8.16845C14.6167 8.06132 14.2006 7.81442 13.8859 7.46158Z" fill="#A9C358"/>
<path d="M7.79648 11.1009H7.7871L7.96242 11.0541C8.12587 11.0123 8.27942 10.9385 8.41416 10.837C8.54891 10.7355 8.66217 10.6083 8.7474 10.4627C8.83263 10.3171 8.88812 10.1561 8.91067 9.98886C8.93322 9.82168 8.92237 9.65167 8.87875 9.48871C8.83514 9.32574 8.75962 9.17305 8.65658 9.03947C8.55354 8.90589 8.42502 8.79409 8.27847 8.71053C8.13191 8.62697 7.97023 8.57332 7.8028 8.55268C7.63536 8.53205 7.4655 8.54483 7.30304 8.59031L7.24054 8.60656L7.87929 8.0725C8.13871 7.85556 8.30132 7.54445 8.33135 7.20762C8.36139 6.87078 8.25639 6.53582 8.03945 6.2764C7.82251 6.01699 7.5114 5.85437 7.17457 5.82434C6.83774 5.7943 6.50277 5.89931 6.24335 6.11625L5.85148 6.44375L5.78367 5.74249C5.75118 5.40588 5.5863 5.09595 5.3253 4.8809C5.0643 4.66585 4.72856 4.56329 4.39195 4.59578C4.05533 4.62827 3.7454 4.79314 3.53035 5.05414C3.3153 5.31514 3.21274 5.65088 3.24523 5.98749L3.31179 6.67937L2.94648 6.45406C2.65031 6.29087 2.30144 6.25201 1.97662 6.34605C1.6518 6.44008 1.37764 6.65929 1.21445 6.95546C1.05126 7.25164 1.0124 7.60051 1.10643 7.92532C1.20047 8.25014 1.41968 8.5243 1.71585 8.68749L2.34617 9.07656L2.30085 9.07343C1.96341 9.0501 1.63051 9.16178 1.3754 9.38389C1.1203 9.606 0.963871 9.92036 0.94054 10.2578C0.917209 10.5953 1.02888 10.9281 1.251 11.1833C1.47311 11.4384 1.78747 11.5948 2.12492 11.6181L2.30617 11.6306H2.29679C1.96017 11.6631 1.65025 11.828 1.4352 12.089C1.22014 12.35 1.11758 12.6857 1.15007 13.0223C1.18256 13.359 1.34744 13.6689 1.60844 13.8839C1.86944 14.099 2.20517 14.2015 2.54179 14.1691L3.59929 14.0672C3.74382 14.0759 3.88439 14.1178 4.01016 14.1895C4.13593 14.2613 4.24351 14.361 4.3246 14.4809L6.32148 14.2822C6.38649 14.1495 6.47936 14.0325 6.59375 13.939C6.70814 13.8456 6.84135 13.7779 6.98429 13.7406L8.04179 13.6384C8.37841 13.606 8.68835 13.4411 8.90343 13.1802C9.11851 12.9192 9.22111 12.5835 9.18867 12.2469C9.15622 11.9103 8.99138 11.6003 8.73041 11.3852C8.46944 11.1702 8.13372 11.0675 7.7971 11.1L7.79648 11.1009Z" fill="#457529"/>
<path d="M17.8851 5.83032C17.8882 5.79532 17.8916 5.76063 17.8916 5.72501C17.8916 4.94688 17.1063 4.31626 16.1376 4.31626C15.2194 4.31626 14.4672 4.88313 14.3913 5.60501C14.2762 5.67209 14.1679 5.75016 14.0679 5.83813C14.0783 5.75907 14.0838 5.67944 14.0844 5.59969C14.0848 5.21905 13.9705 4.84713 13.7565 4.53237C13.5425 4.21761 13.2386 3.97462 12.8844 3.83506C12.5303 3.6955 12.1423 3.66584 11.7711 3.74994C11.3999 3.83404 11.0626 4.02801 10.8032 4.30657C10.801 3.77994 10.613 3.27098 10.2724 2.86933C9.93182 2.46768 9.4604 2.19911 8.94121 2.11091C8.42202 2.02271 7.88836 2.12055 7.43422 2.38719C6.98009 2.65384 6.63461 3.07218 6.45864 3.56854C6.28266 4.06489 6.28749 4.60743 6.47225 5.10058C6.65702 5.59373 7.00988 6.00587 7.46869 6.2644C7.92749 6.52292 8.46281 6.61126 8.98035 6.51385C9.49789 6.41644 9.96446 6.13952 10.2979 5.73188C10.3236 6.1064 10.46 6.46484 10.6898 6.76167C10.9196 7.0585 11.2325 7.28033 11.5886 7.39898C11.9448 7.51763 12.3282 7.52775 12.6901 7.42806C13.052 7.32837 13.3761 7.12336 13.6213 6.83907C13.6779 7.44626 14.2697 7.95907 15.0994 8.17532C15.2473 8.44092 15.474 8.65408 15.7482 8.78541C16.0223 8.91673 16.3305 8.95975 16.6302 8.90852C16.9298 8.85729 17.2062 8.71435 17.4212 8.4994C17.6361 8.28445 17.7791 8.00809 17.8304 7.70844C17.9843 7.59775 18.1112 7.45361 18.2015 7.28686C18.2918 7.1201 18.3431 6.93506 18.3516 6.74563C18.3445 6.56844 18.2991 6.39488 18.2186 6.23689C18.138 6.07889 18.0243 5.94019 17.8851 5.83032Z" fill="#69911D"/>
<path d="M9.09379 11.3494H9.08441L9.26347 11.3181C9.43024 11.2923 9.59023 11.2337 9.73416 11.1456C9.8781 11.0575 10.0031 10.9417 10.102 10.8049C10.2008 10.6682 10.2716 10.5132 10.3101 10.3489C10.3486 10.1846 10.3541 10.0142 10.3263 9.8478C10.2985 9.68135 10.238 9.52207 10.1482 9.3792C10.0584 9.23632 9.94114 9.11268 9.80321 9.01546C9.66528 8.91823 9.50943 8.84934 9.34469 8.81278C9.17994 8.77623 9.00958 8.77273 8.84347 8.8025L8.78097 8.81312L9.46847 8.34437C9.74407 8.15189 9.93252 7.85839 9.99285 7.5277C10.0532 7.19701 9.9805 6.85587 9.79063 6.57847C9.60076 6.30108 9.30905 6.10987 8.97894 6.04643C8.64883 5.98298 8.30702 6.05244 8.02785 6.23968L7.60629 6.52843V5.82343C7.60105 5.4887 7.4644 5.16945 7.22583 4.93458C6.98726 4.69972 6.66591 4.56808 6.33113 4.56808C5.99635 4.56808 5.675 4.69972 5.43643 4.93458C5.19787 5.16945 5.06122 5.4887 5.05597 5.82343V6.51875L4.71222 6.25906C4.43317 6.06802 4.08965 5.99566 3.75724 6.0579C3.42483 6.12014 3.13076 6.31188 2.93972 6.59093C2.74869 6.86999 2.67633 7.21351 2.73857 7.54592C2.8008 7.87833 2.99254 8.1724 3.2716 8.36344L3.86316 8.8125L3.81816 8.805C3.4865 8.75367 3.14798 8.83514 2.87599 9.03175C2.604 9.22836 2.42048 9.52426 2.36521 9.85529C2.30994 10.1863 2.38739 10.5258 2.58075 10.8001C2.77412 11.0744 3.06782 11.2614 3.39816 11.3206L3.57722 11.3519H3.56785C3.23311 11.3571 2.91386 11.4938 2.679 11.7323C2.44414 11.9709 2.3125 12.2923 2.3125 12.627C2.3125 12.9618 2.44414 13.2832 2.679 13.5217C2.91386 13.7603 3.23311 13.8969 3.56785 13.9022H4.63035C4.77314 13.9245 4.90889 13.9793 5.02716 14.0624C5.14543 14.1454 5.24306 14.2545 5.31254 14.3812L7.31941 14.375C7.39693 14.2493 7.50065 14.1417 7.6235 14.0597C7.74635 13.9777 7.88544 13.9231 8.03129 13.8997H9.09379C9.42852 13.8944 9.74777 13.7578 9.98264 13.5192C10.2175 13.2807 10.3491 12.9593 10.3491 12.6245C10.3491 12.2898 10.2175 11.9684 9.98264 11.7298C9.74777 11.4913 9.42852 11.3546 9.09379 11.3494Z" fill="#557C3E"/>
<path d="M8.95628 12.2897C8.9239 12.2134 8.86256 12.1531 8.78573 12.122C8.7089 12.091 8.62288 12.0917 8.54659 12.1241L6.56253 12.9653V11.1406L8.79565 10.1472C8.8714 10.1135 8.93067 10.0511 8.96041 9.97371C8.99015 9.89632 8.98794 9.81028 8.95424 9.73453C8.92055 9.65878 8.85815 9.59951 8.78076 9.56977C8.70337 9.54003 8.61734 9.54225 8.54159 9.57594L6.56253 10.4562V8.63656L8.80065 7.59375C8.87578 7.55873 8.93392 7.4953 8.96229 7.41742C8.99065 7.33953 8.98692 7.25357 8.9519 7.17844C8.91688 7.10331 8.85346 7.04516 8.77557 7.0168C8.69768 6.98843 8.61172 6.99217 8.53659 7.02719L6.56253 7.94719V6.5625C6.56253 6.47962 6.5296 6.40013 6.471 6.34153C6.41239 6.28292 6.33291 6.25 6.25003 6.25C6.16715 6.25 6.08766 6.28292 6.02905 6.34153C5.97045 6.40013 5.93753 6.47962 5.93753 6.5625V7.9325L4.13253 7.03125C4.09571 7.01182 4.05538 6.99995 4.0139 6.99632C3.97243 6.9927 3.93065 6.9974 3.89102 7.01014C3.85139 7.02289 3.8147 7.04342 3.78312 7.07054C3.75153 7.09767 3.72569 7.13082 3.70709 7.16807C3.6885 7.20532 3.67754 7.24591 3.67485 7.28745C3.67216 7.32899 3.6778 7.37066 3.69143 7.40999C3.70507 7.44932 3.72642 7.48554 3.75425 7.5165C3.78207 7.54747 3.81581 7.57256 3.85346 7.59031L5.93753 8.63063V10.4431L4.12753 9.58C4.0529 9.54557 3.96771 9.54192 3.89041 9.56985C3.81312 9.59777 3.74993 9.65503 3.71455 9.72921C3.67916 9.80339 3.67442 9.88852 3.70136 9.96617C3.7283 10.0438 3.78474 10.1077 3.85846 10.1441L5.93753 11.1347V12.9522L4.12221 12.1275C4.08467 12.109 4.0438 12.0983 4.00203 12.096C3.96026 12.0936 3.91845 12.0996 3.87906 12.1137C3.83967 12.1278 3.80351 12.1497 3.77273 12.178C3.74195 12.2064 3.71718 12.2406 3.69987 12.2787C3.68256 12.3168 3.67308 12.3579 3.67198 12.3998C3.67089 12.4416 3.6782 12.4832 3.69348 12.5221C3.70877 12.5611 3.73172 12.5966 3.76097 12.6265C3.79022 12.6564 3.82518 12.6801 3.86378 12.6962L5.93753 13.6388V14.375C5.93753 14.4579 5.97045 14.5374 6.02905 14.596C6.08766 14.6546 6.16715 14.6875 6.25003 14.6875C6.33291 14.6875 6.41239 14.6546 6.471 14.596C6.5296 14.5374 6.56253 14.4579 6.56253 14.375V13.6444L8.79065 12.6997C8.82846 12.6837 8.86274 12.6603 8.89153 12.6311C8.92033 12.6018 8.94306 12.5671 8.95844 12.529C8.97383 12.4909 8.98155 12.4502 8.98118 12.4091C8.98081 12.3681 8.97235 12.3275 8.95628 12.2897Z" fill="#BFC99D"/>
<path d="M12.3298 6.55502C12.2515 6.55488 12.1761 6.52535 12.1185 6.47227C12.0609 6.41919 12.0254 6.34643 12.0189 6.26839C12.0124 6.19035 12.0355 6.11272 12.0835 6.05087C12.1315 5.98902 12.201 5.94745 12.2782 5.93439C12.6363 5.87321 12.9625 5.69111 13.2026 5.41845C13.2582 5.35961 13.3345 5.32465 13.4154 5.32094C13.4963 5.31724 13.5754 5.34508 13.6362 5.3986C13.697 5.45211 13.7346 5.52713 13.7412 5.60784C13.7477 5.68855 13.7227 5.76865 13.6713 5.83126C13.3363 6.21143 12.8809 6.46514 12.3813 6.55001C12.3643 6.55303 12.3471 6.5547 12.3298 6.55502ZM13.7135 4.62877C13.6513 4.62879 13.5905 4.61024 13.5389 4.5755C13.4873 4.54076 13.4472 4.49141 13.4238 4.43376C13.2767 4.07033 13.2569 3.66777 13.3679 3.29169C13.4788 2.9156 13.7138 2.58819 14.0347 2.36281C14.3556 2.13743 14.7433 2.02738 15.1347 2.05059C15.5261 2.0738 15.8981 2.22892 16.1901 2.49064C16.222 2.51762 16.2483 2.55075 16.2672 2.58806C16.2861 2.62536 16.2974 2.66609 16.3002 2.70782C16.3031 2.74955 16.2976 2.79143 16.284 2.83099C16.2704 2.87055 16.249 2.90698 16.2211 2.93812C16.1932 2.96925 16.1593 2.99446 16.1214 3.01225C16.0835 3.03005 16.0425 3.04005 16.0007 3.04169C15.9589 3.04332 15.9172 3.03655 15.8781 3.02177C15.8389 3.00699 15.8032 2.9845 15.7729 2.95564C15.5859 2.78856 15.3479 2.68965 15.0976 2.67502C14.8473 2.66038 14.5994 2.73088 14.3943 2.87504C14.1891 3.0192 14.0388 3.22853 13.9677 3.46899C13.8967 3.70945 13.9091 3.96687 14.0029 4.19939C14.0338 4.27615 14.033 4.36202 14.0006 4.43817C13.9683 4.51433 13.9071 4.57455 13.8304 4.60564C13.7933 4.62089 13.7536 4.62875 13.7135 4.62877ZM7.81039 4.45908C7.73712 4.45894 7.66621 4.43306 7.61008 4.38595C7.52417 4.31537 7.4531 4.22847 7.40097 4.13026C7.34884 4.03206 7.31668 3.92449 7.30637 3.81379C7.29605 3.70308 7.30777 3.59143 7.34085 3.48528C7.37394 3.37913 7.42772 3.28059 7.49911 3.19535C7.5705 3.11011 7.65807 3.03986 7.75677 2.98866C7.85546 2.93746 7.96332 2.90633 8.07412 2.89706C8.18492 2.88779 8.29645 2.90056 8.40229 2.93465C8.50812 2.96873 8.60615 3.02345 8.69071 3.09564C8.75423 3.14889 8.79401 3.2252 8.80127 3.30777C8.80854 3.39035 8.78271 3.47242 8.72946 3.53595C8.67621 3.59948 8.5999 3.63925 8.51733 3.64652C8.43475 3.65379 8.35267 3.62795 8.28914 3.5747C8.26773 3.55643 8.24287 3.54261 8.21604 3.53408C8.1892 3.52555 8.16094 3.52247 8.13289 3.52501C8.0902 3.52876 8.04957 3.54509 8.01616 3.57193C7.98275 3.59878 7.95805 3.63494 7.94521 3.67583C7.93236 3.71672 7.93193 3.7605 7.94398 3.80163C7.95603 3.84276 7.98001 3.8794 8.01289 3.90689C8.06214 3.94809 8.0975 4.00346 8.11417 4.06546C8.13084 4.12747 8.128 4.1931 8.10604 4.25344C8.08409 4.31378 8.04408 4.36588 7.99146 4.40268C7.93884 4.43947 7.87616 4.45916 7.81196 4.45908H7.81039Z" fill="#5A7D19"/>
<path d="M12.4869 12.1875H11.9288C11.8459 12.1875 11.7664 12.1546 11.7078 12.096C11.6492 12.0374 11.6163 11.9579 11.6163 11.875C11.6163 11.7921 11.6492 11.7126 11.7078 11.654C11.7664 11.5954 11.8459 11.5625 11.9288 11.5625H12.3881L13.5703 10.7309C13.6038 10.7057 13.642 10.6875 13.6826 10.6773C13.7233 10.6672 13.7655 10.6653 13.8069 10.6718C13.8483 10.6783 13.888 10.6931 13.9235 10.7153C13.9591 10.7374 13.9899 10.7665 14.014 10.8007C14.0381 10.835 14.055 10.8738 14.0639 10.9147C14.0727 10.9557 14.0732 10.998 14.0653 11.0392C14.0574 11.0803 14.0414 11.1195 14.0181 11.1543C13.9948 11.1891 13.9647 11.2189 13.9297 11.2419L12.6666 12.1303C12.6141 12.1676 12.5513 12.1876 12.4869 12.1875ZM12.5 13.4375H10.9375C10.8546 13.4375 10.7751 13.4046 10.7165 13.346C10.6579 13.2874 10.625 13.2079 10.625 13.125C10.625 13.0421 10.6579 12.9626 10.7165 12.904C10.7751 12.8454 10.8546 12.8125 10.9375 12.8125H12.5C12.5829 12.8125 12.6624 12.8454 12.721 12.904C12.7796 12.9626 12.8125 13.0421 12.8125 13.125C12.8125 13.2079 12.7796 13.2874 12.721 13.346C12.6624 13.4046 12.5829 13.4375 12.5 13.4375ZM9.375 14.0625H14.375V14.6875H9.375V14.0625Z" fill="#9BBA3A"/>
<path d="M0.9375 14.375H19.0625V15.625C19.0625 16.5367 18.7003 17.411 18.0557 18.0557C17.411 18.7003 16.5367 19.0625 15.625 19.0625H4.375C3.46332 19.0625 2.58898 18.7003 1.94432 18.0557C1.29966 17.411 0.9375 16.5367 0.9375 15.625V14.375Z" fill="#F2E4DA"/>
<path d="M15.625 18.4375H4.375C3.46332 18.4375 2.58898 18.0753 1.94432 17.4307C1.29966 16.786 0.9375 15.9117 0.9375 15V15.625C0.9375 16.5367 1.29966 17.411 1.94432 18.0557C2.58898 18.7003 3.46332 19.0625 4.375 19.0625H15.625C16.5367 19.0625 17.411 18.7003 18.0557 18.0557C18.7003 17.411 19.0625 16.5367 19.0625 15.625V15C19.0625 15.9117 18.7003 16.786 18.0557 17.4307C17.411 18.0753 16.5367 18.4375 15.625 18.4375Z" fill="#F2DBCB"/>
<path d="M5.31221 18.125C2.97502 18.125 2.20565 16.8006 1.97221 15.6894C1.9633 15.649 1.96246 15.6074 1.96976 15.5667C1.97706 15.526 1.99234 15.4872 2.01473 15.4525C2.03712 15.4178 2.06617 15.3879 2.10019 15.3645C2.13422 15.3411 2.17255 15.3246 2.21297 15.3161C2.25338 15.3076 2.29509 15.3072 2.33566 15.3149C2.37624 15.3226 2.41489 15.3383 2.44937 15.361C2.48385 15.3838 2.51348 15.4131 2.53655 15.4474C2.55962 15.4816 2.57567 15.5201 2.58377 15.5606C2.85409 16.8475 3.77221 17.5 5.31221 17.5C5.39509 17.5 5.47458 17.5329 5.53318 17.5915C5.59179 17.6501 5.62471 17.7296 5.62471 17.8125C5.62471 17.8954 5.59179 17.9749 5.53318 18.0335C5.47458 18.0921 5.39509 18.125 5.31221 18.125ZM6.87471 18.125H6.56221C6.47933 18.125 6.39985 18.0921 6.34124 18.0335C6.28264 17.9749 6.24971 17.8954 6.24971 17.8125C6.24971 17.7296 6.28264 17.6501 6.34124 17.5915C6.39985 17.5329 6.47933 17.5 6.56221 17.5H6.87471C6.95759 17.5 7.03708 17.5329 7.09568 17.5915C7.15429 17.6501 7.18721 17.7296 7.18721 17.8125C7.18721 17.8954 7.15429 17.9749 7.09568 18.0335C7.03708 18.0921 6.95759 18.125 6.87471 18.125Z" fill="#F2DBCB"/>
<path d="M15.4548 7.1875C15.3765 7.18736 15.3011 7.15783 15.2435 7.10475C15.1859 7.05167 15.1504 6.97891 15.1439 6.90087C15.1374 6.82283 15.1605 6.7452 15.2085 6.68335C15.2565 6.6215 15.326 6.57993 15.4032 6.56687C15.7613 6.5057 16.0876 6.32359 16.3276 6.05093C16.3542 6.01848 16.3871 5.99173 16.4243 5.97226C16.4614 5.95279 16.5021 5.941 16.544 5.93761C16.5858 5.93421 16.6279 5.93928 16.6677 5.9525C16.7075 5.96572 16.7443 5.98683 16.7758 6.01456C16.8073 6.0423 16.8329 6.07609 16.851 6.11393C16.8692 6.15176 16.8795 6.19287 16.8814 6.23479C16.8833 6.27671 16.8768 6.31859 16.8622 6.35792C16.8476 6.39726 16.8252 6.43325 16.7964 6.46375C16.4613 6.84392 16.0059 7.09762 15.5064 7.1825C15.4893 7.18551 15.4721 7.18719 15.4548 7.1875ZM9.13729 5.40625C9.11831 5.33043 9.12841 5.25026 9.16563 5.18153C9.20284 5.1128 9.26446 5.06051 9.33832 5.03498C9.41219 5.00944 9.49294 5.01251 9.56466 5.04357C9.63637 5.07464 9.69384 5.13146 9.72573 5.20281C9.87347 5.53468 10.1306 5.80582 10.4542 5.97093C10.5279 6.00865 10.5836 6.07406 10.6091 6.15282C10.6346 6.23158 10.6278 6.31724 10.5902 6.391C10.5527 6.46476 10.4873 6.5206 10.4086 6.54625C10.3299 6.5719 10.2442 6.56527 10.1704 6.52781C9.71897 6.29721 9.36027 5.91877 9.15417 5.45562C9.14725 5.43964 9.1416 5.42313 9.13729 5.40625Z" fill="#5A7D19"/>
</svg>
