<svg width="16" height="16" viewBox="0 0 16 16" fill="none" xmlns="http://www.w3.org/2000/svg">
<path d="M15.04 2.56H0.96C0.430719 2.56 0 2.99072 0 3.52V12.48C0 13.0093 0.430719 13.44 0.96 13.44H15.04C15.5693 13.44 16 13.0093 16 12.48V3.52C16 2.99072 15.5693 2.56 15.04 2.56ZM15.36 12.48C15.36 12.656 15.216 12.8 15.04 12.8H0.96C0.783375 12.8 0.64 12.656 0.64 12.48V3.52C0.64 3.34334 0.783375 3.2 0.96 3.2H15.04C15.216 3.2 15.36 3.34334 15.36 3.52V12.48Z" fill="#212121"/>
<path d="M0.320312 5.44H15.6803V6.72H0.320312V5.44Z" fill="#212121"/>
<path d="M15.68 5.12H0.32C0.143375 5.12 0 5.26334 0 5.44V6.72C0 6.89665 0.143375 7.04 0.32 7.04H15.68C15.8566 7.04 16 6.89665 16 6.72V5.44C16 5.26334 15.8566 5.12 15.68 5.12ZM15.36 6.4H0.64V5.76H15.36V6.4ZM8.64 8.96H2.88C2.70338 8.96 2.56 9.10337 2.56 9.27999C2.56 9.45662 2.70338 9.6 2.88 9.6H8.64C8.81663 9.6 8.96 9.45662 8.96 9.27999C8.96 9.10334 8.81663 8.96 8.64 8.96ZM6.08 10.24H2.88C2.70338 10.24 2.56 10.3834 2.56 10.56C2.56 10.7366 2.70338 10.88 2.88 10.88H6.08C6.25662 10.88 6.4 10.7366 6.4 10.56C6.4 10.3834 6.25662 10.24 6.08 10.24Z" fill="#212121"/>
</svg>
