<svg width="32" height="32" viewBox="0 0 32 32" fill="none" xmlns="http://www.w3.org/2000/svg">
<path d="M22.4876 26.8312L16 24.9562L9.51244 26.8312C9.45625 26.9437 9.4375 27.0562 9.4375 27.1875V31.0625H22.5625V27.1875C22.5625 27.0562 22.5437 26.9437 22.4876 26.8312Z" fill="#646D73"/>
<path d="M22.5625 31.0625V27.1875C22.5625 27.0562 22.5437 26.9437 22.4876 26.8312L16 24.9562V31.0625H22.5625Z" fill="#474F54"/>
<path d="M31.0625 1.875H26.2722C26.2804 1.55831 26.3125 1.26 26.3125 0.9375C26.3125 0.412437 25.9001 0 25.375 0H6.625C6.09994 0 5.6875 0.412437 5.6875 0.9375C5.6875 1.26 5.71956 1.55831 5.72769 1.875H0.9375C0.419312 1.875 0 2.29431 0 2.8125V5.18738C0 10.422 4.19325 14.6743 9.36081 14.9481C10.4374 16.4303 11.7151 17.5303 13.1687 18.15C12.9437 22.7062 10.3375 25.875 9.71881 26.5313C9.625 26.6063 9.55 26.7188 9.5125 26.8312H22.4876C22.45 26.7188 22.3751 26.6063 22.2812 26.5313C21.6437 25.875 19.0562 22.725 18.8312 18.15C20.2852 17.5302 21.5706 16.4299 22.6481 14.9471C27.8112 14.6689 32 10.4191 32 5.18738V2.8125C32 2.29431 31.5807 1.875 31.0625 1.875ZM1.875 5.18738V3.75H5.80813C6.05144 6.84863 6.72337 10.1304 8.13562 12.9192C4.59562 12.1221 1.875 8.96519 1.875 5.18738ZM30.125 5.18738C30.125 8.96325 27.4068 12.1186 23.8694 12.9176C25.2705 10.1288 25.9462 6.87881 26.1919 3.75H30.125V5.18738Z" fill="#FED843"/>
<path d="M31.0625 1.875H26.2722C26.2804 1.55831 26.3125 1.26 26.3125 0.9375C26.3125 0.412437 25.9001 0 25.375 0H16V26.8312H22.4876C22.45 26.7188 22.3751 26.6063 22.2812 26.5313C21.6438 25.875 19.0562 22.725 18.8312 18.15C20.2852 17.5302 21.5706 16.4299 22.6481 14.9471C27.8112 14.6689 32 10.4191 32 5.18738V2.8125C32 2.29431 31.5807 1.875 31.0625 1.875ZM30.125 5.18738C30.125 8.96325 27.4068 12.1186 23.8694 12.9176C25.2706 10.1288 25.9463 6.87881 26.1919 3.75H30.125V5.18738Z" fill="#FABE2C"/>
<path d="M17.4969 11.9247L16.0009 11.1474L14.5049 11.9247C14.1918 12.0859 13.8091 12.0593 13.5217 11.8515C13.3808 11.7493 13.2712 11.6098 13.2052 11.4487C13.1393 11.2876 13.1195 11.1113 13.1481 10.9396L13.4228 9.27425L12.2235 8.0905C11.9624 7.836 11.8826 7.45869 11.9891 7.13287C12.0432 6.96735 12.1422 6.8201 12.2751 6.70758C12.408 6.59506 12.5695 6.5217 12.7417 6.49569L14.4079 6.24481L15.1623 4.73694C15.4809 4.10156 16.5209 4.10156 16.8396 4.73694L17.5939 6.24481L19.2602 6.49569C19.4324 6.52173 19.5939 6.5951 19.7268 6.70761C19.8597 6.82013 19.9587 6.96736 20.0128 7.13287C20.0669 7.29847 20.0736 7.4759 20.0322 7.64512C19.9908 7.81434 19.9029 7.96861 19.7784 8.0905L18.5791 9.27425L18.8538 10.9396C18.8824 11.1113 18.8627 11.2876 18.7967 11.4487C18.7307 11.6098 18.6211 11.7493 18.4802 11.8515C18.1946 12.0584 17.8126 12.089 17.4969 11.9247Z" fill="#FABE2C"/>
<path d="M17.496 11.9248C17.8118 12.089 18.1937 12.0584 18.4792 11.8515C18.6201 11.7493 18.7297 11.6098 18.7957 11.4487C18.8617 11.2876 18.8815 11.1113 18.8528 10.9396L18.5781 9.27425L19.7774 8.0905C19.9019 7.96861 19.9898 7.81434 20.0312 7.64512C20.0727 7.4759 20.0659 7.29847 20.0118 7.13288C19.9578 6.96735 19.8588 6.8201 19.7259 6.70758C19.593 6.59506 19.4314 6.5217 19.2593 6.49569L17.593 6.24481L16.8386 4.73694C16.6793 4.41925 16.3397 4.26038 16 4.26038V11.1474L17.496 11.9248Z" fill="#FF9100"/>
<path d="M23.5 32H8.5C7.98181 32 7.5625 31.5807 7.5625 31.0625C7.5625 30.5443 7.98181 30.125 8.5 30.125H23.5C24.0182 30.125 24.4375 30.5443 24.4375 31.0625C24.4375 31.5807 24.0182 32 23.5 32Z" fill="#474F54"/>
<path d="M23.5 30.125H16V32H23.5C24.0182 32 24.4375 31.5807 24.4375 31.0625C24.4375 30.5443 24.0182 30.125 23.5 30.125Z" fill="#32393F"/>
</svg>
