<svg width="16" height="16" viewBox="0 0 16 16" fill="none" xmlns="http://www.w3.org/2000/svg">
<path d="M8 1.58331C11.5437 1.58349 14.416 4.45659 14.416 8.00031C14.4158 11.5439 11.5436 14.4161 8 14.4163C4.45628 14.4163 1.58318 11.544 1.58301 8.00031C1.58301 4.45648 4.45617 1.58331 8 1.58331Z" fill="#E6E6E6" stroke="#C4CDD5" stroke-width="0.5"/>
<path d="M10.4727 9.52664C10.5657 9.61974 10.629 9.73839 10.6544 9.86752C10.6799 9.99664 10.6664 10.1304 10.6157 10.2519C10.565 10.3733 10.4793 10.477 10.3696 10.5496C10.2598 10.6223 10.131 10.6607 9.99935 10.66C9.82602 10.66 9.65935 10.5933 9.52602 10.4666L7.99935 8.93997L6.47268 10.4666C6.33935 10.6 6.17268 10.66 5.99935 10.66C5.82602 10.66 5.65935 10.5933 5.52602 10.4666C5.46422 10.405 5.41518 10.3317 5.38173 10.2511C5.34827 10.1704 5.33105 10.0839 5.33105 9.99664C5.33105 9.90932 5.34827 9.82287 5.38173 9.74222C5.41518 9.66157 5.46422 9.58831 5.52602 9.52664L7.05268 7.99997L5.52602 6.4733C5.4643 6.41158 5.41534 6.33831 5.38193 6.25767C5.34853 6.17702 5.33134 6.09059 5.33134 6.0033C5.33134 5.91602 5.34853 5.82958 5.38193 5.74894C5.41534 5.6683 5.4643 5.59502 5.52602 5.5333C5.58774 5.47158 5.66101 5.42262 5.74166 5.38922C5.8223 5.35582 5.90873 5.33862 5.99602 5.33862C6.0833 5.33862 6.16974 5.35582 6.25038 5.38922C6.33102 5.42262 6.4043 5.47158 6.46602 5.5333L7.99268 7.05997L9.51935 5.5333C9.58107 5.47158 9.65435 5.42262 9.73499 5.38922C9.81563 5.35582 9.90206 5.33862 9.98935 5.33862C10.0766 5.33862 10.1631 5.35582 10.2437 5.38922C10.3244 5.42262 10.3976 5.47158 10.4594 5.5333C10.5211 5.59502 10.57 5.6683 10.6034 5.74894C10.6368 5.82958 10.654 5.91602 10.654 6.0033C10.654 6.09059 10.6368 6.17702 10.6034 6.25767C10.57 6.33831 10.5211 6.41158 10.4594 6.4733L8.93268 7.99997L10.4594 9.52664H10.4727Z" fill="#212121"/>
</svg>
