<svg width="16" height="16" viewBox="0 0 16 16" fill="none" xmlns="http://www.w3.org/2000/svg">
<path fill-rule="evenodd" clip-rule="evenodd" d="M13.7435 3.76601C13.81 3.82422 13.8642 3.89506 13.9031 3.97442C13.9419 4.05379 13.9646 4.14008 13.9698 4.22829C13.9751 4.3165 13.9627 4.40487 13.9334 4.48826C13.9042 4.57164 13.8587 4.64838 13.7995 4.71401L6.79015 12.4933C6.7307 12.5592 6.65869 12.6126 6.57835 12.6503C6.49801 12.6879 6.41095 12.7092 6.32228 12.7128C6.23361 12.7164 6.14512 12.7023 6.06198 12.6712C5.97885 12.6402 5.90275 12.5929 5.83815 12.532L1.78215 8.71401C1.66047 8.59783 1.5868 8.44023 1.57569 8.27235C1.56458 8.10448 1.61684 7.93855 1.72215 7.80734C1.77899 7.73621 1.8497 7.67737 1.92998 7.6344C2.01025 7.59143 2.09843 7.56522 2.18914 7.55737C2.27986 7.54951 2.37122 7.56017 2.45769 7.5887C2.54416 7.61724 2.62393 7.66304 2.69215 7.72334L5.83882 10.554C5.9702 10.6723 6.14318 10.7335 6.3197 10.7242C6.49622 10.715 6.66185 10.636 6.78015 10.5047L12.8088 3.82001C12.9262 3.6899 13.09 3.61122 13.2649 3.60099C13.4399 3.59076 13.6118 3.6498 13.7435 3.76534V3.76601Z" fill="#637381"/>
</svg>
