<svg width="36" height="36" viewBox="0 0 36 36" fill="none" xmlns="http://www.w3.org/2000/svg">
<path d="M18 0C8.07441 0 0 8.07441 0 18C0 27.9256 8.07441 36 18 36C27.9256 36 36 27.9256 36 18C36 8.07441 27.9256 0 18 0Z" fill="#4CAF50"/>
<path d="M27.1234 14.1856L17.3733 23.9354C17.0808 24.2279 16.6969 24.3751 16.3129 24.3751C15.9289 24.3751 15.5449 24.2279 15.2524 23.9354L10.3775 19.0605C9.79083 18.4741 9.79083 17.526 10.3775 16.9396C10.9639 16.3529 11.9117 16.3529 12.4984 16.9396L16.3129 20.754L25.0025 12.0646C25.5889 11.478 26.5367 11.478 27.1234 12.0646C27.7098 12.6511 27.7098 13.5989 27.1234 14.1856Z" fill="white"/>
</svg>
