<svg width="32" height="32" viewBox="0 0 32 32" fill="none" xmlns="http://www.w3.org/2000/svg">
<path d="M27.8477 9.11302L30.1855 7.71696C30.6039 7.46715 30.6039 6.86115 30.1855 6.61133L27.8477 5.21527V9.11302Z" fill="#FFE177"/>
<path d="M22.6572 0.000144334C19.8171 0.0211443 17.5453 2.37533 17.5453 5.21558V9.19583C17.5453 9.47846 17.2445 9.65952 16.9948 9.52721L2.95063 2.08608C2.47819 1.83577 1.90913 2.17821 1.90913 2.71289V3.80171C1.90912 4.76958 2.21618 5.7125 2.78613 6.49477C3.00096 6.78964 3.11904 7.1439 3.12406 7.50871C3.14169 8.78421 3.45475 10.038 4.116 11.1289L4.60506 11.9357C4.77212 12.2113 4.86045 12.5274 4.86044 12.8497C4.86043 13.498 5.01067 14.1375 5.29939 14.718C5.5881 15.2985 6.00742 15.8042 6.52444 16.1954L7.62588 17.0288C7.82181 17.177 7.82463 17.4705 7.63156 17.6225L0.421625 23.2979C0.290222 23.4013 0.184003 23.5332 0.110971 23.6837C0.0379378 23.8341 -5.03677e-06 23.9992 5.01493e-10 24.1664C5.01493e-10 24.7768 0.494813 25.2716 1.10525 25.2716H3.54706C3.94639 25.2717 4.34114 25.3567 4.70506 25.5211L7.65556 26.8541C11.1949 28.4532 15.3082 28.117 18.5407 25.9642L22.8248 23.1111C25.9623 21.0218 27.8471 17.502 27.8471 13.7325V5.15096C27.8471 2.29314 25.5199 -0.0210432 22.6572 0.000144334Z" fill="#99E6FC"/>
<path d="M22.6567 0.000144334C22.2115 0.00336008 21.7687 0.0651403 21.3396 0.183894C23.5226 0.781707 25.1274 2.77821 25.1274 5.15089V13.7405C25.1271 14.1578 24.7817 14.4914 24.3645 14.4873C24.3341 14.487 24.3037 14.4869 24.2732 14.4869C18.8768 14.4869 14.4865 18.8772 14.4865 24.2736C14.4865 24.8712 14.5405 25.4563 14.6438 26.0246C14.7059 26.3662 14.5337 26.7087 14.2174 26.8518C13.1763 27.3225 12.0697 27.6322 10.9355 27.7701C13.569 28.0898 16.2715 27.4751 18.5402 25.9643L22.8244 23.1112C25.9618 21.0218 27.8466 17.5021 27.8466 13.7326V5.15096C27.8467 2.29314 25.5194 -0.0210432 22.6567 0.000144334Z" fill="#62DBFB"/>
<path d="M24.2732 32C28.5404 32 31.9996 28.5408 31.9996 24.2736C31.9996 20.0065 28.5404 16.5473 24.2732 16.5473C20.0061 16.5473 16.5469 20.0065 16.5469 24.2736C16.5469 28.5408 20.0061 32 24.2732 32Z" fill="#FE76A8"/>
<path d="M28.0137 17.5118C28.628 18.6201 28.9782 19.895 28.9782 21.2519C28.9782 25.519 25.519 28.9783 21.2518 28.9783C19.8949 28.9783 18.62 28.6281 17.5117 28.0138C18.8293 30.3907 21.3633 32 24.2735 32C28.5407 32 31.9999 28.5408 31.9999 24.2737C31.9999 21.3634 30.3906 18.8294 28.0137 17.5118Z" fill="#FE5694"/>
<path d="M24.2734 29.9396C27.4027 29.9396 29.9394 27.4029 29.9394 24.2736C29.9394 21.1444 27.4027 18.6076 24.2734 18.6076C21.1442 18.6076 18.6074 21.1444 18.6074 24.2736C18.6074 27.4029 21.1442 29.9396 24.2734 29.9396Z" fill="#F2FBFF"/>
<path d="M28.9752 21.1161C28.9759 21.1614 28.9774 21.2065 28.9774 21.2519C28.9774 25.519 25.5182 28.9783 21.251 28.9783C21.2055 28.9783 21.1605 28.9768 21.1152 28.9761C22.0479 29.6054 23.1476 29.941 24.2727 29.9396C27.397 29.9396 29.9387 27.3979 29.9387 24.2736C29.9401 23.1485 29.6045 22.0488 28.9752 21.1161Z" fill="#DFF6FD"/>
<path d="M10.3356 19.0916L7.68702 17.0875C7.81914 17.245 7.80127 17.4887 7.63114 17.6225L7.24352 17.9277L9.76989 19.8392C9.85115 19.9009 9.95037 19.9343 10.0524 19.9342C10.1249 19.9343 10.1964 19.9176 10.2614 19.8853C10.3263 19.8531 10.3828 19.8061 10.4265 19.7483C10.4637 19.6992 10.4908 19.6433 10.5063 19.5837C10.5219 19.5241 10.5255 19.4621 10.5171 19.4011C10.5087 19.3401 10.4883 19.2814 10.4572 19.2283C10.426 19.1752 10.3847 19.1287 10.3356 19.0916ZM7.68852 9.32984L2.25977 5.55872C2.39773 5.89033 2.57428 6.20454 2.78577 6.49484C2.95582 6.72888 3.06563 7.00118 3.10552 7.28772L7.15364 10.0998C7.23197 10.1544 7.32516 10.1836 7.42064 10.1836C7.49637 10.1837 7.571 10.1654 7.63812 10.1304C7.70525 10.0953 7.76286 10.0444 7.80602 9.98222C7.84115 9.93167 7.86598 9.8747 7.87909 9.81455C7.8922 9.75441 7.89333 9.69227 7.88242 9.63169C7.87151 9.5711 7.84876 9.51327 7.81549 9.46147C7.78222 9.40968 7.73908 9.36495 7.68852 9.32984ZM8.92202 14.1754L4.05158 11.0187C4.07289 11.0555 4.09358 11.0925 4.11564 11.129L4.6047 11.9358C4.73669 12.1541 4.8197 12.3985 4.84802 12.652L8.41214 14.9621C8.46378 14.9956 8.52153 15.0186 8.58207 15.0298C8.64261 15.041 8.70477 15.0402 8.76498 15.0273C8.8252 15.0144 8.88228 14.9899 8.93298 14.9549C8.98368 14.92 9.027 14.8754 9.06045 14.8237C9.12805 14.7194 9.15144 14.5925 9.12548 14.4709C9.09952 14.3493 9.02633 14.243 8.92202 14.1754ZM19.8176 12.4175L20.1687 13.5562C20.1982 13.652 20.2576 13.7357 20.3382 13.7952C20.4188 13.8548 20.5163 13.8869 20.6165 13.887C20.6899 13.887 20.7623 13.8698 20.8278 13.8367C20.8934 13.8036 20.9502 13.7557 20.9938 13.6966C21.0374 13.6375 21.0665 13.5691 21.0788 13.4967C21.0911 13.4243 21.0862 13.3501 21.0646 13.28L20.7135 12.1412C20.338 10.9237 19.5236 9.9019 18.4205 9.26434L17.5448 8.75822V9.19584C17.5448 9.46597 17.2702 9.64253 17.0278 9.54222L17.9514 10.076C18.8492 10.595 19.512 11.4265 19.8176 12.4175Z" fill="#62DBFB"/>
<path d="M26.5914 24.7424H24.2734C24.1491 24.7424 24.0299 24.693 23.942 24.6051C23.8541 24.5172 23.8047 24.398 23.8047 24.2737V20.668C23.8047 20.4092 24.0145 20.1993 24.2734 20.1993C24.5324 20.1993 24.7422 20.4092 24.7422 20.668V23.8049H26.5914C26.7157 23.8049 26.8349 23.8543 26.9228 23.9422C27.0107 24.0301 27.0601 24.1493 27.0601 24.2737C27.0601 24.398 27.0107 24.5172 26.9228 24.6051C26.8349 24.693 26.7157 24.7424 26.5914 24.7424Z" fill="#528FD8"/>
</svg>
