<svg width="20" height="20" viewBox="0 0 20 20" fill="none" xmlns="http://www.w3.org/2000/svg">
<path d="M10 20C15.5228 20 20 15.5228 20 10C20 4.47715 15.5228 0 10 0C4.47715 0 0 4.47715 0 10C0 15.5228 4.47715 20 10 20Z" fill="#1A73E8"/>
<path d="M13.4826 9.27891L13.4771 9.27344L10.7209 6.51524C10.7209 6.51524 7.36148 9.87462 5.74273 11.527C5.54116 11.7324 5.38843 12.0184 5.29781 12.2949C5.03218 13.107 4.81226 13.9356 4.56773 14.7559C4.5021 14.9758 4.51538 15.1695 4.68765 15.3336C4.85015 15.4899 5.03296 15.4953 5.2439 15.432C6.02515 15.1977 6.81148 14.9746 7.59624 14.75C7.99979 14.633 8.36561 14.4123 8.65718 14.1098C10.1994 12.5582 13.4826 9.27891 13.4826 9.27891ZM15.0916 5.85196L14.149 4.90938C13.9073 4.66786 13.5795 4.5322 13.2378 4.5322C12.8961 4.5322 12.5684 4.66786 12.3267 4.90938L11.2584 5.97657L14.0236 8.74259L15.0919 7.67423C15.3334 7.43246 15.469 7.10471 15.4689 6.76301C15.4689 6.42131 15.3331 6.09362 15.0916 5.85196Z" fill="white"/>
</svg>
