<svg width="19" height="19" viewBox="0 0 19 19" fill="none" xmlns="http://www.w3.org/2000/svg">
<path fill-rule="evenodd" clip-rule="evenodd" d="M2.96211 2.36963C1.76244 2.36963 0.789917 3.34216 0.789917 4.54182V14.0205C0.789917 15.2202 1.76244 16.1927 2.96211 16.1927H15.6003C16.8 16.1927 17.7725 15.2202 17.7725 14.0205V4.54182C17.7725 3.34216 16.8 2.36963 15.6003 2.36963H2.96211ZM4.84049 5.60998C4.55788 5.44513 4.19513 5.54058 4.03027 5.8232C3.86541 6.10581 3.96087 6.46856 4.24349 6.63342L8.18684 8.93369C8.86314 9.32824 9.69947 9.32824 10.3759 8.93369L14.3191 6.63342C14.6018 6.46856 14.6973 6.10581 14.5324 5.8232C14.3675 5.54058 14.0048 5.44513 13.7221 5.60998L9.77886 7.91023C9.47143 8.08961 9.09126 8.08961 8.78383 7.91023L4.84049 5.60998Z" fill="#D7D7D7"/>
</svg>
