<svg width="20" height="20" viewBox="0 0 20 20" fill="none" xmlns="http://www.w3.org/2000/svg">
<g clip-path="url(#clip0_25912_583)">
<path d="M12.8215 7.17899L3.37207 8.35086L2.2002 17.8003C3.61867 19.2188 5.50473 20 7.51082 20C8.53797 20 9.48285 19.6479 10.2314 19.0578C11.178 18.9457 12.0952 18.5266 12.8215 17.8003C14.24 16.3818 15.0212 14.4957 15.0212 12.4896C15.0212 11.4625 14.6691 10.5176 14.079 9.76906C13.9669 8.82242 13.5478 7.90531 12.8215 7.17899Z" fill="#FDDA6F"/>
<path d="M12.821 7.17898C12.0947 6.45265 11.1776 6.03355 10.231 5.92148C9.48238 5.3314 8.53754 4.97922 7.51039 4.97922C3.3625 4.97926 0 8.34176 0 12.4896C0 13.5168 0.352148 14.4616 0.942226 15.2102C1.0543 16.1568 1.4734 17.0739 2.19973 17.8003L12.821 7.17898Z" fill="#FDDA6F"/>
<path d="M1.73277 4.03784C2.59214 4.03784 3.28879 3.34119 3.28879 2.48183C3.28879 1.62246 2.59214 0.925812 1.73277 0.925812C0.87341 0.925812 0.176758 1.62246 0.176758 2.48183C0.176758 3.34119 0.87341 4.03784 1.73277 4.03784Z" fill="#FDDA6F"/>
<path d="M7.51043 2.48961C8.19792 2.48961 8.75523 1.93229 8.75523 1.2448C8.75523 0.557318 8.19792 0 7.51043 0C6.82294 0 6.26562 0.557318 6.26562 1.2448C6.26562 1.93229 6.82294 2.48961 7.51043 2.48961Z" fill="#FEF575"/>
<path d="M18.7555 13.7344C19.443 13.7344 20.0004 13.1771 20.0004 12.4896C20.0004 11.8021 19.443 11.2448 18.7555 11.2448C18.0681 11.2448 17.5107 11.8021 17.5107 12.4896C17.5107 13.1771 18.0681 13.7344 18.7555 13.7344Z" fill="#FDDA6F"/>
<path d="M14.5811 5.41883C15.1555 5.99324 15.9491 6.34855 16.8256 6.34855C17.7021 6.34855 18.4957 5.99324 19.0702 5.41883C19.366 5.12389 19.5498 4.73514 19.5901 4.31938C19.8556 3.99688 20.0005 3.59198 19.9999 3.17426C19.9999 2.2977 19.6446 1.50414 19.0702 0.929688L15.7529 2.10156L14.5811 5.41883Z" fill="#FDDA6F"/>
<path d="M16.8256 0C15.0725 0 13.6514 1.42117 13.6514 3.17426C13.6514 4.05082 14.0067 4.84437 14.5811 5.41879L19.0702 0.929726C18.4957 0.355273 17.7021 0 16.8256 0Z" fill="#FDDA6F"/>
<path d="M17.5179 19.8236C18.3773 19.8236 19.0739 19.127 19.0739 18.2676C19.0739 17.4083 18.3773 16.7116 17.5179 16.7116C16.6586 16.7116 15.9619 17.4083 15.9619 18.2676C15.9619 19.127 16.6586 19.8236 17.5179 19.8236Z" fill="#FEF575"/>
</g>
<defs>
<clipPath id="clip0_25912_583">
<rect width="20" height="20" fill="white"/>
</clipPath>
</defs>
</svg>
