<svg width="117" height="96" viewBox="0 0 117 96" fill="none" xmlns="http://www.w3.org/2000/svg">
<circle cx="71.6812" cy="45.3187" r="43.8187" fill="#FFD8F9" stroke="#212121" stroke-width="3"/>
<path d="M70.7715 15.2527C70.1061 15.2527 69.6404 15.1192 69.1746 15.1192C65.1161 15.1192 61.0575 15.1192 56.9989 15.1192C56.2005 15.1192 55.3355 14.7854 54.6037 14.318C53.6056 13.6504 53.0734 12.5823 53.0734 11.3138C53.0734 9.37775 53.0734 7.50845 53.0734 5.5724C53.0734 3.23578 54.6702 1.63352 56.9989 1.5C57.5977 1.5 58.13 1.5 58.7288 1.5C69.0416 1.5 79.2878 1.5 89.6006 1.5C91.3305 1.5 92.7278 2.10084 93.5262 3.63634C93.8588 4.30394 94.125 5.17183 94.125 5.9062C94.125 14.9189 94.125 23.9316 94.125 32.9442C94.125 34.8135 94.125 36.6828 94.125 38.4854C94.125 40.822 92.4616 42.491 90.1995 42.5578C88.2034 42.6245 86.2074 42.5578 84.2114 42.5578C82.1488 42.491 80.4855 40.8888 80.4855 38.8192C80.4855 34.6133 80.4855 30.4073 80.4855 26.2014C80.4855 25.8676 80.4855 25.5338 80.4855 24.8662C80.0863 25.2 79.8201 25.3335 79.6205 25.5338C76.1607 29.0054 72.6344 32.4769 69.1746 35.9485C68.7754 36.349 68.7089 36.6828 69.0416 37.1502C71.7695 41.4228 73.7655 45.9626 74.5639 51.0364C75.8281 58.9141 74.8966 66.3913 71.2372 73.5347C67.1121 81.6795 60.9244 87.7547 52.408 91.1595C39.2342 96.4336 26.9254 94.631 15.6811 86.0857C8.09624 80.3443 3.50538 72.6 2.04163 63.3203C-0.0209306 50.569 3.83805 39.5535 13.0863 30.6744C21.27 22.7966 31.2501 19.6589 42.4944 20.7938C48.0833 21.3947 53.273 23.264 57.9969 26.4017C58.9949 27.0693 58.9949 27.0025 59.8598 26.2014C63.2531 22.8634 66.5798 19.4586 69.9731 16.1206C70.1727 15.9203 70.3723 15.72 70.7049 15.3194L70.7715 15.2527ZM61.3901 57.3119C61.7893 45.6287 51.8092 34.2127 38.4358 34.1459C25.3951 34.0792 15.0823 44.7609 15.1489 57.3119C15.1489 68.7947 23.7983 80.3443 38.3693 80.3443C53.273 80.3443 61.7893 67.86 61.3236 57.3119H61.3901Z" fill="#E948CF" stroke="#212121" stroke-width="3"/>
</svg>
