<svg width="24" height="24" viewBox="0 0 24 24" fill="none" xmlns="http://www.w3.org/2000/svg">
<path d="M6.58872 21.8312C5.48713 20.5794 4.38559 19.2775 3.68456 17.7253C2.98357 16.073 2.78327 14.1702 3.13378 12.3677C3.4843 10.5651 4.28541 8.86265 5.43709 7.4106C5.33696 8.6624 5.78761 9.96424 6.63881 10.9156C6.13807 8.51219 6.93923 5.90845 8.54151 4.00575C10.1438 2.10305 12.347 0.8512 14.6502 0C13.4986 1.20172 13.3484 3.10442 13.799 4.70674C14.2497 6.30901 15.201 7.71103 16.0522 9.16308C16.9034 10.6151 17.7046 12.1173 17.7547 13.7696C18.2053 12.9184 18.7061 12.0672 19.0065 11.1159C19.3069 10.1645 19.4571 9.16308 19.2068 8.21171C20.1081 9.3133 20.6088 10.4148 20.8591 11.8169C21.1095 13.2189 21.0594 14.6709 20.9092 16.0729C20.7089 17.6252 20.3084 19.2275 19.4572 20.5293C18.4558 22.0815 16.8534 23.1831 15.101 23.7839C11.9964 24.3347 8.94206 23.8841 6.58872 21.8312Z" fill="#F3705A"/>
<path d="M10.3941 23.6838C14.5 25.2861 18.5558 20.4292 16.3025 16.6738C16.3025 16.6237 16.2525 16.6237 16.2525 16.5737C16.4528 18.6266 15.952 20.1287 15.0007 20.98C15.5014 19.7783 15.1509 18.3763 14.55 17.1745C13.9491 16.0229 13.0979 14.9714 12.447 13.8698C11.7961 12.7182 11.2954 11.4163 11.5958 10.1145C10.3941 11.0157 9.54289 12.3677 9.19237 13.8197C8.84186 15.2718 9.04216 16.8741 9.6931 18.226C8.94203 17.6753 8.39126 16.774 8.34117 15.8226C7.54001 16.774 7.03933 18.0257 7.08937 19.2775C7.08942 21.2303 8.6416 22.9828 10.3941 23.6838Z" fill="#FFD15C"/>
</svg>
