<svg width="203" height="99" viewBox="0 0 203 99" fill="none" xmlns="http://www.w3.org/2000/svg">
<g clip-path="url(#clip0_25728_823)">
<path d="M25.0711 0.89682V8.81197H8.92892V18.6767H23.1996V26.3579H8.92892V41.4473H0V0.89682H25.0711Z" fill="white"/>
<path d="M29.7889 8.18809C28.8141 7.2913 28.3073 6.16056 28.3073 4.79588C28.3073 3.4312 28.8141 2.26147 29.7889 1.36468C30.8027 0.467891 32.0504 0 33.61 0C35.1307 0 36.3784 0.467891 37.3531 1.36468C38.3279 2.26147 38.8348 3.4312 38.8348 4.79588C38.8348 6.12157 38.3279 7.25231 37.3531 8.18809C36.3784 9.08488 35.1307 9.55277 33.61 9.55277C32.0504 9.55277 30.8027 9.12387 29.7889 8.18809ZM38.016 12.5551V41.4083H29.1651V12.5551H38.016Z" fill="white"/>
<path d="M62.1514 34.3509V41.4083H56.9267C53.7294 41.4083 51.273 40.6284 49.4794 39.0688C47.6858 37.5092 46.789 34.9748 46.789 31.4266V20.0413H41.7202V12.75H46.789V5.7316H55.562V12.711H62.5024V20.0023H55.562V31.8945C55.562 32.7523 55.7569 33.3761 56.1858 33.7271C56.6147 34.117 57.2776 34.2729 58.2523 34.2729H62.1514V34.3509Z" fill="white"/>
<path d="M24.0184 47.2959V54.9771H8.42203V64.101H21.9519V71.5483H8.38304V86.5598H0V47.2959H24.0184Z" fill="white"/>
<path d="M32.5575 85.234C30.335 84.0643 28.6194 82.3487 27.3327 80.1652C26.085 77.9817 25.4221 75.4083 25.4221 72.484C25.4221 69.5987 26.046 67.0253 27.3327 64.8028C28.6194 62.5803 30.374 60.9037 32.5964 59.734C34.8189 58.5643 37.3143 57.9794 40.0827 57.9794C42.851 57.9794 45.3465 58.5643 47.5689 59.734C49.7914 60.9037 51.546 62.6193 52.8327 64.8028C54.1194 67.0253 54.7433 69.5597 54.7433 72.484C54.7433 75.3693 54.0804 77.9427 52.7937 80.1652C51.507 82.3877 49.7134 84.0643 47.491 85.234C45.2295 86.4038 42.7341 86.9886 39.9657 86.9886C37.2364 87.0276 34.7799 86.4428 32.5575 85.234ZM44.8396 77.9037C46.1653 76.5781 46.8281 74.7065 46.8281 72.2891C46.8281 69.8326 46.1653 67.9611 44.8786 66.6744C43.5919 65.3487 41.9932 64.7248 40.1217 64.7248C38.2111 64.7248 36.6125 65.3877 35.3258 66.6744C34.0391 67.9611 33.4153 69.8326 33.4153 72.328C33.4153 74.7845 34.0391 76.656 35.2868 77.9427C36.5345 79.2684 38.0942 79.8923 40.0047 79.8923C41.8763 79.8923 43.5139 79.2294 44.8396 77.9037Z" fill="white"/>
<path d="M71.2364 59.4221C72.757 58.5253 74.4726 58.0574 76.3442 58.0574V66.4794H73.9657C71.7822 66.4794 70.1836 66.9473 69.0919 67.8831C68.0001 68.8189 67.4542 70.4565 67.4542 72.796V86.7547H58.7593V58.3303H67.4542V63.0482C68.429 61.5666 69.7157 60.3189 71.2364 59.4221Z" fill="white"/>
<path d="M94.9428 58.7593C96.3855 59.5391 97.5162 60.5529 98.296 61.8395V57.9794H106.64V85.1951C106.64 87.6905 106.133 89.991 105.158 92.0185C104.145 94.046 102.663 95.6836 100.596 96.8924C98.569 98.1011 96.0345 98.6859 92.9933 98.6859C88.9382 98.6859 85.663 97.7502 83.1676 95.8396C80.6721 93.9291 79.2295 91.3557 78.8786 88.0804H87.1446C87.4176 89.1332 88.0414 89.952 89.0162 90.5368C89.991 91.1217 91.1997 91.4336 92.6423 91.4336C94.3579 91.4336 95.7616 90.9268 96.7754 89.952C97.7891 88.9382 98.296 87.3786 98.296 85.1951V81.335C97.4772 82.6217 96.3465 83.6355 94.9038 84.4543C93.4611 85.2341 91.7845 85.663 89.874 85.663C87.6125 85.663 85.585 85.0781 83.7524 83.9084C81.9198 82.7387 80.4772 81.101 79.4244 78.9566C78.3717 76.812 77.8258 74.3556 77.8258 71.5483C77.8258 68.7409 78.3717 66.2845 79.4244 64.179C80.4772 62.0735 81.9198 60.4359 83.7524 59.3051C85.585 58.1744 87.6125 57.5895 89.874 57.5895C91.8235 57.5895 93.5001 57.9794 94.9428 58.7593ZM96.5414 66.6744C95.3717 65.4657 93.968 64.8808 92.3304 64.8808C90.6538 64.8808 89.2501 65.4657 88.1194 66.6744C86.9497 67.8831 86.3648 69.5208 86.3648 71.5873C86.3648 73.6928 86.9497 75.3304 88.1194 76.5391C89.2891 77.7478 90.6928 78.3717 92.3304 78.3717C94.007 78.3717 95.4107 77.7868 96.5414 76.5781C97.7112 75.3694 98.296 73.7318 98.296 71.6263C98.296 69.5208 97.7112 67.8831 96.5414 66.6744Z" fill="white"/>
<path d="M137.755 74.6676H118.064C118.181 76.4222 118.766 77.7869 119.78 78.7227C120.794 79.6584 122.002 80.1263 123.484 80.1263C125.668 80.1263 127.149 79.1905 128.007 77.358H137.248C136.78 79.2295 135.922 80.9062 134.675 82.3878C133.427 83.8695 131.867 85.0392 130.035 85.897C128.163 86.7548 126.097 87.1837 123.757 87.1837C120.989 87.1837 118.493 86.5988 116.31 85.3901C114.126 84.2204 112.45 82.5048 111.202 80.2823C109.993 78.0598 109.369 75.4864 109.369 72.5621C109.369 69.5988 109.954 67.0254 111.163 64.8419C112.372 62.6194 114.048 60.9428 116.232 59.7341C118.415 58.5644 120.911 57.9405 123.718 57.9405C126.486 57.9405 128.904 58.5254 131.048 59.6561C133.193 60.8258 134.869 62.4635 136.078 64.608C137.287 66.7525 137.872 69.2479 137.872 72.0942C137.911 72.952 137.872 73.7708 137.755 74.6676ZM129.021 69.2869C129.021 67.8052 128.514 66.5965 127.5 65.7387C126.486 64.8419 125.2 64.413 123.679 64.413C122.236 64.413 120.989 64.8419 119.975 65.6997C118.961 66.5575 118.337 67.7662 118.103 69.3259H129.021V69.2869Z" fill="white"/>
<path d="M182.594 2.41745H141.264C130.581 2.41745 121.925 11.0734 121.925 21.7959V55.718C122.471 55.679 123.016 55.64 123.562 55.64C132.92 55.64 140.523 63.2432 140.523 72.6011C140.523 75.5254 139.783 78.2547 138.496 80.6722C139.393 80.7891 140.328 80.8671 141.264 80.8671H182.594C193.278 80.8671 201.934 72.2111 201.934 61.5276V21.7569C201.934 11.0734 193.278 2.41745 182.594 2.41745Z" fill="#1A73E8"/>
<path d="M139.354 47.452C139.354 48.3488 138.613 49.0896 137.716 49.0896H135.26C134.363 49.0896 133.622 48.3488 133.622 47.452V35.9887C133.622 35.0919 134.363 34.351 135.26 34.351H137.716C138.613 34.351 139.354 35.0919 139.354 35.9887V47.452Z" fill="#FBFAF4"/>
<path d="M182.673 53.8074C182.673 55.562 181.23 57.0047 179.475 57.0047H176.395C174.64 57.0047 173.198 55.562 173.198 53.8074V45.3074H150.466V53.8074C150.466 55.562 149.023 57.0047 147.269 57.0047H144.228C142.473 57.0047 141.03 55.562 141.03 53.8074V29.5941C141.03 27.8395 142.473 26.3969 144.228 26.3969H147.269C149.023 26.3969 150.466 27.8395 150.466 29.5941V38.0941H173.198V29.5941C173.198 27.8395 174.64 26.3969 176.395 26.3969H179.475C181.23 26.3969 182.673 27.8395 182.673 29.5941V53.8074Z" fill="#FBFAF4"/>
<path d="M190.042 47.452C190.042 48.3488 189.301 49.0896 188.404 49.0896H185.948C185.051 49.0896 184.31 48.3488 184.31 47.452V35.9887C184.31 35.0919 185.051 34.351 185.948 34.351H188.404C189.301 34.351 190.042 35.0919 190.042 35.9887V47.452Z" fill="#FBFAF4"/>
</g>
<defs>
<clipPath id="clip0_25728_823">
<rect width="202.129" height="98.6859" fill="white"/>
</clipPath>
</defs>
</svg>
