<svg width="56" height="64" viewBox="0 0 56 64" fill="none" xmlns="http://www.w3.org/2000/svg">
<path d="M47.7051 8.18513C42.4269 2.90688 35.4094 0 27.9451 0C20.4809 0 13.4634 2.90688 8.18513 8.18513C2.90688 13.4634 0 20.4809 0 27.9451C0 41.3894 9.57663 52.9406 22.7709 55.4115C24.4771 55.7303 26.2092 55.8905 27.945 55.8901C28.9819 55.8899 30.018 55.8329 31.0486 55.7194C31.1789 55.705 31.3051 55.6651 31.4199 55.6019C31.5348 55.5388 31.636 55.4536 31.718 55.3513C31.7999 55.249 31.8609 55.1316 31.8975 55.0057C31.934 54.8799 31.9454 54.748 31.931 54.6177C31.8746 54.1067 31.4412 53.73 30.939 53.7296L34.9311 52.9414C34.845 52.9654 34.7594 52.9902 34.673 53.0134C34.4173 53.0818 34.1993 53.2491 34.0669 53.4783C33.9345 53.7075 33.8987 53.9799 33.9671 54.2356C34.0356 54.4913 34.2028 54.7093 34.4321 54.8417C34.6613 54.9741 34.9337 55.01 35.1894 54.9415C47.3776 51.6786 55.89 40.5771 55.89 27.9449C55.8903 20.4809 52.9834 13.4634 47.7051 8.18513Z" fill="#EBF1FF"/>
<path d="M22.955 44.1658C16.0199 42.0349 10.9785 35.5789 10.9785 27.9451C10.9785 18.5748 18.5749 10.9785 27.9451 10.9785C37.3154 10.9785 44.9118 18.5749 44.9118 27.9451C44.9118 34.017 41.7218 39.344 36.9274 42.3419V31.0216C36.9274 29.2701 36.2936 27.647 35.2295 26.3895C34.1641 25.1333 32.667 24.2413 30.9391 23.953V44.6486C29.9508 44.8244 28.9489 44.9125 27.945 44.9119C26.2086 44.9118 24.5333 44.651 22.955 44.1658ZM26.9473 28.9431H18.963V32.9353C18.963 35.1396 20.7508 36.9274 22.9551 36.9274C25.1595 36.9274 26.9473 35.1396 26.9473 32.9353V28.9431Z" fill="#D9E6FF"/>
<path d="M26.9453 22.9549C26.3942 22.9549 25.9453 23.4016 25.9453 23.9529V28H23.9453V23.9529C23.9453 23.4016 23.4964 22.9549 22.9453 22.9549C22.3942 22.9549 21.9453 23.4016 21.9453 23.9529V28H19.9453V23.9529C19.9453 23.4016 19.4964 22.9549 18.9453 22.9549C18.3942 22.9549 17.9453 23.4016 17.9453 23.9529V32.9353C17.9453 35.3451 19.6953 37.3614 21.9453 37.825V62.8764C21.9453 63.4275 22.3942 63.8744 22.9453 63.8744C23.4964 63.8744 23.9453 63.4275 23.9453 62.8764V37.825C26.1953 37.3614 27.9453 35.3451 27.9453 32.9353V23.9529C27.9453 23.4018 27.4964 22.9549 26.9453 22.9549Z" fill="#BBD4FD"/>
<path d="M29.9453 50.875V60.8804C29.9453 62.5312 31.2866 63.8745 32.9374 63.8745C33.7362 63.8745 34.4947 63.5639 35.0636 62.9971C35.6278 62.4309 35.9453 61.6791 35.9453 60.8804V50.875C35.9453 50.375 29.9453 50.375 29.9453 50.875Z" fill="#6262A0"/>
<path d="M35.9909 25.7439C34.7407 24.2707 33.0094 23.2875 31.1037 22.9685C30.7023 22.9011 30.2895 23.0841 30.0719 23.4574C29.981 23.6133 29.9414 23.7941 29.9414 23.9746V51.8981H36.9277C37.1923 51.8981 37.4462 51.793 37.6334 51.6058C37.8205 51.4187 37.9257 51.1648 37.9257 50.9001V31.0216C37.9244 29.0891 37.239 27.2194 35.9909 25.7439Z" fill="#BBD4FD"/>
</svg>
