<svg width="19" height="19" viewBox="0 0 19 19" fill="none" xmlns="http://www.w3.org/2000/svg">
<path fill-rule="evenodd" clip-rule="evenodd" d="M18.5778 9.69292C18.5778 9.02081 18.5175 8.37456 18.4055 7.75415H9.47845V11.4206H14.5796C14.3599 12.6054 13.6921 13.6092 12.6882 14.2813V16.6596H15.7515C17.5438 15.0094 18.5778 12.5795 18.5778 9.69292Z" fill="#4285F4"/>
<path fill-rule="evenodd" clip-rule="evenodd" d="M9.47895 18.9574C12.0381 18.9574 14.1837 18.1087 15.752 16.6611L12.6887 14.2828C11.84 14.8515 10.7542 15.1876 9.47895 15.1876C7.01024 15.1876 4.92066 13.5203 4.17531 11.2799H1.00864V13.7357C2.56828 16.8334 5.77373 18.9574 9.47895 18.9574Z" fill="#34A853"/>
<path fill-rule="evenodd" clip-rule="evenodd" d="M4.17484 11.2799C3.98527 10.7112 3.87756 10.1037 3.87756 9.47896C3.87756 8.85425 3.98527 8.24677 4.17484 7.67806V5.22229H1.00817C0.366214 6.50188 0 7.94949 0 9.47896C0 11.0084 0.366214 12.456 1.00817 13.7356L4.17484 11.2799Z" fill="#FBBC05"/>
<path fill-rule="evenodd" clip-rule="evenodd" d="M9.47895 3.76982C10.8706 3.76982 12.12 4.24805 13.1023 5.18728L15.8209 2.4687C14.1794 0.939225 12.0338 0 9.47895 0C5.77373 0 2.56828 2.12403 1.00864 5.22175L4.17531 7.67752C4.92066 5.43716 7.01024 3.76982 9.47895 3.76982Z" fill="#EA4335"/>
</svg>
