<svg width="20" height="20" viewBox="0 0 20 20" fill="none" xmlns="http://www.w3.org/2000/svg">
<path d="M20 10.0001C20 4.4768 15.5228 0 10.0002 0C4.4772 0 0 4.4768 0 10.0001C0 15.5226 4.4772 19.9998 10.0002 19.9998C15.5228 19.9998 20 15.5226 20 10.0001Z" fill="#FF5722"/>
<path d="M5.57129 6.99732C5.57129 6.43641 5.75135 5.86805 6.11156 5.29234C6.47165 4.71664 6.99729 4.23985 7.68811 3.86191C8.37898 3.48409 9.18498 3.29507 10.1061 3.29507C10.9622 3.29507 11.7181 3.45313 12.3735 3.76892C13.029 4.08486 13.5352 4.51444 13.8925 5.05762C14.2497 5.60095 14.4283 6.19133 14.4283 6.82903C14.4283 7.33097 14.3265 7.77095 14.1228 8.14873C13.919 8.52667 13.6769 8.8529 13.3965 9.12741C13.1159 9.402 12.6126 9.86407 11.8863 10.5136C11.6856 10.6967 11.5246 10.8576 11.4036 10.9963C11.2825 11.1351 11.1924 11.2621 11.1335 11.3771C11.0744 11.4923 11.0285 11.6074 10.9962 11.7226C10.9636 11.8377 10.9149 12.04 10.8501 12.3293C10.7378 12.9435 10.3864 13.2505 9.79607 13.2505C9.48899 13.2505 9.23061 13.1501 9.02108 12.9493C8.81143 12.7486 8.70666 12.4504 8.70666 12.0547C8.70666 11.5587 8.78333 11.1292 8.93695 10.766C9.09045 10.4029 9.29414 10.084 9.54809 9.80949C9.80188 9.5349 10.1444 9.20872 10.5755 8.83077C10.9533 8.50015 11.2265 8.25063 11.3948 8.08234C11.562 7.91555 11.7051 7.72624 11.8199 7.5199C11.9351 7.31327 11.9927 7.08895 11.9927 6.84677C11.9927 6.37442 11.8169 5.97587 11.4657 5.65106C11.1143 5.3264 10.661 5.16391 10.1061 5.16391C9.45646 5.16391 8.97819 5.32777 8.67123 5.65549C8.36415 5.98321 8.10439 6.46592 7.8918 7.10362C7.69102 7.77095 7.31013 8.10447 6.74922 8.10447C6.41844 8.10447 6.13945 7.98793 5.91223 7.75462C5.68492 7.52139 5.57129 7.26897 5.57129 6.99732ZM9.89354 16.7047C9.53329 16.7047 9.21888 16.588 8.95025 16.3548C8.68151 16.1217 8.54724 15.7954 8.54724 15.3761C8.54724 15.0041 8.67703 14.6912 8.93695 14.4373C9.19671 14.1835 9.51556 14.0564 9.8935 14.0564C10.2655 14.0564 10.5784 14.1835 10.8324 14.4373C11.0861 14.6912 11.2132 15.0041 11.2132 15.3761C11.2132 15.7895 11.0803 16.1143 10.8146 16.3504C10.5489 16.5866 10.2419 16.7047 9.89354 16.7047Z" fill="white"/>
</svg>
