<svg width="75" height="250" viewBox="0 0 75 250" fill="none" xmlns="http://www.w3.org/2000/svg">
<path d="M73.8695 120.346C73.7578 119.817 73.6461 119.251 73.6834 118.722C73.795 117.476 73.7578 116.229 74.0184 114.983C74.3162 113.51 74.4651 112 74.5768 110.527C74.6513 109.507 74.9118 108.488 74.9118 107.468C74.9118 104.636 75.1352 101.766 74.5396 98.9334C74.5396 98.8578 74.5396 98.8201 74.5396 98.7445C74.5396 98.4047 74.5023 98.1025 74.4651 97.7627C74.3534 95.8744 74.0184 94.0617 73.6089 92.2491C73.5717 92.0225 73.4972 91.7959 73.46 91.6071C73.3855 90.5119 73.0505 89.4545 72.9388 88.3593C72.8271 87.3019 72.4177 86.32 72.3432 85.2626C72.3804 84.9228 72.2688 84.6207 72.2688 84.3185C72.2688 83.9787 72.2687 83.6765 72.2315 83.3367C72.1198 82.2415 71.9337 81.1463 71.8965 80.0134C71.822 74.8774 72.1198 69.7415 71.7476 64.6433C71.6359 63.246 71.5987 61.811 71.4498 60.4137C71.152 57.7324 70.668 55.0889 69.6629 52.5587C69.1045 51.1992 68.4344 49.9152 67.4293 48.8578C67.2804 48.3669 66.8709 48.1025 66.5359 47.7249C65.6796 46.743 64.4884 46.2143 63.5205 45.3835C63.4088 45.2702 63.2599 45.2324 63.111 45.1569C61.3986 44.2883 59.6117 43.6085 57.8621 42.8533C56.6708 42.3246 55.4423 41.9469 54.2511 41.4937C54.1022 41.3804 53.9533 41.3427 53.8044 41.3049C53.6554 41.1539 53.4321 41.1539 53.246 41.1161C53.1715 41.1161 53.097 41.0783 53.0598 41.0406C51.0124 40.172 48.9649 39.3034 47.0291 38.1327C45.9868 37.4152 45.5028 36.3955 45.3539 35.1493C45.2795 34.5073 45.2422 33.8653 45.1678 33.2233C45.1306 32.8079 45.1678 32.4303 45.3167 32.0526C45.8006 30.6554 46.3218 29.2581 46.7313 27.823C46.9174 27.1055 47.0663 26.388 47.5131 25.7838C47.8853 25.2928 48.1087 24.7264 48.1831 24.1221C48.2948 23.0647 48.5554 22.0073 49.0766 21.101C49.4861 20.3835 49.7467 19.6659 49.635 18.8351C49.5233 17.891 49.4861 16.9469 48.7043 16.2671C48.5554 16.1538 48.5182 15.965 48.5554 15.7384C48.8532 12.6795 48.4437 9.7339 47.0291 6.9771C46.8058 6.25958 46.5079 5.61758 46.024 5.05112C45.5028 4.40912 44.9816 3.80489 44.2371 3.38948C44.2371 3.38948 44.1999 3.31396 44.1627 3.27619C43.0831 2.36985 41.8546 1.69009 40.5889 1.04809C39.5466 0.557156 38.467 0.255041 37.313 0.141748C36.1217 -0.198131 34.9677 0.141748 33.8137 0.443863C32.6596 0.783743 31.6545 1.53903 30.6866 2.21879C30.1655 2.21879 29.6815 2.33208 29.2348 2.5209C29.1231 2.55867 28.9742 2.59643 28.8625 2.67196C27.9691 3.27619 27.1129 3.95595 26.5173 4.8623C25.4005 6.56169 24.6187 8.37438 24.2837 10.4137C24.0231 12.1886 23.8742 13.9257 24.2837 15.6629C24.3953 16.1538 24.3953 16.5693 24.2092 17.0224C24.172 17.1357 24.1348 17.2868 24.0975 17.4001C23.7625 18.5708 23.6508 19.7792 24.2837 20.9122C24.4326 21.1765 24.5442 21.4409 24.6931 21.7052C25.0282 22.3472 25.2515 22.9892 25.2515 23.7067C25.2515 24.1599 25.326 24.6508 25.5494 25.0662C25.8844 25.6327 26.0705 26.2369 26.2194 26.8412C26.6289 28.3895 27.2618 29.8245 27.7085 31.3351C27.9691 32.2037 28.4158 32.959 29.0859 33.5632C29.8304 34.243 29.9421 35.1493 29.5698 36.0557C29.4209 36.4333 29.2348 36.811 29.0859 37.1886C28.5647 37.7928 27.8946 38.1705 27.2246 38.5859C26.7406 38.8502 26.2567 39.0768 25.7727 39.3412C24.2092 40.2098 22.5712 40.8517 20.896 41.456C19.7792 41.8714 18.6252 42.2113 17.5829 42.7777C16.6894 43.1176 15.8332 43.4953 14.9398 43.7974C13.3018 44.4016 11.7011 45.1191 10.3237 46.2143C9.69083 46.7052 9.0952 47.2717 8.49958 47.8382C7.53169 48.7445 6.7127 49.7641 6.07985 50.8971C5.33532 52.2188 4.62801 53.6161 4.40465 55.2022C4.25574 56.2596 3.88348 57.2792 3.92071 58.3366C3.92071 58.4122 3.88348 58.5255 3.84625 58.6388C3.54844 59.8095 3.39953 60.9802 3.32508 62.1508C3.17617 64.4545 3.17617 66.7581 3.10172 69.0617C3.10172 70.1569 3.10172 71.2521 3.10172 72.3472C3.02727 75.6327 3.28785 78.9182 2.91559 82.166C2.69223 84.1297 2.54332 86.1312 2.13383 88.0572C1.9477 88.9636 1.79879 89.9077 1.61266 90.814C1.3893 91.7959 1.16594 92.7778 1.05426 93.7974C0.979804 94.4016 0.979804 95.0059 0.830898 95.5723C0.607538 96.5542 0.421405 97.5738 0.346952 98.5557C0.123592 101.275 0.235272 104.032 0.123592 106.788C0.123592 107.128 0.123592 107.468 0.198046 107.808C0.198046 108.941 0.309725 110.074 0.495858 111.207C0.495858 111.358 0.533085 111.509 0.570312 111.66C0.570312 111.811 0.570312 112 0.644765 112.151C0.756445 112.982 0.868124 113.85 0.942578 114.681C0.905351 115.248 0.942578 115.814 1.05426 116.38C1.35207 117.853 1.31484 119.288 0.979804 120.723C0.905351 121.026 0.905351 121.328 0.868124 121.592C0.384179 123.82 0.0491391 126.048 0.0119125 128.314C-0.0253141 130.278 0.0119125 132.242 0.309725 134.168C0.458632 135.112 0.681991 136.093 1.46375 136.735C1.9477 137.377 2.655 137.717 3.25063 138.171C4.21852 138.888 5.26086 139.53 6.37766 140.021C7.08497 140.399 7.86673 140.701 8.64848 140.927C9.05798 141.041 9.46747 141.003 9.87696 140.776C10.1375 140.625 10.2865 140.436 10.0631 140.172C9.6536 139.719 9.20688 139.303 8.72294 138.888C7.79227 138.057 6.74993 137.34 5.89372 136.433C5.22364 135.716 4.62801 134.923 4.18129 134.092C4.18129 133.979 4.14407 133.903 4.06961 133.79C4.06961 133.79 4.03239 133.714 3.99516 133.677C3.88348 133.148 3.7718 132.657 3.73457 132.128C3.66012 131.222 3.99516 130.391 4.55356 129.711C4.85137 129.523 4.96305 129.22 5.26086 129.032C5.63313 128.767 5.89372 128.805 6.04262 129.258C6.34044 130.164 6.67547 131.109 6.78715 132.053C6.93606 133.261 7.23387 134.432 7.60614 135.565C7.68059 135.829 7.8295 136.018 8.01563 136.169C8.42513 136.547 8.90907 136.471 9.16966 135.98C9.54192 135.3 9.6536 134.545 9.54192 133.79C9.28134 132.279 9.0952 130.731 8.87184 129.22C8.76016 128.503 8.64848 127.785 8.72294 127.03C8.79739 126.237 8.87184 125.406 8.64848 124.613C8.64848 124.5 8.64849 124.387 8.57403 124.311C8.57403 124.198 8.57403 124.047 8.49958 123.933C8.46235 123.669 8.42513 123.367 8.3879 123.103C8.31345 122.385 8.23899 121.668 8.20177 120.95C8.09009 119.137 8.09009 117.325 8.12731 115.55C8.12731 115.285 8.20177 114.983 8.23899 114.719C8.23899 114.606 8.27622 114.53 8.31345 114.417C8.35067 114.152 8.46235 113.926 8.42513 113.661C8.42513 113.322 8.57403 113.019 8.53681 112.68C8.53681 112.642 8.57403 112.604 8.61126 112.566C8.76016 112.075 8.79739 111.547 8.90907 111.056C9.16966 110.036 9.43024 109.016 9.72806 108.035C10.1748 106.637 10.4354 105.164 10.9193 103.729C11.1799 102.899 11.4405 102.03 11.5894 101.161C11.5894 101.048 11.6638 100.935 11.7011 100.784C11.7755 100.708 11.7755 100.595 11.8127 100.482C11.9617 100.18 12.0361 99.8397 12.0733 99.4621C12.0733 99.4243 12.1106 99.3865 12.1478 99.3488C12.1478 99.2732 12.1478 99.2355 12.1478 99.1599C12.2595 98.9711 12.3339 98.7823 12.3339 98.5935C12.3339 98.5935 12.3339 98.5557 12.3339 98.5179C12.7062 97.4605 12.7806 96.3654 12.8923 95.308C13.0785 94.5904 13.2274 93.8729 13.2274 93.1554C13.2646 91.1917 13.2274 89.2279 13.2274 87.2264C13.339 87.0753 13.3018 86.8865 13.3018 86.7355C13.4507 86.2067 13.3763 85.6781 13.4507 85.1494C13.5252 84.2808 13.5996 83.3744 13.7113 82.5058C14.0091 80.6554 14.2325 78.8049 14.3814 76.9545C14.3814 76.388 14.6792 75.8593 14.6792 75.2551C14.6792 75.1796 14.7536 75.104 14.7536 75.0285C15.1631 72.7249 15.5726 70.459 16.4288 68.2687C16.4661 68.1554 16.5405 68.0799 16.5778 67.9666C16.6522 67.9666 16.6894 67.9666 16.7639 67.9666C16.7639 69.7037 16.615 71.4409 16.5033 73.178C16.4288 74.3487 16.5033 75.5572 16.5778 76.7657C16.6522 78.3895 16.615 80.0134 16.6522 81.675C16.6522 86.0935 16.8011 90.5497 16.5405 95.0059C16.4288 96.592 16.3916 98.1781 15.9821 99.6886C15.9077 99.8397 15.8704 99.9908 15.8704 100.142C15.6099 100.708 15.6099 101.313 15.461 101.917C14.8281 104.711 14.2697 107.506 13.7485 110.338C13.4507 111.962 13.2646 113.624 13.0785 115.248C13.004 115.399 13.004 115.55 12.9668 115.701C12.7806 116.267 12.8179 116.834 12.7434 117.4C12.6317 118.458 12.5201 119.553 12.4456 120.61C12.3711 121.177 12.2967 121.781 12.3339 122.347C12.185 122.951 12.185 123.556 12.185 124.16C12.185 128.05 12.185 131.939 12.185 135.867C12.185 136.358 12.185 136.887 12.3339 137.415C12.3339 137.755 12.3711 138.095 12.4456 138.435C12.4456 138.964 12.5201 139.455 12.6317 139.945C12.6317 140.021 12.6317 140.134 12.6317 140.21C12.6317 140.776 12.7062 141.343 12.7434 141.909C12.8179 143.344 13.0412 144.742 13.2646 146.139C13.4135 146.97 13.8602 147.687 13.9347 148.518C14.1952 150.822 14.642 153.125 15.0142 155.429C15.2376 156.902 15.4982 158.412 15.6843 159.885C15.9077 161.396 16.0938 162.906 16.3172 164.379C16.5778 166.154 16.7267 167.891 16.4288 169.666C16.3172 170.384 16.0566 171.063 16.0194 171.781C15.8332 172.536 15.6843 173.254 15.6471 174.009C15.6471 174.009 15.6099 174.084 15.5726 174.122C15.461 174.689 15.3865 175.255 15.2748 175.822C15.2004 176.048 15.1631 176.237 15.1631 176.464C15.0515 176.652 15.0887 176.917 15.0515 177.106C14.9398 177.672 14.8653 178.239 14.9026 178.805C14.8653 179.145 14.8281 179.485 14.7909 179.825C14.7536 180.429 14.642 181.071 14.642 181.675C14.6047 184.47 14.6047 187.226 14.9026 189.983C15.0515 191.343 15.1631 192.74 15.3865 194.1C15.5726 195.384 15.7588 196.705 16.0938 197.952C16.3172 198.782 16.3544 199.689 16.5778 200.52C16.9872 202.257 17.4712 203.956 17.9179 205.693C18.588 208.45 19.5559 211.094 20.4493 213.737C20.8588 214.983 21.38 216.154 21.5289 217.476C21.7522 219.553 21.9756 221.63 22.0501 223.707C22.1617 226.35 22.2734 228.994 22.1617 231.6C22.1617 232.166 22.0873 232.695 21.7522 233.223C20.4865 235.149 19.0347 236.924 17.6201 238.775C17.1734 239.379 16.5778 239.794 16.1683 240.474C15.6471 241.343 15.0515 242.174 14.3069 242.853C13.5996 243.533 13.2646 244.364 13.2274 245.346C13.2274 246.063 13.7858 246.894 14.642 246.668C14.8653 246.592 14.9026 246.743 14.9026 246.894C14.9026 247.083 14.9026 247.31 14.9026 247.498C14.9026 247.687 15.0142 247.876 15.2376 247.876C15.5354 247.876 15.8332 247.952 16.131 248.065C16.2427 248.103 16.3172 248.065 16.4288 247.952C16.7639 247.574 16.7639 247.574 16.9872 248.065C16.9872 248.14 17.0245 248.216 17.0617 248.291C17.4712 249.16 18.2902 249.273 18.8486 248.518C19.0347 248.254 19.1092 248.291 19.2581 248.556C19.8165 249.613 21.0449 249.878 21.9756 249.122C22.2734 248.858 22.3851 248.518 22.534 248.178C22.6829 248.329 22.6829 248.518 22.7201 248.669C22.7946 249.122 23.0924 249.424 23.4647 249.689C24.3209 250.255 25.1026 249.953 25.8844 249.538C26.6662 249.122 26.7778 248.291 26.964 247.498C27.4107 245.384 27.8202 243.269 28.8253 241.381C29.5698 240.021 30.2399 238.586 31.5056 237.604C32.1385 237.113 32.4363 236.396 32.2502 235.565C32.1012 234.923 31.8779 234.243 31.5428 233.677C31.2078 233.148 31.0589 232.581 31.0589 231.939C31.0217 230.807 31.2078 229.674 31.2823 228.578C31.3567 226.879 31.0589 225.217 31.0217 223.556C30.9472 221.214 31.0217 218.835 31.0217 216.494C31.0217 216.003 31.0589 215.474 31.1706 214.983C31.5056 213.322 31.6545 211.622 31.729 209.885C31.8034 207.77 31.9523 205.655 31.9896 203.541C32.064 198.707 32.1012 193.835 31.9151 189.001C31.9151 188.586 31.9151 188.171 31.9151 187.793C31.9151 184.998 31.9151 182.204 31.9151 179.409C31.9151 178.125 31.9151 176.841 31.9151 175.557C31.9151 175.406 31.9896 175.293 31.9896 175.142C31.9896 173.669 32.064 172.234 32.1012 170.761C32.1012 170.27 32.2501 169.779 32.3246 169.288C32.4735 168.42 32.8458 167.665 32.9202 166.796C33.0691 165.361 33.1064 163.964 33.3297 162.529C33.702 159.81 33.702 157.09 33.8881 154.371C34.0743 151.803 34.037 149.198 34.037 146.592C34.037 145.497 34.2604 144.477 34.521 143.458C34.7816 142.362 35.1166 141.305 35.34 140.172C35.5261 139.568 35.4516 138.926 35.6005 138.322C35.7867 137.642 35.8611 136.924 36.01 136.245C36.0845 136.093 36.1589 135.942 36.1217 135.754C36.1962 135.149 36.2706 134.545 36.3451 133.979C36.5312 133.148 36.7173 132.279 36.9035 131.448C36.9779 131.109 37.0524 130.769 37.1268 130.429C37.2757 130.353 37.313 130.051 37.5736 130.127C37.6108 130.542 37.7597 130.958 37.9458 131.335C38.0203 131.713 38.1692 132.09 38.2064 132.468C38.5414 134.696 38.9137 136.924 39.3232 139.115C39.5093 140.248 39.7699 141.343 40.0305 142.476C40.2911 143.722 40.6261 144.93 40.7006 146.214C40.775 147.763 40.8123 149.311 40.924 150.859C40.924 151.237 40.9612 151.615 40.9984 151.992C40.9984 152.483 40.9984 152.974 40.9984 153.427C41.0729 154.22 40.9984 155.051 41.1473 155.844C41.1473 155.958 41.1473 156.109 41.1473 156.222C41.1473 156.297 41.1473 156.335 41.1473 156.411C41.1473 157.242 41.2218 158.11 41.259 158.941C41.259 159.81 41.3334 160.64 41.4079 161.509C41.4079 161.66 41.4079 161.811 41.4451 161.962C41.4451 162.075 41.4451 162.226 41.4451 162.34C41.4451 162.717 41.5196 163.095 41.594 163.473C41.594 164.152 41.594 164.87 41.7802 165.55C41.8546 166.116 41.9291 166.683 42.0407 167.249C42.2641 168.382 42.7853 169.439 42.7481 170.61C42.6736 171.252 42.7853 171.856 42.8225 172.498C42.7108 172.8 42.8225 173.103 42.8225 173.405C42.8225 179.069 42.7853 184.734 42.8225 190.399C42.8225 195.157 42.7481 199.915 42.897 204.674C42.9342 206.449 43.0459 208.186 43.1203 209.923C43.1575 210.829 43.1575 211.736 43.3064 212.642C43.6415 214.681 43.9021 216.758 43.9021 218.873C43.9021 220.006 43.8276 221.139 43.7159 222.234C43.6787 222.8 43.7159 223.367 43.6415 223.933C43.4554 225.746 43.3809 227.521 43.4554 229.334C43.4554 230.202 43.6043 231.071 43.4181 231.977C43.232 232.808 43.0086 233.601 42.7108 234.394C42.3758 235.263 42.413 236.094 42.6364 236.962C42.7481 237.453 43.232 237.566 43.567 237.831C43.7532 237.982 43.9765 238.171 44.0882 238.435C44.1999 238.699 44.386 238.888 44.5349 239.152C44.9072 239.908 45.54 240.512 45.8751 241.343C46.7313 243.609 47.5875 245.875 48.0342 248.254C48.2204 249.349 49.6722 250.217 50.7145 249.878C51.5335 249.613 52.0919 249.122 52.2781 248.065C52.6503 248.933 53.0226 249.689 54.0277 249.575C54.4 249.538 54.7722 249.5 55.1073 249.311C55.4795 249.085 55.3679 248.556 55.5912 248.216C55.7401 248.405 55.8518 248.556 56.0007 248.707C56.5591 249.273 57.4153 249.084 57.6759 248.329C57.7132 248.178 57.7504 248.027 57.7876 247.876C57.8248 247.612 57.8621 247.461 58.1226 247.763C58.4205 248.065 59.3883 248.14 59.7234 247.914C60.0584 247.687 59.8723 247.31 59.9095 247.007C59.9095 246.97 59.9095 246.932 59.9095 246.856C59.9095 246.668 60.0212 246.63 60.1701 246.63C61.1752 246.743 61.7336 246.063 61.5103 245.044C61.2497 243.76 60.5051 242.74 59.6862 241.796C58.1971 240.134 57.0058 238.284 55.5168 236.66C54.8095 235.867 54.2138 234.961 53.6182 234.054C53.2832 233.601 52.8365 233.186 52.7992 232.544C52.762 231.524 52.7248 230.467 52.7248 229.447C52.7248 228.239 52.8737 227.03 52.8737 225.822C52.9109 223.518 53.097 221.177 53.1715 218.873C53.2087 217.891 53.3204 216.947 53.6927 216.041C54.2883 214.606 54.6978 213.133 55.1817 211.66C56.2241 208.526 57.1175 205.353 57.8993 202.181C58.4577 199.915 58.9416 197.612 59.3139 195.308C59.5 194.137 59.6862 193.004 59.7606 191.834C59.8351 191.003 59.9467 190.21 60.0212 189.379C60.1329 188.322 60.3562 187.264 60.319 186.169C60.2818 184.734 60.319 183.261 60.319 181.826C60.319 181.6 60.319 181.373 60.2818 181.109C60.0584 179.334 59.8351 177.559 59.6117 175.784C59.3883 174.009 58.9789 172.234 58.6438 170.497C58.3832 169.1 58.1971 167.74 58.346 166.343C58.5321 164.53 58.7555 162.717 59.0533 160.942C59.3883 158.979 59.6489 157.015 59.9467 155.051C60.1329 153.881 60.3562 152.71 60.5051 151.539C60.7285 149.84 60.8402 148.103 61.5475 146.479C61.6592 146.252 61.6592 146.026 61.7336 145.799C61.8825 145.308 61.8081 144.817 61.8453 144.288C61.9198 143.344 62.1803 142.438 62.1803 141.494L62.2548 140.927C62.4781 139.228 62.7015 137.566 62.6643 135.829C62.7387 135.565 62.776 135.338 62.7387 135.074C62.7387 134.885 62.7387 134.696 62.7387 134.507C62.7387 134.13 62.7387 133.752 62.7387 133.374C62.7387 132.884 62.8132 132.393 62.8504 131.939C62.8504 130.467 62.8504 128.994 62.8504 127.521C62.8504 127.332 62.8504 127.143 62.776 126.955C62.776 126.841 62.776 126.69 62.776 126.577C62.776 126.501 62.776 126.388 62.776 126.313C62.6643 125.595 62.776 124.877 62.7015 124.16C62.7015 123.593 62.7015 123.027 62.7015 122.461C62.776 122.158 62.6271 121.894 62.6271 121.63C62.6271 121.365 62.6271 121.139 62.6271 120.874C62.5154 119.817 62.3665 118.76 62.292 117.702C62.1803 116.456 61.9942 115.21 61.8825 113.964C61.7708 112.793 61.5103 111.66 61.2869 110.489C60.9519 108.828 60.803 107.166 60.3935 105.504C60.0212 103.88 59.6489 102.219 59.2767 100.557C59.0533 99.5753 58.7927 98.6312 58.681 97.6494C58.7555 97.385 58.5694 97.1584 58.6066 96.8941C58.5321 96.4031 58.4577 95.95 58.4577 95.459C58.4577 94.0995 58.4205 92.7778 58.3832 91.4182C58.346 89.4923 58.3832 87.5663 58.3832 85.6781C58.3832 82.7702 58.4949 79.9001 58.4577 76.9922C58.4577 76.1237 58.6066 75.2929 58.5694 74.4243C58.5321 73.3669 58.4577 72.3095 58.4577 71.2521C58.4577 71.1388 58.4205 71.0255 58.3832 70.8744C58.3832 70.0436 58.3832 69.2505 58.3832 68.4197C58.3832 68.1931 58.3832 67.9288 58.3832 67.7022C58.4577 67.7022 58.4949 67.7022 58.5694 67.7022C58.5694 68.0043 58.7183 68.2687 58.8299 68.533C59.2767 69.817 59.5745 71.101 59.8351 72.4228C60.2446 74.311 60.5051 76.2747 60.803 78.2007C61.138 80.4666 61.473 82.7324 61.6219 85.0361C61.5847 85.2249 61.6219 85.4137 61.6964 85.6025C61.6964 85.678 61.6964 85.7914 61.6964 85.8669C61.6964 86.2445 61.7708 86.6222 61.7708 86.9998C61.7708 87.4152 61.6964 87.8306 61.8453 88.246C61.8453 88.3593 61.8453 88.5104 61.8453 88.6237C61.8453 89.379 61.8453 90.172 61.8453 90.9273C61.8453 93.4575 62.0687 95.9122 62.776 98.3669C63.3344 100.368 63.8183 102.408 64.4139 104.371C65.1957 106.939 65.9402 109.545 66.4242 112.189C66.7964 114.19 67.1315 116.192 67.057 118.231C66.9826 119.817 66.9826 121.365 66.6475 122.914C66.3125 124.5 66.2753 126.086 66.3125 127.672C66.3125 128.087 66.3125 128.541 66.2753 128.956C66.0147 130.353 65.7541 131.788 65.6052 133.223C65.5307 134.092 65.5307 134.961 65.7913 135.791C65.8658 136.093 66.0519 136.358 66.3869 136.433C66.7592 136.509 66.9826 136.245 67.1315 135.98C67.541 135.338 67.7643 134.658 67.876 133.941C68.0994 132.581 68.3972 131.26 68.7322 129.938C68.8439 129.522 68.9556 129.107 69.2906 128.805C69.3651 128.805 69.4768 128.805 69.5512 128.805C70.2585 129.258 70.7797 129.9 71.003 130.731C71.1892 131.411 71.003 132.09 70.9286 132.77C70.9286 133.261 71.003 133.828 70.7052 134.243C70.1468 135.036 69.6629 135.829 68.9928 136.509C68.0249 137.453 66.9081 138.246 65.903 139.115C65.568 139.379 65.3446 139.681 65.1585 140.059C64.9723 140.55 65.1212 140.776 65.6052 140.852C65.9774 140.89 66.3125 140.852 66.6475 140.739C68.8811 140.134 70.8169 138.888 72.6782 137.491C73.5344 136.849 74.3162 136.093 74.5023 134.923C74.9118 132.393 75.098 129.862 74.9491 127.294C74.8002 124.915 74.3534 122.574 73.9067 120.232L73.8695 120.346ZM18.2157 68.3064C18.2157 68.3064 18.2157 68.3064 18.2157 68.2687C18.2157 68.1931 18.2157 68.1176 18.104 68.0799C18.2157 68.0799 18.2157 68.1931 18.2157 68.2687C18.2157 68.2687 18.2157 68.2687 18.2157 68.3064ZM30.91 37.4907C30.91 37.4907 30.91 37.4907 30.8728 37.4907C30.8728 37.4907 30.8728 37.4907 30.91 37.4907ZM56.6708 158.337C56.7825 158.337 56.8197 158.261 56.8197 158.148C56.8197 158.261 56.7825 158.299 56.6708 158.337ZM65.2329 47.0451H65.3074C65.3074 47.0451 65.2701 47.0451 65.2329 47.0451Z" fill="#212121" fill-opacity="0.15"/>
</svg>
