<svg width="40" height="40" viewBox="0 0 40 40" fill="none" xmlns="http://www.w3.org/2000/svg">
<path fill-rule="evenodd" clip-rule="evenodd" d="M20.0002 0C8.97203 0 0 8.97211 0 20.0002C0 31.0283 8.97211 40 20.0002 40C31.0282 40 40.0003 31.0283 40.0003 20.0002C40.0003 8.97211 31.0282 0 20.0002 0Z" fill="#F44336"/>
<path fill-rule="evenodd" clip-rule="evenodd" d="M28.8051 16.0504C28.4396 15.6849 27.8455 15.6849 27.4792 16.0504C27.1136 16.4167 27.1136 17.0104 27.4792 17.376L29.1659 19.0627H18.6386C18.1205 19.0627 17.7011 19.4824 17.7011 20.0002C17.7011 20.5183 18.1204 20.9378 18.6386 20.9378H29.1659L27.4792 22.6245C27.1136 22.99 27.1136 23.5838 27.4792 23.9501C27.6631 24.1332 27.9026 24.2246 28.1425 24.2246C28.3825 24.2246 28.6224 24.1332 28.8052 23.9501L32.0917 20.6636C32.2677 20.4877 32.3667 20.2491 32.367 20.0003C32.367 19.7519 32.2679 19.5127 32.0917 19.3369L28.8051 16.0504ZM26.455 26.4122C26.8239 26.776 26.8269 27.3696 26.4628 27.7378C24.3795 29.8446 21.6012 31.0047 18.6386 31.0047C12.5709 31.0047 7.63379 26.0683 7.63379 20.0002C7.63379 13.932 12.5709 8.99533 18.6386 8.99533C21.6012 8.99533 24.3795 10.1558 26.4628 12.2627C26.8268 12.6305 26.8239 13.2245 26.455 13.5886C26.0869 13.9528 25.4936 13.9494 25.1295 13.5809C23.4011 11.833 21.0957 10.8704 18.6387 10.8704C13.6043 10.8704 9.50887 14.9658 9.50887 20.0003C9.50887 25.0347 13.6043 29.1301 18.6387 29.1301C21.0957 29.1301 23.4011 28.1675 25.1295 26.4199C25.4936 26.051 26.0869 26.0481 26.455 26.4122Z" fill="white"/>
</svg>
