<svg width="16" height="16" viewBox="0 0 16 16" fill="none" xmlns="http://www.w3.org/2000/svg">
<g clip-path="url(#clip0_25922_769)">
<path d="M12.934 4.22297C12.8868 4.27557 12.8301 4.31891 12.767 4.35078C12.5532 4.45798 12.2863 4.42257 12.1083 4.24454C12.1002 4.23639 12.0905 4.22992 12.0799 4.2255C12.0693 4.22108 12.0579 4.2188 12.0464 4.21879C12.0349 4.21877 12.0235 4.22102 12.0129 4.22542C12.0023 4.22981 11.9926 4.23625 11.9845 4.24438L9.48068 6.74853L8.79883 6.06667L11.3061 3.55937C11.3369 3.52863 11.3419 3.47931 11.3154 3.44486C11.1806 3.2697 11.1616 3.0343 11.2581 2.84221C11.289 2.78104 11.3315 2.72406 11.3859 2.67512C11.5935 2.48712 11.9154 2.48003 12.1305 2.65935C12.2918 2.7936 12.3584 2.99319 12.3307 3.18152C12.3286 3.1947 12.3297 3.20818 12.3338 3.22087C12.3379 3.23356 12.3449 3.24511 12.3544 3.25455C12.3638 3.264 12.3753 3.27109 12.388 3.27524C12.4007 3.27939 12.4141 3.28048 12.4273 3.27842C12.6156 3.25042 12.8152 3.31706 12.9498 3.47834C13.1288 3.69339 13.1217 4.01533 12.934 4.22297Z" fill="#DDEAFB"/>
<path d="M12.9338 4.22297C12.8865 4.27557 12.8298 4.31891 12.7667 4.35078C12.8292 4.16277 12.7957 3.94804 12.6637 3.78933C12.5249 3.62321 12.3192 3.55464 12.1251 3.58329C12.1115 3.58541 12.0976 3.5843 12.0845 3.58003C12.0715 3.57577 12.0596 3.56847 12.0498 3.55875C12.0401 3.54902 12.0328 3.53714 12.0286 3.52406C12.0243 3.51098 12.0232 3.49709 12.0253 3.4835C12.0543 3.28937 11.9854 3.08366 11.8193 2.94523C11.6605 2.81291 11.4455 2.77943 11.2578 2.84221C11.2887 2.78104 11.3312 2.72406 11.3856 2.67512C11.5933 2.48712 11.9152 2.48003 12.1302 2.65935C12.2915 2.7936 12.3582 2.99319 12.3305 3.18152C12.3284 3.1947 12.3294 3.20818 12.3335 3.22087C12.3376 3.23356 12.3447 3.24511 12.3541 3.25455C12.3635 3.264 12.3751 3.27109 12.3877 3.27524C12.4004 3.27939 12.4139 3.28048 12.4271 3.27842C12.6154 3.25042 12.815 3.31706 12.9496 3.47834C13.1286 3.69339 13.1215 4.01533 12.9338 4.22297Z" fill="#CBE2FF"/>
<path d="M10.1556 7.06085L10.6985 6.51801C10.9235 6.29295 10.9235 5.92804 10.6985 5.70298L9.80314 4.80765C9.57808 4.58259 9.21317 4.58259 8.98811 4.80765L8.4453 5.35049L8.08602 5.51326C7.43717 5.80722 6.84669 6.21587 6.34299 6.71957C5.66822 7.39434 5.66822 8.48836 6.34299 9.16316C7.01776 9.83793 8.11178 9.83793 8.78658 9.16316C9.29028 8.65946 9.69893 8.06898 9.99289 7.42013L10.1556 7.06085Z" fill="#D8AB8C"/>
<path d="M10.1556 7.06085L10.6985 6.51801C10.9235 6.29295 10.9235 5.92804 10.6985 5.70298L9.80314 4.80765C9.57808 4.58259 9.21317 4.58259 8.98811 4.80765L8.4453 5.35049L8.08602 5.51326C7.43717 5.80722 6.84669 6.21587 6.34299 6.71957C5.66822 7.39434 5.66822 8.48836 6.34299 9.16316C7.01776 9.83793 8.11178 9.83793 8.78658 9.16316C9.29028 8.65946 9.69893 8.06898 9.99289 7.42013L10.1556 7.06085Z" fill="#D8AB8C"/>
<path d="M10.1556 7.06085L10.6985 6.51801C10.9235 6.29295 10.9235 5.92804 10.6985 5.70298L9.80314 4.80765C9.57808 4.58259 9.21317 4.58259 8.98811 4.80765L8.4453 5.35049L8.08602 5.51326C7.43717 5.80722 6.84669 6.21587 6.34299 6.71957C5.66822 7.39434 5.66822 8.48836 6.34299 9.16316C7.01776 9.83793 8.11178 9.83793 8.78658 9.16316C9.29028 8.65946 9.69893 8.06898 9.99289 7.42013L10.1556 7.06085Z" fill="#D8AB8C"/>
<path d="M10.6989 5.70298L9.80355 4.80765C9.57849 4.58259 9.21358 4.58259 8.98852 4.80765L8.87072 4.92545L8.89857 4.91682C8.96633 4.89584 9.03853 4.89375 9.10738 4.91079C9.17624 4.92783 9.23914 4.96334 9.2893 5.01349L9.97874 5.70294C10.2038 5.92801 10.2038 6.29292 9.97874 6.51798L9.4359 7.06082L9.27313 7.42009C8.97918 8.06895 8.57052 8.65943 8.06682 9.16313C7.83108 9.39944 7.53166 9.56201 7.20508 9.63102C7.75809 9.7483 8.3574 9.59265 8.78692 9.16313C9.29062 8.65943 9.69927 8.06895 9.99323 7.42009L10.156 7.06082L10.6988 6.51798C10.9239 6.29295 10.9239 5.92804 10.6989 5.70298Z" fill="#C38778"/>
<path d="M13.027 11.7798H2.62407C2.31469 11.7798 2.04362 11.6372 1.86624 11.4179C1.69787 11.2097 1.61417 10.9322 1.66342 10.6421L2.0668 8.27139C2.32467 6.75412 3.63944 5.6441 5.17859 5.6441H9.19598C9.75839 5.6441 10.2967 5.79348 10.7648 6.06165C11.3573 6.40066 11.8239 6.9228 12.0943 7.54962L12.2762 7.97103L13.5662 10.9602C13.7336 11.3478 13.4493 11.7798 13.027 11.7798Z" fill="#FDB441"/>
<path d="M5.21333 11.7798H2.62404C2.31466 11.7798 2.0436 11.6372 1.86621 11.4179C2.03168 10.6569 2.70935 10.0868 3.5203 10.0868C4.45518 10.0868 5.21333 10.8449 5.21333 11.7798ZM12.2762 7.97102L12.1352 8.11203L11.9726 8.4713C9.7122 13.5851 5.07729 8.63629 10.0655 6.5645L10.4248 6.40161L10.7647 6.06165C11.3573 6.40066 11.8238 6.92279 12.0943 7.54961L12.2762 7.97102Z" fill="#FEA613"/>
<path d="M13.5663 10.96L12.0945 7.54975C11.5953 6.39308 10.4561 5.64398 9.19631 5.64398H8.44531C9.70513 5.64398 10.8443 6.39308 11.3435 7.54975L12.8154 10.96C12.9827 11.3476 12.6984 11.7799 12.2762 11.7799H13.0272C13.4494 11.7799 13.7337 11.3476 13.5663 10.96Z" fill="#FEA613"/>
<path d="M15.8217 5.06074C15.7745 5.11334 15.7178 5.15668 15.6547 5.18855C15.4409 5.29575 15.174 5.26034 14.996 5.08231C14.9879 5.07416 14.9782 5.06769 14.9676 5.06327C14.957 5.05885 14.9456 5.05657 14.9341 5.05656C14.9226 5.05654 14.9112 5.05879 14.9006 5.06319C14.89 5.06758 14.8803 5.07402 14.8722 5.08215L12.3684 7.58629L11.6865 6.90444L14.1938 4.39714C14.2246 4.3664 14.2296 4.31708 14.2031 4.28263C14.0683 4.10747 14.0493 3.87207 14.1458 3.67998C14.1767 3.61881 14.2192 3.56183 14.2736 3.51289C14.4812 3.32489 14.8031 3.3178 15.0182 3.49712C15.1795 3.63136 15.2461 3.83096 15.2184 4.01929C15.2163 4.03247 15.2174 4.04595 15.2215 4.05864C15.2256 4.07133 15.2326 4.08287 15.2421 4.09232C15.2515 4.10177 15.263 4.10886 15.2757 4.11301C15.2884 4.11716 15.3018 4.11825 15.315 4.11619C15.5033 4.08819 15.7029 4.15483 15.8375 4.31611C16.0165 4.53116 16.0094 4.85309 15.8217 5.06074Z" fill="#DDEAFB"/>
<path d="M15.8215 5.06074C15.7742 5.11334 15.7175 5.15668 15.6544 5.18855C15.7169 5.00054 15.6834 4.78581 15.5514 4.6271C15.4126 4.46098 15.2069 4.39241 15.0128 4.42106C14.9992 4.42318 14.9853 4.42207 14.9722 4.4178C14.9591 4.41353 14.9473 4.40624 14.9375 4.39652C14.9278 4.38679 14.9205 4.37491 14.9163 4.36183C14.912 4.34875 14.9109 4.33485 14.913 4.32126C14.942 4.12714 14.8731 3.92142 14.707 3.78299C14.5482 3.65068 14.3332 3.6172 14.1455 3.67998C14.1764 3.61881 14.2189 3.56183 14.2733 3.51289C14.481 3.32489 14.8029 3.3178 15.0179 3.49712C15.1792 3.63136 15.2459 3.83096 15.2182 4.01929C15.2161 4.03247 15.2171 4.04595 15.2212 4.05864C15.2253 4.07133 15.2324 4.08287 15.2418 4.09232C15.2512 4.10177 15.2627 4.10886 15.2754 4.11301C15.2881 4.11716 15.3016 4.11825 15.3148 4.11619C15.5031 4.08819 15.7027 4.15483 15.8373 4.31611C16.0163 4.53116 16.0092 4.85309 15.8215 5.06074Z" fill="#CBE2FF"/>
<path d="M12.8705 8.11212L13.4133 7.56928C13.6384 7.34422 13.6384 6.97931 13.4133 6.75424L12.518 5.85892C12.293 5.63386 11.928 5.63386 11.703 5.85892L11.1601 6.40176L10.8009 6.56453C10.152 6.85849 9.56154 7.26714 9.05783 7.77084C8.38307 8.44561 8.38307 9.53963 9.05783 10.2144C9.7326 10.8892 10.8266 10.8892 11.5014 10.2144C12.0051 9.71073 12.4138 9.12025 12.7077 8.4714L12.8705 8.11212Z" fill="#FDB441"/>
<path d="M13.4136 6.75424L12.5182 5.85892C12.2932 5.63386 11.9283 5.63386 11.7032 5.85892L11.6387 5.92344C11.7142 5.91921 11.7898 5.93098 11.8605 5.95796C11.9311 5.98495 11.9953 6.02654 12.0488 6.08002L12.723 6.75424C12.9481 6.97931 12.9481 7.34422 12.723 7.56928L12.1802 8.11212L12.0174 8.4714C11.7234 9.12025 11.3148 9.71073 10.8111 10.2144C10.5717 10.4544 10.2668 10.6183 9.93457 10.6855C10.4835 10.797 11.0759 10.6401 11.5016 10.2144C12.0053 9.71073 12.414 9.12025 12.7079 8.4714L12.8707 8.11212L13.4136 7.56928C13.6386 7.34418 13.6386 6.97931 13.4136 6.75424Z" fill="#FEA613"/>
<path d="M13.4619 12.0956L13.1133 12.0923C12.9486 12.0907 12.8421 11.9176 12.9149 11.7698L13.0691 11.4572C13.1791 11.2342 13.3498 11.0467 13.5616 10.9164C13.7734 10.7861 14.0177 10.7182 14.2664 10.7205L14.6149 10.7238C14.7797 10.7253 14.8862 10.8985 14.8133 11.0462L14.6592 11.3588C14.5491 11.5819 14.3784 11.7693 14.1666 11.8997C13.9548 12.03 13.7105 12.0979 13.4619 12.0956Z" fill="#02905D"/>
<path d="M4.05859 11.7799C4.05859 10.8448 4.81661 10.0868 5.75166 10.0868C6.68671 10.0868 7.44473 10.8448 7.44473 11.7799L5.75166 11.9081L4.05859 11.7799Z" fill="#FB5858"/>
<path d="M5.75245 10.0868C5.62336 10.0868 5.49781 10.1017 5.37695 10.1291C6.13121 10.3 6.69455 10.9739 6.69455 11.7799H7.44556C7.44552 10.8448 6.6875 10.0868 5.75245 10.0868Z" fill="#F44545"/>
<path d="M5.96452 11.7798L4.27132 11.9081L2.57812 11.7798C2.57812 11.3992 2.70368 11.0483 2.91551 10.7657C3.0125 10.6362 3.1274 10.5212 3.25676 10.4241C3.53973 10.2123 3.89064 10.0867 4.27116 10.0867C4.65169 10.0867 5.00291 10.2123 5.28557 10.4241C5.4151 10.5211 5.53012 10.6362 5.62714 10.7657C5.84667 11.0581 5.9651 11.4141 5.96452 11.7798Z" fill="#FEDF30"/>
<path d="M4.27101 10.0868C4.14191 10.0868 4.01636 10.1017 3.89551 10.1291C4.64976 10.3 5.21311 10.9739 5.21311 11.7799H5.96411C5.96408 10.8448 5.20606 10.0868 4.27101 10.0868Z" fill="#FED402"/>
<path d="M12.86 11.5568L12.5662 11.7445C12.4274 11.8332 12.2436 11.7463 12.2239 11.5828L12.1823 11.2367C12.1526 10.9898 12.1932 10.7395 12.2994 10.5147C12.4056 10.2898 12.5731 10.0995 12.7827 9.96561L13.0764 9.77796C13.2153 9.68927 13.3991 9.77609 13.4188 9.93967L13.4604 10.2857C13.4901 10.5326 13.4495 10.7829 13.3433 11.0078C13.2371 11.2326 13.0695 11.4229 12.86 11.5568Z" fill="#02905D"/>
<path d="M13.4605 10.2857L13.4187 9.93965C13.399 9.77611 13.2152 9.68919 13.0765 9.77804L12.7829 9.96573C12.7471 9.98858 12.7127 10.0131 12.6798 10.0388C12.6506 10.0619 12.6223 10.0862 12.5952 10.1117C12.6316 10.082 12.6876 10.1032 12.6933 10.151L12.7095 10.2857C12.734 10.4899 12.7105 10.697 12.6409 10.8906C12.5713 11.0841 12.4574 11.2587 12.3085 11.4005C12.2691 11.4379 12.2037 11.414 12.1973 11.3601L12.224 11.5828C12.2436 11.7463 12.4274 11.8333 12.5662 11.7444L12.8601 11.5567C13.0697 11.4228 13.2372 11.2325 13.3434 11.0077C13.4496 10.7829 13.4902 10.5326 13.4605 10.2857ZM14.6148 10.7238L14.2663 10.7206C14.1666 10.7198 14.0672 10.7303 13.97 10.7518C14.069 10.8068 14.1177 10.9338 14.0622 11.0463L13.908 11.3589C13.7282 11.7234 13.3937 11.9792 13.007 12.0643C13.0395 12.0824 13.076 12.092 13.1132 12.0923L13.4617 12.0956C13.7104 12.0979 13.9547 12.03 14.1665 11.8997C14.3783 11.7694 14.549 11.5819 14.659 11.3589L14.8132 11.0463C14.8861 10.8985 14.7795 10.7254 14.6148 10.7238Z" fill="#017B4E"/>
<path d="M12.7759 14.221H3.22449C2.95828 14.221 2.69831 14.1404 2.47876 13.9899C2.25921 13.8393 2.09036 13.6259 1.99442 13.3775L1.78027 12.8233L8.35244 12.5848L14.2201 12.8233L14.0059 13.3775C13.91 13.6259 13.7411 13.8393 13.5216 13.9899C13.3021 14.1404 13.0421 14.221 12.7759 14.221Z" fill="#DDEAFB"/>
<path d="M13.4686 12.8232L13.2545 13.3775C13.1585 13.6258 12.9897 13.8393 12.7701 13.9898C12.5506 14.1404 12.2906 14.221 12.0244 14.221H12.7754C13.0416 14.221 13.3016 14.1404 13.5212 13.9898C13.7407 13.8393 13.9095 13.6258 14.0055 13.3775L14.2196 12.8232H13.4686Z" fill="#CBE2FF"/>
<path d="M15.8218 11.7799H0.178229C0.0448207 11.7799 -0.0411673 11.9212 0.0201607 12.0397C0.142365 12.2758 0.327131 12.4738 0.554263 12.612C0.781394 12.7502 1.04215 12.8233 1.30802 12.8233H14.692C14.9579 12.8233 15.2186 12.7502 15.4458 12.612C15.6729 12.4738 15.8577 12.2758 15.9799 12.0397C16.0412 11.9212 15.9552 11.7799 15.8218 11.7799Z" fill="#ECF4FF"/>
<path d="M15.8222 11.7799H15.0712C15.2046 11.7799 15.2906 11.9212 15.2293 12.0397C15.1071 12.2758 14.9223 12.4738 14.6952 12.612C14.468 12.7502 14.2073 12.8233 13.9414 12.8233H14.6924C14.9583 12.8233 15.219 12.7502 15.4462 12.612C15.6733 12.4738 15.8581 12.2758 15.9803 12.0397C16.0416 11.9212 15.9556 11.7799 15.8222 11.7799Z" fill="#DDEAFB"/>
<path d="M5.62667 10.7657L4.61258 11.7798H3.92912L2.91504 10.7657C3.01203 10.6363 3.12693 10.5212 3.25629 10.4241L4.27069 11.4385L5.2851 10.4241C5.41463 10.5212 5.52965 10.6362 5.62667 10.7657Z" fill="#FDB441"/>
<path d="M5.6271 10.7657L5.62613 10.7645C5.60485 10.7363 5.58271 10.7089 5.55972 10.6821C5.55379 10.6751 5.54781 10.6683 5.54179 10.6614C5.51814 10.6343 5.49364 10.608 5.46832 10.5825C5.44286 10.5573 5.4166 10.5328 5.38958 10.5092C5.38289 10.5033 5.37615 10.4975 5.36936 10.4917C5.3422 10.4684 5.31431 10.4459 5.28572 10.4243L5.28553 10.4241L4.9043 10.8054C5.00282 10.9448 5.0796 11.0983 5.132 11.2608L5.6271 10.7657Z" fill="#FEA613"/>
<path d="M3.32616 7.90861C3.46531 7.90861 3.57811 7.79581 3.57811 7.65667C3.57811 7.51752 3.46531 7.40472 3.32616 7.40472C3.18702 7.40472 3.07422 7.51752 3.07422 7.65667C3.07422 7.79581 3.18702 7.90861 3.32616 7.90861Z" fill="#D8AB8C"/>
<path d="M4.6787 6.90348C4.81785 6.90348 4.93065 6.79069 4.93065 6.65154C4.93065 6.5124 4.81785 6.3996 4.6787 6.3996C4.53956 6.3996 4.42676 6.5124 4.42676 6.65154C4.42676 6.79069 4.53956 6.90348 4.6787 6.90348Z" fill="#D8AB8C"/>
<path d="M4.3789 7.89152C4.51804 7.89152 4.63084 7.77872 4.63084 7.63958C4.63084 7.50043 4.51804 7.38763 4.3789 7.38763C4.23975 7.38763 4.12695 7.50043 4.12695 7.63958C4.12695 7.77872 4.23975 7.89152 4.3789 7.89152Z" fill="#D8AB8C"/>
<path d="M3.49145 3.72272C3.45974 3.72272 3.42834 3.71648 3.39905 3.70435C3.36975 3.69221 3.34313 3.67443 3.32071 3.65201C3.29829 3.62959 3.2805 3.60297 3.26837 3.57367C3.25624 3.54438 3.25 3.51298 3.25 3.48127V2.52568C3.25 2.3923 3.35807 2.28423 3.49145 2.28423C3.62482 2.28423 3.7329 2.3923 3.7329 2.52568V3.48127C3.7329 3.54531 3.70746 3.60672 3.66218 3.652C3.6169 3.69728 3.55548 3.72272 3.49145 3.72272ZM4.54587 3.72272C4.51416 3.72272 4.48276 3.71648 4.45347 3.70435C4.42417 3.69221 4.39755 3.67443 4.37513 3.65201C4.35271 3.62959 4.33493 3.60297 4.32279 3.57367C4.31066 3.54438 4.30442 3.51298 4.30442 3.48127V2.02044C4.30442 1.88706 4.4125 1.77899 4.54587 1.77899C4.67925 1.77899 4.78732 1.88706 4.78732 2.02044V3.48127C4.78732 3.54531 4.76188 3.60672 4.7166 3.652C4.67132 3.69728 4.60991 3.72272 4.54587 3.72272ZM5.60033 3.72272C5.56862 3.72272 5.53722 3.71648 5.50792 3.70435C5.47863 3.69221 5.45201 3.67443 5.42959 3.65201C5.40716 3.62959 5.38938 3.60297 5.37725 3.57367C5.36512 3.54438 5.35887 3.51298 5.35888 3.48127V2.52568C5.35888 2.3923 5.46695 2.28423 5.60033 2.28423C5.7337 2.28423 5.84177 2.3923 5.84177 2.52568V3.48127C5.84177 3.54531 5.81634 3.60672 5.77106 3.652C5.72578 3.69728 5.66436 3.72272 5.60033 3.72272Z" fill="#BED8FB"/>
</g>
<defs>
<clipPath id="clip0_25922_769">
<rect width="16" height="16" fill="white"/>
</clipPath>
</defs>
</svg>
