<svg width="90" height="126" viewBox="0 0 90 126" fill="none" xmlns="http://www.w3.org/2000/svg">
<ellipse cx="45" cy="45.32" rx="43.5" ry="43.82" fill="#99AFB1" stroke="#212121" stroke-width="3"/>
<path d="M44.0598 95.3152C45.6463 95.7403 47.1762 96.1502 48.6494 96.545C50.066 96.9246 51.5392 97.3193 52.9251 97.8132C54.3524 98.3794 55.1487 99.9406 54.8071 101.442C54.3889 103.229 53.8988 105.058 53.352 106.872C52.8925 108.587 51.309 109.511 49.5632 109.227C48.626 109.098 47.7194 108.855 46.8128 108.612C45.1696 108.172 43.5264 107.732 41.8985 107.234C41.6152 107.158 41.2752 107.067 40.9199 107.033L40.7055 107.834C40.0775 110.177 39.4342 112.578 38.8063 114.922C38.2089 117.151 36.3375 118.242 34.0557 117.692C32.6391 117.313 31.2226 116.933 29.806 116.554C27.5962 115.961 26.5059 114.138 27.1032 111.908C27.7312 109.565 28.3592 107.221 28.9872 104.877C29.2782 103.791 29.2782 103.791 28.2016 103.503C25.8218 102.865 23.442 102.228 21.0622 101.59C19.079 101.059 18.0454 99.2499 18.5248 97.2341C18.9383 95.6907 19.3519 94.1474 19.7654 92.604C20.3474 90.4319 22.1316 89.4395 24.3001 89.9593C26.7365 90.6122 29.173 91.265 31.5528 91.9027C31.7794 91.9634 32.0061 92.0241 32.3461 92.1152C32.4226 91.8294 32.5559 91.5588 32.6325 91.273C33.5361 87.9005 34.4245 84.5851 35.3282 81.2126C35.4966 80.5838 35.3879 80.3096 34.8106 79.9711C29.146 76.8604 24.5856 72.5751 21.4479 66.8331C17.9795 60.5124 16.6259 53.7781 17.5726 46.6186C18.6112 39.1162 21.8657 32.6363 27.3883 27.4381C33.897 21.2789 41.7457 18.0518 50.6524 18.3553C63.6986 18.849 73.1289 25.3581 78.9876 37.0368C81.7853 42.6877 82.7668 48.7709 81.8951 54.9703C80.2576 66.2945 74.248 74.6705 64.1955 80.0028C59.2336 82.6555 53.846 83.7238 48.1981 83.497C47.4156 83.4711 47.1124 83.6962 46.9133 84.4393C46.0249 87.7547 45.1365 91.0701 44.2482 94.3854C44.1869 94.6141 44.1257 94.8427 44.0185 95.2429L44.0598 95.3152ZM69.44 56.3504C72.3655 45.4325 66.0901 33.9485 54.5984 31.0531C44.07 28.4159 33.5366 35.0896 30.4428 44.3695C26.4744 56.2332 33.6303 67.8306 44.0255 70.7385C54.802 73.8098 66.2328 67.8667 69.4967 56.3656L69.44 56.3504Z" fill="#212121" stroke="#212121" stroke-width="3"/>
</svg>
