<svg width="26" height="26" viewBox="0 0 26 26" fill="none" xmlns="http://www.w3.org/2000/svg">
<path d="M12.4955 18.608C11.6528 18.3627 10.7888 18.176 9.91948 18.0533V24.0853C9.92009 24.4187 10.0194 24.7445 10.2048 25.0216C10.3902 25.2986 10.6534 25.5147 10.9614 25.6424C11.2693 25.7702 11.6082 25.8039 11.9353 25.7394C12.2624 25.6749 12.5631 25.5151 12.7995 25.28C13.1142 24.96 13.2902 24.5387 13.2902 24.0853V21.824C13.9035 22.0853 14.7035 21.952 15.2102 21.4507C15.5408 21.12 15.7222 20.6773 15.7222 20.2133V19.376C14.8475 19.232 13.9782 19.0347 13.1248 18.7893L12.4955 18.608ZM4.79948 0.517333C4.46348 0.848 4.27148 1.30667 4.27148 1.78133V2.8C4.27148 6.14933 6.66615 8.944 9.91948 9.48267V11.3813C11.0768 11.5253 12.2235 11.76 13.3435 12.0853L13.9675 12.2667C14.5488 12.432 15.1302 12.576 15.7222 12.6827V9.48267C18.9755 8.944 21.3702 6.14933 21.3702 2.8V1.78133C21.3702 0.8 20.5702 0 19.5888 0C19.1088 0 18.6608 0.186667 18.3355 0.517333C17.9995 0.848 17.8075 1.30667 17.8075 1.78133V3.02933C17.8075 4.28267 17.1462 5.38133 16.1542 5.98933C15.7561 6.49198 15.2495 6.89799 14.6722 7.17694C14.0949 7.45588 13.462 7.60052 12.8208 7.6C12.1811 7.59973 11.5497 7.45526 10.9735 7.17733C10.3973 6.8994 9.89123 6.49516 9.49282 5.99467C8.98515 5.68424 8.56591 5.24839 8.27542 4.72906C7.98494 4.20973 7.83297 3.62439 7.83415 3.02933V1.78133C7.83415 0.8 7.03415 0 6.05282 0C5.57282 0 5.12482 0.186667 4.79948 0.517333Z" fill="#919EAB"/>
<path d="M12.8211 6.53336C14.5884 6.53336 16.0211 5.10067 16.0211 3.33336C16.0211 1.56605 14.5884 0.133362 12.8211 0.133362C11.0538 0.133362 9.62109 1.56605 9.62109 3.33336C9.62109 5.10067 11.0538 6.53336 12.8211 6.53336Z" fill="#919EAB"/>
<path d="M25.3441 13.4134C25.2108 13.312 25.0401 13.28 24.8801 13.3227C21.2159 14.3629 17.333 14.3518 13.6748 13.2907L13.0454 13.1094C9.75773 12.1602 6.29083 12.0103 2.93345 12.672L0.432115 13.168C0.176115 13.216 -0.00521872 13.44 0.000114614 13.696L0.0427812 17.1467C0.0427812 17.3014 0.117448 17.4507 0.240115 17.552C0.362781 17.6534 0.522781 17.6907 0.677448 17.664L3.18411 17.168C6.36278 16.5387 9.68012 16.6827 12.7894 17.584L13.4241 17.7654C15.3708 18.3307 17.3761 18.608 19.3761 18.608C21.3388 18.608 23.3014 18.3414 25.2108 17.7974C25.4454 17.7334 25.6054 17.52 25.6001 17.28L25.5574 13.8294C25.5574 13.664 25.4774 13.5094 25.3441 13.4134Z" fill="#919EAB"/>
</svg>
