<svg width="20" height="20" viewBox="0 0 20 20" fill="none" xmlns="http://www.w3.org/2000/svg">
<g clip-path="url(#clip0_25940_2671)">
<path d="M9.57023 0.473938C8.38684 0.473938 7.25387 0.689329 6.20766 1.08202L6.0957 18.9638C7.17281 19.3837 8.34453 19.6144 9.57023 19.6144C14.8557 19.6144 19.1405 15.3297 19.1405 10.0442C19.1405 4.75866 14.8557 0.473938 9.57023 0.473938Z" fill="#9181F2"/>
<path d="M20 10.0313C20 5.57158 15.9377 1.85975 10.5689 1.06475C11.2048 1.42072 11.6358 2.10072 11.6358 2.87982C11.6358 4.02623 10.7031 4.95889 9.55672 4.95889C8.41031 4.95889 7.47766 4.02623 7.47766 2.87982C7.47766 1.97053 8.06465 1.19627 8.87941 0.914629C8.72493 0.909604 8.57038 0.906974 8.41582 0.906738C7.67441 0.906738 6.94957 0.962246 6.24687 1.06709C2.59969 2.41787 0 5.92729 0 10.0442C0 14.1187 2.54656 17.5979 6.13473 18.9786C6.88931 19.097 7.65198 19.1562 8.41578 19.1559C14.8136 19.1559 20 15.0707 20 10.0313Z" fill="#E9EFFF"/>
<path d="M12.4639 16.8749L10.5304 15.8485C9.07301 15.5759 8.62246 14.2627 8.48426 13.5433C8.43484 13.2862 8.23781 13.0791 7.98051 13.0304C6.32609 12.7171 6.68152 10.6289 6.68152 10.6289L4.98 7.32136C4.00363 6.68269 4.13176 5.66984 4.33309 5.05257C4.42203 4.77984 4.32293 4.47593 4.08215 4.31996C3.5802 3.9948 3.5377 3.44441 3.59711 3.02378C3.6165 2.88679 3.59105 2.7472 3.52457 2.62585C1.37371 4.38074 0 7.05183 0 10.0442C0 14.1187 2.54656 17.598 6.13473 18.9786C6.88931 19.097 7.65198 19.1563 8.41578 19.1559C10.0736 19.1559 11.6496 18.8811 13.0755 18.387C11.9485 18.0458 12.4639 16.8749 12.4639 16.8749Z" fill="#D3DCFB"/>
<path d="M14.6808 6.02538C13.6444 5.20905 12.3896 4.64265 11.0501 4.32468C10.6719 4.71534 10.1426 4.95894 9.55715 4.95894C8.83785 4.95894 8.20285 4.59167 7.82941 4.03491C7.44703 4.05387 7.06583 4.09187 6.68723 4.14878C7.05996 4.21136 7.42437 4.34608 7.76125 4.55315C8.74055 5.15503 9.27953 6.24026 9.16781 7.38534C9.09668 8.11491 9.12797 8.79839 9.26098 9.41679C9.7573 11.7247 8.38672 13.8775 6.00977 14.3687C5.26223 14.5233 4.60508 14.7116 4.00074 14.9443C3.91943 14.9756 3.83674 15.0033 3.75293 15.0271C7.15367 16.656 11.7747 16.3263 14.6808 14.0372C17.6173 11.7242 17.6239 8.34358 14.6808 6.02538Z" fill="#D3DCFB"/>
<path d="M3.75293 15.0272C5.78527 16.0006 8.25336 16.2743 10.5309 15.8485C9.07344 15.5759 8.62289 14.2627 8.48469 13.5433C8.45554 13.3904 8.37288 13.2529 8.25152 13.1554C7.68453 13.7475 6.92129 14.1804 6.0098 14.3687C5.26227 14.5233 4.60512 14.7115 4.00078 14.9443C3.91946 14.9756 3.83675 15.0033 3.75293 15.0272Z" fill="#BEC8F7"/>
<path d="M9.23625 7.39206C9.34598 6.26745 8.82453 5.12565 7.79703 4.49413C6.76953 3.86261 5.51531 3.91304 4.56148 4.51878C3.99191 4.8805 3.37906 5.17327 2.72645 5.34456C1.92937 5.55382 1.20859 5.96624 0.652187 6.56546C0.231328 7.64374 0 8.81687 0 10.0442C0 11.6518 0.396992 13.1665 1.09734 14.4965C1.21637 14.5997 1.3436 14.693 1.47777 14.7755C2.27437 15.2651 3.21523 15.3208 4.0252 15.0089C4.67301 14.7594 5.34352 14.577 6.02336 14.4365C7.17883 14.1977 8.19867 13.5446 8.82695 12.5224C9.4102 11.5735 9.55723 10.467 9.3282 9.40222C9.18633 8.74257 9.17074 8.06358 9.23625 7.39206Z" fill="#FCF0BE"/>
<path d="M8.30289 13.2016C8.21633 13.1154 8.10563 13.0541 7.98051 13.0303C6.32609 12.7171 6.68152 10.6288 6.68152 10.6288L4.98 7.32132C4.00363 6.68265 4.13176 5.6698 4.33309 5.05253C4.37486 4.92417 4.37574 4.78599 4.33559 4.6571C3.83078 4.955 3.29371 5.19566 2.72656 5.34457C1.92949 5.55382 1.20871 5.96625 0.652305 6.56546C0.231328 7.64375 0 8.81687 0 10.0442C0 11.6518 0.396992 13.1665 1.09734 14.4965C1.21637 14.5997 1.3436 14.693 1.47777 14.7755C2.27437 15.2651 3.21523 15.3208 4.0252 15.0089C4.67301 14.7594 5.34352 14.577 6.02336 14.4365C6.89797 14.2558 7.69469 13.8374 8.30289 13.2016Z" fill="#FFE98D"/>
<path d="M6.85817 10.0308C7.06802 8.73512 6.18779 7.51465 4.89211 7.3048C3.59643 7.09494 2.37596 7.97518 2.16611 9.27085C1.95625 10.5665 2.83649 11.787 4.13216 11.9969C5.42784 12.2067 6.64831 11.3265 6.85817 10.0308Z" fill="#FFB332"/>
<path d="M5.11613 9.65219C5.53462 9.65219 5.87387 9.31294 5.87387 8.89445C5.87387 8.47597 5.53462 8.13672 5.11613 8.13672C4.69765 8.13672 4.3584 8.47597 4.3584 8.89445C4.3584 9.31294 4.69765 9.65219 5.11613 9.65219Z" fill="#FFC839"/>
<path d="M4.15789 10.593C4.41768 10.593 4.62828 10.3824 4.62828 10.1226C4.62828 9.86282 4.41768 9.65222 4.15789 9.65222C3.8981 9.65222 3.6875 9.86282 3.6875 10.1226C3.6875 10.3824 3.8981 10.593 4.15789 10.593Z" fill="#FFC839"/>
<path d="M7.00698 16.664C6.66413 16.2046 6.75854 15.5542 7.21792 15.2113C8.54624 14.2199 9.33925 12.6384 9.33925 10.9809C9.33925 10.4077 9.80394 9.94299 10.3772 9.94299C10.9504 9.94299 11.4151 10.4077 11.4151 10.9809C11.4151 13.2902 10.3103 15.4935 8.45964 16.8749C7.99839 17.2191 7.34851 17.1214 7.00698 16.664Z" fill="#B76C4E"/>
<path d="M11.0446 13.2751C11.0336 13.2623 11.0229 13.2493 11.0125 13.236C10.9776 13.1909 10.9294 13.1578 10.8748 13.1415C10.8201 13.1251 10.7617 13.1262 10.7077 13.1446C9.70831 13.4844 9.25702 13.0753 9.09976 12.8634C9.07743 12.8335 9.04932 12.8084 9.0171 12.7896C8.6678 13.7434 8.04722 14.5923 7.21792 15.2113C6.75854 15.5542 6.66413 16.2046 7.00698 16.664C7.34851 17.1215 7.99839 17.2191 8.45964 16.8749C9.68003 15.964 10.5758 14.6955 11.0446 13.2751Z" fill="#A05838"/>
<path d="M9.00894 16.664C8.66608 16.2046 8.7605 15.5542 9.21987 15.2113C10.5482 14.2199 11.3412 12.6384 11.3412 10.9809C11.3412 10.4077 11.8059 9.94299 12.3791 9.94299C12.9524 9.94299 13.4171 10.4077 13.4171 10.9809C13.4171 13.2902 12.3122 15.4935 10.4616 16.8749C10.0003 17.2191 9.3505 17.1214 9.00894 16.664Z" fill="#A05838"/>
<path d="M9.00894 16.664C9.35046 17.1215 10.0003 17.2191 10.4616 16.8749C11.5417 16.0687 12.3672 14.9822 12.8678 13.7583C12.8371 13.7322 12.8091 13.7031 12.7843 13.6714C12.7161 13.5842 12.6003 13.5487 12.4943 13.5805C11.6348 13.8386 11.1945 13.4696 11.0125 13.236C10.9775 13.1911 10.9296 13.1581 10.8751 13.1417C10.511 13.9517 9.94558 14.6697 9.21987 15.2114C8.7605 15.5542 8.66608 16.2046 9.00894 16.664Z" fill="#823C26"/>
<path d="M11.0109 16.664C10.668 16.2046 10.7625 15.5542 11.2218 15.2113C12.5501 14.2199 13.3432 12.6384 13.3432 10.9809C13.3432 10.4077 13.8078 9.94299 14.3811 9.94299C14.9543 9.94299 15.419 10.4077 15.419 10.9809C15.419 13.2902 14.3142 15.4935 12.4635 16.8749C12.0023 17.2191 11.3524 17.1214 11.0109 16.664Z" fill="#B76C4E"/>
<path d="M13.6693 13.9196C13.6004 13.8549 13.5028 13.8306 13.4114 13.8549C13.0768 13.9436 12.8841 13.7992 12.7842 13.6714C12.751 13.6291 12.7058 13.5978 12.6544 13.5817C12.298 14.2116 11.8131 14.77 11.2218 15.2113C10.7625 15.5543 10.668 16.2046 11.0109 16.664C11.3524 17.1215 12.0023 17.2191 12.4635 16.8749C13.2755 16.2689 13.9438 15.5045 14.4383 14.6424L13.6693 13.9196Z" fill="#A05838"/>
<path d="M10.5516 9.10782C10.3027 8.96547 10.2163 8.64833 10.3586 8.39942C10.4252 8.28294 10.4252 8.13243 10.3587 8.01606C10.2163 7.76719 10.3027 7.45001 10.5516 7.30766C10.8005 7.1652 11.1176 7.25165 11.26 7.50051C11.5094 7.93665 11.5094 8.47856 11.26 8.91485C11.1172 9.1645 10.7998 9.24969 10.5516 9.10782Z" fill="#AAD331"/>
<path d="M11.5526 9.10782C11.3037 8.96547 11.2173 8.64833 11.3596 8.39942C11.4262 8.28294 11.4262 8.13243 11.3597 8.01606C11.2173 7.76719 11.3036 7.45001 11.5525 7.30766C11.8014 7.1652 12.1186 7.25165 12.2609 7.50051C12.5104 7.93665 12.5104 8.47856 12.261 8.91485C12.1182 9.1645 11.8008 9.24969 11.5526 9.10782Z" fill="#87C121"/>
<path d="M12.5535 9.10782C12.3046 8.96547 12.2182 8.64833 12.3605 8.39942C12.4271 8.28294 12.4272 8.13243 12.3607 8.01606C12.2183 7.76719 12.3046 7.45001 12.5535 7.30766C12.8024 7.1652 13.1196 7.25165 13.2619 7.50051C13.5114 7.93665 13.5114 8.47856 13.2619 8.91485C13.1192 9.1645 12.8018 9.24969 12.5535 9.10782Z" fill="#AAD331"/>
<path d="M13.5545 9.10782C13.3056 8.96547 13.2192 8.64833 13.3615 8.39942C13.4281 8.28294 13.4281 8.13243 13.3616 8.01606C13.2192 7.76719 13.3056 7.45001 13.5545 7.30766C13.8034 7.1652 14.1205 7.25165 14.2629 7.50051C14.5124 7.93665 14.5124 8.47856 14.2629 8.91485C14.1201 9.1645 13.8027 9.24969 13.5545 9.10782Z" fill="#87C121"/>
<path d="M14.5553 9.10779C14.3064 8.96545 14.22 8.6483 14.3623 8.39939C14.4289 8.28291 14.429 8.1324 14.3624 8.01604C14.22 7.76717 14.3064 7.44998 14.5553 7.30764C14.8042 7.16518 15.1213 7.25162 15.2637 7.50049C15.5132 7.93662 15.5132 8.47854 15.2637 8.91482C15.1209 9.16447 14.8035 9.24967 14.5553 9.10779ZM11.5526 7.17045C11.3037 7.02811 11.2173 6.71096 11.3596 6.46205C11.4262 6.34557 11.4262 6.19506 11.3597 6.07869C11.2173 5.82982 11.3036 5.51264 11.5525 5.37029C11.8014 5.22783 12.1186 5.31424 12.2609 5.56314C12.5104 5.99928 12.5104 6.54119 12.261 6.97748C12.1182 7.22713 11.8008 7.31232 11.5526 7.17045Z" fill="#AAD331"/>
<path d="M12.5535 7.17045C12.3046 7.02811 12.2182 6.71096 12.3605 6.46205C12.4271 6.34557 12.4272 6.19506 12.3607 6.07869C12.2183 5.82982 12.3046 5.51264 12.5535 5.37029C12.8024 5.22783 13.1196 5.31424 13.2619 5.56314C13.5114 5.99928 13.5114 6.54119 13.2619 6.97748C13.1192 7.22713 12.8018 7.31232 12.5535 7.17045Z" fill="#87C121"/>
<path d="M13.5545 7.17045C13.3056 7.02811 13.2192 6.71096 13.3615 6.46205C13.4281 6.34557 13.4281 6.19506 13.3616 6.07869C13.2192 5.82982 13.3056 5.51264 13.5545 5.37029C13.8034 5.22783 14.1205 5.31424 14.2629 5.56314C14.5124 5.99928 14.5124 6.54119 14.2629 6.97748C14.1201 7.22713 13.8027 7.31232 13.5545 7.17045Z" fill="#AAD331"/>
<path d="M14.5555 7.17045C14.3066 7.02811 14.2202 6.71096 14.3625 6.46205C14.4291 6.34557 14.4292 6.19506 14.3626 6.07869C14.2202 5.82982 14.3065 5.51264 14.5554 5.37029C14.8044 5.22783 15.1215 5.31424 15.2638 5.56314C15.5133 5.99928 15.5133 6.54119 15.2639 6.97748C15.1211 7.22713 14.8036 7.31232 14.5555 7.17045ZM15.5564 9.10779C15.3075 8.96545 15.2211 8.6483 15.3634 8.39939C15.43 8.28291 15.4301 8.1324 15.3635 8.01604C15.2211 7.76717 15.3074 7.44998 15.5563 7.30764C15.8053 7.16518 16.1224 7.25162 16.2647 7.50049C16.5142 7.93662 16.5142 8.47854 16.2648 8.91482C16.122 9.16447 15.8046 9.24967 15.5564 9.10779Z" fill="#87C121"/>
<path d="M14.9755 15.5094C15.5684 15.2641 15.8501 14.5846 15.6048 13.9918C15.3594 13.3989 14.68 13.1172 14.0871 13.3625C13.4943 13.6078 13.2125 14.2873 13.4579 14.8801C13.7032 15.473 14.3827 15.7547 14.9755 15.5094Z" fill="#FFB332"/>
<path d="M16.9449 12.5303C17.5865 12.5303 18.1066 12.0102 18.1066 11.3686C18.1066 10.727 17.5865 10.2069 16.9449 10.2069C16.3033 10.2069 15.7832 10.727 15.7832 11.3686C15.7832 12.0102 16.3033 12.5303 16.9449 12.5303Z" fill="#FFB332"/>
<path d="M17.2185 11.5701C17.4978 11.5701 17.7241 11.3437 17.7241 11.0645C17.7241 10.7852 17.4978 10.5588 17.2185 10.5588C16.9393 10.5588 16.7129 10.7852 16.7129 11.0645C16.7129 11.3437 16.9393 11.5701 17.2185 11.5701Z" fill="#FFC839"/>
<path d="M14.8304 14.9031C15.0884 14.7964 15.211 14.5006 15.1042 14.2426C14.9975 13.9846 14.7017 13.862 14.4437 13.9687C14.1857 14.0755 14.0631 14.3712 14.1699 14.6293C14.2767 14.8873 14.5724 15.0099 14.8304 14.9031Z" fill="#FFC839"/>
<path d="M11.5447 3.70234C11.9991 2.60635 11.479 1.34949 10.383 0.895071C9.28701 0.440649 8.03016 0.960743 7.57573 2.05673C7.12131 3.15272 7.64141 4.40958 8.7374 4.864C9.83339 5.31843 11.0902 4.79833 11.5447 3.70234Z" fill="#FF4155"/>
<path d="M9.99965 3.3688C10.4439 3.3688 10.804 3.00869 10.804 2.56447C10.804 2.12025 10.4439 1.76013 9.99965 1.76013C9.55543 1.76013 9.19531 2.12025 9.19531 2.56447C9.19531 3.00869 9.55543 3.3688 9.99965 3.3688Z" fill="#FF7186"/>
<path d="M9.55676 5.37407C8.18141 5.37407 7.0625 4.25513 7.0625 2.87982C7.0625 1.5045 8.18145 0.385559 9.55676 0.385559C10.9321 0.385559 12.051 1.5045 12.051 2.87982C12.051 4.25513 10.9321 5.37407 9.55676 5.37407ZM9.55676 1.07755C8.56297 1.07755 7.75445 1.88607 7.75445 2.87986C7.75445 3.87365 8.56297 4.68212 9.55676 4.68212C10.5505 4.68212 11.3591 3.87361 11.3591 2.87986C11.3591 1.88611 10.5505 1.07755 9.55676 1.07755Z" fill="#D3DCFB"/>
<path d="M10.9391 4.03491L10.939 4.03483C10.6082 4.43015 10.1114 4.68214 9.5568 4.68214C8.56301 4.68214 7.75449 3.87362 7.75449 2.87987C7.75449 2.218 8.11336 1.6387 8.64648 1.32534C8.12148 1.31026 8.28723 0.743545 8.29062 0.732178C7.55629 1.16675 7.0625 1.96655 7.0625 2.87991C7.0625 4.25522 8.18145 5.37413 9.55676 5.37413C10.3383 5.37413 11.0367 5.01257 11.4943 4.44823C10.8966 4.53358 10.9391 4.03491 10.9391 4.03491Z" fill="#BEC8F7"/>
<path d="M17.0752 13.3439C17.2228 12.7195 16.8363 12.0937 16.2119 11.9461C15.5876 11.7985 14.9617 12.185 14.8141 12.8094C14.6665 13.4338 15.053 14.0596 15.6774 14.2072C16.3018 14.3548 16.9276 13.9683 17.0752 13.3439Z" fill="#FFC839"/>
<path d="M16.1111 13.406C16.3903 13.406 16.6167 13.1796 16.6167 12.9004C16.6167 12.6212 16.3903 12.3948 16.1111 12.3948C15.8318 12.3948 15.6055 12.6212 15.6055 12.9004C15.6055 13.1796 15.8318 13.406 16.1111 13.406Z" fill="#FFDD40"/>
<path d="M15.1842 5.78565C15.1842 5.85126 15.1582 5.91418 15.1118 5.96058C15.0654 6.00697 15.0024 6.03303 14.9368 6.03303C14.8712 6.03303 14.8083 6.00697 14.7619 5.96058C14.7155 5.91418 14.6895 5.85126 14.6895 5.78565C14.6895 5.72004 14.7155 5.65712 14.7619 5.61073C14.8083 5.56433 14.8712 5.53827 14.9368 5.53827C15.0024 5.53827 15.0654 5.56433 15.1118 5.61073C15.1582 5.65712 15.1842 5.72004 15.1842 5.78565Z" fill="#AAD331"/>
<path d="M14.1186 5.78565C14.1186 5.85126 14.0926 5.91418 14.0462 5.96058C13.9998 6.00697 13.9369 6.03303 13.8713 6.03303C13.8056 6.03303 13.7427 6.00697 13.6963 5.96058C13.6499 5.91418 13.6239 5.85126 13.6239 5.78565C13.6239 5.72004 13.6499 5.65712 13.6963 5.61073C13.7427 5.56433 13.8056 5.53827 13.8713 5.53827C13.9369 5.53827 13.9998 5.56433 14.0462 5.61073C14.0926 5.65712 14.1186 5.72004 14.1186 5.78565ZM12.1168 5.78565C12.1168 5.85126 12.0908 5.91418 12.0444 5.96058C11.998 6.00697 11.9351 6.03303 11.8695 6.03303C11.8038 6.03303 11.7409 6.00697 11.6945 5.96058C11.6481 5.91418 11.6221 5.85126 11.6221 5.78565C11.6221 5.72004 11.6481 5.65712 11.6945 5.61073C11.7409 5.56433 11.8038 5.53827 11.8695 5.53827C11.9351 5.53827 11.998 5.56433 12.0444 5.61073C12.0908 5.65712 12.1168 5.72004 12.1168 5.78565Z" fill="#CCE541"/>
<path d="M13.1178 5.78565C13.1178 5.85126 13.0917 5.91418 13.0454 5.96058C12.999 6.00697 12.936 6.03303 12.8704 6.03303C12.8048 6.03303 12.7419 6.00697 12.6955 5.96058C12.6491 5.91418 12.623 5.85126 12.623 5.78565C12.623 5.72004 12.6491 5.65712 12.6955 5.61073C12.7419 5.56433 12.8048 5.53827 12.8704 5.53827C12.936 5.53827 12.999 5.56433 13.0454 5.61073C13.0917 5.65712 13.1178 5.72004 13.1178 5.78565ZM14.1105 7.73878C14.1105 7.80439 14.0844 7.86731 14.0381 7.9137C13.9917 7.9601 13.9287 7.98616 13.8631 7.98616C13.7975 7.98616 13.7346 7.9601 13.6882 7.9137C13.6418 7.86731 13.6157 7.80439 13.6157 7.73878C13.6157 7.67317 13.6418 7.61024 13.6882 7.56385C13.7346 7.51746 13.7975 7.49139 13.8631 7.49139C13.9287 7.49139 13.9917 7.51746 14.0381 7.56385C14.0844 7.61024 14.1105 7.67317 14.1105 7.73878Z" fill="#AAD331"/>
<path d="M13.0455 7.73878C13.0455 7.80439 13.0195 7.86731 12.9731 7.9137C12.9267 7.9601 12.8638 7.98616 12.7982 7.98616C12.7326 7.98616 12.6696 7.9601 12.6232 7.9137C12.5768 7.86731 12.5508 7.80439 12.5508 7.73878C12.5508 7.67317 12.5768 7.61024 12.6232 7.56385C12.6696 7.51746 12.7326 7.49139 12.7982 7.49139C12.8638 7.49139 12.9267 7.51746 12.9731 7.56385C13.0195 7.61024 13.0455 7.67317 13.0455 7.73878Z" fill="#CCE541"/>
<path d="M16.153 7.73878C16.153 7.80439 16.1269 7.86731 16.0805 7.9137C16.0341 7.9601 15.9712 7.98616 15.9056 7.98616C15.84 7.98616 15.7771 7.9601 15.7307 7.9137C15.6843 7.86731 15.6582 7.80439 15.6582 7.73878C15.6582 7.67317 15.6843 7.61024 15.7307 7.56385C15.7771 7.51746 15.84 7.49139 15.9056 7.49139C15.9712 7.49139 16.0341 7.51746 16.0805 7.56385C16.1269 7.61024 16.153 7.67317 16.153 7.73878Z" fill="#AAD331"/>
<path d="M15.0877 7.73878C15.0877 7.80439 15.0616 7.86731 15.0152 7.9137C14.9688 7.9601 14.9059 7.98616 14.8403 7.98616C14.7747 7.98616 14.7118 7.9601 14.6654 7.9137C14.619 7.86731 14.5929 7.80439 14.5929 7.73878C14.5929 7.67317 14.619 7.61024 14.6654 7.56385C14.7118 7.51746 14.7747 7.49139 14.8403 7.49139C14.9059 7.49139 14.9688 7.51746 15.0152 7.56385C15.0616 7.61024 15.0877 7.67317 15.0877 7.73878ZM11.0436 7.73878C11.0436 7.77126 11.0372 7.80343 11.0248 7.83345C11.0123 7.86346 10.9941 7.89073 10.9711 7.9137C10.9482 7.93667 10.9209 7.9549 10.8909 7.96733C10.8609 7.97976 10.8287 7.98616 10.7962 7.98616C10.7637 7.98616 10.7316 7.97976 10.7015 7.96733C10.6715 7.9549 10.6443 7.93667 10.6213 7.9137C10.5983 7.89073 10.5801 7.86346 10.5677 7.83345C10.5552 7.80343 10.5488 7.77126 10.5488 7.73878C10.5488 7.67317 10.5749 7.61024 10.6213 7.56385C10.6677 7.51746 10.7306 7.49139 10.7962 7.49139C10.8618 7.49139 10.9247 7.51746 10.9711 7.56385C11.0175 7.61024 11.0436 7.67317 11.0436 7.73878Z" fill="#CCE541"/>
<path d="M12.0446 7.73878C12.0446 7.80439 12.0185 7.86731 11.9721 7.9137C11.9257 7.9601 11.8628 7.98616 11.7972 7.98616C11.7316 7.98616 11.6687 7.9601 11.6223 7.9137C11.5759 7.86731 11.5498 7.80439 11.5498 7.73878C11.5498 7.67317 11.5759 7.61024 11.6223 7.56385C11.6687 7.51746 11.7316 7.49139 11.7972 7.49139C11.8628 7.49139 11.9257 7.51746 11.9721 7.56385C12.0185 7.61024 12.0446 7.67317 12.0446 7.73878Z" fill="#AAD331"/>
</g>
<defs>
<clipPath id="clip0_25940_2671">
<rect width="20" height="20" fill="white"/>
</clipPath>
</defs>
</svg>
