<svg width="20" height="20" viewBox="0 0 20 20" fill="none" xmlns="http://www.w3.org/2000/svg">
<g clip-path="url(#clip0_25940_2718)">
<path d="M16.3229 13.4089H15.0498C15.0812 13.6316 15.0969 13.8561 15.097 14.081C15.097 14.2778 15.085 14.4745 15.0611 14.67C15.0951 14.6661 15.1294 14.6642 15.1636 14.6642C15.4522 14.6642 15.7105 14.796 15.8816 15.0026C15.9969 14.8631 16.1502 14.7601 16.3229 14.7061V13.4089Z" fill="#FEDF30"/>
<path d="M10.0989 7.67127C10.3937 7.67127 10.6692 7.83037 10.8177 8.0865L10.8515 8.14478L10.8853 8.0865C11.0338 7.83037 11.3093 7.67127 11.604 7.67127C11.8988 7.67127 12.1743 7.83037 12.3228 8.0865L12.3566 8.14478L12.3904 8.0865C12.5389 7.83037 12.8143 7.67127 13.1091 7.67127C13.4039 7.67127 13.6793 7.83037 13.8279 8.0865L13.8616 8.14478L13.8954 8.0865C14.044 7.83037 14.3194 7.67127 14.6142 7.67127C14.909 7.67127 15.1844 7.83037 15.3329 8.0865L15.3667 8.14478L15.4005 8.0865C15.5491 7.83037 15.8245 7.67127 16.1193 7.67127C16.414 7.67127 16.6895 7.83037 16.838 8.0865L16.8718 8.14478L16.9056 8.0865C17.0541 7.83037 17.3296 7.67127 17.6243 7.67127C17.9191 7.67127 18.1945 7.83037 18.3431 8.0865L18.3769 8.14474L18.4107 8.08646C18.5592 7.83033 18.8346 7.67123 19.1294 7.67123C19.135 7.67123 19.1404 7.67197 19.146 7.67209C18.4535 6.23537 16.6859 5.21381 14.614 5.21381C12.5421 5.21381 10.7745 6.23541 10.082 7.67209C10.0879 7.67197 10.0933 7.67127 10.0989 7.67127Z" fill="#F6A96C"/>
<path d="M10.0987 7.67127C10.3935 7.67127 10.6689 7.83037 10.8174 8.0865L10.8512 8.14478L10.885 8.0865C11.0336 7.83037 11.309 7.67127 11.6037 7.67127C11.6792 7.67127 11.7534 7.68185 11.8245 7.70166C12.4088 6.45822 13.7957 5.5201 15.4921 5.27615C15.2012 5.23449 14.9078 5.21366 14.614 5.21381C12.5421 5.21381 10.7745 6.23541 10.082 7.67209C10.0876 7.67197 10.093 7.67127 10.0987 7.67127Z" fill="#EA9B58"/>
<path d="M13.4912 6.52344C13.4135 6.52344 13.339 6.49257 13.2841 6.43763C13.2291 6.38269 13.1982 6.30817 13.1982 6.23047V5.27399C13.1982 5.11219 13.3294 4.98102 13.4912 4.98102C13.653 4.98102 13.7842 5.11219 13.7842 5.27399V6.23047C13.7842 6.30817 13.7533 6.38269 13.6984 6.43763C13.6434 6.49257 13.5689 6.52344 13.4912 6.52344ZM14.6141 6.52344C14.5364 6.52344 14.4618 6.49257 14.4069 6.43763C14.352 6.38269 14.3211 6.30817 14.3211 6.23047V5.27399C14.3211 5.11219 14.4522 4.98102 14.6141 4.98102C14.7759 4.98102 14.907 5.11219 14.907 5.27399V6.23047C14.907 6.30817 14.8762 6.38269 14.8212 6.43763C14.7663 6.49257 14.6918 6.52344 14.6141 6.52344ZM15.7369 6.52344C15.6592 6.52344 15.5847 6.49257 15.5298 6.43763C15.4748 6.38269 15.4439 6.30817 15.4439 6.23047V5.27399C15.4439 5.11219 15.5751 4.98102 15.7369 4.98102C15.8988 4.98102 16.0299 5.11219 16.0299 5.27399V6.23047C16.0299 6.30817 15.999 6.38269 15.9441 6.43763C15.8891 6.49257 15.8146 6.52344 15.7369 6.52344Z" fill="#FFBD86"/>
<path d="M19.1297 9.33348C18.8349 9.33348 18.5595 9.17438 18.411 8.91824L18.3772 8.85996L18.3434 8.91821C18.1948 9.17434 17.9194 9.33344 17.6246 9.33344C17.3299 9.33344 17.0544 9.17434 16.9059 8.91821L16.8721 8.85992L16.8383 8.91821C16.6898 9.17434 16.4143 9.33344 16.1196 9.33344C15.8248 9.33344 15.5493 9.17434 15.4008 8.91821L15.367 8.85992L15.3332 8.91821C15.1847 9.17434 14.9093 9.33344 14.6145 9.33344C14.3197 9.33344 14.0443 9.17434 13.8957 8.91821L13.862 8.85992L13.828 8.91824C13.6794 9.17438 13.404 9.33348 13.1092 9.33348C12.8145 9.33348 12.539 9.17438 12.3905 8.91824L12.3567 8.85996L12.3229 8.91824C12.2134 9.10715 12.038 9.2436 11.8292 9.30242L11.7217 9.3327L11.8246 9.37602C12.618 9.70969 13.3267 10.2206 13.8743 10.8536L13.886 10.8672H18.4356L19.1789 9.33098C19.1625 9.33192 19.1463 9.33348 19.1297 9.33348Z" fill="#7CA1B1"/>
<path d="M19.1296 7.6322C18.8079 7.6322 18.5276 7.80728 18.377 8.06689C18.2264 7.80728 17.9462 7.6322 17.6245 7.6322C17.3027 7.6322 17.0225 7.80728 16.8719 8.06689C16.7213 7.80728 16.4411 7.6322 16.1193 7.6322C15.7975 7.6322 15.5173 7.80728 15.3667 8.06689C15.2162 7.80728 14.9359 7.6322 14.6141 7.6322C14.2924 7.6322 14.0121 7.80728 13.8616 8.06689C13.711 7.80728 13.4307 7.6322 13.109 7.6322C12.7872 7.6322 12.507 7.80728 12.3564 8.06689C12.2058 7.80728 11.9256 7.6322 11.6038 7.6322C11.2821 7.6322 11.0018 7.80728 10.8513 8.06689C10.7007 7.80728 10.4204 7.6322 10.0987 7.6322C9.61809 7.6322 9.22852 8.02177 9.22852 8.50236C9.22852 8.65353 9.26711 8.79568 9.33492 8.91955C9.39754 8.91759 9.46035 8.91662 9.52332 8.91662C10.3229 8.91662 11.0836 9.07376 11.7717 9.35603C12.0214 9.30701 12.2327 9.15103 12.3563 8.93783C12.5069 9.19744 12.7871 9.37251 13.1089 9.37251C13.4307 9.37251 13.7109 9.19744 13.8615 8.93783C14.012 9.19744 14.2923 9.37251 14.6141 9.37251C14.9358 9.37251 15.2161 9.19744 15.3666 8.93783C15.5172 9.19744 15.7975 9.37251 16.1192 9.37251C16.441 9.37251 16.7212 9.19744 16.8718 8.93783C17.0223 9.19744 17.3026 9.37251 17.6244 9.37251C17.9461 9.37251 18.2264 9.19744 18.377 8.93783C18.5275 9.19744 18.8078 9.37251 19.1295 9.37251C19.6101 9.37251 19.9997 8.98294 19.9997 8.50236C19.9998 8.02177 19.6102 7.6322 19.1296 7.6322Z" fill="#FED2A4"/>
<path d="M14.6621 12.0782L14.6862 12.133C14.8725 12.5564 14.9959 12.9967 15.0553 13.448H16.9464C17.291 13.448 17.5702 13.1687 17.5702 12.8242V12.0782H14.6621Z" fill="#E8B800"/>
<path d="M19.7917 10.8281H13.8486C14.1886 11.2154 14.4691 11.6492 14.6776 12.1172H19.7917C19.8468 12.1172 19.8997 12.0953 19.9387 12.0563C19.9777 12.0173 19.9996 11.9645 19.9996 11.9093V11.036C19.9996 10.9808 19.9777 10.928 19.9387 10.889C19.8997 10.85 19.8468 10.8281 19.7917 10.8281Z" fill="#FEDF30"/>
<path d="M3.3652 10.6394H2.00527C1.97617 10.2889 1.68293 10.0133 1.32488 10.0133C0.947539 10.0133 0.641602 10.3192 0.641602 10.6966C0.641602 10.8598 0.698984 11.0094 0.794414 11.1269C1.07633 11.177 1.30055 11.4136 1.32492 11.7069L1.32789 11.7428H2.72371V11.6794C2.72371 11.6321 2.76215 11.5937 2.80941 11.5937H3.36512V10.6394H3.3652Z" fill="#FFBD86"/>
<path d="M4.64125 11.5936C4.88172 11.1898 5.17879 10.819 5.52254 10.4902H3.45094C3.41785 10.4902 3.38611 10.5034 3.36271 10.5268C3.33932 10.5502 3.32617 10.5819 3.32617 10.615V11.5936H4.64125Z" fill="#FE7701"/>
<path d="M18.8452 15.969C18.8562 15.9583 18.8678 15.9483 18.8787 15.9374C19.3933 15.4228 19.6032 14.7192 19.5091 14.05C19.5055 14.0244 19.4937 14.0006 19.4754 13.9823C19.4571 13.964 19.4334 13.9522 19.4077 13.9487C18.7386 13.8546 18.035 14.0644 17.5204 14.579C17.1325 14.9669 16.918 15.4621 16.876 15.969H18.8452Z" fill="#46CC8D"/>
<path d="M17.9029 15.969L18.6623 15.2095C18.7169 15.1545 18.7474 15.0801 18.7472 15.0026C18.7471 14.9252 18.7162 14.8509 18.6614 14.7961C18.6066 14.7413 18.5324 14.7105 18.4549 14.7103C18.3774 14.7102 18.303 14.7407 18.248 14.7952L17.0742 15.969H17.9029Z" fill="#09A755"/>
<path d="M17.4959 15.969C17.5451 15.8508 17.5704 15.7241 17.5702 15.5961C17.5702 15.0598 17.1355 14.6251 16.5993 14.6251C16.063 14.6251 15.6283 15.0598 15.6283 15.5961C15.6283 15.7282 15.6548 15.8542 15.7026 15.969H17.4959ZM3.39793 15.969C3.44711 15.8508 3.47236 15.7241 3.47223 15.5961C3.47223 15.0598 3.0375 14.6251 2.50125 14.6251C1.965 14.6251 1.53027 15.0598 1.53027 15.5961C1.53027 15.7282 1.55676 15.8542 1.60457 15.969H3.39793Z" fill="#FD4755"/>
<path d="M9.5234 8.87756C7.39559 8.87756 5.54441 9.97553 4.59277 11.5937H7.92586C8.80969 11.5937 9.52875 12.3127 9.52875 13.1965C9.52875 14.0811 8.81078 14.8007 7.92828 14.8007C7.75352 14.8007 7.5793 14.7717 7.41047 14.7143L3.94164 13.5364C3.92133 13.7172 3.91115 13.899 3.91113 14.081C3.91113 14.7471 4.0468 15.3836 4.29289 15.969H14.7539C15 15.3836 15.1357 14.7471 15.1357 14.081C15.1357 11.2072 12.623 8.87756 9.5234 8.87756Z" fill="#FE9738"/>
<path d="M6.7207 11.5546C7.51574 10.2302 8.91641 9.26116 10.5757 8.96928C10.2283 8.9082 9.87617 8.87751 9.5234 8.87756C7.41281 8.87756 5.57465 9.95795 4.61633 11.5546H6.7207ZM3.9375 13.5762C3.92 13.7439 3.9112 13.9124 3.91113 14.081C3.91113 14.7471 4.0468 15.3836 4.29289 15.969H6.39746C6.17645 15.4432 6.04488 14.8761 6.02027 14.2835L3.9375 13.5762Z" fill="#FE860A"/>
<path d="M14.4057 15.969C14.4549 15.8508 14.4802 15.7241 14.48 15.5961C14.48 15.0598 14.0453 14.6251 13.5091 14.6251C12.9728 14.6251 12.5381 15.0598 12.5381 15.5961C12.5381 15.7282 12.5646 15.8542 12.6124 15.969H14.4057Z" fill="#FD4755"/>
<path d="M16.0602 15.969C16.1094 15.8508 16.1346 15.7241 16.1345 15.5961C16.1345 15.0598 15.6998 14.6251 15.1635 14.6251C14.6273 14.6251 14.1925 15.0598 14.1925 15.5961C14.1925 15.7282 14.219 15.8542 14.2668 15.969H16.0602ZM4.81199 15.969C4.86117 15.8508 4.88642 15.7241 4.88629 15.5961C4.88629 15.0598 4.45156 14.6251 3.91531 14.6251C3.37906 14.6251 2.94434 15.0598 2.94434 15.5961C2.94434 15.7282 2.97082 15.8542 3.01863 15.969H4.81199Z" fill="#E41F2D"/>
<path d="M2.72356 11.7037H1.36367C1.33457 11.3531 1.04133 11.0776 0.683282 11.0776C0.305899 11.0776 2.91732e-07 11.3835 2.91732e-07 11.7609C-9.2813e-05 11.8615 0.0221006 11.9609 0.0649872 12.052C0.107874 12.1431 0.17039 12.2235 0.248047 12.2875C0.0965628 12.4129 2.91732e-07 12.6023 2.91732e-07 12.8143C2.91732e-07 13.1916 0.305899 13.4975 0.683282 13.4975C1.04133 13.4975 1.33453 13.222 1.36367 12.8714H2.72356V11.7037Z" fill="#FED2A4"/>
<path d="M7.3984 14.7513L2.76922 13.1794C2.74454 13.171 2.7231 13.1551 2.70791 13.1339C2.69273 13.1127 2.68457 13.0873 2.68457 13.0612V11.6793C2.68457 11.6462 2.69772 11.6145 2.72111 11.5911C2.74451 11.5677 2.77625 11.5546 2.80934 11.5546H7.92633C8.83316 11.5546 9.56828 12.2897 9.56828 13.1965C9.56828 14.3212 8.46328 15.1129 7.3984 14.7513Z" fill="#FE7701"/>
<path d="M8.67523 14.0821L4.04605 12.5102C4.02137 12.5019 3.99993 12.486 3.98475 12.4648C3.96957 12.4436 3.9614 12.4182 3.96141 12.3921V11.5546H2.80934C2.77625 11.5546 2.74451 11.5677 2.72111 11.5911C2.69772 11.6145 2.68457 11.6462 2.68457 11.6793V13.0612C2.68457 13.1146 2.71859 13.1621 2.76922 13.1793L7.3984 14.7512C8.11262 14.9938 8.84434 14.7171 9.24914 14.1695C9.05417 14.1747 8.85983 14.1451 8.67523 14.0821Z" fill="#F46700"/>
<path d="M18.8864 17.4459H1.78262C1.75192 17.4459 1.7216 17.4391 1.69384 17.426C1.66609 17.4129 1.64157 17.3938 1.62207 17.3701L0.71672 16.2699C0.60508 16.1343 0.701564 15.9299 0.877267 15.9299H19.7919C19.9676 15.9299 20.0641 16.1343 19.9524 16.2699L19.047 17.3701C19.0275 17.3938 19.003 17.4129 18.9752 17.426C18.9475 17.4391 18.9172 17.4459 18.8864 17.4459Z" fill="#FAC600"/>
<path d="M4.15254 17.3701L3.24719 16.2699C3.13555 16.1343 3.23203 15.9299 3.40774 15.9299H0.877267C0.701564 15.9299 0.60508 16.1343 0.71672 16.2699L1.62207 17.3701C1.64157 17.3938 1.66609 17.4129 1.69384 17.426C1.7216 17.4391 1.75192 17.4459 1.78262 17.4459H4.31305C4.28236 17.4459 4.25205 17.4391 4.2243 17.426C4.19654 17.4129 4.17204 17.3938 4.15254 17.3701Z" fill="#E8B800"/>
<path d="M8.98988 2.55408H7.22488C7.14718 2.55408 7.07266 2.58494 7.01772 2.63989C6.96278 2.69483 6.93191 2.76935 6.93191 2.84705C6.93191 2.92475 6.96278 2.99926 7.01772 3.05421C7.07266 3.10915 7.14718 3.14001 7.22488 3.14001H8.98988C9.24859 3.14001 9.45906 3.35048 9.45906 3.60919C9.45906 3.86791 9.24859 4.07837 8.98988 4.07837H6.78363C6.20184 4.07837 5.72852 4.55169 5.72852 5.13349C5.72852 5.71529 6.20184 6.18861 6.78363 6.18861H7.77859C8.04164 6.18861 8.25563 6.40263 8.25563 6.66568V7.35166C8.25563 7.42936 8.28649 7.50387 8.34143 7.55882C8.39638 7.61376 8.47089 7.64462 8.54859 7.64462C8.62629 7.64462 8.70081 7.61376 8.75575 7.55882C8.8107 7.50387 8.84156 7.42936 8.84156 7.35166V6.66568C8.84156 6.07955 8.36469 5.60267 7.77859 5.60267H6.78363C6.52492 5.60267 6.31445 5.3922 6.31445 5.13349C6.31445 4.87478 6.52492 4.66431 6.78363 4.66431H8.98988C9.57168 4.66431 10.045 4.19099 10.045 3.60919C10.045 3.0274 9.57168 2.55408 8.98988 2.55408Z" fill="#FFE5C2"/>
<path d="M4.90918 9.6591C4.83148 9.6591 4.75696 9.62823 4.70202 9.57329C4.64708 9.51835 4.61621 9.44383 4.61621 9.36613V8.68543C4.61621 8.42562 4.40484 8.21426 4.14504 8.21426H3.1577C2.5791 8.21426 2.1084 7.74355 2.1084 7.16496C2.1084 6.58636 2.5791 6.11566 3.1577 6.11566H4.31207C4.38977 6.11566 4.46429 6.14653 4.51923 6.20147C4.57417 6.25641 4.60504 6.33093 4.60504 6.40863C4.60504 6.48633 4.57417 6.56085 4.51923 6.61579C4.46429 6.67073 4.38977 6.7016 4.31207 6.7016H3.1577C2.90219 6.7016 2.69434 6.90945 2.69434 7.16496C2.69434 7.42047 2.90219 7.62832 3.1577 7.62832H4.14504C4.72793 7.62832 5.20215 8.10254 5.20215 8.68543V9.36613C5.20215 9.44383 5.17128 9.51835 5.11634 9.57329C5.0614 9.62823 4.98688 9.6591 4.90918 9.6591Z" fill="#FED2A4"/>
<path d="M11.71 12.3912C11.8718 12.3912 12.0029 12.26 12.0029 12.0982C12.0029 11.9364 11.8718 11.8052 11.71 11.8052C11.5482 11.8052 11.417 11.9364 11.417 12.0982C11.417 12.26 11.5482 12.3912 11.71 12.3912Z" fill="#FE7701"/>
<path d="M13.1992 13.0753C13.361 13.0753 13.4922 12.9442 13.4922 12.7823C13.4922 12.6205 13.361 12.4894 13.1992 12.4894C13.0374 12.4894 12.9062 12.6205 12.9062 12.7823C12.9062 12.9442 13.0374 13.0753 13.1992 13.0753Z" fill="#FE7701"/>
<path d="M14.085 14.1216C14.2468 14.1216 14.3779 13.9904 14.3779 13.8286C14.3779 13.6668 14.2468 13.5356 14.085 13.5356C13.9232 13.5356 13.792 13.6668 13.792 13.8286C13.792 13.9904 13.9232 14.1216 14.085 14.1216Z" fill="#FE7701"/>
<path d="M12.8369 11.6669C12.9987 11.6669 13.1299 11.5357 13.1299 11.3739C13.1299 11.2121 12.9987 11.0809 12.8369 11.0809C12.6751 11.0809 12.5439 11.2121 12.5439 11.3739C12.5439 11.5357 12.6751 11.6669 12.8369 11.6669Z" fill="#FE7701"/>
<path d="M11.8311 14.3228C11.9929 14.3228 12.124 14.1916 12.124 14.0298C12.124 13.868 11.9929 13.7368 11.8311 13.7368C11.6693 13.7368 11.5381 13.868 11.5381 14.0298C11.5381 14.1916 11.6693 14.3228 11.8311 14.3228Z" fill="#FE7701"/>
</g>
<defs>
<clipPath id="clip0_25940_2718">
<rect width="20" height="20" fill="white"/>
</clipPath>
</defs>
</svg>
