<svg width="20" height="18" viewBox="0 0 20 18" fill="none" xmlns="http://www.w3.org/2000/svg">
<path d="M4.07422 11.4244L4.13941 11.479L4.1384 11.394L4.13813 11.3878C4.13801 10.8952 4.5366 10.4966 5.02656 10.4966C5.11641 10.4966 5.20512 10.51 5.29027 10.5364L5.3693 10.561L5.33797 10.4844C5.29419 10.3778 5.2717 10.2636 5.27176 10.1484C5.27176 9.87441 5.39648 9.62906 5.59203 9.46593C5.32594 9.24167 4.9825 9.10632 4.6073 9.10632C3.76277 9.10632 3.07812 9.79097 3.07812 10.6355C3.07812 10.7893 3.10105 10.9376 3.14328 11.0775C3.48413 11.0833 3.8127 11.2058 4.07422 11.4244Z" fill="#FD4755"/>
<path d="M4.07254 11.373C3.94784 11.1472 3.8826 10.8934 3.88297 10.6355C3.88297 9.93031 4.36051 9.33691 5.00973 9.16023C4.87858 9.12446 4.74324 9.10633 4.6073 9.10632C3.76277 9.10632 3.07812 9.79097 3.07812 10.6355C3.07812 10.775 3.09715 10.9099 3.13211 11.0382C3.48789 11.0413 3.81426 11.1663 4.07254 11.373Z" fill="#FB2B3A"/>
<path d="M3.51899 13.3789C3.41882 13.2317 3.36534 13.0578 3.36555 12.8797C3.36555 12.3898 3.76418 11.9911 4.25414 11.9911C4.26207 11.9911 4.26984 11.9917 4.27766 11.9922L4.29387 11.9932L4.3784 11.997L4.32641 11.9302C4.21392 11.7866 4.14892 11.6115 4.14043 11.4293C3.86965 11.1861 3.51168 11.0379 3.11902 11.0379C2.27449 11.0379 1.58984 11.7226 1.58984 12.5671C1.58948 12.8543 1.67044 13.1358 1.82336 13.3789H3.51899Z" fill="#FDB441"/>
<path d="M2.56172 13.3399C2.48774 13.1578 2.44972 12.9631 2.44977 12.7665C2.44977 11.9552 3.08156 11.2919 3.87992 11.2409C3.64849 11.1076 3.38607 11.0376 3.11902 11.0379C2.27449 11.0379 1.58984 11.7226 1.58984 12.5671C1.58954 12.8388 1.66198 13.1056 1.79965 13.3399H2.56172V13.3399Z" fill="#FE9901"/>
<path d="M13.1631 9.08417C13.2075 9.18927 13.2311 9.30202 13.2324 9.41612L13.2334 9.49464L13.2954 9.44651C13.4529 9.32436 13.6409 9.25979 13.8389 9.25979C14.3289 9.25979 14.7275 9.65839 14.7275 10.1483C14.7275 10.2475 14.7101 10.3445 14.6777 10.438C14.7111 10.3978 14.7514 10.3638 14.7966 10.3375C14.8658 10.2976 14.9448 10.2773 15.0317 10.2773C15.1569 10.2773 15.2973 10.3201 15.4377 10.401L15.4889 10.4305L15.496 10.3719C15.5665 9.79362 15.8693 9.37393 16.216 9.37393C16.4657 9.37393 16.6966 9.58897 16.8337 9.94921L16.8578 10.0126L16.9005 9.95991C16.9355 9.9167 16.9727 9.87533 17.0119 9.83596C17.1922 9.65565 17.4055 9.52647 17.6259 9.45909C17.6256 9.4168 17.62 9.37472 17.6091 9.33385C17.5502 9.11382 17.3448 8.956 17.0625 8.87967C17.4425 8.39307 17.5383 7.8371 17.2626 7.56135C17.0596 7.35835 16.7046 7.35702 16.3374 7.5219C16.3436 7.46288 16.3471 7.40276 16.3471 7.34155C16.3471 6.60557 15.8824 6.00897 15.3092 6.00897C14.736 6.00897 14.2713 6.60557 14.2713 7.34155C14.2713 7.40186 14.2748 7.46108 14.2808 7.51928C13.9136 7.35452 13.5588 7.35592 13.3559 7.55885C13.0797 7.83499 13.1762 8.39214 13.5575 8.87925C13.3969 8.92245 13.2613 8.99194 13.1631 9.08417Z" fill="#68CA44"/>
<path d="M15.4577 10.3672C15.4815 10.1715 15.5321 9.99198 15.6025 9.83936V7.70038C15.6025 7.53858 15.4714 7.40741 15.3096 7.40741C15.1477 7.40741 15.0166 7.53858 15.0166 7.70038V10.2387C15.1554 10.235 15.3071 10.2804 15.4577 10.3672Z" fill="#80D261"/>
<path d="M14.6612 10.4844L14.6299 10.561L14.7089 10.5365C14.7943 10.51 14.8833 10.4966 14.9727 10.4967C15.4626 10.4967 15.8612 10.8953 15.8612 11.3852C15.8612 11.584 15.7963 11.7725 15.6734 11.9302L15.6214 11.997L15.7059 11.9932L15.7221 11.9923C15.7299 11.9917 15.7377 11.9912 15.7457 11.9912C16.2356 11.9912 16.6343 12.3898 16.6343 12.8798C16.6343 13.0641 16.5779 13.2361 16.4808 13.3789H17.9189C18 13.1964 17.963 12.9693 17.834 12.7446C18.4217 12.6723 18.8637 12.3602 18.8637 11.9862C18.8637 11.7108 18.6239 11.4692 18.263 11.332C18.308 11.2957 18.351 11.257 18.3919 11.2162C18.8911 10.7171 18.9805 9.99734 18.5918 9.60859C18.203 9.21984 17.4833 9.30934 16.9841 9.80848C16.9439 9.84879 16.9059 9.89117 16.87 9.93543C16.7328 9.57465 16.4912 9.33496 16.2159 9.33496C15.8413 9.33496 15.5289 9.77824 15.4572 10.3672C15.2135 10.2268 14.9666 10.1943 14.7771 10.3037C14.7497 10.3196 14.7245 10.3382 14.7011 10.3588C14.6909 10.4016 14.6776 10.4436 14.6612 10.4844Z" fill="#017B4E"/>
<path d="M17.6437 10.557C17.6176 10.5309 17.5866 10.5102 17.5525 10.4961C17.5184 10.4819 17.4819 10.4747 17.445 10.4747C17.4081 10.4747 17.3716 10.4819 17.3375 10.4961C17.3034 10.5102 17.2724 10.5309 17.2463 10.557L15.8457 11.9576C16.0494 11.9794 16.2401 12.0683 16.3877 12.2103L17.6437 10.9544C17.6964 10.9017 17.726 10.8302 17.726 10.7557C17.726 10.6811 17.6964 10.6097 17.6437 10.557Z" fill="#026841"/>
<path d="M15.3551 1.56545C15.4447 1.71416 15.4704 1.85244 15.4269 1.96877C15.3513 2.17065 15.0724 2.28639 14.6616 2.28639C14.3267 2.28639 13.93 2.20697 13.5445 2.06276C13.1068 1.89904 12.7242 1.66979 12.4672 1.41733C12.2179 1.17252 12.118 0.937795 12.186 0.75635C12.2417 0.607443 12.4083 0.505607 12.6567 0.462287C11.1679 0.159865 9.92521 0.401974 9.65204 1.13221C9.30857 2.05029 10.6277 3.39229 12.5985 4.12955C14.5692 4.86682 16.4453 4.72026 16.7888 3.80213C17.0336 3.14772 16.4336 2.27807 15.3551 1.56545Z" fill="#FFF3DE"/>
<path d="M11.0584 1.35601C11.206 0.961638 11.6368 0.710154 12.236 0.609529C12.3109 0.533826 12.4215 0.478474 12.5584 0.443631C11.1136 0.171404 9.91915 0.418084 9.65204 1.13215C9.30857 2.05023 10.6277 3.39222 12.5985 4.12949C13.3605 4.41457 14.1079 4.56691 14.7585 4.59422C14.5035 4.52628 14.252 4.4459 14.0049 4.35336C12.0342 3.61609 10.715 2.27414 11.0584 1.35601Z" fill="#FEF0AE"/>
<path d="M15.4591 1.97543C15.6111 1.56847 14.9924 0.961285 14.0771 0.619253C13.1619 0.277221 12.2966 0.329858 12.1445 0.736821C11.9924 1.14378 12.6111 1.75097 13.5264 2.093C14.4417 2.43503 15.307 2.38239 15.4591 1.97543Z" fill="#FDB441"/>
<path d="M14.451 2.3003C13.5358 1.95791 12.9174 1.35049 13.0696 0.943579C13.1646 0.689633 13.5373 0.573852 14.0265 0.605805C13.132 0.285883 12.2981 0.343891 12.149 0.742641C11.9968 1.14956 12.6153 1.75698 13.5304 2.09936C13.8745 2.22807 14.2115 2.30096 14.5062 2.32026C14.4878 2.31366 14.4694 2.30717 14.451 2.3003Z" fill="#FE9901"/>
<path d="M16.5267 13.3789C16.6227 13.2301 16.6737 13.0568 16.6737 12.8797C16.6737 12.3674 16.2584 11.9521 15.7461 11.9521C15.7321 11.9521 15.7184 11.9536 15.7046 11.9542C15.827 11.797 15.9007 11.5999 15.9007 11.3852C15.9007 10.8729 15.4854 10.4576 14.973 10.4576C14.8772 10.4576 14.7848 10.4722 14.6978 10.4992C14.7434 10.3879 14.7669 10.2687 14.7669 10.1484C14.7669 9.63613 14.3516 9.22082 13.8393 9.22082C13.6253 9.22082 13.4288 9.29402 13.2718 9.41574C13.2657 8.90867 12.8533 8.49933 12.3448 8.49933C12.0699 8.49933 11.8237 8.61957 11.6539 8.80945C11.5134 8.47586 11.1834 8.24164 10.7987 8.24164C10.4581 8.24164 10.1613 8.42574 9.99992 8.69933C9.83859 8.42574 9.54172 8.24164 9.20113 8.24164C8.81641 8.24164 8.48648 8.47586 8.34594 8.80945C8.17605 8.61953 7.92992 8.49933 7.65508 8.49933C7.14656 8.49933 6.7341 8.90867 6.72801 9.41574C6.57105 9.29402 6.37457 9.22082 6.16055 9.22082C5.64824 9.22082 5.23293 9.63613 5.23293 10.1484C5.23293 10.2727 5.25777 10.3909 5.30207 10.4992C5.21293 10.4716 5.12012 10.4575 5.0268 10.4576C4.51449 10.4576 4.09918 10.8729 4.09918 11.3852C4.09918 11.5999 4.17281 11.797 4.29523 11.9542C4.28141 11.9536 4.26777 11.9521 4.25379 11.9521C3.74148 11.9521 3.32617 12.3674 3.32617 12.8797C3.32617 13.0639 3.38055 13.2348 3.47316 13.3789H16.5267Z" fill="#EA9B58"/>
<path d="M13.8393 9.22076C13.6253 9.22076 13.4288 9.29396 13.2718 9.41568C13.2657 8.90861 12.8533 8.49927 12.3448 8.49927C12.0699 8.49927 11.8238 8.61951 11.6539 8.80939C11.5134 8.4758 11.1834 8.24158 10.7987 8.24158C10.4581 8.24158 10.1612 8.42568 9.99992 8.69927C9.83859 8.42572 9.54172 8.24158 9.20113 8.24158C8.81641 8.24158 8.48648 8.4758 8.34594 8.80939C8.17605 8.61947 7.92992 8.49927 7.65508 8.49927C7.14656 8.49927 6.7341 8.90861 6.72801 9.41568C6.57105 9.29396 6.37457 9.22076 6.16055 9.22076C5.64824 9.22076 5.23293 9.63607 5.23293 10.1484C5.23293 10.2726 5.25777 10.3909 5.30207 10.4991C5.21293 10.4715 5.12012 10.4575 5.0268 10.4576C4.51449 10.4576 4.09918 10.8729 4.09918 11.3852C4.09918 11.5999 4.17281 11.797 4.29523 11.9542C4.28141 11.9535 4.26777 11.952 4.25379 11.952C3.74148 11.952 3.32617 12.3674 3.32617 12.8797C3.32617 13.0474 3.37113 13.2042 3.44898 13.3398H4.74168C4.89488 12.4852 5.37145 11.706 6.07727 11.0709C6.06965 11.0446 6.06575 11.0174 6.0657 10.99C6.0657 10.4868 6.47512 10.0774 6.97836 10.0774C7.12871 10.0774 7.27312 10.1138 7.40172 10.1812C8.37953 9.69548 9.55727 9.41189 10.8248 9.41189C12.3034 9.41189 13.6598 9.79771 14.7193 10.4402C14.7507 10.3461 14.7668 10.2475 14.7669 10.1483C14.7669 9.63607 14.3516 9.22076 13.8393 9.22076Z" fill="#D88A55"/>
<path d="M6.3584 11.2831C6.2807 11.2831 6.20618 11.2522 6.15124 11.1973C6.0963 11.1423 6.06543 11.0678 6.06543 10.9901C6.06543 10.4869 6.47484 10.0774 6.97809 10.0774C7.26086 10.0774 7.52305 10.2053 7.69738 10.4283C7.74525 10.4895 7.76683 10.5672 7.7574 10.6444C7.74796 10.7215 7.70828 10.7917 7.64707 10.8396C7.61676 10.8633 7.58208 10.8807 7.54501 10.891C7.50794 10.9013 7.46921 10.9042 7.43102 10.8996C7.39283 10.8949 7.35594 10.8827 7.32244 10.8638C7.28895 10.8449 7.25952 10.8195 7.23582 10.7892C7.20533 10.7499 7.16625 10.7182 7.12157 10.6964C7.07689 10.6745 7.0278 10.6633 6.97809 10.6634C6.79793 10.6634 6.65137 10.8099 6.65137 10.9901C6.65137 11.0678 6.6205 11.1423 6.56556 11.1973C6.51062 11.2522 6.4361 11.2831 6.3584 11.2831ZM10.4698 10.8064C10.3921 10.8064 10.3176 10.7755 10.2626 10.7205C10.2077 10.6656 10.1768 10.5911 10.1768 10.5134C10.1768 10.3332 10.0302 10.1867 9.85008 10.1867C9.80037 10.1865 9.7513 10.1978 9.70663 10.2196C9.66196 10.2414 9.62289 10.2732 9.59242 10.3125C9.56873 10.3428 9.53929 10.3681 9.5058 10.3871C9.47231 10.406 9.43542 10.4182 9.39723 10.4229C9.35905 10.4275 9.32031 10.4246 9.28324 10.4144C9.24617 10.4041 9.21148 10.3866 9.18117 10.3629C9.15086 10.3392 9.12551 10.3098 9.10658 10.2763C9.08764 10.2428 9.07548 10.2059 9.0708 10.1677C9.06612 10.1295 9.06901 10.0908 9.0793 10.0537C9.08959 10.0166 9.10709 9.98194 9.13078 9.95163C9.30512 9.72866 9.56731 9.60077 9.85008 9.60077C10.3534 9.60077 10.7628 10.0102 10.7628 10.5134C10.7628 10.5911 10.7319 10.6656 10.677 10.7206C10.622 10.7755 10.5475 10.8064 10.4698 10.8064ZM12.4692 11.5724C12.4229 11.5724 12.3773 11.5614 12.3361 11.5405C12.2949 11.5195 12.2592 11.489 12.232 11.4516C12.2049 11.4141 12.1869 11.3708 12.1797 11.3251C12.1725 11.2794 12.1762 11.2327 12.1905 11.1887C12.278 10.9196 12.4806 10.7097 12.7463 10.6129C12.9754 10.5294 13.2232 10.5403 13.4442 10.6433C13.6652 10.7463 13.8328 10.9292 13.9162 11.1583C13.9428 11.2313 13.9393 11.3119 13.9064 11.3823C13.8736 11.4527 13.8141 11.5072 13.7411 11.5338C13.705 11.547 13.6666 11.5529 13.6281 11.5512C13.5897 11.5495 13.552 11.5403 13.5171 11.5241C13.4822 11.5078 13.4509 11.4848 13.4249 11.4564C13.3989 11.4281 13.3788 11.3949 13.3656 11.3587C13.3511 11.3183 13.3286 11.2812 13.2996 11.2496C13.2706 11.218 13.2356 11.1924 13.1967 11.1744C13.1578 11.1561 13.1157 11.1457 13.0728 11.1439C13.03 11.142 12.9871 11.1487 12.9468 11.1635C12.9001 11.1804 12.8578 11.2078 12.8233 11.2435C12.7888 11.2793 12.763 11.3225 12.7478 11.3699C12.7286 11.4287 12.6914 11.48 12.6413 11.5163C12.5913 11.5527 12.531 11.5723 12.4692 11.5724ZM8.26934 12.5242C8.22308 12.5242 8.17748 12.5132 8.13626 12.4922C8.09504 12.4713 8.05938 12.4408 8.0322 12.4034C8.00501 12.3659 7.98708 12.3226 7.97986 12.2769C7.97264 12.2312 7.97634 12.1845 7.99066 12.1405C8.0782 11.8713 8.28082 11.6615 8.54648 11.5647C8.65905 11.5234 8.77868 11.5048 8.89847 11.51C9.01826 11.5152 9.13583 11.5442 9.24437 11.5951C9.3532 11.6455 9.45095 11.7169 9.53196 11.8053C9.61298 11.8937 9.67566 11.9973 9.71637 12.1101C9.74257 12.183 9.73882 12.2634 9.70593 12.3335C9.67304 12.4037 9.61369 12.458 9.54088 12.4845C9.46806 12.511 9.38771 12.5076 9.31741 12.475C9.24711 12.4424 9.19259 12.3832 9.16578 12.3105C9.15121 12.2702 9.12877 12.2331 9.09977 12.2014C9.07078 12.1698 9.03579 12.1442 8.99684 12.1262C8.95798 12.108 8.91589 12.0976 8.87301 12.0957C8.83012 12.0939 8.78729 12.1005 8.74699 12.1153C8.70024 12.1322 8.65799 12.1596 8.62348 12.1954C8.58897 12.2312 8.56313 12.2744 8.54793 12.3217C8.52878 12.3805 8.49152 12.4318 8.44148 12.4681C8.39145 12.5045 8.33119 12.5241 8.26934 12.5242Z" fill="#C57A44"/>
<path d="M2.22363 14.6282C3.03707 15.936 4.35574 17.0092 5.97664 17.6861C6.10028 17.7379 6.23296 17.7645 6.36699 17.7646H13.6329C13.7669 17.7646 13.8996 17.7378 14.0232 17.6861C15.6441 17.0092 16.9628 15.936 17.7762 14.6282H2.22363Z" fill="#D8ECFE"/>
<path d="M4.64598 14.6282H2.22363C3.03703 15.936 4.3557 17.0092 5.97664 17.6861C6.10028 17.7379 6.23296 17.7645 6.36699 17.7646H8.78934C8.65531 17.7645 8.52263 17.7379 8.39898 17.6861C6.77805 17.0091 5.45938 15.936 4.64598 14.6282Z" fill="#C4E2FF"/>
<path d="M19.3964 14.6673H0.603633C0.270234 14.6673 0 14.397 0 14.0637V13.9435C0 13.6101 0.270234 13.3398 0.603633 13.3398H19.3964C19.7298 13.3398 20 13.6101 20 13.9435V14.0637C20 14.397 19.7298 14.6673 19.3964 14.6673Z" fill="#EAF6FF"/>
<path d="M1.71027 14.0637V13.9435C1.71027 13.6101 1.98051 13.3398 2.31391 13.3398H0.603633C0.270234 13.3398 0 13.6101 0 13.9435V14.0637C0 14.397 0.270234 14.6673 0.603633 14.6673H2.31391C1.98051 14.6673 1.71027 14.397 1.71027 14.0637Z" fill="#D8ECFE"/>
<path d="M4.11639 6.86123C4.52948 7.27432 5.16737 7.32557 5.63627 7.01498C5.74245 6.94467 5.7576 6.79455 5.66756 6.70451L4.27311 5.31006C4.18307 5.22002 4.03299 5.23518 3.96264 5.34135C3.65206 5.81026 3.70331 6.44815 4.11639 6.86123Z" fill="#FE9901"/>
<path d="M7.9791 4.08977C8.07726 4.06349 8.14234 3.96782 8.12633 3.86747C8.07863 3.56868 7.93976 3.28169 7.70945 3.05138C7.47914 2.82106 7.19215 2.68224 6.89336 2.6345C6.793 2.61849 6.69734 2.68356 6.67105 2.78173L6.28246 4.23192C6.24238 4.38153 6.37925 4.51845 6.5289 4.47837L7.9791 4.08977Z" fill="#FB2B3A"/>
<path d="M3.87273 1.0111C3.84644 0.912933 3.75078 0.847855 3.65043 0.863871C3.35164 0.911566 3.06465 1.05043 2.83433 1.28075C2.60402 1.51106 2.46519 1.79805 2.41746 2.09684C2.40144 2.19719 2.46652 2.29286 2.56469 2.31914L4.01488 2.70774C4.16449 2.74782 4.30141 2.61094 4.26133 2.46129L3.87273 1.0111Z" fill="#68CA44"/>
</svg>
