<svg width="20" height="20" viewBox="0 0 20 20" fill="none" xmlns="http://www.w3.org/2000/svg">
<g clip-path="url(#clip0_25951_3782)">
<path d="M20 10C20.0029 12.4809 19.0824 14.874 17.4178 16.7135C15.7532 18.553 13.4636 19.7072 10.9947 19.9513C10.6671 19.9829 10.3368 20 10 20C8.02219 20 6.08879 19.4135 4.4443 18.3147C2.79981 17.2159 1.51809 15.6541 0.761209 13.8268C0.00433282 11.9996 -0.1937 9.98891 0.192152 8.0491C0.578004 6.10929 1.53041 4.32746 2.92894 2.92894C4.32746 1.53041 6.10929 0.578004 8.0491 0.192152C9.98891 -0.193701 11.9996 0.00433282 13.8268 0.761209C15.6541 1.51809 17.2159 2.79981 18.3147 4.4443C19.4135 6.08879 20 8.02219 20 10Z" fill="#FF5722"/>
<path d="M11.2149 14.7066C11.2149 15.0287 11.087 15.3376 10.8592 15.5653C10.6315 15.7931 10.3226 15.9211 10.0005 15.9211C9.67837 15.9211 9.36947 15.7931 9.14171 15.5653C8.91395 15.3376 8.786 15.0287 8.786 14.7066H11.2149ZM14.8584 13.4921V14.1H5.14258V13.4921L6.35705 12.2776V9.23948C6.35705 7.37369 7.34916 5.81842 9.08995 5.40395V4.98948C9.08995 4.74799 9.18588 4.51639 9.35663 4.34564C9.52739 4.17488 9.75899 4.07895 10.0005 4.07895C10.242 4.07895 10.4736 4.17488 10.6443 4.34564C10.8151 4.51639 10.911 4.74799 10.911 4.98948V5.40395C12.6518 5.81711 13.6439 7.37763 13.6439 9.23948V12.2776L14.8584 13.4921Z" fill="white"/>
</g>
<defs>
<clipPath id="clip0_25951_3782">
<rect width="20" height="20" fill="white"/>
</clipPath>
</defs>
</svg>
