<svg width="187" height="91" viewBox="0 0 187 91" fill="none" xmlns="http://www.w3.org/2000/svg">
<g clip-path="url(#clip0_25728_77)">
<path d="M23.1185 0.826965V8.12566H8.2335V17.2221H21.3927V24.305H8.2335V38.2193H0V0.826965H23.1185Z" fill="#212121"/>
<path d="M27.4689 7.55037C26.57 6.72343 26.1026 5.68076 26.1026 4.42236C26.1026 3.16397 26.57 2.08534 27.4689 1.2584C28.4037 0.43145 29.5542 0 30.9924 0C32.3946 0 33.5451 0.43145 34.444 1.2584C35.3428 2.08534 35.8102 3.16397 35.8102 4.42236C35.8102 5.6448 35.3428 6.68747 34.444 7.55037C33.5451 8.37732 32.3946 8.80877 30.9924 8.80877C29.5542 8.80877 28.4037 8.41327 27.4689 7.55037ZM35.0552 11.5772V38.1833H26.8936V11.5772H35.0552Z" fill="#212121"/>
<path d="M57.3109 31.6756V38.1833H52.4931C49.5448 38.1833 47.2797 37.4642 45.6258 36.026C43.9719 34.5879 43.145 32.2508 43.145 28.979V18.4804H38.4709V11.757H43.145V5.28522H51.2347V11.721H57.6345V18.4444H51.2347V29.4105C51.2347 30.2015 51.4144 30.7767 51.8099 31.1003C52.2054 31.4599 52.8166 31.6037 53.7155 31.6037H57.3109V31.6756Z" fill="#212121"/>
<path d="M22.1478 43.6124V50.6954H7.7661V59.1086H20.2422V65.9759H7.73015V79.8182H0V43.6124H22.1478Z" fill="#212121"/>
<path d="M30.0218 78.5958C27.9724 77.5172 26.3904 75.9352 25.2039 73.9217C24.0534 71.9083 23.4422 69.5353 23.4422 66.8388C23.4422 64.1782 24.0174 61.8052 25.2039 59.7558C26.3904 57.7064 28.0084 56.1604 30.0577 55.0818C32.1071 54.0031 34.4082 53.4638 36.9609 53.4638C39.5137 53.4638 41.8148 54.0031 43.8641 55.0818C45.9135 56.1604 47.5315 57.7424 48.718 59.7558C49.9044 61.8052 50.4797 64.1422 50.4797 66.8388C50.4797 69.4994 49.8685 71.8724 48.682 73.9217C47.4955 75.9711 45.8416 77.5172 43.7922 78.5958C41.7069 79.6744 39.4058 80.2137 36.8531 80.2137C34.3363 80.2497 32.0712 79.7104 30.0218 78.5958ZM41.3474 71.8364C42.5698 70.614 43.181 68.8882 43.181 66.659C43.181 64.3939 42.5698 62.6681 41.3833 61.4816C40.1968 60.2592 38.7227 59.6839 36.9969 59.6839C35.2351 59.6839 33.761 60.2951 32.5745 61.4816C31.388 62.6681 30.8128 64.3939 30.8128 66.695C30.8128 68.9601 31.388 70.6859 32.5386 71.8724C33.6891 73.0948 35.1273 73.6701 36.889 73.6701C38.6148 73.6701 40.1249 73.0588 41.3474 71.8364Z" fill="#212121"/>
<path d="M65.6883 54.7941C67.0905 53.9672 68.6725 53.5357 70.3983 53.5357V61.3018H68.2051C66.1917 61.3018 64.7176 61.7333 63.7108 62.5962C62.7041 63.4591 62.2008 64.9692 62.2008 67.1264V79.998H54.183V53.7874H62.2008V58.1379C63.0996 56.7716 64.2861 55.6211 65.6883 54.7941Z" fill="#212121"/>
<path d="M87.5484 54.1829C88.8787 54.902 89.9214 55.8368 90.6405 57.0233V53.4639H98.3347V78.5599C98.3347 80.8609 97.8673 82.9822 96.9684 84.8518C96.0336 86.7215 94.6673 88.2315 92.7618 89.3461C90.8921 90.4607 88.5551 91 85.7507 91C82.0115 91 78.9913 90.1371 76.6902 88.3754C74.3892 86.6136 73.0589 84.2406 72.7353 81.2205H80.3576C80.6093 82.1912 81.1845 82.9463 82.0834 83.4856C82.9822 84.0249 84.0968 84.3125 85.4271 84.3125C87.0091 84.3125 88.3034 83.8451 89.2382 82.9463C90.1731 82.0115 90.6405 80.5733 90.6405 78.5599V75.0004C89.8854 76.1869 88.8428 77.1217 87.5124 77.8767C86.1821 78.5958 84.6361 78.9913 82.8744 78.9913C80.789 78.9913 78.9194 78.452 77.2296 77.3734C75.5397 76.2948 74.2094 74.7847 73.2386 72.8072C72.2679 70.8297 71.7645 68.5646 71.7645 65.9759C71.7645 63.3872 72.2679 61.1221 73.2386 59.1806C74.2094 57.239 75.5397 55.729 77.2296 54.6863C78.9194 53.6436 80.789 53.1043 82.8744 53.1043C84.6721 53.1043 86.2181 53.4639 87.5484 54.1829ZM89.0225 61.4816C87.9439 60.3671 86.6496 59.8277 85.1395 59.8277C83.5934 59.8277 82.2991 60.3671 81.2564 61.4816C80.1778 62.5962 79.6385 64.1063 79.6385 66.0119C79.6385 67.9534 80.1778 69.4635 81.2564 70.578C82.335 71.6926 83.6294 72.2679 85.1395 72.2679C86.6855 72.2679 87.9799 71.7286 89.0225 70.614C90.1012 69.4994 90.6405 67.9893 90.6405 66.0478C90.6405 64.1063 90.1012 62.5962 89.0225 61.4816Z" fill="#212121"/>
<path d="M127.026 68.8523H108.869C108.977 70.4702 109.516 71.7286 110.451 72.5915C111.386 73.4544 112.501 73.8859 113.867 73.8859C115.88 73.8859 117.247 73.023 118.038 71.3331H126.559C126.127 73.0589 125.336 74.6049 124.186 75.9712C123.035 77.3375 121.597 78.4161 119.907 79.2071C118.181 79.9981 116.276 80.3936 114.119 80.3936C111.566 80.3936 109.265 79.8543 107.251 78.7397C105.238 77.6611 103.692 76.0791 102.541 74.0297C101.427 71.9803 100.851 69.6073 100.851 66.9108C100.851 64.1782 101.391 61.8053 102.505 59.7918C103.62 57.7424 105.166 56.1964 107.179 55.0818C109.193 54.0032 111.494 53.4279 114.083 53.4279C116.635 53.4279 118.864 53.9673 120.842 55.0099C122.819 56.0886 124.365 57.5986 125.48 59.5761C126.595 61.5536 127.134 63.8547 127.134 66.4793C127.17 67.2703 127.134 68.0253 127.026 68.8523ZM118.972 63.8906C118.972 62.5243 118.505 61.4098 117.57 60.6188C116.635 59.7918 115.449 59.3963 114.047 59.3963C112.716 59.3963 111.566 59.7918 110.631 60.5828C109.696 61.3738 109.121 62.4884 108.905 63.9266H118.972V63.8906Z" fill="#212121"/>
<path d="M168.374 2.22917H130.262C120.411 2.22917 112.429 10.211 112.429 20.0984V51.3785C112.932 51.3426 113.436 51.3066 113.939 51.3066C122.568 51.3066 129.579 58.3177 129.579 66.9467C129.579 69.6432 128.896 72.16 127.709 74.3892C128.536 74.497 129.399 74.569 130.262 74.569H168.374C178.225 74.569 186.207 66.5871 186.207 56.7357V20.0624C186.207 10.211 178.225 2.22917 168.374 2.22917Z" fill="#FF5722"/>
<path d="M128.5 43.7563C128.5 44.5832 127.817 45.2664 126.99 45.2664H124.725C123.898 45.2664 123.215 44.5832 123.215 43.7563V33.1858C123.215 32.3588 123.898 31.6757 124.725 31.6757H126.99C127.817 31.6757 128.5 32.3588 128.5 33.1858V43.7563Z" fill="#FBFAF4"/>
<path d="M168.445 49.6168C168.445 51.2347 167.115 52.565 165.497 52.565H162.657C161.039 52.565 159.709 51.2347 159.709 49.6168V41.7788H138.747V49.6168C138.747 51.2347 137.417 52.565 135.799 52.565H132.995C131.377 52.565 130.046 51.2347 130.046 49.6168V27.2892C130.046 25.6713 131.377 24.341 132.995 24.341H135.799C137.417 24.341 138.747 25.6713 138.747 27.2892V35.1273H159.709V27.2892C159.709 25.6713 161.039 24.341 162.657 24.341H165.497C167.115 24.341 168.445 25.6713 168.445 27.2892V49.6168Z" fill="#FBFAF4"/>
<path d="M175.241 43.7563C175.241 44.5832 174.558 45.2664 173.731 45.2664H171.466C170.639 45.2664 169.956 44.5832 169.956 43.7563V33.1858C169.956 32.3588 170.639 31.6757 171.466 31.6757H173.731C174.558 31.6757 175.241 32.3588 175.241 33.1858V43.7563Z" fill="#FBFAF4"/>
</g>
<defs>
<clipPath id="clip0_25728_77">
<rect width="186.386" height="91" fill="white"/>
</clipPath>
</defs>
</svg>
