<svg width="37" height="36" viewBox="0 0 37 36" fill="none" xmlns="http://www.w3.org/2000/svg">
<path d="M30.759 30.7279C37.7884 23.6985 37.7884 12.3015 30.759 5.27208C23.7295 -1.75736 12.3326 -1.75736 5.30312 5.27208C-1.72632 12.3015 -1.72632 23.6985 5.30312 30.7279C12.3326 37.7574 23.7295 37.7574 30.759 30.7279Z" fill="#1A73E8"/>
<path fill-rule="evenodd" clip-rule="evenodd" d="M26.9677 16.3989L14.8142 9.38241C14.5331 9.22033 14.2144 9.13503 13.89 9.13507C13.5656 9.13512 13.2469 9.2205 12.9659 9.38267C12.6849 9.54483 12.4516 9.77806 12.2892 10.0589C12.1269 10.3398 12.0413 10.6585 12.041 10.9829V25.0172C12.0392 25.3421 12.1238 25.6616 12.2861 25.9429C12.4485 26.2243 12.6828 26.4573 12.965 26.6183C13.2455 26.7822 13.5646 26.8686 13.8896 26.8686C14.2145 26.8686 14.5336 26.7822 14.8142 26.6183L26.9677 19.6011C27.2486 19.4387 27.4818 19.2053 27.644 18.9243C27.8061 18.6432 27.8915 18.3245 27.8915 18.0001C27.8915 17.6756 27.8061 17.3569 27.644 17.0758C27.4818 16.7948 27.2486 16.5614 26.9677 16.399V16.3989Z" fill="white"/>
</svg>
