<svg width="32" height="27" viewBox="0 0 32 27" fill="none" xmlns="http://www.w3.org/2000/svg">
<path d="M9.66916 25.15C9.46916 25 9.21916 24.85 9.01916 24.75C9.06916 24.35 9.01916 23.9 8.91916 23.45C8.71916 22.7 8.31916 22 7.76916 21.35C7.26916 21.75 7.01916 22.45 7.11916 23.2C6.76916 22.85 6.41916 22.5 6.11916 22.15C6.31916 21.8 6.41916 21.35 6.41916 20.9C6.46916 20.15 6.31916 19.4 5.96916 18.65C5.31916 18.9 4.91916 19.55 4.81916 20.3C4.56916 19.9 4.36916 19.45 4.16916 19.05C4.46916 18.75 4.71916 18.35 4.86916 17.9C5.11916 17.2 5.16916 16.45 5.01916 15.65C4.31916 15.75 3.71916 16.25 3.41916 17C3.26916 16.5 3.16916 16.05 3.11916 15.55C3.51916 15.35 3.86916 15 4.11916 14.6C4.51916 14 4.81916 13.25 4.86916 12.45C4.11916 12.35 3.36916 12.75 2.91916 13.45C2.91916 12.95 2.96916 12.4 3.01916 11.9C3.46916 11.8 3.91916 11.55 4.31916 11.25C4.86916 10.8 5.31916 10.15 5.61916 9.4C4.91916 9.1 4.06916 9.3 3.41916 9.9C3.56916 9.4 3.71916 8.85 3.91916 8.35C4.41916 8.4 4.91916 8.25 5.36916 8.05C6.01916 7.75 6.61916 7.25 7.11916 6.55C6.51916 6.05 5.61916 6.05 4.81916 6.5C5.11916 6 5.41916 5.55 5.76916 5.1C6.21916 5.3 6.76916 5.3 7.31916 5.2C8.06916 5.05 8.81916 4.75 9.51916 4.2C9.06916 3.55 8.16916 3.3 7.21916 3.55C7.91916 2.9 8.66916 2.3 9.56916 1.8C9.81916 1.65 9.91916 1.35 9.76916 1.1C9.61916 0.85 9.26916 0.75 9.01916 0.9C8.06916 1.45 7.21916 2.1 6.46916 2.8C6.86916 1.8 6.91916 0.9 6.46916 0.2C5.56916 0.8 4.91916 1.8 4.76916 2.65C4.61916 3.3 4.71916 3.85 5.01916 4.3C4.61916 4.8 4.26916 5.35 3.96916 5.85C4.06916 4.8 3.81916 3.9 3.21916 3.4C2.51916 4.35 2.21916 5.45 2.31916 6.3C2.36916 6.95 2.61916 7.45 3.01916 7.8C2.76916 8.4 2.56916 8.95 2.41916 9.55C2.21916 8.55 1.76916 7.75 1.01916 7.4C0.61916 8.5 0.61916 9.6 0.91916 10.4C1.16916 11 1.51916 11.4 2.01916 11.65C1.91916 12.25 1.91916 12.85 1.91916 13.45C1.46916 12.55 0.81916 11.95 0.0191602 11.85C-0.0808398 13 0.21916 14.05 0.71916 14.75C1.06916 15.25 1.56916 15.55 2.06916 15.65C2.11916 16.25 2.26916 16.8 2.36916 17.35C1.71916 16.65 0.96916 16.25 0.16916 16.35C0.36916 17.5 0.91916 18.45 1.61916 18.95C2.06916 19.35 2.61916 19.5 3.06916 19.45C3.26916 19.95 3.51916 20.5 3.76916 20.95C2.91916 20.6 2.11916 20.4 1.41916 20.7C1.91916 21.75 2.71916 22.55 3.51916 22.9C4.06916 23.15 4.56916 23.15 5.01916 23.05C5.36916 23.5 5.71916 23.9 6.11916 24.3C5.26916 24.1 4.51916 24.15 3.96916 24.6C4.76916 25.5 5.81916 26.05 6.71916 26.2C7.26916 26.3 7.76916 26.2 8.16916 26C8.36916 26.15 8.61916 26.3 8.81916 26.45C9.21916 26.7 9.71916 26.55 9.91916 26.15C10.1192 25.8 10.0192 25.35 9.66916 25.15ZM29.5692 17.35C29.7192 16.8 29.8192 16.2 29.8692 15.65C30.3692 15.55 30.8192 15.25 31.2192 14.75C31.7192 14.05 32.0192 13 31.9192 11.85C31.1192 11.95 30.4692 12.6 30.0192 13.45C30.0192 12.85 29.9692 12.25 29.9192 11.65C30.3692 11.45 30.7692 11 31.0192 10.4C31.3192 9.6 31.3692 8.5 30.9192 7.4C30.1692 7.75 29.7192 8.55 29.5192 9.55C29.3692 8.95 29.1692 8.35 28.9192 7.8C29.3192 7.45 29.5692 6.95 29.6192 6.3C29.7192 5.45 29.4192 4.35 28.7192 3.4C28.0692 3.9 27.8692 4.85 27.9692 5.85C27.5692 5.3 27.2192 4.8 26.8192 4.3C27.1192 3.9 27.2192 3.3 27.0692 2.65C26.9192 1.8 26.2692 0.8 25.2692 0C24.8192 0.65 24.8692 1.6 25.2692 2.6C24.5192 1.9 23.6692 1.25 22.7192 0.7C22.4692 0.55 22.1192 0.65 21.9692 0.9C21.8192 1.15 21.9192 1.45 22.1692 1.6C23.0192 2.1 23.8192 2.7 24.5192 3.35C23.5692 3.1 22.6692 3.35 22.2192 4C22.9192 4.55 23.6692 4.85 24.4192 5C24.9692 5.1 25.5192 5.1 25.9692 4.9C26.3192 5.35 26.6692 5.85 26.9192 6.3C26.1192 5.85 25.2192 5.85 24.6192 6.35C25.1192 7 25.7192 7.55 26.3692 7.85C26.8692 8.1 27.3692 8.2 27.8192 8.15C28.0192 8.65 28.1692 9.15 28.3192 9.7C27.6692 9.1 26.8192 8.9 26.1192 9.2C26.4192 9.95 26.8692 10.6 27.4192 11.05C27.8192 11.4 28.2692 11.6 28.7192 11.7C28.7692 12.2 28.8192 12.75 28.8192 13.25C28.3692 12.55 27.6192 12.15 26.8692 12.25C26.9692 13.05 27.2192 13.8 27.6192 14.4C27.8692 14.8 28.2192 15.15 28.6192 15.35C28.5192 15.85 28.4192 16.3 28.3192 16.8C28.0192 16.05 27.4692 15.5 26.7192 15.45C26.5692 16.25 26.6692 17.05 26.8692 17.7C27.0192 18.15 27.2192 18.55 27.5692 18.85C27.3692 19.3 27.1692 19.7 26.9192 20.1C26.8192 19.35 26.4192 18.7 25.7692 18.45C25.4192 19.2 25.2692 19.95 25.3192 20.7C25.3192 21.15 25.4192 21.6 25.6192 21.95C25.3192 22.3 24.9692 22.65 24.6192 23C24.7192 22.25 24.5192 21.55 23.9692 21.15C23.4192 21.8 23.0192 22.5 22.8192 23.25C22.7192 23.7 22.6692 24.15 22.7192 24.55C22.5192 24.7 22.3192 24.85 22.0692 24.95C21.7192 25.15 21.6192 25.6 21.7692 25.95C21.9692 26.35 22.4692 26.5 22.8692 26.25C23.1192 26.1 23.3192 25.95 23.5192 25.8C23.9192 26 24.4192 26.1 24.9692 26C25.8692 25.85 26.9192 25.3 27.7192 24.4C27.1692 23.95 26.4192 23.9 25.5692 24.1C25.9692 23.7 26.3192 23.3 26.6692 22.85C27.1192 22.95 27.6192 22.9 28.1692 22.7C28.9692 22.35 29.7692 21.6 30.2692 20.5C29.5692 20.2 28.7692 20.4 28.0192 20.85C28.2692 20.35 28.5192 19.85 28.7192 19.35C29.2192 19.35 29.7192 19.2 30.1692 18.85C30.8192 18.3 31.4192 17.4 31.6192 16.25C30.9692 16.25 30.2192 16.7 29.5692 17.35Z" fill="#919EAB"/>
<path d="M22.0687 21.95L21.0188 15.9L25.4188 11.6C25.5688 11.45 25.6187 11.25 25.5688 11.1C25.5188 10.9 25.3688 10.8 25.1688 10.75L19.0687 9.84999L16.3688 4.34999C16.2688 4.19999 16.1187 4.04999 15.9187 4.04999C15.7188 4.04999 15.5688 4.14999 15.4688 4.34999L12.7688 9.84999L6.66875 10.75C6.46875 10.8 6.31875 10.9 6.26875 11.1C6.21875 11.3 6.26875 11.5 6.41875 11.6L10.8187 15.9L9.76875 21.95C9.71875 22.15 9.81875 22.35 9.96875 22.45C10.1188 22.55 10.3188 22.6 10.5188 22.5L15.9187 19.6L21.3688 22.45C21.4188 22.5 21.5188 22.5 21.6188 22.5C21.7188 22.5 21.8187 22.45 21.9187 22.4C22.0188 22.3 22.1187 22.15 22.0687 21.95Z" fill="#919EAB"/>
</svg>
