<svg width="24" height="24" viewBox="0 0 24 24" fill="none" xmlns="http://www.w3.org/2000/svg">
<path fill-rule="evenodd" clip-rule="evenodd" d="M6.19727 15.1672C6.19727 13.4179 10.177 11.9986 15.088 11.9986C19.9977 11.9986 23.9775 13.418 23.9775 15.1672V18.0795C23.9775 19.8287 19.9977 21.248 15.088 21.248C10.177 21.248 6.19727 19.8287 6.19727 18.0795V15.1672Z" fill="#FE9923"/>
<path fill-rule="evenodd" clip-rule="evenodd" d="M15.088 11.9986C19.9977 11.9986 23.9775 13.418 23.9775 15.1672C23.9775 16.9178 19.9977 18.3358 15.088 18.3358C10.177 18.3358 6.19727 16.9178 6.19727 15.1672C6.19722 13.4179 10.177 11.9986 15.088 11.9986Z" fill="#FECD3D"/>
<path fill-rule="evenodd" clip-rule="evenodd" d="M15.0871 13.4793C18.9932 13.4793 22.1591 14.236 22.1591 15.1672C22.1591 16.0998 18.9932 16.8551 15.0871 16.8551C11.1809 16.8551 8.01367 16.0997 8.01367 15.1672C8.01367 14.236 11.1809 13.4793 15.0871 13.4793Z" fill="#FEA832"/>
<path d="M10.5871 19.4769L11.3466 19.4783V20.9535C11.0924 20.9121 10.8392 20.8648 10.5871 20.8117V19.4769ZM21.5735 18.6957V20.2459C21.8475 20.1409 22.1011 20.0305 22.3342 19.9146V18.6944L21.5735 18.6957ZM13.333 21.1853C13.5839 21.2044 13.8375 21.218 14.0938 21.2276V19.8178L13.333 19.8192V21.1853ZM7.83984 19.9146C8.073 20.0305 8.32659 20.1409 8.60062 20.2459V18.6944L7.83984 18.6957V19.9146ZM16.0803 21.2276C16.3336 21.2178 16.5868 21.2037 16.8397 21.1853V19.8192L16.0803 19.8178V21.2276ZM18.8276 20.9535C19.0818 20.9122 19.335 20.8649 19.587 20.8117V19.4783L18.8276 19.4769V20.9535Z" fill="#C85929"/>
<path d="M2.6336 18.6875V19.631H3.57574V20.3045H2.6336V21.248H1.9601V20.3045H1.0166V19.631H1.9601V18.6875H2.6336ZM19.8699 8.35425V9.2977H20.8133V9.96989H19.8699V10.9133H19.1963V9.96989H18.2542V9.2977H19.1963V8.35425H19.8699ZM3.08627 2.75198V3.69548H4.02841V4.36762H3.08627V5.31112H2.41273V4.36762H1.46927V3.69548H2.41273V2.75198H3.08627Z" fill="#FEA832"/>
<path fill-rule="evenodd" clip-rule="evenodd" d="M0.186416 13.5202C-0.68888 12.0041 2.04885 8.78508 6.30131 6.33094C10.5538 3.87544 14.7095 3.11466 15.5848 4.62938C16.0698 5.46986 16.5552 6.31017 17.0409 7.15031C17.9162 8.66644 15.1784 11.8854 10.926 14.3396C6.67354 16.7951 2.51784 17.5572 1.64254 16.0411C1.15715 15.2013 0.671807 14.3601 0.186416 13.5202Z" fill="#FE9923"/>
<path fill-rule="evenodd" clip-rule="evenodd" d="M6.30131 6.33094C10.5538 3.87544 14.7095 3.11466 15.5848 4.62938C16.4601 6.1455 13.7223 9.3645 9.46987 11.8186C5.21878 14.2741 1.06171 15.0349 0.186416 13.5202C-0.68888 12.0041 2.04885 8.78508 6.30131 6.33094Z" fill="#FECD3D"/>
<path fill-rule="evenodd" clip-rule="evenodd" d="M7.04128 7.61254C10.4239 5.66015 13.5448 4.73165 14.011 5.53879C14.4773 6.34593 12.1118 8.58327 8.7292 10.5371C5.34656 12.4895 2.22708 13.418 1.76081 12.6108C1.29455 11.8037 3.65864 9.56629 7.04128 7.61254Z" fill="#FEA832"/>
<path d="M9.35222 13.5993L10.0571 14.8195C9.83243 14.9381 9.60561 15.0527 9.37678 15.1631L8.69372 13.9797L9.35222 13.5993ZM3.375 15.7535L3.98447 16.8087C4.2435 16.7937 4.51894 16.7624 4.80797 16.716L4.03355 15.3731L3.375 15.7535ZM6.14409 15.0568L6.81216 16.2129C7.0567 16.1329 7.29945 16.0474 7.54022 15.9566L6.80259 14.6777L6.14409 15.0568ZM11.0728 12.6053L11.7777 13.8256C11.9923 13.6906 12.2046 13.552 12.4144 13.4098L11.7314 12.2277L11.0728 12.6053ZM15.9266 8.50555L15.268 8.8873L16.0438 10.2289C16.2279 10.0026 16.3928 9.77896 16.536 9.56216L15.9266 8.50555ZM13.2816 10.9365L14.0192 12.2154C14.2187 12.053 14.4141 11.8857 14.6055 11.7137L13.9387 10.5589L13.2816 10.9365Z" fill="#C85929"/>
</svg>
