<svg width="20" height="20" viewBox="0 0 20 20" fill="none" xmlns="http://www.w3.org/2000/svg">
<g clip-path="url(#clip0_25912_550)">
<path d="M13.2754 5.07837C13.543 4.62962 14.0331 4.32888 14.5936 4.32888C15.4407 4.32888 16.1275 5.01568 16.1275 5.86283C16.1275 5.92388 16.1235 5.984 16.1166 6.04322C16.3013 5.99138 16.4886 5.96439 16.6734 5.96439C16.8446 5.96439 17.0062 5.98798 17.1558 6.03337C17.1598 5.97662 17.1619 5.91976 17.1621 5.86287C17.1621 4.44427 16.0121 3.29431 14.5935 3.29431C13.7481 3.29431 12.9982 3.70287 12.5302 4.33322L13.2754 5.07837ZM4.23527 10.1772L4.28836 10.1677L4.2627 10.1202C4.2197 10.0406 4.18168 9.95847 4.14883 9.87419C3.40473 9.76849 2.83242 9.12915 2.83242 8.35587C2.83242 7.50869 3.51922 6.82193 4.36637 6.82193C4.80969 6.82193 5.20887 7.01021 5.48891 7.31091C5.54871 7.04791 5.67297 6.81568 5.85762 6.63103C5.92681 6.56189 6.00336 6.50054 6.0859 6.44806C5.63063 6.03748 5.02777 5.78736 4.36641 5.78736C2.94785 5.78736 1.79785 6.93736 1.79785 8.35591C1.79785 9.38267 2.40051 10.2684 3.27125 10.6795C3.49359 10.4311 3.83031 10.2502 4.23527 10.1772Z" fill="#FED2A4"/>
<path d="M11.189 7.56241C11.3002 7.50944 11.4239 7.48241 11.5578 7.48241C11.7803 7.48241 12.029 7.55772 12.2771 7.70026L12.3281 7.72956L12.3353 7.67112C12.4607 6.65178 13 5.9119 13.6175 5.9119C14.0649 5.9119 14.4773 6.29362 14.7205 6.93299L14.7446 6.99647L14.7873 6.94366C14.8481 6.86841 14.9127 6.7963 14.9808 6.7276L10.935 2.68178C10.8524 2.59916 10.7176 2.60463 10.6404 2.69233C9.78081 3.66827 9.58467 5.02346 10.0504 6.17331C10.5589 6.22514 11.0032 6.77666 11.189 7.56241Z" fill="#FB2B3A"/>
<path d="M11.189 7.56241C11.3002 7.50944 11.4239 7.48241 11.5578 7.48241C11.5979 7.48241 11.6391 7.48569 11.6808 7.49057C10.6895 6.29174 10.6587 4.56643 11.5874 3.33416L10.935 2.68178C10.8524 2.59916 10.7176 2.60463 10.6404 2.69233C9.78081 3.66827 9.58467 5.02346 10.0504 6.17331C10.5589 6.22514 11.0032 6.77666 11.189 7.56241Z" fill="#E41F2D"/>
<path d="M11.6719 6.63041C11.6334 6.63046 11.5953 6.6229 11.5598 6.60818C11.5242 6.59345 11.4919 6.57184 11.4648 6.54459C11.4098 6.48965 11.379 6.41513 11.379 6.33744C11.379 6.25974 11.4098 6.18523 11.4648 6.13029L11.7891 5.80599C11.844 5.75106 11.9185 5.7202 11.9962 5.7202C12.0739 5.7202 12.1484 5.75106 12.2034 5.80599C12.2583 5.86093 12.2892 5.93545 12.2892 6.01314C12.2892 6.09084 12.2583 6.16535 12.2034 6.22029L11.8791 6.54459C11.8519 6.57183 11.8196 6.59344 11.7841 6.60817C11.7485 6.6229 11.7104 6.63045 11.6719 6.63041ZM11.5719 5.19009H11.1133C11.0356 5.19009 10.9611 5.15923 10.9061 5.10429C10.8512 5.04934 10.8203 4.97483 10.8203 4.89713C10.8203 4.81943 10.8512 4.74491 10.9061 4.68997C10.9611 4.63502 11.0356 4.60416 11.1133 4.60416H11.5719C11.6496 4.60416 11.7241 4.63502 11.7791 4.68997C11.834 4.74491 11.8649 4.81943 11.8649 4.89713C11.8649 4.97483 11.834 5.04934 11.7791 5.10429C11.7241 5.15923 11.6496 5.19009 11.5719 5.19009Z" fill="#FE646F"/>
<path d="M8.47554 4.18184C9.59448 3.06289 9.64355 1.27922 8.62273 0.101956C8.6046 0.0810578 8.58236 0.0641153 8.5574 0.0521831C8.53244 0.0402509 8.5053 0.0335844 8.47765 0.0325987C8.45 0.031613 8.42245 0.0363292 8.3967 0.0464536C8.37096 0.0565781 8.34757 0.071894 8.328 0.0914479L4.38515 4.03434C4.3656 4.05391 4.35028 4.07729 4.34015 4.10304C4.33003 4.12879 4.32531 4.15634 4.3263 4.18399C4.32729 4.21163 4.33395 4.23878 4.34588 4.26374C4.35782 4.2887 4.37476 4.31094 4.39566 4.32906C5.57288 5.34985 7.35659 5.30078 8.47554 4.18184Z" fill="#FD4755"/>
<path d="M5.14128 3.41279C5.11668 3.3912 5.09778 3.36387 5.08628 3.33322L4.38515 4.03435C4.3656 4.05392 4.35028 4.07731 4.34015 4.10306C4.33003 4.1288 4.32531 4.15636 4.3263 4.184C4.32729 4.21165 4.33395 4.2388 4.34588 4.26376C4.35782 4.28872 4.37476 4.31095 4.39566 4.32908C5.57292 5.3499 7.35659 5.30084 8.47554 4.18189C8.68847 3.9691 8.8681 3.72541 9.00835 3.45904C7.88597 4.38642 6.24644 4.37107 5.14128 3.41279Z" fill="#FB2B3A"/>
<path d="M7.62941 3.68643C7.59093 3.68648 7.55282 3.67893 7.51727 3.6642C7.48172 3.64947 7.44943 3.62786 7.42227 3.60061L7.13301 3.31135C7.07807 3.25641 7.04721 3.1819 7.04721 3.10421C7.04721 3.02651 7.07807 2.952 7.13301 2.89706C7.18795 2.84212 7.26246 2.81126 7.34016 2.81126C7.41785 2.81126 7.49236 2.84212 7.5473 2.89706L7.83656 3.18631C7.87753 3.22729 7.90543 3.27949 7.91673 3.33631C7.92803 3.39314 7.92223 3.45204 7.90006 3.50557C7.87789 3.5591 7.84034 3.60486 7.79217 3.63705C7.74399 3.66924 7.68735 3.68643 7.62941 3.68643ZM6.34473 4.18467C6.26703 4.18467 6.19251 4.15381 6.13757 4.09887C6.08262 4.04392 6.05176 3.96941 6.05176 3.89171V3.48264C6.05176 3.40494 6.08262 3.33042 6.13757 3.27548C6.19251 3.22054 6.26703 3.18967 6.34473 3.18967C6.42243 3.18967 6.49694 3.22054 6.55189 3.27548C6.60683 3.33042 6.6377 3.40494 6.6377 3.48264V3.89171C6.6377 3.96941 6.60683 4.04392 6.55189 4.09887C6.49694 4.15381 6.42243 4.18467 6.34473 4.18467ZM8.18551 2.42569H7.77645C7.69874 2.42569 7.62423 2.39482 7.56928 2.33988C7.51434 2.28494 7.48348 2.21042 7.48348 2.13272C7.48348 2.05502 7.51434 1.9805 7.56928 1.92556C7.62423 1.87062 7.69874 1.83975 7.77645 1.83975H8.18551C8.26321 1.83975 8.33773 1.87062 8.39267 1.92556C8.44761 1.9805 8.47848 2.05502 8.47848 2.13272C8.47848 2.21042 8.44761 2.28494 8.39267 2.33988C8.33773 2.39482 8.26321 2.42569 8.18551 2.42569Z" fill="#E41F2D"/>
<path d="M6.50331 12.4486C6.50331 12.2591 6.52491 12.0746 6.56463 11.8969C5.86049 11.6737 5.3926 11.2328 5.3926 10.7415C5.3926 10.2942 5.77417 9.88189 6.41323 9.63869L6.47659 9.61459L6.42397 9.57185C6.34794 9.5103 6.27513 9.44486 6.20584 9.3758C5.79877 8.96873 5.53749 8.46478 5.46709 7.95385C5.09385 7.87267 4.72545 7.93045 4.43874 8.14838C3.89928 8.55842 3.82823 9.39873 4.2285 10.1388C3.55186 10.2607 3.02979 10.6919 2.95143 11.2669C2.88698 11.7396 3.13788 12.1988 3.57331 12.5132H6.50495C6.5044 12.4916 6.50331 12.4702 6.50331 12.4486Z" fill="#80D261"/>
<path d="M10.5942 12.5131C10.5976 12.509 10.6014 12.505 10.6047 12.5008C10.6053 12.4834 10.606 12.4661 10.606 12.4485C10.606 11.5811 9.90039 10.8755 9.03301 10.8755C8.16562 10.8755 7.45996 11.5811 7.45996 12.4485C7.45996 12.4702 7.46113 12.4917 7.46199 12.5131H10.5942Z" fill="#017B4E"/>
<path d="M9.03281 9.91909C9.91414 9.91909 10.6912 10.3724 11.1442 11.0579C11.1305 10.8043 11.1457 10.55 11.1896 10.2999C11.1599 10.2534 11.1311 10.2062 11.1034 10.1583C10.8067 9.64448 10.6478 9.09276 10.656 8.60475C10.6641 8.12405 10.8336 7.76405 11.1331 7.59108C11.1625 7.57416 11.193 7.55919 11.2244 7.54624C11.0261 6.71639 10.5398 6.12979 9.97117 6.12979C9.49156 6.12979 9.07074 6.54745 8.83168 7.17604C8.76848 7.09771 8.7012 7.02276 8.63012 6.95151C7.76078 6.08217 6.50715 5.92631 5.83008 6.60338C5.15301 7.28046 5.30887 8.53409 6.1782 9.40342C6.24843 9.47345 6.32224 9.53979 6.39934 9.60217C5.77098 9.84128 5.35352 10.262 5.35352 10.7415C5.35352 11.2598 5.84106 11.7094 6.55574 11.9352C6.79367 10.7857 7.81391 9.91909 9.03281 9.91909Z" fill="#017B4E"/>
<path d="M8.20168 12.0221C7.99301 11.9807 7.79793 11.9213 7.62129 11.8472C7.53692 12.0451 7.49525 12.2586 7.49898 12.4737L7.49941 12.4741H8.28133C8.29883 12.4118 8.32005 12.3506 8.34488 12.2908C8.39258 12.1754 8.32418 12.0464 8.20168 12.0221ZM5.35352 10.7415C5.35352 11.2507 5.82391 11.6939 6.51816 11.9234C6.57131 11.6683 6.66322 11.4229 6.7907 11.1957C6.70609 11.0537 6.65973 10.9009 6.65973 10.7416C6.65973 10.3329 6.96293 9.9669 7.44152 9.71968C7.55984 9.65854 7.58082 9.49968 7.48652 9.40561L7.48438 9.40346C6.61504 8.53413 6.45918 7.2805 7.13625 6.60343C7.26977 6.46991 7.42594 6.36928 7.59691 6.29964C6.93988 6.07749 6.26562 6.1678 5.83 6.60343C5.15293 7.2805 5.30879 8.53413 6.17813 9.40346C6.24836 9.47348 6.32217 9.53982 6.39926 9.60221C5.77094 9.84128 5.35352 10.262 5.35352 10.7415Z" fill="#026841"/>
<path d="M8.74806 9.93553C8.84263 9.9247 8.93772 9.9192 9.03291 9.91905C9.23955 9.91905 9.44029 9.94452 9.63267 9.99151L8.03525 8.39409C7.98031 8.33915 7.9058 8.30829 7.8281 8.30829C7.75041 8.30829 7.67589 8.33915 7.62095 8.39409C7.56602 8.44903 7.53516 8.52354 7.53516 8.60123C7.53516 8.67893 7.56602 8.75344 7.62095 8.80838L8.74806 9.93553Z" fill="#026841"/>
<path d="M17.189 9.34534C17.2661 9.28294 17.3399 9.2166 17.4101 9.14659C18.2794 8.27725 18.4353 7.02362 17.7582 6.34655C17.0812 5.66948 15.8275 5.82534 14.9582 6.69467C14.8871 6.76594 14.8198 6.84088 14.7566 6.91921C14.5176 6.29061 14.0968 5.87296 13.6171 5.87296C12.9657 5.87296 12.4222 6.64284 12.2962 7.66643C11.8726 7.42315 11.4437 7.36702 11.1141 7.55729C10.4692 7.92967 10.4494 9.10295 11.07 10.1779C11.1052 10.2383 11.142 10.2978 11.1804 10.3562C11.2743 9.76253 11.5294 9.18897 11.9494 8.70776C11.9661 8.68873 11.9865 8.67347 12.0095 8.66301C12.0325 8.65255 12.0575 8.64714 12.0828 8.64713C12.1058 8.64707 12.1286 8.65157 12.1499 8.66038C12.1712 8.66919 12.1905 8.68214 12.2068 8.69846L16.0215 12.5132H16.6607C16.6534 12.2884 16.5753 12.0464 16.4369 11.8061C17.4627 11.6812 18.2348 11.137 18.2348 10.4847C18.2348 10.0051 17.8173 9.58444 17.189 9.34534Z" fill="#68CA44"/>
<path d="M15.9675 8.13722C15.9125 8.08228 15.838 8.05142 15.7603 8.05142C15.6826 8.05142 15.6081 8.08228 15.5532 8.13722L13.627 10.0634L14.0413 10.4777L15.9675 8.55152C16.0224 8.49657 16.0533 8.42206 16.0533 8.34437C16.0533 8.26667 16.0224 8.19216 15.9675 8.13722Z" fill="#80D261"/>
<path d="M11.5631 12.4486C11.5631 12.4543 11.5629 12.4601 11.5627 12.4658L11.5613 12.5132H16.077L12.2347 8.67086C12.1466 8.58274 12.0023 8.58817 11.9203 8.68207C11.3457 9.34047 11.0722 10.1702 11.0995 10.9918C11.391 11.4039 11.5631 11.9064 11.5631 12.4486Z" fill="white"/>
<path d="M13.7648 12.5131H15.1221C15.336 12.4244 15.5304 12.2943 15.694 12.1303L13.1928 9.62912C12.5021 10.3198 12.5021 11.4396 13.1928 12.1303C13.3565 12.2943 13.5509 12.4244 13.7648 12.5131Z" fill="#FEDF74"/>
<path d="M13.7659 12.5131H14.4296C14.2155 12.4244 14.0211 12.2943 13.8574 12.1303C13.2818 11.5547 13.1863 10.6813 13.5701 10.0064L13.1928 9.62912C12.5021 10.3198 12.5021 11.4396 13.1928 12.1303C13.3568 12.2944 13.5515 12.4245 13.7659 12.5131Z" fill="#FED402"/>
<path d="M7.50109 12.5132C7.5001 12.4916 7.49955 12.4701 7.49945 12.4486C7.49945 11.6014 8.18625 10.9146 9.0334 10.9146C9.88055 10.9146 10.5673 11.6014 10.5673 12.4486C10.5673 12.4702 10.5666 12.4917 10.5657 12.5132H11.6003C11.6009 12.4916 11.602 12.4702 11.602 12.4486C11.602 11.03 10.452 9.88 9.0334 9.88C7.61484 9.88 6.46484 11.03 6.46484 12.4486C6.46484 12.4702 6.46594 12.4916 6.46648 12.5132H7.50109Z" fill="#FED2A4"/>
<path d="M6.98826 20H12.7046C12.7826 20 12.86 19.9855 12.9321 19.9557C15.7474 18.7933 17.7635 16.0883 17.9267 12.8938C17.9384 12.6651 17.7537 12.4741 17.5246 12.4741H2.16822C1.9392 12.4741 1.75447 12.6651 1.76615 12.8938C1.92939 16.0883 3.94545 18.7933 6.76076 19.9557C6.83296 19.9852 6.91026 20.0003 6.98826 20Z" fill="#D8ECFE"/>
<path d="M3.50816 14.3666H1.97852C2.58668 16.9042 4.39051 18.9769 6.76113 19.9557C6.83334 19.9852 6.91063 20.0003 6.98863 20H8.51828C8.44031 20 8.36285 19.9855 8.29078 19.9557C5.92016 18.9769 4.11633 16.9042 3.50816 14.3666Z" fill="#C4E2FF"/>
<path d="M17.5246 12.4741H2.16822C1.9392 12.4741 1.75447 12.6651 1.76615 12.8938C1.79138 13.3902 1.86235 13.8832 1.97814 14.3666H17.7147C17.8305 13.8832 17.9014 13.3902 17.9267 12.8938C17.9384 12.6651 17.7537 12.4741 17.5246 12.4741Z" fill="#EAF6FF"/>
<path d="M1.76615 12.8938C1.79138 13.3902 1.86235 13.8832 1.97814 14.3666H3.50779C3.39202 13.8832 3.32105 13.3902 3.2958 12.8938C3.28412 12.6651 3.46885 12.4741 3.69787 12.4741H2.16822C1.9392 12.4741 1.75447 12.6651 1.76615 12.8938Z" fill="#D8ECFE"/>
<path d="M14.9267 1.84597C15.0241 1.81987 15.0877 1.72562 15.0745 1.62566C15.0202 1.21404 14.8314 0.831905 14.5374 0.538741C14.2443 0.244739 13.8622 0.0559269 13.4505 0.00170973C13.3506 -0.0115325 13.2563 0.0520613 13.2302 0.149444L12.6995 2.1303C12.6594 2.27991 12.7962 2.41679 12.9459 2.37671L14.9267 1.84597Z" fill="#FE9901"/>
<path d="M13.5793 2.13034L14.0941 0.209093C13.8939 0.10176 13.6758 0.0315033 13.4505 0.00170973C13.3506 -0.0115325 13.2563 0.0520613 13.2302 0.149444L12.6995 2.1303C12.6594 2.27991 12.7962 2.41679 12.9459 2.37671L13.5741 2.20839C13.5707 2.18228 13.5725 2.15576 13.5793 2.13034Z" fill="#FB8801"/>
</g>
<defs>
<clipPath id="clip0_25912_550">
<rect width="20" height="20" fill="white"/>
</clipPath>
</defs>
</svg>
