<svg width="16" height="16" viewBox="0 0 16 16" fill="none" xmlns="http://www.w3.org/2000/svg">
<path d="M1.03728 9.45364C0.465312 9.45364 0 9.91895 0 10.4909V14.5422C0 15.1142 0.465312 15.5795 1.03728 15.5795H4.0819V9.45364H1.03728ZM14.9627 11.324H11.9181V15.5794H14.9627C15.5347 15.5794 16 15.1141 16 14.5422V12.3613C16 11.7894 15.5347 11.324 14.9627 11.324ZM9.94223 7.10502H6.05774C5.48577 7.10502 5.02046 7.57033 5.02046 8.1423V15.5795H10.9795V8.14227C10.9795 7.5703 10.5142 7.10502 9.94223 7.10502ZM8.09383 11.9408C7.83467 11.9408 7.62455 11.7306 7.62455 11.4715V10.5183L7.6202 10.5215C7.53913 10.5825 7.44041 10.6155 7.33895 10.6154C7.26603 10.6155 7.19409 10.5986 7.12885 10.566C7.06361 10.5334 7.00688 10.4861 6.96317 10.4277C6.80764 10.2204 6.84964 9.92623 7.05695 9.7707L7.81217 9.20414C7.81502 9.20201 7.81802 9.20029 7.82089 9.19826C7.82811 9.19308 7.83545 9.18814 7.84302 9.18336C7.85587 9.17511 7.86917 9.16758 7.88286 9.16079C7.88923 9.15758 7.89558 9.15445 7.90208 9.15154C7.90936 9.1483 7.9168 9.1453 7.92423 9.14239C7.93127 9.13967 7.93833 9.13701 7.94545 9.13464C7.95258 9.13226 7.95983 9.13017 7.96711 9.12814C7.97483 9.12598 7.98255 9.12392 7.99033 9.12217C7.99723 9.12061 8.00423 9.1193 8.01126 9.11805C8.01964 9.11655 8.02808 9.11523 8.03648 9.1142C8.05207 9.11233 8.06773 9.11123 8.08342 9.11089C8.08692 9.11083 8.09033 9.11036 8.09383 9.11036C8.09714 9.11036 8.10033 9.1108 8.10361 9.11086C8.11214 9.11104 8.12067 9.11151 8.12917 9.11214C8.13658 9.1127 8.14398 9.11333 8.1513 9.11423C8.15867 9.11514 8.16601 9.11633 8.17333 9.11758C8.18142 9.11895 8.18948 9.12039 8.19745 9.1222C8.20401 9.1237 8.21048 9.12545 8.21705 9.12723C8.22527 9.12948 8.23345 9.13173 8.24148 9.13439C8.24795 9.13651 8.25433 9.13898 8.26073 9.14142C8.26833 9.14433 8.27595 9.1472 8.28336 9.15048C8.29026 9.15351 8.29705 9.15695 8.30383 9.16033C8.31033 9.16358 8.31686 9.16679 8.32323 9.17036C8.33055 9.17445 8.33764 9.17892 8.3448 9.18342C8.35033 9.18692 8.35589 9.19039 8.3613 9.19414C8.36842 9.19908 8.37536 9.20442 8.38226 9.20983C8.38739 9.21383 8.39251 9.2178 8.39751 9.22201C8.40386 9.22742 8.40998 9.23311 8.41611 9.23892C8.42139 9.24389 8.42658 9.24892 8.43164 9.25417C8.43683 9.25958 8.44186 9.26517 8.44686 9.27092C8.45239 9.27726 8.4578 9.2837 8.46305 9.29036C8.46511 9.29298 8.46739 9.29529 8.46939 9.29798C8.47151 9.30083 8.47323 9.30386 8.47526 9.3067C8.48436 9.31947 8.49286 9.33265 8.50073 9.3462C8.50495 9.35351 8.50889 9.36101 8.51273 9.36861C8.51595 9.37501 8.51911 9.38139 8.52201 9.38792C8.52526 9.39517 8.52823 9.40258 8.53114 9.41001C8.53389 9.41708 8.53654 9.42417 8.53892 9.43129C8.5413 9.43839 8.54339 9.44561 8.54542 9.45286C8.54958 9.46738 8.55294 9.48212 8.55548 9.49701C8.55698 9.50542 8.55829 9.51386 8.55933 9.52229C8.56121 9.53787 8.56232 9.55354 8.56264 9.56923C8.5627 9.57273 8.56317 9.57614 8.56317 9.57964V11.4715H8.5632C8.56311 11.7306 8.35301 11.9408 8.09383 11.9408ZM10.6209 2.32472C10.5564 2.12606 10.3879 1.98397 10.1811 1.9539L9.01161 1.78397L8.48864 0.724281C8.39617 0.536938 8.20895 0.420563 8.00002 0.420563C7.79111 0.420563 7.60389 0.536938 7.51139 0.724281L6.98839 1.784L5.81893 1.95393C5.61218 1.98397 5.44361 2.12606 5.37905 2.32478C5.31449 2.5235 5.36733 2.73753 5.51693 2.88334L6.36317 3.70821L6.16339 4.87302C6.12811 5.07893 6.21117 5.28312 6.38021 5.40593C6.54924 5.52874 6.76911 5.54458 6.95402 5.44737L8.00005 4.89746L9.04604 5.44737C9.12435 5.48876 9.21156 5.51045 9.30014 5.51055C9.41264 5.51055 9.52442 5.4753 9.61995 5.40587C9.78898 5.28305 9.87201 5.0788 9.8367 4.87296L9.63695 3.70821L10.4833 2.88328C10.6327 2.73743 10.6855 2.5234 10.6209 2.32472Z" fill="white"/>
</svg>
