<svg width="54" height="54" viewBox="0 0 54 54" fill="none" xmlns="http://www.w3.org/2000/svg">
<g clip-path="url(#clip0_25908_2595)">
<path d="M27.0469 1.1582C33.9429 1.15826 40.4218 3.84174 45.2988 8.71875L45.3359 8.75586C50.1891 13.6286 52.8594 20.0904 52.8594 26.9697C52.8593 33.8667 50.1748 40.3457 45.2988 45.2217C40.4218 50.0987 33.9439 52.7812 27.0469 52.7812C20.15 52.7812 13.6721 50.0976 8.79492 45.2217C3.91793 40.3447 1.23446 33.8657 1.23438 26.9697C1.23438 20.0737 3.91886 13.5948 8.79492 8.71875C13.672 3.84169 20.1508 1.1582 27.0469 1.1582Z" stroke="#1A73E8" stroke-width="2"/>
<path d="M24.2979 36.4922C24.2979 37.8032 23.2358 38.8652 21.9248 38.8652C20.6138 38.8652 19.5518 37.8032 19.5518 36.4922V17.4477C19.5518 16.1367 20.6138 15.0746 21.9248 15.0746C23.2358 15.0746 24.2979 16.1367 24.2979 17.4477V36.4922ZM34.541 36.4922C34.541 37.8032 33.4789 38.8652 32.1679 38.8652C30.857 38.8652 29.7949 37.8032 29.7949 36.4922V17.4477C29.7949 16.1367 30.857 15.0746 32.1679 15.0746C33.4789 15.0746 34.541 16.1367 34.541 17.4477V36.4922Z" fill="#1A73E8"/>
</g>
<defs>
<clipPath id="clip0_25908_2595">
<rect width="54" height="54" fill="white"/>
</clipPath>
</defs>
</svg>
