<svg width="24" height="24" viewBox="0 0 24 24" fill="none" xmlns="http://www.w3.org/2000/svg">
<g clip-path="url(#clip0_25922_576)">
<path d="M9.14051 12.4164H7.12151C6.27326 12.4164 5.43397 12.1339 4.75817 11.6212L2.11437 9.61505C0.884606 8.68191 0.404231 7.07715 0.919059 5.62177C1.41111 4.2308 2.73308 3.28444 4.20856 3.26687C5.65029 3.24976 6.46944 3.29532 6.50356 3.29729L6.41328 4.88415C6.4054 4.88373 5.60843 4.8399 4.22745 4.85621C3.41558 4.86587 2.68817 5.38655 2.41747 6.15188C2.1342 6.9526 2.39848 7.83554 3.07512 8.34896L5.71887 10.3551C6.11989 10.6594 6.61803 10.827 7.12142 10.827H9.14042V12.4164H9.14051Z" fill="#FFD064"/>
<path d="M4.75847 10.7838L2.11467 8.77766C1.33087 8.18291 0.85214 7.3152 0.740812 6.38736C0.594187 7.613 1.09795 8.84356 2.11467 9.61503L4.75847 11.6211C5.43422 12.1339 6.27356 12.4163 7.12181 12.4163H9.14081V11.579H7.12181C6.27356 11.579 5.43422 11.2965 4.75847 10.7838Z" fill="#ECBE6B"/>
<path d="M14.8672 12.4164H16.8862C17.7344 12.4164 18.5737 12.1339 19.2495 11.6212L21.8933 9.61505C23.1231 8.68191 23.6035 7.07715 23.0886 5.62177C22.5966 4.2308 21.2746 3.28444 19.7991 3.26687C18.3574 3.24976 17.5383 3.29532 17.5041 3.29729L17.5944 4.88415C17.6023 4.88373 18.3993 4.8399 19.7803 4.85621C20.5921 4.86587 21.3195 5.38655 21.5902 6.15188C21.8735 6.9526 21.6092 7.83554 20.9326 8.34896L18.2888 10.3551C17.8878 10.6594 17.3897 10.827 16.8863 10.827H14.8673V12.4164H14.8672Z" fill="#FFD064"/>
<path d="M23.0887 5.62175C22.8584 4.97066 22.4462 4.41702 21.9215 4.01038C22.1516 4.30648 22.3328 4.63759 22.458 4.99109C22.9728 6.44647 22.4924 8.05124 21.2627 8.98438L18.6189 10.9905C17.9431 11.5033 17.1038 11.7857 16.2555 11.7857H14.8672V12.4163H16.8862C17.7344 12.4163 18.5737 12.1339 19.2495 11.6211L21.8933 9.61503C23.1231 8.68189 23.6035 7.07713 23.0887 5.62175Z" fill="#ECBE6B"/>
<path d="M14.5773 18.2377L13.6371 17.5251C13.4378 17.3741 13.2761 17.1789 13.1648 16.9549C13.0536 16.7309 12.9956 16.4842 12.9956 16.2341V13.0711H10.8662V16.2341C10.8662 16.4842 10.8083 16.7309 10.697 16.9549C10.5857 17.1789 10.424 17.3741 10.2247 17.5251L9.2845 18.2377C8.99144 18.4598 9.14852 18.9271 9.51621 18.9271H14.3456C14.7133 18.9271 14.8704 18.4598 14.5773 18.2377Z" fill="#FFD064"/>
<path d="M14.578 18.2377L13.6377 17.5251C13.4384 17.3741 13.2768 17.1789 13.1655 16.9549C13.0542 16.7309 12.9963 16.4842 12.9963 16.2341V13.0711H11.8926V16.2341C11.8926 16.4842 11.9505 16.7309 12.0618 16.9549C12.1731 17.1789 12.3347 17.3741 12.534 17.5251L13.4742 18.2377C13.7673 18.4598 13.6102 18.9271 13.2425 18.9271H14.3463C14.7139 18.9271 14.871 18.4598 14.578 18.2377Z" fill="#ECBE6B"/>
<path d="M17.9759 0.954712H6.03152C5.92163 0.954712 5.81624 0.998364 5.73854 1.07607C5.66084 1.15377 5.61719 1.25915 5.61719 1.36904V5.64615C5.61718 7.47741 6.1271 9.2725 7.08981 10.8303L8.19278 12.615C9.92144 15.4122 13.9828 15.4313 15.7377 12.6505L16.8685 10.8587C17.8626 9.28343 18.3902 7.45876 18.3902 5.59599V1.36904C18.3902 1.25916 18.3465 1.15378 18.2688 1.07608C18.1911 0.998381 18.0858 0.954724 17.9759 0.954712Z" fill="#FFE07D"/>
<path d="M17.976 0.954712H16.0615V3.26715C16.0615 5.12993 15.5339 6.95462 14.5398 8.52995L13.4091 10.3217C12.1572 12.3054 9.73167 12.8639 7.81641 12.0058L8.19295 12.6151C9.92161 15.4122 13.983 15.4314 15.7379 12.6505L16.8686 10.8588C17.8628 9.28348 18.3904 7.45881 18.3904 5.59604V1.36904C18.3904 1.25916 18.3467 1.15378 18.269 1.07608C18.1913 0.998381 18.0859 0.954724 17.976 0.954712Z" fill="#FFD064"/>
<path d="M12.0003 21.5507C9.73296 21.5507 7.53279 20.8738 5.63763 19.5931C3.79479 18.3477 2.32615 16.5962 1.39052 14.5279C1.37097 14.4847 1.36011 14.438 1.35859 14.3906C1.35706 14.3432 1.36488 14.296 1.38162 14.2516C1.39835 14.2072 1.42366 14.1666 1.45611 14.132C1.48855 14.0974 1.52749 14.0695 1.57071 14.0499C1.61392 14.0304 1.66056 14.0195 1.70796 14.018C1.75537 14.0165 1.80261 14.0243 1.84698 14.041C1.89136 14.0578 1.93201 14.0831 1.9666 14.1155C2.0012 14.148 2.02906 14.1869 2.0486 14.2301C3.86182 18.2384 7.76815 20.8284 12.0003 20.8284C16.2325 20.8284 20.1387 18.2384 21.952 14.2301C21.9921 14.1439 22.0646 14.077 22.1538 14.0439C22.243 14.0108 22.3416 14.0142 22.4283 14.0534C22.515 14.0927 22.5827 14.1645 22.6167 14.2533C22.6507 14.3421 22.6483 14.4408 22.61 14.5279C21.6744 16.5962 20.2058 18.3478 18.3629 19.5931C16.4678 20.8738 14.2676 21.5507 12.0003 21.5507Z" fill="#0DC183"/>
<path d="M23.5584 13.6804C23.1639 14.6139 22.4914 15.2217 22.0563 15.0378C21.6211 14.854 21.5881 13.9481 21.9825 13.0146C22.2683 12.3382 23.21 11.263 23.7072 10.7218C23.8145 10.6049 24.0091 10.6871 24.0001 10.8456C23.9587 11.5794 23.8441 13.0041 23.5584 13.6804Z" fill="#AAD880"/>
<path d="M23.7068 10.7218C23.5396 10.9038 23.3753 11.0884 23.214 11.2756C23.1486 11.9954 23.032 12.8532 22.8291 13.3337C22.5512 13.9913 22.1354 14.4868 21.7617 14.6583C21.8176 14.8441 21.9158 14.9786 22.056 15.0378C22.4911 15.2217 23.1636 14.614 23.5581 13.6804C23.8438 13.004 23.9584 11.5794 23.9998 10.8456C24.0088 10.6871 23.8142 10.6049 23.7068 10.7218Z" fill="#80CB8E"/>
<path d="M20.9162 15.756C20.9458 16.7128 20.6083 17.4996 20.1624 17.5135C19.7164 17.5273 19.3308 16.7628 19.3011 15.806C19.2797 15.1128 19.6638 13.8186 19.8771 13.158C19.9232 13.0153 20.1226 13.0092 20.1774 13.1487C20.4312 13.7948 20.8948 15.0628 20.9162 15.756ZM18.2191 17.6465C18.5961 18.5264 18.5693 19.3822 18.1591 19.5579C17.749 19.7337 17.1109 19.1628 16.7338 18.2829C16.4607 17.6454 16.3457 16.3003 16.3031 15.6074C16.2939 15.4578 16.4772 15.3792 16.5792 15.4891C17.0514 15.9979 17.946 17.009 18.2191 17.6465Z" fill="#AAD880"/>
<path d="M18.2191 17.6465C17.946 17.009 17.0514 15.9979 16.5792 15.4891C16.4772 15.3792 16.2939 15.4577 16.3031 15.6074C16.3153 15.8055 16.3334 16.0569 16.3594 16.3298C16.8003 16.8406 17.2928 17.4667 17.4833 17.9111C17.7474 18.5275 17.813 19.1316 17.6878 19.4988C17.8583 19.5914 18.0216 19.6168 18.1591 19.5578C18.5693 19.3822 18.5961 18.5264 18.2191 17.6465Z" fill="#80CB8E"/>
<path d="M20.6237 19.696C19.7198 19.3808 19.1061 18.7838 19.253 18.3624C19.3999 17.9411 20.2517 17.855 21.1556 18.1702C21.8105 18.3985 22.8812 19.2209 23.4214 19.6567C23.5382 19.7509 23.4725 19.9392 23.3225 19.9404C22.6284 19.9459 21.2785 19.9243 20.6237 19.696ZM17.7527 21.6701C16.8489 21.3549 16.2352 20.7579 16.3821 20.3365C16.529 19.9152 17.3808 19.8291 18.2847 20.1443C18.9396 20.3726 20.0102 21.195 20.5505 21.6308C20.6672 21.725 20.6016 21.9133 20.4516 21.9145C19.7575 21.92 18.4076 21.8984 17.7527 21.6701Z" fill="#AAD880"/>
<path d="M23.4214 19.6567C23.2018 19.4796 22.8947 19.2387 22.5635 18.9997C21.8339 18.9987 20.6685 18.9617 20.0746 18.7546C19.7618 18.6455 19.4838 18.5027 19.26 18.3451C19.2577 18.3509 19.255 18.3565 19.2529 18.3624C19.106 18.7837 19.7197 19.3808 20.6236 19.696C21.2784 19.9243 22.6283 19.9458 23.3224 19.9404C23.4724 19.9392 23.5381 19.7509 23.4214 19.6567ZM20.5505 21.6309C20.331 21.4538 20.0238 21.2128 19.6926 20.9739C18.963 20.9728 17.7976 20.9358 17.2037 20.7287C16.891 20.6197 16.613 20.4768 16.3892 20.3192C16.3869 20.325 16.3841 20.3306 16.3821 20.3365C16.2352 20.7579 16.8489 21.3549 17.7527 21.6701C18.4076 21.8984 19.7575 21.92 20.4516 21.9145C20.6015 21.9133 20.6672 21.725 20.5505 21.6309Z" fill="#80CB8E"/>
<path d="M0.442049 13.6804C0.836502 14.6139 1.50902 15.2217 1.94416 15.0378C2.3793 14.854 2.4123 13.9481 2.01789 13.0146C1.73214 12.3382 0.79047 11.263 0.293267 10.7218C0.185877 10.6049 -0.00865451 10.6871 0.000298617 10.8456C0.0416892 11.5794 0.156299 13.0041 0.442049 13.6804Z" fill="#AAD880"/>
<path d="M2.01789 13.0146C1.73214 12.3382 0.79047 11.263 0.293267 10.7218C0.185877 10.6049 -0.00865451 10.6871 0.000298617 10.8456C0.0118299 11.05 0.0290799 11.3081 0.0541111 11.5886C0.53158 12.1428 1.08363 12.843 1.29086 13.3334C1.564 13.9799 1.63202 14.6129 1.50358 15.0023C1.66249 15.0765 1.81399 15.0928 1.94416 15.0378C2.37935 14.854 2.41235 13.9481 2.01789 13.0146Z" fill="#80CB8E"/>
<path d="M3.08384 15.756C3.05422 16.7128 3.39172 17.4996 3.83769 17.5135C4.28365 17.5273 4.66925 16.7628 4.69892 15.806C4.72039 15.1128 4.33625 13.8186 4.12292 13.158C4.07684 13.0153 3.87748 13.0092 3.82269 13.1487C3.56886 13.7948 3.10531 15.0628 3.08384 15.756Z" fill="#AAD880"/>
<path d="M20.9155 15.756C20.894 15.0628 20.4304 13.7948 20.1767 13.1487C20.1218 13.0092 19.9225 13.0154 19.8764 13.158C19.7996 13.3957 19.7269 13.6346 19.6583 13.8748C19.882 14.5111 20.1116 15.273 20.1265 15.756C20.1469 16.4144 19.9934 16.9923 19.7503 17.2933C19.8738 17.4373 20.0143 17.518 20.1616 17.5134C20.6076 17.4997 20.9451 16.7128 20.9155 15.756ZM4.12291 13.158C4.07684 13.0153 3.87748 13.0092 3.82263 13.1487C3.72813 13.3891 3.63791 13.6312 3.55202 13.8749C3.73826 14.5287 3.92505 15.3169 3.90991 15.806C3.89004 16.4469 3.71037 17.0011 3.45996 17.2933C3.57007 17.4297 3.6986 17.5092 3.83768 17.5135C4.28365 17.5273 4.66924 16.7628 4.69891 15.806C4.72038 15.1128 4.33624 13.8186 4.12291 13.158Z" fill="#80CB8E"/>
<path d="M5.78171 17.6465C5.4047 18.5263 5.43156 19.3821 5.84171 19.5579C6.25187 19.7336 6.88998 19.1628 7.26699 18.2828C7.54013 17.6454 7.65512 16.3002 7.69778 15.6074C7.70696 15.4577 7.52363 15.3792 7.42163 15.4891C6.94942 15.9979 6.05485 17.009 5.78171 17.6465Z" fill="#AAD880"/>
<path d="M7.42153 15.4891C7.23997 15.6846 7.06205 15.8834 6.88786 16.0854C6.82167 16.7506 6.70866 17.5231 6.52092 17.9613C6.26878 18.5497 5.89997 18.9995 5.56055 19.1806C5.61141 19.3654 5.70516 19.4994 5.84156 19.5579C6.25172 19.7336 6.88983 19.1627 7.26684 18.2828C7.53998 17.6454 7.65497 16.3002 7.69763 15.6074C7.70686 15.4577 7.52353 15.3792 7.42153 15.4891Z" fill="#80CB8E"/>
<path d="M3.37703 19.696C4.28092 19.3808 4.89461 18.7838 4.7477 18.3624C4.6008 17.9411 3.74894 17.855 2.84505 18.1702C2.1902 18.3985 1.11953 19.2209 0.579249 19.6567C0.462577 19.7509 0.528202 19.9392 0.678155 19.9404C1.37233 19.9459 2.72219 19.9243 3.37703 19.696ZM6.24794 21.6701C7.15183 21.3549 7.76551 20.7579 7.61861 20.3365C7.4717 19.9152 6.61984 19.8291 5.71595 20.1443C5.06111 20.3726 3.99044 21.195 3.45016 21.6308C3.33348 21.725 3.39911 21.9133 3.54906 21.9145C4.24319 21.92 5.59305 21.8984 6.24794 21.6701Z" fill="#AAD880"/>
<path d="M4.74772 18.3625C4.68758 18.19 4.50922 18.0738 4.2576 18.0182C4.11885 18.3855 3.59629 18.7938 2.90207 19.0358C2.46707 19.1875 1.7255 19.2478 1.0731 19.2697C0.906651 19.3964 0.742025 19.5254 0.57927 19.6568C0.462551 19.7509 0.528223 19.9392 0.678176 19.9404C1.3723 19.9459 2.72216 19.9243 3.37705 19.696C4.28094 19.3809 4.89463 18.7838 4.74772 18.3625ZM7.61858 20.3366C7.55844 20.1642 7.38008 20.048 7.12846 19.9924C6.98971 20.3596 6.46714 20.7679 5.77293 21.0099C5.33793 21.1616 4.59636 21.222 3.94396 21.2439C3.77751 21.3705 3.61288 21.4996 3.45013 21.6309C3.33346 21.725 3.39908 21.9134 3.54904 21.9146C4.24316 21.92 5.59302 21.8984 6.24791 21.6702C7.1518 21.355 7.76549 20.7579 7.61858 20.3366Z" fill="#80CB8E"/>
<path d="M11.8922 9.70494C13.3848 9.70494 14.5949 8.49489 14.5949 7.00222C14.5949 5.50955 13.3848 4.2995 11.8922 4.2995C10.3995 4.2995 9.18945 5.50955 9.18945 7.00222C9.18945 8.49489 10.3995 9.70494 11.8922 9.70494Z" fill="#ECBE6B"/>
<path d="M12.8984 4.49387C13.027 4.81376 13.093 5.15536 13.0928 5.50013C13.0928 6.99282 11.8827 8.20285 10.3901 8.20285C10.0343 8.20285 9.6949 8.13343 9.38379 8.00851C9.78298 9.00268 10.7553 9.70501 11.8922 9.70501C13.3849 9.70501 14.5949 8.49498 14.5949 7.00229C14.5949 5.86533 13.8926 4.8931 12.8984 4.49387Z" fill="#EAB14D"/>
<path d="M12.0897 5.80022L12.3727 6.37354C12.3853 6.39921 12.404 6.42141 12.4272 6.43823C12.4504 6.45505 12.4773 6.46599 12.5056 6.47011L13.1383 6.56203C13.2831 6.58307 13.3409 6.76101 13.2361 6.86315L12.7783 7.30945C12.7578 7.32942 12.7425 7.35408 12.7336 7.3813C12.7248 7.40852 12.7227 7.43748 12.7275 7.46568L12.8356 8.09587C12.8604 8.24006 12.709 8.35003 12.5795 8.28197L12.0136 7.98445C11.9883 7.97113 11.9601 7.96416 11.9314 7.96416C11.9028 7.96416 11.8746 7.97113 11.8493 7.98445L11.2834 8.28197C11.1539 8.35003 11.0025 8.24006 11.0272 8.09587L11.1353 7.46568C11.1402 7.43748 11.1381 7.40851 11.1293 7.38129C11.1204 7.35407 11.1051 7.32942 11.0846 7.30945L10.6267 6.86315C10.522 6.76101 10.5798 6.58307 10.7246 6.56203L11.3573 6.47011C11.3856 6.46599 11.4125 6.45505 11.4357 6.43823C11.4588 6.42141 11.4776 6.39921 11.4902 6.37354L11.7732 5.80022C11.8378 5.66901 12.0249 5.66901 12.0897 5.80022Z" fill="#FFE07D"/>
<path d="M13.2362 6.86317C13.3409 6.76103 13.2831 6.5831 13.1384 6.56205L12.9077 6.52853L12.2928 7.12788C12.2625 7.15746 12.2398 7.19397 12.2267 7.23428C12.2136 7.27459 12.2105 7.31748 12.2176 7.35925L12.3557 8.16428L12.5796 8.28194C12.7091 8.35 12.8604 8.24003 12.8357 8.09585L12.7276 7.46566C12.7227 7.43745 12.7248 7.40849 12.7337 7.38127C12.7425 7.35405 12.7578 7.32939 12.7784 7.30943L13.2362 6.86317Z" fill="#FFD064"/>
<path d="M15.5102 23.0452H8.49686C8.39047 23.0452 8.28843 23.0029 8.2132 22.9277C8.13797 22.8525 8.0957 22.7504 8.0957 22.6441V19.3283C8.0957 19.2219 8.13797 19.1199 8.2132 19.0446C8.28843 18.9694 8.39047 18.9271 8.49686 18.9271H15.5102C15.6165 18.9271 15.7186 18.9694 15.7938 19.0446C15.869 19.1199 15.9113 19.2219 15.9113 19.3283V22.6441C15.9113 22.6967 15.9009 22.7489 15.8808 22.7976C15.8606 22.8462 15.8311 22.8905 15.7938 22.9277C15.7566 22.965 15.7124 22.9945 15.6637 23.0147C15.615 23.0348 15.5628 23.0452 15.5102 23.0452Z" fill="#407093"/>
<path d="M15.5112 18.9271H14.7514V21.4852C14.7514 21.5377 14.7411 21.5897 14.721 21.6383C14.7009 21.6868 14.6714 21.7309 14.6343 21.7681C14.5971 21.8052 14.553 21.8347 14.5045 21.8548C14.4559 21.8749 14.4039 21.8853 14.3514 21.8853H8.0957V22.645C8.0957 22.7512 8.13785 22.8529 8.21288 22.9279C8.28791 23.003 8.38967 23.0451 8.49578 23.0451H15.5112C15.6173 23.0451 15.7191 23.003 15.7941 22.9279C15.8692 22.8529 15.9113 22.7512 15.9113 22.645V19.3271C15.9113 19.2746 15.901 19.2226 15.8809 19.174C15.8608 19.1255 15.8313 19.0814 15.7941 19.0442C15.757 19.0071 15.7129 18.9776 15.6643 18.9575C15.6158 18.9374 15.5638 18.9271 15.5112 18.9271Z" fill="#365E7D"/>
</g>
<defs>
<clipPath id="clip0_25922_576">
<rect width="24" height="24" fill="white"/>
</clipPath>
</defs>
</svg>
