<svg width="22" height="20" viewBox="0 0 22 20" fill="none" xmlns="http://www.w3.org/2000/svg">
<mask id="mask0_25922_564" style="mask-type:luminance" maskUnits="userSpaceOnUse" x="0" y="0" width="22" height="20">
<path d="M17.2852 6.78379H4.28516C3.73287 6.78379 3.28516 7.23151 3.28516 7.78379V17.7838C3.28516 18.3361 3.73287 18.7838 4.28516 18.7838H17.2852C17.8374 18.7838 18.2852 18.3361 18.2852 17.7838V7.78379C18.2852 7.23151 17.8374 6.78379 17.2852 6.78379Z" fill="white" stroke="white" stroke-width="1.56971"/>
<path d="M7.28711 11.7846C7.83939 11.7846 8.28711 11.3369 8.28711 10.7846C8.28711 10.2323 7.83939 9.78459 7.28711 9.78459C6.73482 9.78459 6.28711 10.2323 6.28711 10.7846C6.28711 11.3369 6.73482 11.7846 7.28711 11.7846Z" fill="black"/>
<path d="M14.2822 11.7846C14.8345 11.7846 15.2822 11.3369 15.2822 10.7846C15.2822 10.2323 14.8345 9.78459 14.2822 9.78459C13.7299 9.78459 13.2822 10.2323 13.2822 10.7846C13.2822 11.3369 13.7299 11.7846 14.2822 11.7846Z" fill="black"/>
<path d="M8.7832 13.7857C8.51799 13.7857 8.26363 13.891 8.0761 14.0786C7.88856 14.2661 7.7832 14.5204 7.7832 14.7857C7.7832 15.0509 7.88856 15.3052 8.0761 15.4928C8.26363 15.6803 8.51799 15.7857 8.7832 15.7857V13.7857ZM12.7832 15.7857C13.0484 15.7857 13.3028 15.6803 13.4903 15.4928C13.6778 15.3052 13.7832 15.0509 13.7832 14.7857C13.7832 14.5204 13.6778 14.2661 13.4903 14.0786C13.3028 13.891 13.0484 13.7857 12.7832 13.7857V15.7857ZM8.7832 15.7857H12.7832V13.7857H8.7832V15.7857Z" fill="black"/>
<path d="M10.7852 2.78539V6.78539M0.785156 10.7854V14.7854M20.7852 10.7854V14.7854" stroke="white" stroke-width="1.56971" stroke-linecap="round" stroke-linejoin="round"/>
<path d="M10.7832 2.78486C11.3355 2.78486 11.7832 2.33714 11.7832 1.78486C11.7832 1.23257 11.3355 0.784859 10.7832 0.784859C10.2309 0.784859 9.7832 1.23257 9.7832 1.78486C9.7832 2.33714 10.2309 2.78486 10.7832 2.78486Z" stroke="white" stroke-width="1.56971"/>
</mask>
<g mask="url(#mask0_25922_564)">
<path d="M-1.22363 -2.21327H22.7764V21.7867H-1.22363V-2.21327Z" fill="white"/>
</g>
</svg>
