<svg width="24" height="24" viewBox="0 0 24 24" fill="none" xmlns="http://www.w3.org/2000/svg">
<path d="M21.375 9.375H20.217C20.0704 8.91772 19.8858 8.47354 19.665 8.04712L20.4851 7.227C20.6244 7.08771 20.7349 6.92235 20.8103 6.74036C20.8857 6.55836 20.9245 6.3633 20.9245 6.16631C20.9245 5.96932 20.8857 5.77426 20.8103 5.59227C20.7349 5.41028 20.6244 5.24491 20.4851 5.10562L18.8944 3.51487C18.7551 3.37558 18.5897 3.26508 18.4077 3.1897C18.2257 3.11431 18.0307 3.07551 17.8337 3.07551C17.6367 3.07551 17.4416 3.11431 17.2596 3.1897C17.0777 3.26508 16.9123 3.37558 16.773 3.51487L15.9529 4.335C15.5265 4.11421 15.0823 3.92956 14.625 3.783V2.625C14.625 2.22718 14.467 1.84564 14.1857 1.56434C13.9044 1.28304 13.5228 1.125 13.125 1.125H10.875C10.4772 1.125 10.0956 1.28304 9.81434 1.56434C9.53304 1.84564 9.375 2.22718 9.375 2.625V3.783C8.91772 3.92956 8.47354 4.11421 8.04712 4.335L7.227 3.51487C7.08771 3.37558 6.92235 3.26508 6.74036 3.1897C6.55836 3.11431 6.3633 3.07551 6.16631 3.07551C5.96932 3.07551 5.77426 3.11431 5.59227 3.1897C5.41028 3.26508 5.24491 3.37558 5.10562 3.51487L3.51487 5.10562C3.37558 5.24491 3.26508 5.41028 3.1897 5.59227C3.11431 5.77426 3.07551 5.96932 3.07551 6.16631C3.07551 6.3633 3.11431 6.55836 3.1897 6.74036C3.26508 6.92235 3.37558 7.08771 3.51487 7.227L4.335 8.04712C4.11421 8.47354 3.92956 8.91772 3.783 9.375H2.625C2.22718 9.375 1.84564 9.53304 1.56434 9.81434C1.28304 10.0956 1.125 10.4772 1.125 10.875V13.125C1.125 13.5228 1.28304 13.9044 1.56434 14.1857C1.84564 14.467 2.22718 14.625 2.625 14.625H3.783C3.92956 15.0823 4.11421 15.5265 4.335 15.9529L3.51487 16.773C3.37558 16.9123 3.26508 17.0777 3.1897 17.2596C3.11431 17.4416 3.07551 17.6367 3.07551 17.8337C3.07551 18.0307 3.11431 18.2257 3.1897 18.4077C3.26508 18.5897 3.37558 18.7551 3.51487 18.8944L5.10562 20.4851C5.24491 20.6244 5.41028 20.7349 5.59227 20.8103C5.77426 20.8857 5.96932 20.9245 6.16631 20.9245C6.3633 20.9245 6.55836 20.8857 6.74036 20.8103C6.92235 20.7349 7.08771 20.6244 7.227 20.4851L8.04712 19.665C8.47354 19.8858 8.91772 20.0704 9.375 20.217V21.375C9.375 21.7728 9.53304 22.1544 9.81434 22.4357C10.0956 22.717 10.4772 22.875 10.875 22.875H13.125C13.5228 22.875 13.9044 22.717 14.1857 22.4357C14.467 22.1544 14.625 21.7728 14.625 21.375V20.217C15.0823 20.0704 15.5265 19.8858 15.9529 19.665L16.773 20.4851C16.9123 20.6244 17.0777 20.7349 17.2596 20.8103C17.4416 20.8857 17.6367 20.9245 17.8337 20.9245C18.0307 20.9245 18.2257 20.8857 18.4077 20.8103C18.5897 20.7349 18.7551 20.6244 18.8944 20.4851L20.4851 18.8944C20.6244 18.7551 20.7349 18.5897 20.8103 18.4077C20.8857 18.2257 20.9245 18.0307 20.9245 17.8337C20.9245 17.6367 20.8857 17.4416 20.8103 17.2596C20.7349 17.0777 20.6244 16.9123 20.4851 16.773L19.665 15.9529C19.8858 15.5265 20.0704 15.0823 20.217 14.625H21.375C21.7728 14.625 22.1544 14.467 22.4357 14.1857C22.717 13.9044 22.875 13.5228 22.875 13.125V10.875C22.875 10.4772 22.717 10.0956 22.4357 9.81434C22.1544 9.53304 21.7728 9.375 21.375 9.375ZM12 16.5C11.11 16.5 10.24 16.2361 9.49993 15.7416C8.75991 15.2471 8.18314 14.5443 7.84254 13.7221C7.50195 12.8998 7.41283 11.995 7.58647 11.1221C7.7601 10.2492 8.18868 9.44736 8.81802 8.81802C9.44736 8.18868 10.2492 7.7601 11.1221 7.58647C11.995 7.41283 12.8998 7.50195 13.7221 7.84254C14.5443 8.18314 15.2471 8.75991 15.7416 9.49993C16.2361 10.24 16.5 11.11 16.5 12C16.5 13.1935 16.0259 14.3381 15.182 15.182C14.3381 16.0259 13.1935 16.5 12 16.5Z" fill="#3392E6"/>
</svg>
