<svg width="20" height="20" viewBox="0 0 20 20" fill="none" xmlns="http://www.w3.org/2000/svg">
<g clip-path="url(#clip0_25940_2782)">
<path d="M3.49878 13.5313C3.55035 13.9065 2.98156 13.9935 2.92457 13.6153C2.78203 12.7989 2.26441 12.4794 1.16769 12.2091C0.799449 12.125 0.924136 11.5597 1.29523 11.6438C2.17144 11.8011 3.3823 12.3764 3.49878 13.5313Z" fill="#663014"/>
<path d="M4.95675 19.2773C2.52597 19.2784 1.08492 17.8888 1.20523 15.491L1.21093 15.4883L5.83511 13.9836L5.838 13.9865C7.44949 15.9028 7.39613 17.9323 4.95675 19.2773Z" fill="#FDB62F"/>
<path d="M10.8407 11.4974C9.46445 13.5515 6.53925 12.8943 5.26167 11.0727C4.39605 9.99286 4.32363 8.47837 5.08456 7.35884C5.5023 6.74415 6.31253 6.65677 6.87445 7.06075C7.16097 7.23321 7.38593 7.72481 7.55452 8.01134L7.86855 8.56391C8.16542 9.15192 8.81671 9.24501 9.39648 9.33563L9.96945 9.4411C10.906 9.6122 11.3722 10.7153 10.8407 11.4974Z" fill="#77A226"/>
<path d="M10.7353 11.638C9.32627 13.5195 6.5112 12.8499 5.26167 11.0727C4.30073 9.90084 4.24702 7.82252 5.56026 6.94427C4.91085 8.04306 5.01522 9.46658 5.84151 10.4929C6.93448 12.0497 9.23354 12.7571 10.7353 11.638Z" fill="#658920"/>
<path d="M9.25776 9.62397C8.18546 11.0242 6.27542 9.16514 7.55464 8.01135C7.8269 8.52436 8.14624 9.14077 8.78417 9.22229L9.39659 9.33584C9.36468 9.43817 9.31791 9.53525 9.25776 9.62397Z" fill="#5E801E"/>
<path d="M9.3957 9.33593C9.36419 9.43813 9.31725 9.53492 9.25652 9.62296C8.65352 10.4115 7.78387 10.168 7.37207 9.59683C7.8291 9.95683 8.57953 9.94187 9.01012 9.26343L9.3957 9.33593Z" fill="#4C6718"/>
<path d="M4.92471 5.91213C4.86624 5.9589 4.80528 6.00245 4.74209 6.0426C4.58316 6.15062 4.41184 6.2392 4.23182 6.30643C4.23032 6.30808 4.22826 6.30911 4.22604 6.30932C1.14362 7.34479 -0.165603 3.17674 1.37033 1.14881C1.40544 1.09971 1.44631 1.05499 1.49205 1.01561V1.01272C1.56198 0.944241 1.64099 0.885698 1.72686 0.838737C2.89627 0.403112 4.71748 1.35706 5.45811 2.70592C6.12487 3.99292 5.81186 5.20764 4.92471 5.91213Z" fill="#8C421C"/>
<path d="M5.39767 5.41348C5.04056 5.91348 4.56373 6.2154 3.99142 6.37891C1.04236 7.13997 -0.159201 3.01821 1.43162 1.07341C1.48268 1.01892 1.53792 0.968519 1.59685 0.922664C1.61623 0.905577 1.63766 0.890972 1.66064 0.879187C1.66353 0.876257 1.66935 0.873367 1.67236 0.870476C1.68164 0.866771 1.69041 0.861901 1.69846 0.855984C1.70745 0.849131 1.71717 0.843289 1.72744 0.838562V0.844382C1.56099 1.55501 1.04424 5.28403 2.85529 5.84251C3.45631 6.08743 4.67994 5.93602 5.39767 5.41348Z" fill="#733617"/>
<path d="M2.39159 2.75779C2.42754 2.82518 2.48859 2.8757 2.56151 2.8984C2.63444 2.92111 2.71337 2.91419 2.78122 2.87912C2.84908 2.84406 2.90039 2.78368 2.92405 2.71106C2.94771 2.63844 2.94182 2.55942 2.90765 2.49111C2.78155 2.24861 2.5687 1.83877 2.37046 1.45689C2.89038 1.74131 3.39647 2.12814 3.70784 2.65056C3.74629 2.71746 3.80973 2.76634 3.88422 2.78646C3.95871 2.80657 4.03813 2.79628 4.10503 2.75783C4.17192 2.71938 4.2208 2.65594 4.24092 2.58145C4.26104 2.50696 4.25074 2.42754 4.21229 2.36064C3.71651 1.50541 2.75108 0.969041 2.20893 0.725525C1.86472 0.740681 1.56987 0.867361 1.37108 1.14881C1.27542 1.72865 1.17686 2.8506 1.62913 3.75228C1.64626 3.78616 1.6699 3.81634 1.6987 3.84109C1.72749 3.86583 1.76088 3.88467 1.79695 3.89651C1.83303 3.90835 1.87108 3.91297 1.90894 3.91011C1.9468 3.90725 1.98372 3.89696 2.01761 3.87982C2.05149 3.86269 2.08166 3.83905 2.10641 3.81025C2.13116 3.78146 2.14999 3.74807 2.16183 3.712C2.17367 3.67592 2.1783 3.63787 2.17543 3.60001C2.17257 3.56215 2.16228 3.52523 2.14515 3.49135C1.88436 2.94689 1.83991 2.339 1.88229 1.77107L2.39159 2.75779ZM4.69354 3.92623C4.62087 3.95135 4.56098 4.00404 4.52681 4.07292C4.49264 4.14181 4.48692 4.22137 4.51089 4.29443C4.63159 4.67787 4.57136 5.10615 4.45557 5.4881C4.29151 5.17099 4.11253 4.82556 4.00932 4.62482C3.97392 4.55713 3.91321 4.50616 3.84042 4.48299C3.76763 4.45982 3.68863 4.46633 3.62061 4.50111C3.55259 4.53588 3.50105 4.59611 3.47721 4.66868C3.45336 4.74125 3.45913 4.82031 3.49327 4.88865C3.59643 5.08787 3.77491 5.43349 3.93886 5.75123C3.55503 5.62314 3.17175 5.4224 2.93663 5.10611C2.89071 5.04445 2.82228 5.00344 2.74625 4.99203C2.67022 4.98063 2.59276 4.99974 2.53077 5.04521C1.98573 5.64842 3.74147 6.32787 3.99194 6.37888C4.33279 6.29143 4.65106 6.13229 4.92554 5.91209C5.05616 5.67834 5.47999 3.78513 4.69354 3.92623Z" fill="#663014"/>
<path d="M1.55378 3.58415C1.1885 2.71731 1.28124 1.69387 1.37112 1.14884C1.44925 1.04848 1.6055 0.879304 1.72772 0.844421C1.72483 0.916921 1.42913 2.28243 1.55378 3.58415ZM5.0212 5.63094C4.9982 5.72524 4.96716 5.81738 4.92842 5.90637C4.92842 5.90927 4.9255 5.90927 4.9255 5.91216C4.8878 5.94118 4.85014 5.97016 4.81245 5.99626C4.75195 6.04032 4.68904 6.08097 4.62401 6.11802C4.61211 6.12678 4.5995 6.13455 4.58632 6.14122C4.39793 6.2429 4.19852 6.32267 3.99198 6.37895C3.81514 6.34415 3.25557 6.12384 2.85553 5.84259C3.37175 6.03684 4.27018 5.9961 5.0212 5.63094Z" fill="#4C240F"/>
<path d="M17.6091 12.731C17.3221 13.7892 18.1222 14.4792 17.4004 16.413C16.5553 18.6305 14.8672 19.6314 13.0082 19.1614C10.8957 18.5596 9.21205 16.7038 10.1438 14.2212C11.0252 11.87 12.5327 11.5598 12.8603 10.8611C13.1879 10.1595 12.9183 9.49845 13.6489 7.95611C14.313 6.54709 15.9045 5.74404 17.1308 5.99908C18.709 6.38232 19.6432 8.26552 19.1371 10.026C18.6209 11.6931 17.8961 11.6728 17.6091 12.731Z" fill="#E8A864"/>
<path d="M17.2149 6.02231C17.1599 6.03403 17.1018 6.0484 17.0468 6.06579C16.1422 6.3209 15.2609 6.99938 14.8085 7.95606C14.078 9.4984 14.3475 10.1594 14.0199 10.861C13.6923 11.5597 12.1847 11.8699 11.3034 14.2211C10.509 16.3404 11.6194 17.9988 13.2719 18.8192H13.2749C13.5623 18.9583 13.861 19.0727 14.1678 19.1613C14.2681 19.1872 14.3697 19.2075 14.4722 19.2222C14.2007 19.2717 13.9241 19.2862 13.6489 19.2656C13.6314 19.2651 13.6139 19.2632 13.5967 19.2598H13.5909C13.3942 19.2437 13.1993 19.2108 13.0083 19.1613C12.4863 19.0148 11.9911 18.7858 11.5413 18.4829C10.2064 17.5845 9.45087 16.0845 10.1439 14.2212C11.0253 11.87 12.5328 11.5598 12.8604 10.8611C13.1881 10.1595 12.9184 9.49844 13.649 7.9561C14.3315 6.5234 15.9562 5.7018 17.2149 6.02231Z" fill="#E49949"/>
<path d="M13.0081 19.1614C13.0178 19.1073 13.0442 19.0576 13.0835 19.0193C13.214 18.8831 13.3445 18.7468 13.4664 18.6047C13.5175 18.5476 13.5889 18.5129 13.6654 18.508C13.7419 18.5031 13.8172 18.5285 13.8751 18.5786C14.14 18.8239 13.8171 19.0832 13.6461 19.2686L13.0081 19.1614ZM15.1912 16.5956C15.1234 16.5593 15.044 16.5511 14.9703 16.5728C14.8965 16.5945 14.8342 16.6443 14.7969 16.7116C14.6144 17.0514 14.4111 17.3796 14.188 17.6944C14.1659 17.7254 14.1502 17.7605 14.1417 17.7976C14.1331 17.8347 14.132 17.8732 14.1383 17.9107C14.1447 17.9483 14.1583 17.9843 14.1786 18.0165C14.1988 18.0488 14.2252 18.0768 14.2562 18.0989C14.2872 18.121 14.3223 18.1367 14.3594 18.1452C14.3966 18.1538 14.435 18.1549 14.4726 18.1486C14.5101 18.1422 14.5461 18.1286 14.5783 18.1083C14.6106 18.0881 14.6386 18.0617 14.6607 18.0307C14.8966 17.6969 15.1125 17.3493 15.3072 16.9899C15.3433 16.9221 15.3514 16.8428 15.3297 16.7691C15.308 16.6953 15.2583 16.6331 15.1912 16.5956ZM16 14.3604C15.9258 14.3411 15.847 14.3519 15.7808 14.3904C15.7145 14.429 15.6662 14.4922 15.6464 14.5662C15.5493 14.9395 15.4293 15.3065 15.287 15.665C15.2725 15.7005 15.2651 15.7385 15.2654 15.7768C15.2657 15.8152 15.2735 15.8531 15.2885 15.8883C15.3035 15.9236 15.3254 15.9556 15.3528 15.9824C15.3802 16.0092 15.4127 16.0303 15.4483 16.0444C15.4839 16.0586 15.522 16.0656 15.5604 16.065C15.5987 16.0643 15.6365 16.0561 15.6717 16.0408C15.7068 16.0254 15.7386 16.0033 15.7651 15.9756C15.7916 15.9479 15.8124 15.9153 15.8262 15.8795C15.9767 15.4992 16.1035 15.11 16.206 14.7141C16.2253 14.6399 16.2145 14.561 16.1759 14.4948C16.1373 14.4285 16.0741 14.3802 16 14.3604ZM16.2639 11.9975C16.187 11.9956 16.1126 12.024 16.0566 12.0767C16.0007 12.1294 15.9679 12.202 15.9652 12.2788C15.9564 12.6649 15.9254 13.0501 15.8724 13.4327C15.8667 13.4704 15.8686 13.5089 15.8779 13.5459C15.8873 13.5829 15.9039 13.6177 15.9269 13.6482C15.9498 13.6787 15.9786 13.7043 16.0116 13.7236C16.0446 13.7428 16.081 13.7553 16.1189 13.7602C16.195 13.7709 16.2722 13.7509 16.3336 13.7047C16.395 13.6585 16.4356 13.5899 16.4465 13.5138C16.5029 13.1092 16.5358 12.7017 16.5451 12.2933C16.5463 12.2553 16.54 12.2175 16.5264 12.182C16.5129 12.1465 16.4925 12.1141 16.4663 12.0866C16.4402 12.0591 16.4088 12.037 16.374 12.0217C16.3393 12.0065 16.3018 11.9982 16.2639 11.9975ZM17.4032 9.90141C17.3313 9.87336 17.2512 9.87501 17.1805 9.906C17.1099 9.93699 17.0544 9.99479 17.0263 10.0667C16.886 10.4235 16.7213 10.7703 16.5335 11.1046C16.5148 11.1377 16.5029 11.1742 16.4983 11.2119C16.4938 11.2496 16.4967 11.2879 16.5069 11.3245C16.5171 11.3611 16.5345 11.3954 16.5579 11.4253C16.5814 11.4552 16.6105 11.4802 16.6436 11.4989C16.6768 11.5175 16.7132 11.5295 16.751 11.534C16.7887 11.5386 16.827 11.5357 16.8636 11.5254C16.9002 11.5152 16.9344 11.4979 16.9643 11.4744C16.9943 11.451 17.0193 11.4218 17.0379 11.3887C17.2394 11.0309 17.4167 10.6599 17.5685 10.2783C17.5962 10.2064 17.5943 10.1265 17.5634 10.0559C17.5324 9.98529 17.4749 9.92978 17.4032 9.90141ZM17.7511 7.57051C17.6731 7.57335 17.5993 7.60638 17.5452 7.66264C17.4911 7.71889 17.461 7.79396 17.4613 7.872C17.4602 8.24188 17.4234 8.6108 17.3511 8.97356C17.3437 9.01087 17.3437 9.04928 17.3511 9.0866C17.3585 9.12392 17.3732 9.15941 17.3943 9.19105C17.4154 9.2227 17.4426 9.24987 17.4742 9.27102C17.5058 9.29217 17.5413 9.30688 17.5786 9.31432C17.6159 9.32176 17.6543 9.32178 17.6916 9.31437C17.729 9.30696 17.7645 9.29228 17.7961 9.27115C17.8277 9.25003 17.8549 9.22288 17.8761 9.19126C17.8972 9.15963 17.9119 9.12415 17.9194 9.08684C18.001 8.67926 18.0418 8.26455 18.0411 7.84887C18.0413 7.81128 18.0338 7.77404 18.0192 7.73941C18.0045 7.70479 17.983 7.67352 17.9558 7.64748C17.9287 7.62145 17.8966 7.6012 17.8614 7.58797C17.8262 7.57473 17.7887 7.5688 17.7511 7.57051ZM17.6844 6.94426C17.467 6.99207 17.3277 6.79938 17.3133 6.60215C17.2786 6.62829 17.2496 6.65727 17.2177 6.68336C17.1595 6.73417 17.0836 6.75994 17.0065 6.75505C16.9294 6.75017 16.8573 6.71502 16.806 6.65727C16.5778 6.37668 16.9357 6.16118 17.1307 5.99915C17.3781 6.04725 17.6142 6.14164 17.8265 6.27735C17.8944 6.50911 18.011 6.86618 17.6844 6.94426ZM11.9905 15.32C11.9163 15.3007 11.8375 15.3115 11.7712 15.3501C11.705 15.3886 11.6567 15.4518 11.6368 15.5258C11.5331 15.9177 11.4537 16.3156 11.399 16.7172C11.3935 16.7549 11.3955 16.7934 11.405 16.8303C11.4144 16.8672 11.431 16.9019 11.454 16.9324C11.4769 16.9629 11.5056 16.9885 11.5385 17.0078C11.5713 17.0271 11.6077 17.0397 11.6455 17.0448C11.7219 17.0549 11.7993 17.0344 11.8606 16.9877C11.922 16.941 11.9624 16.8719 11.9731 16.7955C12.0243 16.4182 12.0988 16.0445 12.1963 15.6764C12.2064 15.6395 12.209 15.6009 12.2041 15.563C12.1991 15.525 12.1868 15.4885 12.1676 15.4553C12.1485 15.4222 12.123 15.3932 12.0926 15.3699C12.0622 15.3467 12.0275 15.3297 11.9905 15.32ZM12.9704 13.1775C12.9375 13.1581 12.9011 13.1455 12.8633 13.1403C12.8254 13.135 12.787 13.1373 12.7501 13.147C12.7131 13.1568 12.6785 13.1737 12.6482 13.1968C12.6178 13.2199 12.5923 13.2489 12.5732 13.2819C12.3677 13.6324 12.1866 13.9966 12.0311 14.372C12.0164 14.407 12.0088 14.4446 12.0087 14.4825C12.0085 14.5205 12.0159 14.5581 12.0303 14.5932C12.0447 14.6284 12.0659 14.6603 12.0926 14.6873C12.1194 14.7142 12.1512 14.7356 12.1862 14.7503C12.2212 14.7649 12.2588 14.7725 12.2968 14.7727C12.3347 14.7728 12.3724 14.7655 12.4075 14.7511C12.4426 14.7367 12.4746 14.7155 12.5015 14.6887C12.5285 14.662 12.5499 14.6302 12.5645 14.5952C12.7112 14.2438 12.8817 13.9028 13.0748 13.5747C13.094 13.5417 13.1066 13.5053 13.1118 13.4675C13.117 13.4297 13.1146 13.3913 13.1049 13.3544C13.0952 13.3175 13.0784 13.2829 13.0553 13.2525C13.0322 13.2222 13.0033 13.1967 12.9704 13.1775ZM14.2605 11.2466C14.1852 11.2305 14.1065 11.245 14.0418 11.2868C13.9771 11.3287 13.9317 11.3945 13.9155 11.4699L13.9068 11.5134C13.711 11.7995 12.9222 12.3589 13.3096 12.6817C13.3396 12.705 13.374 12.7221 13.4107 12.7321C13.4474 12.7421 13.4856 12.7447 13.5234 12.7398C13.5611 12.735 13.5974 12.7228 13.6304 12.7038C13.6634 12.6849 13.6923 12.6597 13.7155 12.6295C13.9184 12.3657 14.1446 12.1048 14.3823 11.8526C14.5331 11.6686 14.5464 11.3121 14.2605 11.2466ZM15.055 9.0259C14.985 8.99367 14.9051 8.99052 14.8328 9.01715C14.7606 9.04378 14.7018 9.09801 14.6694 9.16793C14.5004 9.53681 14.3533 9.91533 14.2288 10.3015C14.1137 10.6609 14.6628 10.8437 14.7796 10.4784C14.8981 10.115 15.0375 9.75878 15.197 9.41145C15.2288 9.34142 15.2317 9.26171 15.2051 9.18956C15.1785 9.11741 15.1246 9.05862 15.055 9.0259ZM16.3857 7.08344C16.3568 7.05863 16.3233 7.03977 16.2871 7.02794C16.2509 7.01611 16.2127 7.01154 16.1747 7.0145C16.1367 7.01746 16.0997 7.02789 16.0658 7.04519C16.0318 7.06249 16.0016 7.08632 15.9769 7.11532C15.7116 7.42544 15.4685 7.75387 15.2493 8.09817C15.2089 8.16335 15.1957 8.24175 15.2125 8.31655C15.2293 8.39134 15.2748 8.45657 15.3391 8.49825C15.3712 8.51904 15.407 8.53322 15.4446 8.53995C15.4822 8.54669 15.5208 8.54585 15.5581 8.53748C15.5954 8.52911 15.6306 8.51339 15.6617 8.49122C15.6928 8.46905 15.7192 8.4409 15.7392 8.4084C15.9436 8.08749 16.1703 7.78134 16.4175 7.49219C16.4662 7.43321 16.4901 7.35762 16.4842 7.28137C16.4782 7.20511 16.4429 7.13415 16.3856 7.08344H16.3857ZM11.889 18.512C11.8916 18.5693 11.8764 18.626 11.8455 18.6743C11.6578 18.567 11.4777 18.4469 11.3064 18.3149C11.3056 18.0606 11.2369 17.6645 11.6021 17.6509C12.0311 17.6907 11.8423 18.2182 11.889 18.512Z" fill="#E08A2E"/>
<path d="M13.846 19.057C13.7822 19.1324 13.7068 19.202 13.6488 19.2657L13.6459 19.2686L13.5966 19.26H13.5908L13.0081 19.1614C13.0178 19.1073 13.0442 19.0576 13.0835 19.0193C13.1473 18.9527 13.2111 18.8859 13.272 18.8193H13.2749C13.4601 18.9104 13.6508 18.9898 13.846 19.057ZM17.2148 6.02235C17.1597 6.03407 17.1017 6.04844 17.0466 6.06583C17.0756 6.04262 17.1046 6.01942 17.1307 5.99915C17.1592 6.00514 17.1873 6.01289 17.2148 6.02235ZM11.889 18.512C11.8916 18.5693 11.8764 18.626 11.8455 18.6743C11.6578 18.567 11.4777 18.4469 11.3064 18.3149C11.3056 18.0606 11.2369 17.6645 11.6021 17.6509C12.0311 17.6907 11.8423 18.2182 11.889 18.512Z" fill="#D07B1F"/>
<path d="M13.7495 1.17406C15.3697 2.98656 14.2784 5.75218 12.1824 6.60765C10.973 7.19124 9.51443 6.8757 8.60618 5.83339C8.10743 5.26113 8.19294 4.4339 8.69505 3.9791C8.93947 3.71671 10.435 3.35281 10.3347 3.37617C11.1246 3.19257 11.6202 1.48464 11.6084 1.51367C11.9665 0.626869 13.1149 0.44597 13.7495 1.17406Z" fill="#E8A864"/>
<path d="M13.689 5.47443C13.2904 5.97364 12.7717 6.36364 12.1815 6.60799C10.9725 7.19072 9.51423 6.87471 8.60677 5.83392C8.10813 5.25971 8.1922 4.43361 8.69376 3.97845C8.74306 3.92627 8.8445 3.86826 8.97501 3.81049C8.86664 4.04578 8.82894 4.30748 8.86652 4.5638C8.90409 4.82011 9.01531 5.05999 9.18665 5.25428C10.0941 6.29506 11.5524 6.61107 12.7613 6.02834C13.0966 5.89128 13.4093 5.70455 13.689 5.47443Z" fill="#E49949"/>
<path d="M13.4281 4.40792C13.3849 4.40783 13.3422 4.3981 13.3032 4.37945C13.2643 4.36079 13.23 4.33369 13.2028 4.3001C13.1756 4.26651 13.1563 4.22728 13.1462 4.18527C13.1361 4.14326 13.1355 4.09953 13.1444 4.05726C13.2859 3.39589 13.1933 2.84945 12.861 2.38714C12.6413 2.07905 13.109 1.74124 13.3321 2.04882C13.759 2.6432 13.8868 3.3598 13.711 4.1787C13.6971 4.24349 13.6615 4.30157 13.61 4.34328C13.5585 4.38499 13.4943 4.4078 13.4281 4.40792Z" fill="#ECBE8E"/>
<path d="M4.59007 18.6069C3.24069 18.3739 2.31585 17.6928 1.95335 16.411C1.87522 16.1403 2.30491 15.9888 2.41932 16.2481C2.77053 16.9512 3.35128 17.264 4.04522 17.5107C4.17026 17.5547 4.30659 17.5545 4.43151 17.5102C4.55644 17.4659 4.66242 17.3802 4.73182 17.2672C5.13534 16.6078 5.44276 15.9313 5.27893 15.091C5.63706 14.9739 5.9547 14.7578 6.19507 14.4676C6.0878 14.3082 5.96893 14.1487 5.83846 13.9864C5.56014 14.3778 5.15139 14.6329 4.48456 14.63C4.94843 15.407 4.74261 16.1897 4.23815 16.9698C3.41784 16.7118 2.80303 16.2305 2.72479 15.1607C2.44104 15.4445 2.13292 15.5692 1.80499 15.5793C1.79718 15.4887 1.78917 15.398 1.78546 15.3028L1.21315 15.4888L1.21147 15.4883L1.20569 15.4912C1.1369 17.9958 2.45272 19.2041 4.95721 19.2775C5.56604 18.9209 6.0328 18.5382 6.36347 18.1265C6.12022 18.3301 5.83569 18.4785 5.52951 18.5614C5.22334 18.6444 4.90281 18.6599 4.59007 18.6069Z" fill="#FDAB11"/>
<path d="M3.49879 13.5312C3.50454 13.5725 3.50143 13.6145 3.48968 13.6544C3.47793 13.6943 3.45781 13.7313 3.43065 13.7628C3.40349 13.7944 3.36992 13.8198 3.33218 13.8373C3.29443 13.8549 3.25338 13.8642 3.21176 13.8646C2.87973 13.8668 2.93078 13.4564 2.82617 13.2471C3.0065 13.1779 3.19156 13.1217 3.37992 13.079C3.43788 13.2243 3.4778 13.3762 3.49879 13.5312Z" fill="#4C240F"/>
<path d="M6.15187 13.3601C5.84754 14.1892 5.37816 14.6339 4.48484 14.63C4.94871 15.407 4.74289 16.1898 4.23844 16.9698C3.41812 16.7118 2.80332 16.2305 2.72508 15.1607C2.14617 15.7396 1.46547 15.6565 0.727539 15.2941C2.17305 13.5907 4.07676 13.1172 6.15187 13.3601Z" fill="#8C421C"/>
<path d="M4.5334 16.4297C4.45152 16.6182 4.3528 16.7989 4.23844 16.9696C3.41812 16.7116 2.80332 16.2303 2.72508 15.1605C2.1452 15.7403 1.4668 15.6562 0.727539 15.2939C0.878243 15.1204 1.03893 14.9558 1.20879 14.801C1.87562 15.0851 2.48441 15.1112 3.01496 14.5807C3.09324 15.636 3.72742 16.1687 4.5334 16.4297Z" fill="#733617"/>
</g>
<defs>
<clipPath id="clip0_25940_2782">
<rect width="20" height="20" fill="white"/>
</clipPath>
</defs>
</svg>
