<svg width="16" height="16" viewBox="0 0 16 16" fill="none" xmlns="http://www.w3.org/2000/svg">
<path d="M14.6431 7.17811L11.8306 9.60499L12.6875 13.2344C12.7347 13.4314 12.7226 13.638 12.6525 13.8281C12.5824 14.0182 12.4575 14.1833 12.2937 14.3025C12.1298 14.4216 11.9343 14.4896 11.7319 14.4977C11.5294 14.5058 11.3291 14.4538 11.1562 14.3481L7.99996 12.4056L4.84184 14.3481C4.66898 14.4532 4.4689 14.5047 4.2668 14.4963C4.06469 14.4879 3.8696 14.4198 3.70609 14.3008C3.54257 14.1817 3.41795 14.0169 3.3479 13.8271C3.27786 13.6374 3.26553 13.4311 3.31246 13.2344L4.17246 9.60499L1.35996 7.17811C1.20702 7.04593 1.09641 6.87162 1.04195 6.67696C0.987486 6.48229 0.99158 6.27589 1.05372 6.08353C1.11586 5.89118 1.23329 5.72139 1.39135 5.59538C1.54941 5.46937 1.7411 5.39271 1.94246 5.37499L5.62996 5.07749L7.05246 1.63499C7.12946 1.44738 7.26051 1.2869 7.42894 1.17395C7.59738 1.06101 7.7956 1.0007 7.9984 1.0007C8.2012 1.0007 8.39942 1.06101 8.56785 1.17395C8.73629 1.2869 8.86734 1.44738 8.94434 1.63499L10.3662 5.07749L14.0537 5.37499C14.2555 5.39205 14.4477 5.46828 14.6064 5.59412C14.765 5.71996 14.883 5.88981 14.9455 6.0824C15.008 6.27499 15.0123 6.48175 14.9579 6.67677C14.9034 6.87179 14.7926 7.04641 14.6393 7.17874L14.6431 7.17811Z" fill="#FF9900"/>
</svg>
