<svg width="32" height="32" viewBox="0 0 32 32" fill="none" xmlns="http://www.w3.org/2000/svg">
<g clip-path="url(#clip0_25924_1158)">
<path d="M3.76281 20.8153L0.0353737 24.5427C-0.0273138 24.6025 -0.00387629 24.7106 0.0834987 24.7365L4.57275 26.1002C4.88595 26.1952 5.17089 26.366 5.40233 26.5974C5.63376 26.8288 5.80455 27.1138 5.89956 27.427L7.26325 31.9162C7.28912 32.0036 7.39725 32.0271 7.457 31.9644L12.4444 26.977C8.75431 26.0604 5.70787 23.7599 3.76281 20.8153ZM31.9646 24.5427L28.2372 20.8153C26.306 23.7388 23.269 26.0546 19.5555 26.9771L24.5429 31.9644C24.6026 32.0271 24.7107 32.0037 24.7366 31.9163L26.1003 27.4271C26.1953 27.1138 26.3661 26.8289 26.5976 26.5975C26.829 26.366 27.114 26.1952 27.4272 26.1002L31.9164 24.7366C32.0041 24.7105 32.0272 24.6023 31.9646 24.5427Z" fill="#919EAB"/>
<path d="M28.7675 12.7667C28.7675 5.72756 23.0408 0.000183105 16.0009 0.000183105C8.96112 0.000183105 3.23438 5.72756 3.23438 12.7667C3.23438 19.1314 7.92056 24.4362 14.0391 25.3833C21.7896 26.5889 28.7675 20.5563 28.7675 12.7667ZM6.04931 15.8779C3.94388 9.14662 9.01225 2.342 16.0009 2.342C23.808 2.342 28.9682 10.7326 25.1626 17.7397C20.7692 25.7992 8.81444 24.6732 6.04931 15.8779Z" fill="#919EAB"/>
<path d="M15.9997 4.21692C11.2854 4.21692 7.44922 8.05248 7.44922 12.7667C7.44922 19.7025 15.3128 23.7472 20.9439 19.7384C22.1504 18.882 23.1329 17.7113 23.7651 16.3435C26.392 10.6881 22.2043 4.21692 15.9997 4.21692ZM20.3152 11.5674L14.984 15.5242C14.6088 15.8039 14.0751 15.7664 13.7415 15.413C11.3555 12.8701 11.5463 13.0732 11.4891 13.013C11.0882 12.5861 11.1718 11.8955 11.6735 11.5781C11.6741 11.5775 11.6747 11.5769 11.6753 11.5769C12.0478 11.3431 12.5447 11.3975 12.8566 11.73C13.3612 12.2677 13.0215 11.9058 14.5372 13.5205C14.7005 13.3987 16.6229 11.9726 19.2677 10.01C19.6833 9.70123 20.2708 9.78811 20.5788 10.2037C20.8612 10.5827 20.8602 11.1635 20.3152 11.5674Z" fill="#919EAB"/>
</g>
<defs>
<clipPath id="clip0_25924_1158">
<rect width="32" height="32" fill="white"/>
</clipPath>
</defs>
</svg>
