<svg width="20" height="20" viewBox="0 0 20 20" fill="none" xmlns="http://www.w3.org/2000/svg">
<g clip-path="url(#clip0_25951_3795)">
<path d="M10 19.375C15.1777 19.375 19.375 15.1777 19.375 10C19.375 4.82233 15.1777 0.625 10 0.625C4.82233 0.625 0.625 4.82233 0.625 10C0.625 15.1777 4.82233 19.375 10 19.375Z" fill="#FF5722"/>
<path fill-rule="evenodd" clip-rule="evenodd" d="M15.0572 5.84375C15.0049 5.79138 14.9427 5.74983 14.8743 5.7215C14.8059 5.69316 14.7326 5.6786 14.6586 5.67863C14.5845 5.67856 14.5112 5.69311 14.4428 5.72145C14.3744 5.74978 14.3122 5.79135 14.2599 5.84375C14.2075 5.89609 14.1659 5.95825 14.1376 6.02669C14.1092 6.09512 14.0947 6.16847 14.0947 6.24254C14.0947 6.39824 14.158 6.53922 14.2599 6.64106C14.3122 6.6935 14.3743 6.73508 14.4428 6.76341C14.5112 6.79175 14.5845 6.80626 14.6586 6.80613C14.8141 6.80613 14.9551 6.74317 15.0572 6.64106C15.1096 6.58877 15.1511 6.52665 15.1795 6.45826C15.2078 6.38987 15.2223 6.31656 15.2222 6.24254C15.2222 6.0868 15.159 5.94586 15.0572 5.84375ZM10.3991 5.84375C10.3467 5.79135 10.2845 5.7498 10.2161 5.72147C10.1477 5.69313 10.0743 5.67858 10.0002 5.67863C9.92621 5.67856 9.8529 5.69311 9.78451 5.72144C9.71612 5.74978 9.654 5.79134 9.60172 5.84375C9.54923 5.89604 9.5076 5.9582 9.47921 6.02663C9.45083 6.09507 9.43625 6.16845 9.43633 6.24254C9.43633 6.39824 9.49957 6.53922 9.60172 6.64106C9.65397 6.6935 9.71608 6.73509 9.78448 6.76342C9.85288 6.79176 9.9262 6.80627 10.0002 6.80613C10.0743 6.80627 10.1476 6.79176 10.216 6.76343C10.2845 6.73509 10.3466 6.69351 10.3989 6.64106C10.4513 6.58881 10.4929 6.5267 10.5212 6.4583C10.5496 6.3899 10.5641 6.31657 10.5639 6.24254C10.5639 6.0868 10.501 5.94586 10.3991 5.84375ZM5.7407 5.84375C5.68838 5.79135 5.62623 5.74978 5.55781 5.72145C5.48939 5.69311 5.41605 5.67856 5.34199 5.67863C5.18648 5.67863 5.04551 5.74188 4.94336 5.84375C4.89099 5.89611 4.84945 5.95828 4.82113 6.02671C4.79281 6.09514 4.77826 6.16848 4.77832 6.24254C4.77832 6.39824 4.84156 6.53922 4.94336 6.64106C4.99566 6.69347 5.05779 6.73504 5.1262 6.76337C5.19461 6.7917 5.26795 6.80623 5.34199 6.80613C5.49773 6.80613 5.63867 6.74317 5.7407 6.64106C5.79317 6.58882 5.83478 6.52671 5.86312 6.45831C5.89147 6.38991 5.90599 6.31658 5.90586 6.24254C5.90586 6.0868 5.84285 5.94586 5.7407 5.84375ZM9.61488 7.30051L8.3475 9.14832V9.14809C8.32433 9.18208 8.29396 9.21055 8.25854 9.23147C8.22312 9.2524 8.18353 9.26527 8.14258 9.26916C8.10163 9.27305 8.06032 9.26788 8.02159 9.254C7.98287 9.24012 7.94768 9.21789 7.91852 9.18887L5.91969 7.20895C5.85651 7.24669 5.78981 7.27822 5.72055 7.30309L6.18918 12.4066H13.8114L14.2799 7.30309C14.2107 7.27821 14.144 7.24668 14.0809 7.20895L12.0903 9.18063C12.0763 9.19586 12.0602 9.20969 12.0427 9.22188C11.9812 9.26375 11.9057 9.27952 11.8325 9.26573C11.7594 9.25194 11.6948 9.20972 11.6528 9.14832L10.3857 7.30051C10.2622 7.34544 10.1317 7.36836 10.0002 7.36821C9.86881 7.36835 9.73839 7.34543 9.61488 7.30051ZM6.05504 12.9686C6.03673 12.9693 6.0194 12.977 6.00662 12.9901C5.99385 13.0032 5.98662 13.0208 5.98645 13.0391V14.2509C5.98665 14.2696 5.99414 14.2874 6.00731 14.3005C6.02048 14.3137 6.03829 14.3212 6.05691 14.3214H13.9437C13.9629 14.3214 13.9804 14.3134 13.9934 14.3006C14.0062 14.2875 14.0142 14.2699 14.0142 14.2509V13.0391C14.014 13.0207 14.0068 13.0032 13.994 12.9901C13.9812 12.9769 13.9639 12.9692 13.9456 12.9686H6.05504V12.9686Z" fill="white"/>
</g>
<defs>
<clipPath id="clip0_25951_3795">
<rect width="20" height="20" fill="white"/>
</clipPath>
</defs>
</svg>
