<svg width="16" height="16" viewBox="0 0 16 16" fill="none" xmlns="http://www.w3.org/2000/svg">
<g clip-path="url(#clip0_25922_836)">
<path d="M3.16581 0H12.8342C14.5826 0 16 1.41737 16 3.16581V12.8342C16 14.5826 14.5826 16 12.8342 16H3.16581C1.41737 16 0 14.5826 0 12.8342V3.16581C0 1.41737 1.41737 0 3.16581 0Z" fill="#A0CAFE"/>
<path d="M12.5473 6.75449C11.5636 6.50074 10.5368 7.0474 10.1968 8.00474C10.0645 8.37724 10.0504 8.76105 10.1339 9.11674C10.4314 10.3841 10.3867 11.7078 9.99557 12.9495C9.77538 13.6486 10.1636 14.3938 10.8627 14.614C11.5618 14.8342 12.307 14.446 12.5272 13.7469L13.9403 9.26049C14.2786 8.18652 13.6518 7.03943 12.5473 6.75449ZM3.45251 6.75449C4.43623 6.50074 5.46304 7.0474 5.80301 8.00474C5.93529 8.37724 5.94942 8.76105 5.86592 9.11674C5.56842 10.3841 5.61317 11.7078 6.00426 12.9495C6.22445 13.6486 5.83623 14.3938 5.13714 14.614C4.43804 14.8342 3.69279 14.446 3.4726 13.7469L2.05951 9.26046C1.72126 8.18652 2.34801 7.03943 3.45251 6.75449ZM12.3953 2.91843C11.9744 3.6844 11.5531 4.45005 11.1322 5.21605C10.9893 5.47583 10.6716 5.58652 10.4001 5.46705C9.71911 5.16673 8.98776 4.997 8.2441 4.96671C8.0814 4.95987 7.91849 4.95987 7.75579 4.96671C7.01213 4.997 6.28078 5.16672 5.59979 5.46705C5.32829 5.58652 5.01057 5.47583 4.86767 5.21605C4.44676 4.45008 4.02551 3.68443 3.6046 2.91843C3.44542 2.62902 3.56132 2.26312 3.86013 2.12218C6.48101 0.887741 9.51889 0.887741 12.1398 2.12218C12.4386 2.26315 12.5544 2.62902 12.3953 2.91843Z" fill="#E6F1FF"/>
<path d="M8.24417 2.49849V4.96668C8.08147 4.95983 7.91856 4.95983 7.75586 4.96668V2.49849C7.75586 2.36371 7.86523 2.25433 8.00002 2.25433C8.1348 2.25433 8.24417 2.36371 8.24417 2.49849Z" fill="#E7387F"/>
<path d="M6.23772 5.22842C6.02061 5.29557 5.80758 5.37525 5.59969 5.46704C5.32819 5.58651 5.01047 5.47583 4.86757 5.21604C4.44666 4.45008 4.02541 3.68442 3.6045 2.91842C3.44532 2.62901 3.56122 2.26311 3.86004 2.12217C4.06775 2.02418 4.27894 1.93374 4.49319 1.85101C4.49339 1.98608 4.52777 2.1189 4.59313 2.23711C5.14135 3.2342 5.68922 4.23129 6.23772 5.22842ZM11.8311 14.5468C11.6533 14.6316 11.4589 14.6756 11.262 14.6757C11.1265 14.6757 10.9918 14.6548 10.8626 14.6139C10.2962 14.4355 9.93385 13.9124 9.93385 13.3482C9.93385 13.2164 9.95369 13.0819 9.99538 12.9494C10.3867 11.7078 10.4313 10.3842 10.1337 9.11658C10.0504 8.76108 10.0644 8.37729 10.1969 8.00489C10.5367 7.04748 11.5635 6.50061 12.5472 6.75451C12.5746 6.76167 12.6016 6.76917 12.6286 6.77729C12.0453 6.95408 11.5524 7.39679 11.3362 8.00489C11.2037 8.37729 11.1897 8.76111 11.2731 9.11658C11.5706 10.3842 11.526 11.7078 11.1347 12.9494C11.094 13.0784 11.0733 13.2129 11.0732 13.3482C11.0732 13.8535 11.3636 14.3255 11.8311 14.5468ZM5.308 14.5468C5.25268 14.5732 5.19557 14.5956 5.1371 14.6139C5.00791 14.6548 4.87319 14.6757 4.73766 14.6757C4.17385 14.6757 3.65103 14.3131 3.47263 13.747L2.0595 9.26048C1.72128 8.18654 2.34794 7.03936 3.45247 6.75451C3.81122 6.66173 4.17582 6.67573 4.51047 6.77729C3.45672 7.09633 2.86913 8.21323 3.19891 9.26048L4.61207 13.747C4.72725 14.1129 4.98669 14.3938 5.308 14.5468Z" fill="#D9E9FF"/>
<path d="M15.5566 14.4505C15.0048 15.3782 13.9921 16 12.8342 16H3.16581C1.41737 16 0 14.5826 0 12.8342V3.1658C0 1.99386 0.63675 0.971047 1.58275 0.423828C1.30116 0.896828 1.13937 1.44958 1.13937 2.04011V11.7085C1.13937 13.4569 2.55675 14.8743 4.30519 14.8743H13.9736C14.5504 14.8743 15.0911 14.72 15.5566 14.4505Z" fill="#81B8FD"/>
</g>
<defs>
<clipPath id="clip0_25922_836">
<rect width="16" height="16" fill="white"/>
</clipPath>
</defs>
</svg>
