<svg width="16" height="16" viewBox="0 0 16 16" fill="none" xmlns="http://www.w3.org/2000/svg">
<path fill-rule="evenodd" clip-rule="evenodd" d="M2.80176 3.51093H4.10736V4.83813H2.80176V3.51093ZM13.3022 3.51093H14.7486V4.83813H13.3022V3.51093Z" fill="#60AFE1"/>
<path fill-rule="evenodd" clip-rule="evenodd" d="M5.53027 3.74713H12.5072V4.59798H5.53027V3.74713Z" fill="#3F86B2"/>
<path fill-rule="evenodd" clip-rule="evenodd" d="M3.30469 2.77008H5.71109V5.57757H3.30469V2.77008ZM11.6974 2.77008H14.1037V5.57757H11.6974V2.77008Z" fill="#3F86B2"/>
<path fill-rule="evenodd" clip-rule="evenodd" d="M4.53711 1.96143H5.81199V6.37301H4.53711V1.96143ZM11.5979 1.96143H12.8728V6.37301H11.5979V1.96143Z" fill="#60AFE1"/>
<path fill-rule="evenodd" clip-rule="evenodd" d="M9.77494 6.45632C10.1915 8.16064 10.6642 10.0674 10.5444 11.4447C10.4052 13.043 10.2622 12.9104 8.69267 13.4701C6.37808 14.2965 3.49488 14.1419 1.25098 13.5173L1.30829 10.0792C1.98899 9.57395 2.83981 9.62992 3.86093 10.2486C4.60819 9.7905 5.84499 10.0129 7.37488 10.6876C6.95594 9.74189 7.2376 8.31597 7.54736 6.37008C7.0913 5.96793 6.96784 5.21814 6.97005 4.59801C7.05357 4.58771 7.21603 4.5759 7.28144 4.54057V3.77312C7.25507 3.76227 7.22776 3.75388 7.19984 3.74806L7.1969 3.57571C7.18291 2.80531 7.52685 2.68745 7.77859 2.77584C7.90115 2.82003 7.98704 2.90694 8.03373 3.00563C8.04464 3.02918 8.07853 3.02771 8.08778 3.00269C8.14816 2.84211 8.33392 2.72281 8.51008 2.72281C8.67373 2.72281 8.81382 2.82297 8.87142 2.96736C8.88099 2.99091 8.91459 2.99238 8.92547 2.96883C9.02179 2.75523 9.3584 2.64477 9.57066 2.77293C9.6608 2.82742 9.72768 2.96294 9.75082 3.08521C9.75552 3.11174 9.79117 3.11763 9.80486 3.09405C10.0378 2.69485 10.5113 2.91433 10.5411 3.23693C10.5411 3.23693 10.8413 3.99702 10.5776 5.56729C10.5218 5.90016 10.3372 6.1352 9.77494 6.45632Z" fill="#EEA870"/>
</svg>
