<svg width="24" height="25" viewBox="0 0 24 25" fill="none" xmlns="http://www.w3.org/2000/svg">
<path d="M17.1797 24C19.5797 24 20.1797 22.65 20.1797 21V15C20.1797 13.35 19.5797 12 17.1797 12C14.7797 12 14.1797 13.35 14.1797 15V21C14.1797 22.65 14.7797 24 17.1797 24Z" stroke="#676D75" stroke-width="1.5" stroke-linecap="round" stroke-linejoin="round"/>
<path d="M6.82031 24C4.42031 24 3.82031 22.65 3.82031 21V15C3.82031 13.35 4.42031 12 6.82031 12C9.22031 12 9.82031 13.35 9.82031 15V21C9.82031 22.65 9.22031 24 6.82031 24Z" stroke="#676D75" stroke-width="1.5" stroke-linecap="round" stroke-linejoin="round"/>
<path d="M9.82031 18H14.1803" stroke="#676D75" stroke-width="1.5" stroke-linecap="round" stroke-linejoin="round"/>
<path d="M22.5 20.5V15.5" stroke="#676D75" stroke-width="1.5" stroke-linecap="round" stroke-linejoin="round"/>
<path d="M1.5 20.5V15.5" stroke="#676D75" stroke-width="1.5" stroke-linecap="round" stroke-linejoin="round"/>
</svg>
